<mxfile host="app.diagrams.net" modified="2023-09-19T04:40:23.524Z" agent="Mozilla/5.0 (Macintosh; Intel Mac OS X 10_15_7) AppleWebKit/537.36 (KHTML, like Gecko) Chrome/116.0.0.0 Safari/537.36" etag="ZCFa_j8sIf4Ykl7o4-OM" version="21.7.4" type="github">
  <diagram id="C5RBs43oDa-KdzZeNtuy" name="Page-1">
    <mxGraphModel dx="734" dy="469" grid="1" gridSize="10" guides="1" tooltips="1" connect="1" arrows="1" fold="1" page="1" pageScale="1" pageWidth="827" pageHeight="1169" math="0" shadow="0">
      <root>
        <mxCell id="WIyWlLk6GJQsqaUBKTNV-0" />
        <mxCell id="WIyWlLk6GJQsqaUBKTNV-1" parent="WIyWlLk6GJQsqaUBKTNV-0" />
        <mxCell id="zkfFHV4jXpPFQw0GAbJ--0" value="Person" style="swimlane;fontStyle=2;align=center;verticalAlign=top;childLayout=stackLayout;horizontal=1;startSize=26;horizontalStack=0;resizeParent=1;resizeLast=0;collapsible=1;marginBottom=0;rounded=0;shadow=0;strokeWidth=1;" parent="WIyWlLk6GJQsqaUBKTNV-1" vertex="1">
          <mxGeometry x="220" y="120" width="160" height="138" as="geometry">
            <mxRectangle x="230" y="140" width="160" height="26" as="alternateBounds" />
          </mxGeometry>
        </mxCell>
        <mxCell id="zkfFHV4jXpPFQw0GAbJ--1" value="Name" style="text;align=left;verticalAlign=top;spacingLeft=4;spacingRight=4;overflow=hidden;rotatable=0;points=[[0,0.5],[1,0.5]];portConstraint=eastwest;" parent="zkfFHV4jXpPFQw0GAbJ--0" vertex="1">
          <mxGeometry y="26" width="160" height="26" as="geometry" />
        </mxCell>
        <mxCell id="zkfFHV4jXpPFQw0GAbJ--2" value="Phone Number" style="text;align=left;verticalAlign=top;spacingLeft=4;spacingRight=4;overflow=hidden;rotatable=0;points=[[0,0.5],[1,0.5]];portConstraint=eastwest;rounded=0;shadow=0;html=0;" parent="zkfFHV4jXpPFQw0GAbJ--0" vertex="1">
          <mxGeometry y="52" width="160" height="26" as="geometry" />
        </mxCell>
        <mxCell id="zkfFHV4jXpPFQw0GAbJ--3" value="Email Address" style="text;align=left;verticalAlign=top;spacingLeft=4;spacingRight=4;overflow=hidden;rotatable=0;points=[[0,0.5],[1,0.5]];portConstraint=eastwest;rounded=0;shadow=0;html=0;" parent="zkfFHV4jXpPFQw0GAbJ--0" vertex="1">
          <mxGeometry y="78" width="160" height="26" as="geometry" />
        </mxCell>
        <mxCell id="zkfFHV4jXpPFQw0GAbJ--4" value="" style="line;html=1;strokeWidth=1;align=left;verticalAlign=middle;spacingTop=-1;spacingLeft=3;spacingRight=3;rotatable=0;labelPosition=right;points=[];portConstraint=eastwest;" parent="zkfFHV4jXpPFQw0GAbJ--0" vertex="1">
          <mxGeometry y="104" width="160" height="8" as="geometry" />
        </mxCell>
        <mxCell id="zkfFHV4jXpPFQw0GAbJ--5" value="Purchase Parking Pass" style="text;align=left;verticalAlign=top;spacingLeft=4;spacingRight=4;overflow=hidden;rotatable=0;points=[[0,0.5],[1,0.5]];portConstraint=eastwest;" parent="zkfFHV4jXpPFQw0GAbJ--0" vertex="1">
          <mxGeometry y="112" width="160" height="26" as="geometry" />
        </mxCell>
        <mxCell id="zkfFHV4jXpPFQw0GAbJ--6" value="Student" style="swimlane;fontStyle=0;align=center;verticalAlign=top;childLayout=stackLayout;horizontal=1;startSize=26;horizontalStack=0;resizeParent=1;resizeLast=0;collapsible=1;marginBottom=0;rounded=0;shadow=0;strokeWidth=1;" parent="WIyWlLk6GJQsqaUBKTNV-1" vertex="1">
          <mxGeometry x="120" y="360" width="160" height="138" as="geometry">
            <mxRectangle x="130" y="380" width="160" height="26" as="alternateBounds" />
          </mxGeometry>
        </mxCell>
        <mxCell id="zkfFHV4jXpPFQw0GAbJ--7" value="Student Number" style="text;align=left;verticalAlign=top;spacingLeft=4;spacingRight=4;overflow=hidden;rotatable=0;points=[[0,0.5],[1,0.5]];portConstraint=eastwest;" parent="zkfFHV4jXpPFQw0GAbJ--6" vertex="1">
          <mxGeometry y="26" width="160" height="26" as="geometry" />
        </mxCell>
        <mxCell id="zkfFHV4jXpPFQw0GAbJ--8" value="Average Mark" style="text;align=left;verticalAlign=top;spacingLeft=4;spacingRight=4;overflow=hidden;rotatable=0;points=[[0,0.5],[1,0.5]];portConstraint=eastwest;rounded=0;shadow=0;html=0;" parent="zkfFHV4jXpPFQw0GAbJ--6" vertex="1">
          <mxGeometry y="52" width="160" height="26" as="geometry" />
        </mxCell>
        <mxCell id="zkfFHV4jXpPFQw0GAbJ--9" value="" style="line;html=1;strokeWidth=1;align=left;verticalAlign=middle;spacingTop=-1;spacingLeft=3;spacingRight=3;rotatable=0;labelPosition=right;points=[];portConstraint=eastwest;" parent="zkfFHV4jXpPFQw0GAbJ--6" vertex="1">
          <mxGeometry y="78" width="160" height="8" as="geometry" />
        </mxCell>
        <mxCell id="zkfFHV4jXpPFQw0GAbJ--10" value="Is Eligible To Enroll" style="text;align=left;verticalAlign=top;spacingLeft=4;spacingRight=4;overflow=hidden;rotatable=0;points=[[0,0.5],[1,0.5]];portConstraint=eastwest;fontStyle=4" parent="zkfFHV4jXpPFQw0GAbJ--6" vertex="1">
          <mxGeometry y="86" width="160" height="26" as="geometry" />
        </mxCell>
        <mxCell id="zkfFHV4jXpPFQw0GAbJ--11" value="Get Seminars Taken" style="text;align=left;verticalAlign=top;spacingLeft=4;spacingRight=4;overflow=hidden;rotatable=0;points=[[0,0.5],[1,0.5]];portConstraint=eastwest;" parent="zkfFHV4jXpPFQw0GAbJ--6" vertex="1">
          <mxGeometry y="112" width="160" height="26" as="geometry" />
        </mxCell>
        <mxCell id="zkfFHV4jXpPFQw0GAbJ--12" value="" style="endArrow=block;endSize=10;endFill=0;shadow=0;strokeWidth=1;rounded=0;edgeStyle=elbowEdgeStyle;elbow=vertical;" parent="WIyWlLk6GJQsqaUBKTNV-1" source="zkfFHV4jXpPFQw0GAbJ--6" target="zkfFHV4jXpPFQw0GAbJ--0" edge="1">
          <mxGeometry width="160" relative="1" as="geometry">
            <mxPoint x="200" y="203" as="sourcePoint" />
            <mxPoint x="200" y="203" as="targetPoint" />
          </mxGeometry>
        </mxCell>
        <mxCell id="zkfFHV4jXpPFQw0GAbJ--13" value="Professor" style="swimlane;fontStyle=0;align=center;verticalAlign=top;childLayout=stackLayout;horizontal=1;startSize=26;horizontalStack=0;resizeParent=1;resizeLast=0;collapsible=1;marginBottom=0;rounded=0;shadow=0;strokeWidth=1;" parent="WIyWlLk6GJQsqaUBKTNV-1" vertex="1">
          <mxGeometry x="330" y="360" width="160" height="70" as="geometry">
            <mxRectangle x="340" y="380" width="170" height="26" as="alternateBounds" />
          </mxGeometry>
        </mxCell>
        <mxCell id="zkfFHV4jXpPFQw0GAbJ--14" value="Salary" style="text;align=left;verticalAlign=top;spacingLeft=4;spacingRight=4;overflow=hidden;rotatable=0;points=[[0,0.5],[1,0.5]];portConstraint=eastwest;" parent="zkfFHV4jXpPFQw0GAbJ--13" vertex="1">
          <mxGeometry y="26" width="160" height="26" as="geometry" />
        </mxCell>
        <mxCell id="zkfFHV4jXpPFQw0GAbJ--15" value="" style="line;html=1;strokeWidth=1;align=left;verticalAlign=middle;spacingTop=-1;spacingLeft=3;spacingRight=3;rotatable=0;labelPosition=right;points=[];portConstraint=eastwest;" parent="zkfFHV4jXpPFQw0GAbJ--13" vertex="1">
          <mxGeometry y="52" width="160" height="8" as="geometry" />
        </mxCell>
        <mxCell id="zkfFHV4jXpPFQw0GAbJ--16" value="" style="endArrow=block;endSize=10;endFill=0;shadow=0;strokeWidth=1;rounded=0;edgeStyle=elbowEdgeStyle;elbow=vertical;" parent="WIyWlLk6GJQsqaUBKTNV-1" source="zkfFHV4jXpPFQw0GAbJ--13" target="zkfFHV4jXpPFQw0GAbJ--0" edge="1">
          <mxGeometry width="160" relative="1" as="geometry">
            <mxPoint x="210" y="373" as="sourcePoint" />
            <mxPoint x="310" y="271" as="targetPoint" />
          </mxGeometry>
        </mxCell>
        <mxCell id="zkfFHV4jXpPFQw0GAbJ--17" value="Address" style="swimlane;fontStyle=0;align=center;verticalAlign=top;childLayout=stackLayout;horizontal=1;startSize=26;horizontalStack=0;resizeParent=1;resizeLast=0;collapsible=1;marginBottom=0;rounded=0;shadow=0;strokeWidth=1;" parent="WIyWlLk6GJQsqaUBKTNV-1" vertex="1">
          <mxGeometry x="508" y="120" width="160" height="216" as="geometry">
            <mxRectangle x="550" y="140" width="160" height="26" as="alternateBounds" />
          </mxGeometry>
        </mxCell>
        <mxCell id="zkfFHV4jXpPFQw0GAbJ--18" value="Street" style="text;align=left;verticalAlign=top;spacingLeft=4;spacingRight=4;overflow=hidden;rotatable=0;points=[[0,0.5],[1,0.5]];portConstraint=eastwest;" parent="zkfFHV4jXpPFQw0GAbJ--17" vertex="1">
          <mxGeometry y="26" width="160" height="26" as="geometry" />
        </mxCell>
        <mxCell id="zkfFHV4jXpPFQw0GAbJ--19" value="City" style="text;align=left;verticalAlign=top;spacingLeft=4;spacingRight=4;overflow=hidden;rotatable=0;points=[[0,0.5],[1,0.5]];portConstraint=eastwest;rounded=0;shadow=0;html=0;" parent="zkfFHV4jXpPFQw0GAbJ--17" vertex="1">
          <mxGeometry y="52" width="160" height="26" as="geometry" />
        </mxCell>
        <mxCell id="zkfFHV4jXpPFQw0GAbJ--20" value="State" style="text;align=left;verticalAlign=top;spacingLeft=4;spacingRight=4;overflow=hidden;rotatable=0;points=[[0,0.5],[1,0.5]];portConstraint=eastwest;rounded=0;shadow=0;html=0;" parent="zkfFHV4jXpPFQw0GAbJ--17" vertex="1">
          <mxGeometry y="78" width="160" height="26" as="geometry" />
        </mxCell>
        <mxCell id="zkfFHV4jXpPFQw0GAbJ--21" value="Postal Code" style="text;align=left;verticalAlign=top;spacingLeft=4;spacingRight=4;overflow=hidden;rotatable=0;points=[[0,0.5],[1,0.5]];portConstraint=eastwest;rounded=0;shadow=0;html=0;" parent="zkfFHV4jXpPFQw0GAbJ--17" vertex="1">
          <mxGeometry y="104" width="160" height="26" as="geometry" />
        </mxCell>
        <mxCell id="zkfFHV4jXpPFQw0GAbJ--22" value="Country" style="text;align=left;verticalAlign=top;spacingLeft=4;spacingRight=4;overflow=hidden;rotatable=0;points=[[0,0.5],[1,0.5]];portConstraint=eastwest;rounded=0;shadow=0;html=0;" parent="zkfFHV4jXpPFQw0GAbJ--17" vertex="1">
          <mxGeometry y="130" width="160" height="26" as="geometry" />
        </mxCell>
        <mxCell id="zkfFHV4jXpPFQw0GAbJ--23" value="" style="line;html=1;strokeWidth=1;align=left;verticalAlign=middle;spacingTop=-1;spacingLeft=3;spacingRight=3;rotatable=0;labelPosition=right;points=[];portConstraint=eastwest;" parent="zkfFHV4jXpPFQw0GAbJ--17" vertex="1">
          <mxGeometry y="156" width="160" height="8" as="geometry" />
        </mxCell>
        <mxCell id="zkfFHV4jXpPFQw0GAbJ--24" value="Validate" style="text;align=left;verticalAlign=top;spacingLeft=4;spacingRight=4;overflow=hidden;rotatable=0;points=[[0,0.5],[1,0.5]];portConstraint=eastwest;" parent="zkfFHV4jXpPFQw0GAbJ--17" vertex="1">
          <mxGeometry y="164" width="160" height="26" as="geometry" />
        </mxCell>
        <mxCell id="zkfFHV4jXpPFQw0GAbJ--25" value="Output As Label" style="text;align=left;verticalAlign=top;spacingLeft=4;spacingRight=4;overflow=hidden;rotatable=0;points=[[0,0.5],[1,0.5]];portConstraint=eastwest;" parent="zkfFHV4jXpPFQw0GAbJ--17" vertex="1">
          <mxGeometry y="190" width="160" height="26" as="geometry" />
        </mxCell>
        <mxCell id="zkfFHV4jXpPFQw0GAbJ--26" value="" style="endArrow=open;shadow=0;strokeWidth=1;rounded=0;endFill=1;edgeStyle=elbowEdgeStyle;elbow=vertical;" parent="WIyWlLk6GJQsqaUBKTNV-1" source="zkfFHV4jXpPFQw0GAbJ--0" target="zkfFHV4jXpPFQw0GAbJ--17" edge="1">
          <mxGeometry x="0.5" y="41" relative="1" as="geometry">
            <mxPoint x="380" y="192" as="sourcePoint" />
            <mxPoint x="540" y="192" as="targetPoint" />
            <mxPoint x="-40" y="32" as="offset" />
          </mxGeometry>
        </mxCell>
        <mxCell id="zkfFHV4jXpPFQw0GAbJ--27" value="0..1" style="resizable=0;align=left;verticalAlign=bottom;labelBackgroundColor=none;fontSize=12;" parent="zkfFHV4jXpPFQw0GAbJ--26" connectable="0" vertex="1">
          <mxGeometry x="-1" relative="1" as="geometry">
            <mxPoint y="4" as="offset" />
          </mxGeometry>
        </mxCell>
        <mxCell id="zkfFHV4jXpPFQw0GAbJ--28" value="1" style="resizable=0;align=right;verticalAlign=bottom;labelBackgroundColor=none;fontSize=12;" parent="zkfFHV4jXpPFQw0GAbJ--26" connectable="0" vertex="1">
          <mxGeometry x="1" relative="1" as="geometry">
            <mxPoint x="-7" y="4" as="offset" />
          </mxGeometry>
        </mxCell>
        <mxCell id="zkfFHV4jXpPFQw0GAbJ--29" value="lives at" style="text;html=1;resizable=0;points=[];;align=center;verticalAlign=middle;labelBackgroundColor=none;rounded=0;shadow=0;strokeWidth=1;fontSize=12;" parent="zkfFHV4jXpPFQw0GAbJ--26" vertex="1" connectable="0">
          <mxGeometry x="0.5" y="49" relative="1" as="geometry">
            <mxPoint x="-38" y="40" as="offset" />
          </mxGeometry>
        </mxCell>
        <mxCell id="IDAym-GHxGksm_tRHVag-0" value="대시보드 - 파이퍼 통합" style="text;html=1;strokeColor=none;fillColor=none;align=center;verticalAlign=middle;whiteSpace=wrap;rounded=0;" vertex="1" parent="WIyWlLk6GJQsqaUBKTNV-1">
          <mxGeometry x="120" y="600" width="200" height="30" as="geometry" />
        </mxCell>
        <mxCell id="IDAym-GHxGksm_tRHVag-1" value="case a) 예상평가 -&amp;gt; 대출신청" style="text;html=1;strokeColor=none;fillColor=none;align=left;verticalAlign=middle;whiteSpace=wrap;rounded=0;" vertex="1" parent="WIyWlLk6GJQsqaUBKTNV-1">
          <mxGeometry x="160" y="650" width="200" height="30" as="geometry" />
        </mxCell>
        <mxCell id="IDAym-GHxGksm_tRHVag-2" value="case b) 대출신청 -&amp;gt; 예상감정" style="text;html=1;strokeColor=none;fillColor=none;align=left;verticalAlign=middle;whiteSpace=wrap;rounded=0;" vertex="1" parent="WIyWlLk6GJQsqaUBKTNV-1">
          <mxGeometry x="720" y="650" width="200" height="30" as="geometry" />
        </mxCell>
        <mxCell id="IDAym-GHxGksm_tRHVag-3" value="1. 예상평가" style="text;html=1;strokeColor=none;fillColor=none;align=left;verticalAlign=middle;whiteSpace=wrap;rounded=0;" vertex="1" parent="WIyWlLk6GJQsqaUBKTNV-1">
          <mxGeometry x="160" y="690" width="200" height="30" as="geometry" />
        </mxCell>
        <mxCell id="IDAym-GHxGksm_tRHVag-4" value="대시보드 서버" style="rounded=0;whiteSpace=wrap;html=1;" vertex="1" parent="WIyWlLk6GJQsqaUBKTNV-1">
          <mxGeometry x="360" y="720" width="120" height="60" as="geometry" />
        </mxCell>
        <mxCell id="IDAym-GHxGksm_tRHVag-5" value="" style="endArrow=classic;html=1;rounded=0;" edge="1" parent="WIyWlLk6GJQsqaUBKTNV-1">
          <mxGeometry width="50" height="50" relative="1" as="geometry">
            <mxPoint x="240" y="740" as="sourcePoint" />
            <mxPoint x="350" y="740" as="targetPoint" />
          </mxGeometry>
        </mxCell>
        <mxCell id="IDAym-GHxGksm_tRHVag-6" value="piperUserId가 app_requester_id&amp;nbsp;&amp;nbsp;" style="text;html=1;strokeColor=none;fillColor=none;align=left;verticalAlign=middle;whiteSpace=wrap;rounded=0;" vertex="1" parent="WIyWlLk6GJQsqaUBKTNV-1">
          <mxGeometry x="240" y="680" width="120" height="20" as="geometry" />
        </mxCell>
        <mxCell id="IDAym-GHxGksm_tRHVag-7" value="" style="shape=image;verticalLabelPosition=bottom;labelBackgroundColor=default;verticalAlign=top;aspect=fixed;imageAspect=0;image=data:image/png,iVBORw0KGgoAAAANSUhEUgAAAP8AAAIaCAYAAADvHpvSAAABRWlDQ1BJQ0MgUHJvZmlsZQAAKJFjYGASSSwoyGFhYGDIzSspCnJ3UoiIjFJgf87AySDMwMOgyaCcmFxc4BgQ4ANUwgCjUcG3awyMIPqyLsgsmW/xzOeNTxtmxp1VrE7tmYipHgVwpaQWJwPpP0CcmlxQVMLAwJgCZCuXlxSA2B1AtkgR0FFA9hwQOx3C3gBiJ0HYR8BqQoKcgewbQLZAckYi0AzGF0C2ThKSeDoSG2ovCHD7uCt4uAQpBHq4EHAtGaAktaIERDvnF1QWZaZnlCg4AkMpVcEzL1lPR8HIwMiYgQEU5hDVn8XAYckodgohVqLFwGDbycDAzI0QS5jBwLDtOgOD6EyEmJII0CsLGBh2dRYkFiXCHcD4jaU4zdgIwuYpYmBg/fH//2dZBgb2XQwMf4v+//899///v0uA5t9kYDhQCACypl3kVLQzTQAAADhlWElmTU0AKgAAAAgAAYdpAAQAAAABAAAAGgAAAAAAAqACAAQAAAABAAAA/6ADAAQAAAABAAACGgAAAAAfDkVRAABAAElEQVR4AeydB7wdRfXHBwhdEpHeQxOkqEgIIbRAQKQm/CmhSBEBQbpA4I+gQOgdKX8w0jsiSAdpKoQgRYQEpAjSAtKEQEIISZj/7zvJuZm7b3fv3vfufbnvZc/nc+/euzszO3tmzsyZs+f8ZhYvcjVom222cV9//XWbVP369XPHHntsOH/RRRe5Rx99tE2axRdf3J1zzjmV888995wbPny4+9e//uXmmGMO16dPHzdw4EC37rrrVtKUP1qXA2+99ZZbeumlG1rB9pT56aefum9+85tt6jF58mQ3yyyzuNlmmy1c+/zzz90888xT+d8mw7QTX331VeiP/L3pppvcsGHD3OjRoyvJBw0a5Lbbbju3yy67uIkTJ7p55523cs1+jB071vXs2TPc3861wjGLv7MUEf5WeICyDq3BgayO1JHaNaPM9tbnyCOPdFdffbW78cYb3UYbbVQpZtddd3VMgkOGDKmc6yo/svhbCn9XacEWqWdWR+pI9ZpRZnvrg4Y766yztjd7S+bL4m/3esqWZH33qlSPHj0a/kDNKLO9lexugg8fsvhbzvzt7SVlvpIDXZwD5czfxRuwrH7JgfZyoBT+9nKuzFdyoItzoBT+Lt6AZfVLDrSXA6Xwt5dzZb6SA12cA6mmW14NlFRyoORA9+ZAae3v3u3b8Kd777333GKLLdbQcptRZkMr2MULy+JvqfZ38YYtq19yoL0cSFX748Le+ORLt8Fv/+G+rhkBEOdybvbZZnGP7vt9t2SvOasvlP9KDpQcaAkO1Jz52yP4PNmkKd71+79nW+Ihy0qUHCg50JYDNYU/OeMv3nMOd+pmy7pztlzerbTQPJUSX/7FWu6fh63lnj+kj3vu4DXdXXusVrnGj48++shtuOGG7vHHH686b3+eeeYZt+2229rf8tgNOUDE3d133+1effXVpjxd2cfqY2uPiy++uCrHWmut5fik0ayzKNxx51XcsvPPFS5vtuL8rv8l/3Bjv5zsVjrnqbQslXOEWdqncjL68cEHH7h77703OlP+7E4cePPNN91OO+3knnjiCXfSSSe5X/7ylw1/POtfHNOo7GPVXOnx85//vOrMU09lC/Ey35yrIvhk6jVXD/f9xb7h/vLvT928c8zmGByg8V9NaWMjWGCBBdyf//zncL38mrk4wEzft2/fECK7/PLLN+3hyz5WH2vbqP15wv/OZxPdfz7/qnKHLyZ97V78YHz4/8Be3w1qP6r/v47oW0ljP1D5lllmGff000+HUy+//LLbbLPNAtDCGmus4Z588klLWh67GQcA3vjVr37lbr31VveNb3wj9+n+85//hH7yxhtvVNIRY3/44YeH/ywNY231kUcecSuttFK4VvaxCssK/ahp7Y9LwYi3680vucPXW9LNPfus7sKR77oPx08KSfpfkm/cAzAI5yFQUEBN2Xrrrd0SSyzhHnzwwXB+n332iW9V/u5GHMhbSiYfEwGmn0yaNLVfcZ21vCFJMTgwmBhNmDAhpOd/2ceMK8WOdQk/Rb784Rdu39teKVZ6RqpRo0YFo8/DDz/sllxySde/f/8A68VasKSSA43gQNnHanOxLuFfcYG53aYy8nHsoQX+a/+d4M4bMaZyl3eO7hd+L3naE5VzaT9eeumloP4h+EarrLKK/SyPJQc6zIGyj9VmYSHhn7PHrO6CrVdwW6z0rTYlmvAj+Cb08e82GXQCo8+4cePchx9+6BZaaKGQ5PXXX09LWp6byThgqDP0jRVXXDE8/SeffOJ69eoVfnMdq71RvASwcxzLPhZzI/13G4NfWrL/WXXBVMFPS1vk3Pe+9z0Hqu/PfvYz9+9//9v95S9/caeeemqRrGWabs6BRRddNKDyYtR7++233X333RdeARvI9He+8x135513BsMxCNBnn312KkfKPpbKlqqThYR/xJtjg2Hv/XFfhSOv8j6fOMV9/MV0owyzPjN+rVmfu88999zutttuc6hmyy23nNthhx3cHnvs0XKQx1WcKv80hAP2Lj6vsAsuuCAIOBDhhxxyiFt//fUrfeOYY44JENsYEb///e+71VdfPRVws+xjeRyeeq1NVB8jbvzu31T52kVNTZEUfv7n0X//+98w0ndH4MS85+6q17IixDryPGllYt2nbyy44IKpRX/88ccBI3/22WdPvR6fnNn7WBp/4U/Nmf/FQ/vEfMz9XUvQ0zJ/61vfSh2509KW52YeDjAZZAk+XMChp4jgk7bsY3ChLdU0+PWUF1+eUK+j4J23x04MJSe1hKXKiL62HC/PlBxoEQ7UFP5a9Ry5/xq1kpTXSw6UHGhBDqQK/+d6DVdSyYE0DowbP941un80o8y0us+s57L4W3PNP7MyrHzukgPdnQOpM3/80G+N/cptfu3LitJLD5OM08a/Z9cmqfft+m1H/H9JJQdKDrQeB2rO/O0RfB5z0hTnBl7dsRiA1mNXWaOSA92HAzWFPznjLzZfD/frDRdzp2yypFvxW9Px+Z7Zb1X31L7fcY//dGU3Qp+bd6gdt/3ss8+6nXfeuUPc/Nvf/uZ23333zDKG7Lije/755zOvN/sCWzvnhUnb/T9W5NqPfvSjAHZh5+JjI3gVl9eZv1988UX3f//3f+7SSy91r732WtNu3Z152Aym1VT745vOOot3Vwxezi3Ta6oqP3DZ+dymV73sPvvqa7fmJS/ESQv9xn/7gT/9qVDarEQfvP++e/ihh7Iuuz+p/J/tt1/m9WZfeEghywwANakG0lEjeFWzDk1IcO2117qDDzrIrbvuuiEU97hjj3U33XxzAPZo+O26KQ8bzqdpBdYl/Ev1nLMi+OTvOedsbvVF53Ej3hrn5ukxi5x1ptoFvpDOn9QYmvUA3aVcnFa6I4zZsBNPdLjkHiFADvzzB22zjbv4oouaIvzdlYfN6uM11f74xu/Kt//9cdP9+SdM9orvnxCS3C7j3lP7rhI+z+5XDd5pZbzyyitu8KBBbmFF8q2rGP5npqH6cB0Qh1//+tduZaGyLLLwwkEFJnDD6PY//jFgCy4oIem/zjohGMiucTxNgUHLLbusW3GFFcLv+NpTQgkiD+VuO3hwwA6w6++++25Yeiy91FLue9/9rjvuuOMqwBF5dSI2YZOBA92hhx7qFlMwyu9///vwDIcddlioB3W5SJ28KHGvVRS08ve//z1kyeNV0TJndLrxei04RLh9u0zTfPDrX0twXnk7Qr0vTQ4+gPlndKzw/o753/8Nf1kmDv/tb+2S++tf/+p+ICQoqDvysPKgTfhR18yPEW+fO95wB669sJtbYb6/ffoj99EEnRSh/ucR6D2sv9nt5Q5FZb3zzjvuoAMPrGS544473LXXXON+85vfuAU1OCCEhyqo4y6hvRLS+ZOf/MSdOGxYQACi8cn7j+eeC/k/++yzsJa85Q9/CLPnKaec4gZuskkFiPT88893F0oQF9e9jz/hhFCPJ2QroDMyGBFWfLOE9yMtQw444IDgbnyC0uXViZBkoMcIHf2D7vvtb3/bHa/B6xaVg9Djmgp01RdffFF5xrwfzIrw5KtpSEd5vMorp5WuzTvvvO5EzfxG8OIPt9zittxySzvV5ogAw4cYyQc/fkPyYZk3duzYSj6QfIj+g7ojDysP2oQfdQk/93/1vxPdIfdOZXY99XnhhReCgCLMwHdBr8v4c8YZZ4Tf//M//+P40OhjBdM0YMAAd/ZZZ4VrNDCdgkFgnnnmcSedfHL4hIv6QojPPuecEOhBKOell1ziRgstyFCIjzjiiFA26TE6rb7aaiGikM5CZOEfb789hBhz/Z0xY9xFF17oEP68OpEWPLqLFAhlMei3q5yjjj7abaMBBbpYRq4+a64ZftfzVYtX9ZTVKmlpvz0VudlDgTjwqNnUHXnYaJ6lQndn3WT5b87pNlruG255QXeD5PPvTye6v7w5zr3wwVTVPysf51FjmQlM8Dm38sorcwiEin+QDENPjBwZQn6ZWY2I/WfmPlcCfqYGi9UkvKwhEU5ovvnmC4LP79lmm80REz5RmobRStF9ABGda665Qn2mTJkSBJjyjQCDROVkwBmjgSCrTqSff/75K4KPZkM+A5PkOmAU1KdeqsWresub0ekZZH++//4OaK0HZADt2bNn06vU3XjYDIYVgu4GyeeMTZdwP1x+KppKXJGD1l7EPf3ueHfwPW+5T76cugSIr9vvZbUGZg2Iao1aD/07QmjFMITKO2r06IDrd+UVV7jjjz8+pOOL13l8ELDzzjsvzCLrrbde5XrejxgJljXll19+6agPnZJBhldEC0wLHX1D4CIMBsSD16pTfM855pgj5CO/EeooA0y9VItX9ZY3o9MfIeRdYNvvFTBHDN2WVi/TogDtXEH2G+gTaYK9pg0YswnJhzcfRvESwM5x7G48jJ+tUb/bGPzS3klv/e1eqYJvleiz+Lxu9++nx11bGkAXmJEP1joeYXzs0UfdOREKyxTFb7OuI5STGeICqd5GvMtfbdVV3QMPPBAE7Lsqi05SNKTzzDPPdI+PGBFQgwCHQLhXVXnUic5odWINf9ppp7nNt9gi3DqvTla3+PhDQZGzjKG+vM/GZtEeqsWr9pQ5o/IwgA8fPjzwhUEXdZxPFi2yyCIBsut3ysPanzbndTADNYRmxVsRDKPw+ALZiNKoO/Ew7fkaca6N8KcV+sQ749xHX0x2Hwimm+MXsvKPmyiwhQlTz435fJJ76PXP07JWzjGTXn/DDUHdRnh30yy+yy67VBBajjrqqDCiY+3fSgahfmuvXcnL2n3zzTd3O8tyvIDi/0+QlsDggNrNer8WEMgushBjccaaT4ehHnPOOWdAhMFq/45maOrEayi0idNPPz3cO69Oafdl4PjBD37gNpezzhpCmVlVyxPsArXqV3nQaT9q8SqZvlX/o1XZAI/Wtk6/fpUPy6QsOlO2HgQcq/9RQ4cGdGf4DWG/mV1a1gBt/cYbIwbxNP52Fx5m8agR51ORfBBMo+9cONp+tuv4zwPbvvbLQ1bBsvvNb34zda2MCv2pjH6motdTIfKiIgLskEaff/55UPVN7YzT5NUpTme/Wd7QWTFOGl2jNxngFaYRaXm7kUZ5vEpL3+xz4OajwTWS0spEC/xESD5ZbV0i+RRvgTT+krumtf/Jfb7j+g7/Z/E7RSmf3W+V6N/0n1kCSAocNbII41lWZ8jKY+fJm3dfjIZZlFentDwYNpP0royHr0V+C/H1tJnLrufV2dJ0xyM8yWvretpkZuVhrX5RU/jnkxdf2uxdq+DyejUHOuP1VvUdy38lB/I5UGjNn19EebXkQMmBrsiB1Jl/vhqbKXbFBy3r3BgOjNOSptH9oxllNuZpu0cpWfwtZ/7u0b7lU5QcqJsDpfDXzbIyQ8mB7sGBUvi7RzuWT1FyoG4OFBJ+8PhjTP4X3h8f/tt5/kP2f5nT/uZWOvvJqjxpNXvmmWfctttum3ap8LmRigXYUdGCWbSNHHf+8Y9/ZF1u+vntttsuePw1/UYtfAPa+RIFW90sEA/eOecRbr0byoHn8ccfz0uWe42YjBtvvNH9VtGfM7LtcyvZChflNllFCket+r/EqSP9oXf9y3M04vfYCZPC39H/GVd1jZOTpnztP1Owf5zH8sbHe+65x8vTLj5V9+9bb73VawfXzHxy2vFC88m83uwLeufvFRrc7Nt0WvnCP6jrXr/4xS+84h78Bhts4BX27OWV6Z944omqMuIyJfxewu8l/FVp0v5Qjvbx83IIqlyWZ6CXV6XXlu9e3pqe9h86dGjl+sz4I+Zv/Pw1Z3425Th3y2o8PnbwYScfKGtXnu+c91TuTj+tMPCVdWguBwhsOvfccwMuAjsxg+VHJCd4flmE8w5BQOsIfKUWEeL9qGJE1KErScFyAAtxtALEuHbZZZe5s+QujEdgSdUcqCn8WcJtxaxy3tPuF+staX+Dqr/Gb55xxw9cpnLOfrz88stuMwW/4Pa6htBXCKQxIt77f4XWspQQdfCQQ/V79dVX7XIAzMCPm3Bcdmd9+OGHK9f4AWgEQSEE7cQAElzTDBHyUC4dIy4XFZGlB15gRJHhz2/AEXl1Armnv3zL91eoKt6BNyhegPRscko9+BB9WJQAuiDcGAAQjrYcuuuuu8J9iBHYRAAlqNBGMT/XFG4AoCUWCXf55Ze7LaYFKFl6zYYVviEwvxRCDmAk1BWwFAMewe9eM3YAXpFWFepSS123e8RHvPRQv2lzCC/L3r17O1ypswge8vxPC+XJeELMBAE9CwuJicAsYgb+KGQnA26lzHMU7g1R9ncVw2GxAOA78Ky4XJeU4ECsBvA7qfbb9aQKj9rPuV898G9LUnVMXps4caJXfLsXSIcfMWKEl7AE9czU/ptuusmrE3o1alD5UNk23njjUKb8270i+Lwa2Ms/3iu4w2trby9/fY/ar0fyP/7xj70iEr2EJ/w31RK1T8LpKf+xxx4L6qc6klcH9wIO8RpQ/EYbbRTqpCAfr0HAH3300eG+eXWScIX7qAN6QUn5Dz74INRLcQleyD7hnGavkKaI2q9OG9JqZvTaf94rHt0rcs1rsPPDhg3zEgb/05/+NPAI1TjJTwlZeE6eF4JXGiTDb/tiCULZkMBKvBCMwpJEs7LXvvdeEFnhGs8GH+ChkI99v379vIQuXMtSIcPFjC9hNYT7anD38Cep0sdl0i60J21lPBF+Q/hPn6Etr776av/pp5962RFCWkWBeoX5hrvfcsstXoOEV6yEl9bhaevddtsto2Yzx+mYv/ETMypWURHht3X+vS9/XJU3+SceMOi8NKpUwUoyOrUJv52k8REk4fmFtSLnFdoZ8h577LFe8fiWNBwRfs0wXkE74b9mjrCuFGJP+I8wnHrqqZU8DB7UQ4YgLzjs8JvyjQQj5hULbn/DMa1OCAgdkQHEiHwInZFQgkL59Qi/CSdlICwMTnRsPpp9Q3lCDAqDQZKfUnnDGpe8tYRfocxe4baVsq+66qpQNvxDaBBS6i1QE4qrUFZHqiRI+aGQ3vAc1HePPfYIA3icLC4zTfhpYyMZUP2QIUPCX9b3lMkkYKQlg5f247V8CO2o6L6qNrF0M9Mx5m/83DXVfjG3DW12xSh3/09Wdz/69vQIuc++nFxl3bc3AJYZuCxU1xjMATXUCFVcWkFYEqCKAqOljhAug/7D2k0zcVBRUfuxHBuhdhs6DKolqr9mRrvs4vugIhLuSX1Yg5I3RhfSDBii70DyyasThbNU0OAS7kNdNbA48huB62fX7VytIyq4kQaCEPsOIhAfQz56/fXXQ/2T/AThqAhRV2LlJfwBe5B6SihDVpZBP/vZz9xOCp+WNhVi63ljEi+VitwjTrP33nuHNTjrbu7LUqkeivsMy0JbniTLQOWnriA8AfgBn2RUdkcK9YnlU0nVHKgp/L9+8I2KUPMqz4SaAcBe7XHEALjD6gtVztkAYbdDoFmr0ShGNI6RZvUgsJwDkJPXNHHk1l577RWwABAw1tp0TlB5ilB8H9auCDb1QaDoMLxeMiItnY0BoladLA9HkHzIF98LlFrWsO0l1sp8MGzZRyN3QAxO42eMdsygIw2qcmsGQ54boq5LL710GFAJGeZDuXw4z7NjlOM8thUGhH322adSVtEfjzzySDC2WXoGS9bpD2mfhRig066392g2GqC76Dvcw9b8TChmQ2hv+d02X6wG8DtL7U+my/r/1qdf+qv+/p82lzVae83IXoYsLwHxqGesK03tR53r27dvUPFRyVn7orpBrBE1Y3vUPNRCVHpsANgC0l71oSqjvkOo/ULSDWtwAXn4QYMGeQmpF6pMWDers3vNFKFO8hnw0gK8ZqaQN69OqP3qVCGdfe27775e6MShvpopvYyLQS2tR+2XEdSK8xK8UH+el6UQ9hDqh83E+Dl48GDPc7Fuh188L8TrTXVaf8UVV4S8hx9+ePhvywqhFHuenWdmKcUrOaHfBBVahsDwCk2DV1h3b7311uFZKDdLheRakmSc9BJCf/HFF3sNXp5lEPYD7D4xxWXSvtQ7XvPHPBFUuqc+0HPPPRfSYpvBPsASDB5wHTsDPBMwS0gDf2ZWivkb86Dwmj/O1N7fgrcKhiUaF2OTMO6DQYvyEHgEnGsMCprpK8LPmk5AmmGgoDMhzFdeeWWoBkY63h3HlBR+OjZ5KJv3vxgGjaT6+z59+oROyvthoQuFQYHreXVCqJK2AVmUQ8djYKKevF/GLiCV026XeZRWFOoX143EGLWk6oZrGOxY1xvF/GSNLnW9Ivys3TGCMhjw3FLrvd6yVAx+GAx5Vp6Z66yTMVxCglnz2mEnPAP2FL1J8PAJyupI4WLKF7YEDLncg7oMHDjQv/fee1Up4zJj4U/jCX1Gqn0l/1ZbbRXqiYEPYkDQm6RgB+KeAh7xDNQzM8X8jflQheTjR/7ZPfmbs1yftfqIb82jL6V+zqlXdqaaxXea8MWE8Dpvlmm7/8TX/Nde4JsT3NwRQk58Pe83eSdO/NLNJZU2jb6a+JVgpXukQkLl1SmtrElfaWOTWVwVxqAGEiHTfJKWXOdmcRttPCDj2tTTX4z/IqjjaXwJ/JxzrmBzuP7qm92xJ0yHxp48aXJ4dTnHnFO3WEve5OspXwfbylxzz5W85HgOdRYX5x33+Tj3jfm+0SZtrRPjx40P0GnwOEntLdPKmTJ5ipt1tlmr+tMk2TVYWsyTAqxi+WaWY5K/s64zwM3CBzXfmLDmo/e4PneNtL/lseRAyYHuyIETDnKz/eJ4VwXdPeVLGYhK4e+OzV0+U8mBNhyoae1vk6M8UXKg5EC34EDbBVi3eKzyIUoOlBzI4gB+HpP12r2m8E/ZZDU3Ze11s8opz89kHMBXA+eiRlIzymxk/bpyWbP9bYSb7cF0+P3awi/Bn3zgMV35+cu6N5ADn8pJaq4G4/Y3o8wGPnIXL+qUTOEv1/xdvGnL6pccaC8HSuFvL+e6UD42IiWUmdDmNFKAk1NEX9qlhp6TV6e7Wz727J40o4n9FC0keEbXZUbdv6baT8XWuORF9+Xkr90355rNjdx7auCKbeMlXxb3YrQl19ra3eeziVPcXNrZN2vHnhn1sK18XzZIJZbgPu1km+b81KG6zzJLKDOrXOIt2AyzmcSGm9tN21L9LYF8yCOxmberWfYHigt5WDEGMzPVnPl/88yHQfBh0qfagtuE3piGh5Cd44jgQwwWdj6cKL9yOaD4dDdSuHV41DWaCJBi48u1o81PG32PvPLYnfdwgYMARlJS63CgpvB/IbdYKG3LLs7lnU9eowOy+y477a6p3WxBeYEI0WRHViLJ5GfvFlVY6xCBcsonOVxnJ91N1XFOF6LLMoo6W0khqGxsWURQyLvJwIEhEm4xGapA4CEfIcPszLvcssu6/ffbrypMlHqxo+wiQo75yZ57uiO1Myy7xUICkqjMYOGEvqgzMFUQdd5VOwIvqTDktfv2dcMVnWjEK5b/Pfpot4IiCpdQ2DGqNpGJdyl0V0FBIdmqCnO+4IILwm/4Rd3hx9ZbbeVQzyHj10knnRT4VktlJ7IQ/rKtNUT02+BBg9zCCy0Udrp9Rqg5zaSztRU7qD6E1tYi0I+oW0w8H/BcPIdwHhw7OdM2LGUskjGvnb8vNB/4jeZBpGVMp516augDKwrFid9GWX2V6/sp5PmIww93G2+0kZtfGkwjIxTt/p1xrCn8VMKE2I5WsU2ufsXxKULskHvgAQe4LbT99iNa+22pzryvwkRZjxKSSZw3W2OfcPzxAbKL0Fu25IZ4FcQaTdF97mYJ74nDhrlLhQZ7fgGYLPICFzZBA4wQdtxGAwaEQUSBQe403Y/dc59S56duEOtiBoPNBYF13/33B2wARdVVQpEJGU1CWrHFNwJJ59xeaL3jdc/bBDN1wIEHOqECuTvvuCOUDR7B9ddf727Q4PInqcGonmxhvf4GG7jjpPJDf7j1VseW4gpQcbvvtpv74Q9/6O7VUmBpQVtRNjHxxi86/NmCrxIoSsib9cVgB3+/UlgvAxADK8c7NOgcphlZEZBZWTt8/qV//tOdqzqypXqRmAy0A8KI2UodUhBQsBMoIChgAV6r9mIwoe7w4VDBekFp7XzyySeHwRfcAgZ9NBCe3Yi25D63qF/sKRgzBhiWX3l9lbwskxTY5Yaofz7w4INVMRxWdlc4FlrzZ6nvD+7+7fCMyevPvz81bpyRZbVFpgbSgAX3mmLl6YgwV9BK7jyBO76ozgGeH4QAMChAdJb11l23aqRWdFbYuRX1FTAOcNwOPeywkD7vi/fSF118cQVYA8Fn4GFmhsCrYzQf/rvfubvvvtv9QFoJWHoQdbNZPZzI+fqnngXgSAYbRS2GGYVZnUFna4FM0NnosHQeQZS5h9TJjZaSRgMB2MEsyfMvK61E0F3hPDPeNdI6GJzAN4SY+TfffPPwu+jXCy+8EDr8XXpOAzF5XQJwxhlnFC2icDra+qCDDw5CIpTdQjDaAJKAu3ereHaktC0GOHAXbMkCUAcz7VgtkxQa7M4WOKdRsp1vkcAPFSbj4Gnw8GhtCoeuzNTYQBg8AYLhnkwoo0eNcmuttVZmX+U5oO233z6Anti9u+KxkPDzYMz6SSG3/z0SEXhDfj911LZ8HAGTAKDzZs1+jMBm8EEYjGIUHAAbIVRUCGGKt2zm+m81IxchhfxWBJ8ZD9Vc0F4VFFnW2xDnQawxxBwrGyQgZvVahPBDzNZGlK04+fAXQBLK30fINvCAWe5kzTYGuml5ON4rBBoGOFCLYlK4bUX4AbSsl+AnQKYm+ORPPm+9ZWalZ7B6RaCtaFe0P7yHeHYs/qAupdGuQhC6SgM0ws8goNDjkAwVX6Hd7gnt1QDgCLN9TMl2Blgl7lP0n22iJUUSAUrhv26i6likr7aH93FdW+F3XWr/RVsuk1rn23ZaMZwffcBqVdef2W/Vyv/7tH69UqoS8FsfaOZ7OkKhtUSvC6XH6E11cojZDwJtB9QdozeUVvH/9rfw0RB3LrzoIofVmc9nKpcPEFHYAOJ6UHCMzqOY9MoSgGt0FEPIEagop9xoza5x2SOmbUBBh2VNyzU0DAYbOnNMNhgyMKDqvi113T7UUSAccfK6f8NPkGw/UhsY/Xsar+1/o44PypoOAtG3NXMvJMHDfgHxP4ZhS95vhx12CIM+iD+gFe88TfiHCaGZpcsoaVfvajnAcgV0oDSinUHwseUDaViaEVptPE7Lx7kifTUrb1c6X1P4j15r+uyy8bLzVa3/0Qb4rPCtOcIzz6b3fnaO4zw9dGIaTdZIjxqIqoUgAxudpJO0dgWymRFeyDMBassEKqiQWkO/+eabQQ1XKLLbNJphk2Xl/UdVxriDeo4Kfow0EgyRdIpNNt3UjXjsMcc6n/UmcNikMwLvjjX/tddeGwToRBkOqRvEDM+MeohUXerJehcYLltCACnOf8pdTWnBGpxbuAaQEIDCUag/YUbbTMYs3otfoaUOgsr7cQydWe/qQ+YCX9SRGe5grZXRIh4Ttj12h2YQmP0s6+xz0zTcxSdkvxECUeYteTvxI7XRAYJBR7WHT9AUtQ9txLJIiL1haZRZiC4I6CPYkR6Xqk97gE24l9b2tahIX61VRle4XlP4G/UQCJxh0mHt7qV1FhS/e2ZrKyy9P9A6G8MWVne7jlDNq7X76qutFgxfm0pI0waQZH3JT2eJ6VS9NWBTiEFahy+v2RqQR6HdhnSsxTEonip1HGG7UXj88Ssq1ttCj3UHaSBiYKKezOiQIMnCGpXZhjcJgiULzyn0mXB9zz33DJ0XyzvWZwYBlh8Qa12s13sKSBPtQDvcBMMWa3Huw9qfNwKCwarwxHgTCij4RV2v1zOh/lPH3YR3h1rdnrJq3RIhBtfQPgw6UBj0pvEsqwzAQ8ObEx2N2FOBwRpr/1YyHDNgG6W18zDZRDbTBMH6nH7DsuwKLSfoD2nprawifdXSduVjFZLPlHOOd+7XU18z2UN99cufNdS3n3UajGfdacS5xTXz8RaANS7qvdkESMOakZn6BaHtkpa1ogkc1wD1TCPuwyvBLMJwRHmsFZPEDPOJACxZJx4oQf9CqvLlWrYYoepjB2DdmEY8A/Vkg5IkoXZTflpelhGCAasasJj555d6m7VGRjVmGZFFqNHx2tfSAdAJn5ODo11PO6L1mBCnXW/PuXrLZMCl3ln8SNaBdkLlN4Tn5PWs/2l9NSttq57vceEpbo6Tq21jJtOFDX6NerhaEWE0aCz4yfsm878rZNnXtExIo1qdGiFLE3zKIm9sYEyWb4NP8rz9TxNsuxYPfHbOjmgPSVpQxs48Cq+sMnhAvqzdarLWy3n3aoVraBT1EHaaegWf8pN9rZ57doW0NWf+zgjpZc3M7I1qn9b5mUU//eRTt9TSS80Qnn704VRfhIUXmW7/mCEVaYGbMhs2WiiaUWYLsKolqpAW0lt45icWOCseuJFPt3JOYYzz9Y31OYW149JUc1M7MnbDLOm29Y49aDPK7FiNZo7cna72zxxsLZ+y5EDrcoDXoHPLeF5tBm/d+pY1KzlQcqDBHOih3VQqRa751NOuuYj9lVuVP0oOlByYwRyoMvixacc7t1zvFl+iXOXO4HZp2duPa+emHXkP1Iwy8+43s11L8tc27cA7rYo6uldfVWEt+octruW4U9mWqzOqWeuebGHOvnutTnK8qauKL7/8cthjkH0G7WPbgllB9ZZp+TpyZP9H+T90pIgukzeLv4UMfiuc9WQA55h/7h5u1CFTFwbszAvhwPv20f3Cb75WPe9pN/bLyQHJ519H9K2cb6UfOP/w6UyqdU921CWGvLsRW6trv8EQmGXPhiOXRcfZuc4+4likzUw7+7Ytdb+aBj8TfGr9yYTJle267SnwareBgCOCD4HkY+fDiRb60i6uoeGxenYWzYh7dtaz5d0HsBKCkYjXsM8tt9ySl6W81kkcqCn8CDH0TjS7W904l3c+eU271brvfve7wZGHMFKCYyBcL4nAIkqL8FmcSLQTa9gXnusAMWjX2ABaYf7i+HlL7+JyuN6/f3+nrbWDy+wN8l3HpZMQYiL18KjDJ59wWkgqePC75zdhpsTzE1gD5oC2EK+AdVA+8QPLKxZBO826nygohLpCVmeCdqg7+fIovifppA6HWAfcf8EMiIOH8srpatcQfgtaKhIWfeaZZwa+xM8JbwHkyGtT+kiyD1j7gQdA224hgBYCfGIi2Iq2Jd6A30ZZfZXreypGg2hM4izwEu2qSD411/xLnDqyam1j/zn2+79nwyc+Z7+rMumP4trDVs3s/S44Ki/hDVsrK1Aj7K0unoZttFkXspc622bzgdhiWWqzVzCPZ62mQcPLvTbsvW7XyS801rDNNPuys2c7W0NTHnnWW289r6CdUN51113n1SHDb8pmS3BFy/nnn38+7B9/yCGHhGuC+gpbiSvSLtRJ/vFekFLhmrwOGXm8BrGw7bUCZcL5rK/4nvLf9+qQYZ96gUt4DVZhq2x5N2Zlb5nzWevHrApKxfdso61BO2yxvtFGG3kFPlUlj8tki234qoE6pBkzZkxoe9owr01px2QfYNtuCb3XwBD6BffW5BPKvfXWW0N6tjFnW3QN4uE//SCvr5JZgT9eWqMX3Jpnm/RWp5i/cV0LCT8CHX8oIBZy+21p/j7mc8/nH++Oi+8VfiugxSvG22MIorEeeeSRivALw6+SngGC6wo7rQg/A4XRMccc44W4Ev7S8PKl9xqB7XLlqJndMxgICSc0GBdiQVTYqVcsgUfAFaxTyccPRaN5zTie+/Jhr3nqpBmoUuc777yzKk/Wn/ieGPco5+23364kFxRXEI7KiRb9kdWRsqrLIIvQKfjI89zSwLwwBTz9wChZppCUvFCKwmVFOHoBt1jScExr07Q+IJAUf9ZZZ1Xy0oZCVfLkR/gVv+GFKhWu06aK8/AK5a6kT+urXET4mWi6CiX5a/UuZPBTRw3qfXINb/+TSD5bXz19eyBT/YlWQ72WEAQkFwuoIbrNaNVVp4N/WBQaaDYQyCkLKsLOiOsXCurKiCAVAjiMAmKOoLqAbSIIh/iANCLGGxWcEFIQZgg7BiMOVR7cOwl/iOknL8AUkGajCogEKmO9xDOxtCHU1YjlTnckWfZDzIYFQoF9R4gy8fgsAdMItfp3glRjyQXu4R4Kc4ZqtWncB1jOEVod9yn6DzBgRgRfWcAPAWWo/vTTIn21Pe1u922VY801PxU1Ab58u5VS6/2nvb4Xzr951HSrPydePny6tZ811PDhw51myrBeNsiruMAYdcXCdFlvQxq1qwQYdB0D+ojLsN9g4NOIpCPq7bdC0U2LBqNTghpMeCvAkQj2Pho0MAYuLVw9rNVc46MRM3w43xHimQhm4ZmMYrQgO9fVjwym8J11v5EFbuVt3AG+AAMk1ngANW1zjaJtyr1ov969e1fsPJzDTgOCcTzhcD5JRfpqMk9X/F9T+E3webgfrjh/ZSDgvH2+veBUNBqQfOwcx3lnn148xhqEh1dedPojBIedJGLvMXwxwhNDj6HGhJ8GQyi1DAhCCkoMoAtZROciD6G5IOEC1pFGdCiAM6QaBRBHIgttlsJCD8Q36Dm8igNdiNmqVudJu098DrBIZhm0DgY5AEIN1CNO19V/zyWUIqC4fi5EHvhHuwNswrPDgyxikAaFBwAToMxoE6hom1q5oAWBbPyo0IroN2gQtWDOyVukr9o9uvJxunQ2+SkQJKytCJpZ1pPvvkHIAfwSqCygvrCQkwbCao+qDAbdlkJxQfARTIg0ydh9BhI6HKo16DxYgmOychlQEGbUfCzCDAI2UHCUodCBGoSaB8QW8GHcy/LbMS4767elZXABlZbZDe0FsA06pl3Pyt8Vz4PGhIUd/rF0Y+ZlRk+2V/LZeLPCsoslgFFem8K7ZJmgINHn6C/0G5CLqY+1XzK93adIX7W0XflY5d7Lg+Drz0jdLEpDR+Ec6y9mfWCzWZ/HgB6sExF0Rm/Ssj6z2blWPYuivuSh6+Qh/tj9qWO8bLHzHOmYWdj67UHTicvu7N9Aj9mru3ruLeNmSM4gnqR6yyzapnYfZnJUflvf2/lax7S+WitPK17P4u90C1kn1boWEES9SD61qp22zk/Lk4euk4f4Y2UxS7FcSaOsGYa0XRVNJ+05886lCX1e+rxrRdvUyiiRfIwT1cdOF/7q20/9h6MLrq2G1Z9Mw1LA1v7Ja63yH5W0pJIDXYkDLSH8zIwg12YRBh8z+mSlKc+XHCg5UB8HUoX/c62rSyo5kMaBcUIebnT/aEaZaXWfWc9l8bfTrP0zK+PL5y450KocKIW/VVumrFfJgSZzoBT+JjO4LL7kQKtyoBT+Vm2ZblQvnK2u0jZZOEi9qF2XWoEUjVdxG25UffAHYS9AcAuM8DG47777qs5xje3Shsv1WZGBYU9HSw9/2D6+o16kVl7esZDwr3HJi2F77nV+N3ULagpke24+q+gT09rD/xnOk6ekkgPES6y4wgph/8E/yqtxXXlaXn/99TOcMR8o3uBhuR43kkAsYvdg23L9rbfeCnsF7igPzttuvbVyK3Yo7rvWWmEbOrYgB6sCz0OIAC8GBjZobTbVFH6E2AA9Pv1yShDsuFLEpjIIQBw/mzgl/CaPnQ8nyq+ZjgN4arLTLjsCP6utsR948MHw+9cCQGFG7G50kaJMd5KLOsTsz0C3iDYnxbXYiOdmF2fiOv6qmAP2pzxM0a4Az+BRCA3ZaaegEVieZh1nxZ03/ihGvupeJvhsuZ0k244763ycB/dKdqclgk4gHW5R+XoP2XHH4EtPfnzdN9We9Mcp0Ka3/Oz7axfdq6+6qlI0ARmoSUaEirKbb0mtywECogSM4UBdQo0lzBZnKLbojsOv4ydgh2J2ao6Jtj9FuyYjOMJlCLv0LqI4AXxDTMWm/2yiIKBDDz3ULSaBA9mHQDLcwr+vICJ2Rd5O4bzMxjGxAexyEk60E34b4XTGLsALKFR8Tbmc28zM9f0kuEcoyGvjjTZy82vDUNT90aNHh77MFu+QcALcUUcfHbSc2HuUdLiS/2y//UI6vvbX748Vy0KAF0QwE1GeWe7iIVEDvmbFjz/+pJVpQmxHS7PJ1a84PkWIxscF9vTTT3cnHH+8E6hCgMvaWaMcxKjHOox3yLeqIQcMGBDi/2EihJpmv/nPLrnmL87/klqPA6ivBGkRl89gjwCiAueF87IdOksF6/j4pd+tcHAEgsCqa7UrM3gLdyg0nD51qLQKiP5DbMgETTL0rY3Uf04++eQwYYDJwGBAiDETjlHY4FQx/7co/Z5aqzPAEEJMPztQuINbKCCImXlLRRiyDkdAIaITieVghkabwf2bgCXwAgyjYc011wyRqXYvOxLcBBE6bvTOtN8W1k00K7EulNlMauPkw8OvrBk6piz1/cHdvx2SJa8///6EcJ41xWqLTN273spjZoeZ0AVSk9bTesdGY0JAhbwSZgUw/oj//4uYv01iJrCyymNrc+BNBWIJkSngKDz8yCNhwD5IodoIIEKVRquttloI92UtfOTQoUEjRBjW1iwMAcbBTDtWGgUTxNnqL0bEjVwkTda0ilsk8EOldQyehq949dVXB3AX8kMEXJ2tyE0CfggxvlRr9tECGUH7fU0zL5oDA8Fuu+3mzlMI+Yv//GcFdXj77bcPqrvd+0MZNYt4oRLOTL332Xtvd6y0ILxbTz/ttFCMAc5Qr8WULsZ7sPs08thG+LMKZ9ZPCrn9TyL5DPn9a5ViktqCIfSQwHz5mSGghbQVtTUc/v4EvXyhGb6krskBm+UYxG27c2ZtwrGBzl5U6nka7SpUJd4OIPwMAoB7QKj4AGc+MXJkiOq0NbKVATqU9R+WGMykcX+jDvFEkkTyoT4TlQ8QGNbgNwtFCG3BIkxjC7w9m90bL7p5BBRbhG6Qce9ELUcuEGAt0alHHHmkO0vApWYopIx5dH5cBvpUkXsUScPkXJNMgC/acpnUtLfttGI4P/qAarvAM/tNh+WyjK8LvMKImQGKDSLhRMrXbD16VI2E8RIgJXl5qgU4YJ15Fs1uRkRtQsyqWQS+ARMCQCDC/nM7TxP+YULX/UqCOYr1tZYDoD1nRUWC5ANGgy0fuBd2p3/I8BgLcVod7tN6/0qp9VjlP5CK/7TqUIuINPx0GsxbXloGlmelzv9SGvDftEz5s9b568i+Rbi6TYbkp3/XG72Yd9+0azVnfhN8Mm+87HzO/tsxLhQkn7TzcZqThKyCSs9oCjIO0XoAWgidNU7W5jeMwQjDOgvQDUbNklqbA5sLSKN3797BCHeOZvzxEj4BrwYVOw8TgE7/I2kHvClARUZVhqZojY/goiqDAciyMY9AA8LG9N3VV3dLCNQF1KYXNHDUEubJQoEy1ClAZQw0Ju9eqPwIMPYMG+DS0qOZoL2sIrxKMCgBjwHdCMAZwzRkgMCetfg0BKO0chpxbvqQ3IjSCpSx3XbbBWsulnpAGbCissbhkxf3DuzX7BrNBwh/n1coADPmpS9QlTJJkzkAXt/VMtCNev75MMCvrvU8FvsbpU7XIgBVEQyWAEa8NWAdvLImgq1kjMMab5TWf4addFJ4z876nHuDG3mFlhP0m7T0VhbLEoBc+aygyamXbAIQebJog/XXD0sErPlJIp/lZWC4XFrF84KWW0ZYkPRlzl1y6aWVNNhJIN7/N5NSkXx22333ht+T9dni2hgDQw/bNSXReorekAEDAw0W1pI6nwN5a/Ws2jCLglXIK6801Nt6y2xVJJ+tpWms1bevYyOXWmQ8YWAxe4jlOUb2BoBhft+gnY2y+FtT7bcKNfLISGdGlHrLbfY6qN76lOlrc4BZLw9puXYJ1Snq7QOo2vVCeHHHWqhT1bVy7gTZJHaQlqFNX8LSNHk9/p/FEwY2DIJ33313nLwpvztN7cd6/we5OPLapqSSA92RA+BPsi8FbxraS2FZJOHvjH0cOm3mZ50FCm5JJQe6Mwf6yXLfEWJZlLY06kiZWXlThX8+OUuUVHIgjQPjtG5vdP9oRplpdZ9Zz2Xxt9PU/pmV8eVzlxxoVQ6kzvx5lf1i0tfumpFj3F9f/di988mXIemS88/lNlhxAbfbOku4eaJdevLKKa+VHCg5MGM5UJfwP/3GWHfi3a+698ZOrKr1K++Pd3zuHvW++9WWK7o+vXtVXS//lBwoOdB6HCgs/Aj+z68f7WKnzPnnnd31kLfmh59NDZRgUCDNxbusNtMOALijanvpEJDSes3d+TVinzx2JUoSgTS95f1XhPCIwwiGh15JjeNAoTU/qj4zfiz4VOFd7Xp9z4F9q2pDGtKSpysSYcXsJ5jne573XEBW4YbcCMLDDP/2rkzsd4gbd/zZVlF299xzT+Zj4ZIbC7p5x2VmaMKFZB2acIvMIjur3QvN/Kzxk6p+Zs11gbTk+dkGS+Ula8lrnyg4g9nKfLtnZCVHKnqt2WGdzX4+QDZi+rM8PHnlm7dJC0E9gIAYEcDT2ZSsQ2fev7PavdDM/5dXPq772TEIxkREFVFWuD5yZPSH2AudHXTxpgLIAbXZ6OWXXw7+1TgIAY5w/vnnV8IeLxfGGTuwxoRjBEAQEMILiASBQ6iM7PpKHSCcMH4h6CTbLZi64AL5xz/+sQLqiEpqu/UWreMailcAUKIosXstO8ISqEQ46X5CdKFuxJtzf1yiUXnhS3ch2n93uY9nefyxa/JN8v1He6Kf0Af23Xdfd6K85yBAOfB5B7EHvgEWAqoT7Usfgm8x6g6gGcST4FG6ugJ8QK0yIuSXreBwO2YvQQJ46DdpdcD5hjBf0pF+Q8WY2N6M9dTJ5IABjf5KnbfZZpsA7pHV7usrbgBexB80kw6THraKhLBa9Z8/G5w50vc5+bE2n1WH/S2kTbtGnpjky8+KwCuiz995551eI6sXUokXgIfXDrb+6aef9tqP3UtQvSKpvCKbvLwBvaK6/IgRI7wa1Cv+2stVMxQrwfSKEYhv4dUooWxOqiG98AG80F+84JG84rq94KBCeg0cXqGgXjBT/vnnn/f9+vXzcsn0mm28QBhDPRU15jXr1lXHG264wasxvQJaquqV9Yf6KJrLa8DwGni8Brlwf0WueaG4esV6e20z7RXHnlVEp59XsE2776mtuUP7SeiqyojLVDSb12DsNeAFHtAPBg0a5A8++OCQh7ajH2kZ4RUA47X9tpe7uD/ggAO8wnX9Xnvt5SXoHh5KmLxsC14CHtr6sssu8wr19bfeemsoSwE8XhqIV9xB4L/chr0GEp9WBw1IoW/STopA9dq6PbQdBdVTJ5MDof6Ee9I3BWsXPlntrrDkwAv6BPKpuBav5Wl4hiJfMX/j9Ix0VVRE+Puf/rhH8MdPnBzy1iP8CL6RRlKv6LwgZAiaZt/QsLfffnsYDGhkGsJIMEuFhV9wSl7wTZWyr7rqqlC2RnB/7rnnhg7CwCA4MCs+HDXjhHQKzQz/660jA1lR4bcbC9PNa4byin/3mv3tdBjsGFBaibI6UpE6Co3H77333m2SJstEgIXYU0mXFH756XtrH9pQ3qMeHkJMIvQb2V7CYMDvF154odIPFObrhwwZEtJK4/Sawf1zzz0X/sdfyTrYNWlmoWxhCYaBhPMIf9E6mfALy9KKDIMY9VRIcDjHJJfW7tIUw4TGIFYPJflreQut+XmPz6u82RWw/9mkHu6poVONfKud9KRbfD5VO4XIk0ax66IGAqeGaePvjzpG1B8qkWGiURYQT0UI1Rm8QAl/WCqQh7U8hBoIcirqJGGjILVgYAFhJi3uoN461uOTrQYOSxNgzFBLCerQjBLq2d2+CFQBky5Wydv7jCD2WDg3oB0E7rA0hEDGgdTBQ9/id8xT+gFRpRBQ2ywf8MknWAi4LnD8KDNJqPgsB6SFhnvQP2MqWifLQ0i6kaENvfTSS0G1t/PxkX4KhBlAJxqY4kvt/l1ozY8Dz/eW6elu27+PG31sXzf40r+7tU4RE2ad5D4ZP/U1X7IG5KlFCB0fGsQ+NBoNwlqdNW9s8DKkVsqlwbGsGwGAAKgnROMtrVhpjZDhNROvmiiXD+fpIKAIcx4bAQMCDRsToBFQvXVk4CpCNKaWOW7XXXcNqC2ARmAIA8cwJurcHYi1/p577hnW5EWepxHPDZIQbwoA2aCtrR9YvDw2AN6m0PcY/NlUBMgxo7gOvH2gj9G+AH/+VkjS9UYXWrkcY4QhLTvCpXgb+vjeXGTCot+CbtwoqgndzY3w3JsomPX9b3ohCP2Yj/Nx9RbrNWfIU6uSWq8F5sNIhFzqfpjpQfXhPTAILhh7YDhGHdBYjUADkjrjrrzyypAX454JLGkwpGHAAT6aQYJXTSClkIaG5HUe+bkPKCw2YxhqjNaFYfApUkcahgYEevnUCP7Z6pp2pHHtQ6diI4tHBHIZEwbJ+++/v2oAjK93ld9Y/EHeoY2KEM+NlsBMmIf0W6ss2hbNkfZhAGA3HNr9aEFq0w+Y8THiMUAA2okhzzSIZB2oB3nQOLRMqBiDa9Uh6zoQ5hiH0SgOFKgpWqcJf7LdMQ6iOTEwAfvNmxCb6LLKL3ReHbCKMD6l0VP//tSvlWL0S673SUPaJGkWD2sxoQNXXcLAJgtquIbBjnW9EUYNDHV6kLBGVyNW1vys3aW2h/9c32OPPYLBzGwKGIoE/BgMcFxnPY0xB1JH8LIYezV6WC/qTUIwqNh9WRdyTQ0UThWtIwZGQTIFI6aVlXfU24tg1KN+GH0w/glGvZKFdSE8wUjaKpS1fsyrH0Y32i6LkmUKcccL1zG0OwbZwYMHVwx+gswO16wsbYVVWXtzDqMY/GTND7Hep32xC9CmtK00gHAN453esoTz2Gn0xsDLGh+uJeuAMVFvEkLZGIuxCWAghOqpk635MVjqbUUoD/5Qb6NkuxsveC77HHnkkZa85jHJX8uQiuQDjn8aZbn3Wlpm/Pa69zLzA8YI0EeSUNd4rYOKxkxs0MukYwTkNQxIrGlEWpYPrMmSxCjKaJ6Wl9kYtCBbW5K3Vh1Zt1t66hVrKsl7o4XsKAhr6s5IDuZ7GnGdOqatQ9PSN/scOPrMTI2ktDLVQYOanVwGtfe+rNHpWzazx+Ww5KLtWErGlFaHelGE4vL4TV+kvzHro3lQL+6dpEa2exp/uV/10yZrkPiPz/6N+/7A4cDDu/8xnzYusAfY7izKQmglvanrWXkR4DTBJz1qXhaBP5ekeuqImmjvgZPl8N/KosNlCT7pkh2SczMDoYo3SvDhV9oAb3zM4n9aHTqyzrf72TEP0aoz2r0u4afSRO3huTcjvPdw9OkMeCNrnI4ceVOBs0pJJQdiDqB54MAUw3TH1zvzd93C35mVS96LURePrJJKDnRVDrAszHNt7sznShV+9ssrqeRAGgfYmabR/aMZZabVfWY9l8XfQu/5Z1amlc9dcqA7cyB15s974AmTvbvp6Q/c4/8eK4PfVFCPJb45p+u/bC83pM/Cbu4es+RlL6+VHCg50CIcqEv4n317nDvjobfd+59VQxP/68MJjs/9L/3XDR24lFtjqRIAtEXat6xGyYFMDhRW+xH8I257rUrwQfJZqOfslcIZFEhD2q5AuEpeqm2S2kOEhl5wwQXtyTrT5WFzzMvlav0H7bhL6HS9dIS8M89oRAhrvTfu5ukLCT+qPjM+7kUxZSH5kJY8rU7sl5a2t1qRerOPO3vQdZTOFdKNxap3tKxWzD9U209vvNFG7ibteEvQzJpybMENOo+SPOF9e2dTsg6def/Bgwa5Pwv0pNlUSO1njZ9U9fMqRlry7Nlvkbxk5TVxgGClT7Udc3ckZnki56686qoQkYan4i477+zYsVehtJmPnOTJmWedIEOYugAAQABJREFUlZm2WReSdWjWfdLKxfsPr8NmU6GZf8Tr9XdODIJJIpCGKLalhYbyHQXmHKtAD3PVxfGBXVcXkIsvs4OFfoJ8ssp3vhM6DDv7ys/ZMZvgJmlE3k2FdrOQXGT7a8eUO++4wy5N3elV91xSwTtraxPF4QoiSiNcOQkEYjvn5XSP/YWqY8g/pCf8lvotsvDCIfSzntddWc9GQAeq8AN/+lN4RqCjuhNZG1koNu+42Zrazqc9axpPQDM6bVrAFEFCtPVRQ4e6JRT4tYbCc0c89lhor0WF2LSq0HFuiTa4tD6X1v4EYw0Sig5tys6/p0ozoR+k1QF3W8Xwh3Sk5129RZnWUyfrz0SVKp7DUechcvOmnsgC9Yc/7ErNxp8Qvi3IQPxBM+koFRL+dxNQ3UVuam8CLC3M23bw4BCzfjMqoBrz6quvdjzEWM18Bx5wgNtCfvvs4rulHnpfhdh+rNGP2YLYfLzlWGefeeaZ7tprr3XE2UNEf+2muPz+gna6X0K0mRqFAeYVxetzz+0F4TRezLxNEF0HSNiI6IoHB6vf6aedFiIET9Pa8hptK/3U00+HOnGdyMCf779/qN99irJbSpFit6u8IpT3bESUbTxwoBOSUED7VeBIkSK7TBpCaomR/7Hag7ZjcGXwPVDCnEVpPCGmgvgOCMEAZBX313vvuy/AuhHvgefcAw8+6AYMGOAOU0g4Qlyr/bEl4GL75FNPhZBe7D8jFVGaVgeBhrhr1S8I/b1DfY9+eag25Ky3TtafgeE64fjjK3aQnXfaKTwT0aS4NRPWfv407ELqxQDDR4FjwW6yvqITO0qF1P7kTeboMasb+5WYNnTN5KXM/4RTsj/6CzqCgwYRwohgErTzmsJ2aTCEhQ5z3rnnuheVHlw8iDBc2wcNrL371fCCwXI0CkEydCyIYAkhxrg55JvP/VjTo0bhS8+Mfpcajtl2a434MREazICDdgCB8befQkGH/+53waWYcm3rZeqUDL+Ny4p/5z0b2GzzK6iDNe1K0oS6IzEAgHF3iWY62pZ2yAsMIry6Fk/w0x8meHQ0iZ8I2ELwYOE/A8DeakMGbyaO97TsyGt/4vJ7KPaD4BomHD5GyToApMGH2XmsArEYZM6OliNF6zTXNLCR49Sf7X4XXHihW0+Tl1CrQj9gYCMU2XAO0XYhrjNpnicsS7SGjlIh4ec9Pq/y6kHyIU9MxGYTSGOCzzWEFiKCjtH2Zs3ugFxYlBOjpNHi6hRGqHAGgAAiD7H9MZn7JBoGFLsEE0EHiENMIP+gdhGLjzoGkQ7iPAE6yXsk/4fEKV9Fni0lW7c49UfNVOxhQDwGAzeD+9FHHeV2FBrNK+JpewN34ujJNkg+08BQMDcz+ENZ7Y8QsXxA8AgeYzL5tWbjtAhKVHyWH08IUZlgsuTSpWidQoX0Zeg9/Dc/f5Z9gM2kEXKx6y67BOBbAFAbQYWEHweeeeeZ3Z289UpukZ5zBCQfAD3m1qLhk/Hp1SBPTIAVEEL7/vvvV3YhRbB4KKzmV15xRUDypZMwImMXKELMLKiBMdHowIXZyDlaUGF5+7PT2Iy0R2sASmMsGgOvq2Ji8AE5thbdJ3tErWdDKLoj/f3ZZ92yyy1X0djQcHaSgDHAwr9YAJLP3wie1Gp/oLTu0sDEzM8AdZCWhcto6QWADBTXYZjQg7/SJDVKmiR9hTY9XgNFe+l1PT9LVehNAY1ANsPzO743/w85+GCH1tAQ1F4KFBVa8+O59+UkXxjJhwGCPDFh9AF6mLU9DS+gRTdAFl/W/ZMV/srD0jmwchZFfKH8LTbf3D0p4eedO9bly6Smo7qjIjHDo0bCOGCyX9KgACyXqe9x/YTkGoxKLBFYYx6jgQADH9rHJoLXekxGJRCHiI3GPwBbQxGq9WyLCLL7OQ0s2Cg6glpTpC6dnQbVmOcCHgs1nNkTIVpYBjOb7dLq1Cie5LU/7cqMjxGPfseyDs3UQsSTdZii9ORhqQEqEap6R+ikYcOCDMATUKZYAttgBYz7Q7JffKR+CDFYguh0ofp4I5F8Cgk/Lrv7rr2we+fDL2o+7yxKgZdf0s2XuPpbpQYi3N8XvNIPJVDM8jw4gmdYeSuICb169gz3oVH4QHa03/Z/HWH+0xCsKb8t7YLR+AwZBYFwIiYfIwl4aVjx+2pQoGyMJlZO+KGvU2XwW0f1wfq7vGYrdpQBt5/GFsKOO1GNdYpgxFbSbI/BkDoXobxnI/9OQ4aEe7CGY2nUnQi+MVDyao9Zjbc4gGGwDwJ8zaIkT6ytSc/vvLyWll6T1/6UwVLzOhmPFxc4CW+J2Adi++23D9VK1uEoLVeYFHgrsJUMjEwMRvXUyfKwlwDv83mDBU94u2V1Fwx52EMC4zV0sQZPDJ70ETRiPvTFjlIqks9uGWuKLPdeqwQzfhH3XtQsGia5tmIdBQPyQDbsXmlHmJgFtsA9s5Bc4rLykH8Y+bEFxOAibDKShzEA2irqbd6zofVgG2jvGjiuf7N/o10xM9VL4CjSrmltm1Zmo3mS1/5oJb06EcmHwYa3WqAIUy+zccU85U0F/S0pI3Gaor/T+EveQmt+uwk++5f/eOXgwMO7f3sFWG9gTxaqCgAYHaEswafMrHsm75eH/MNsEQs+ebFPvCbVLYtQ06C8Z2PA6wqCn/WMRc6j6tdDjeZJXvsvkAGhllaHvD5Wz/ORtssh+aDO47lXeu9NbeqN5LrKp6SSA0U4wOvIP+hdftoeEUXyNzJNj3jvMgoGwrikkgMlB5rDAbRH9mdoBeqRROoVtLabr4Pqdys8WFmH5nBgnNbtje4fzSizOU/fNUvN4m8bkyvCX1LJgZID3Z8DdRn8YMcXk74O0N1swf3OJ42D7u7+rC6fsORAa3GgLuHP2rSDTTz53D3q/XZv2tFabClrU3Kg+3Ogjdqf9cgI/s+vH+3eiyL8kkg+XCMNaTuD8LXGd7yziXf72kO+s2/bJe+H1yLAFKfJiUpbWYfgnnofZEa1c7317GrpCwk/qv6Jd79aGMmHtORpNvEedkYQDivE6HeUiElg48ikH3dHy22V/DiqsA06Xo4Pyl0V70s8L9+Y5sueVU/814niNJoR7Zysg9WlM454u7I1XbOpkNrP9lzxjF+rUqQlT7N39WH30q5MbA396KOPVuIauvKzpNWdAZLISsKfGeQAsiCMmdgKYjqyiOg2i6okzYxo52QdsurajPMjFTmIK3GzqdDMz7589RIGwSTh000YL669hMQCymFEjD1RVni64fb48MMPh0uE2xJbTww4sfGo27grQkRfGf4d6fYT+g6up3iT0WFWESoKMw60p/aGp5yBAs/A2047v1YF51C3/ooT4NomQopBtTcibJjRGAcNYvkJ/ilKBBSxXTh1p27UkbqCSWARhL179+7wls9F69OZ6WyrdQQfgn/wnXj7LG1nH8XjA9zCwEEgGLyP2xlsAO2wHMAu4CmRlWzfrh12Q9vBS0OB4p5jxoxx+NHjQkugT+zXwtbvhPvickyoOZgQ1CutDmgxxAKQjvTAkNlejPXUiQGQ57L+SX/bRvEk1BPXcuqPKzhLHfohxIBJnvjTiOi+QsJvG3KGmhT8sjcBlhwgh7333js8KOounYDOT6APMyCx1FwnuAUnCBoA3+brrrvOXSUMOISFyDoEn/UjhPqNPz+EYIOCQuQdwTwMJoT22j7mpCW6TFt5h6AdRlbUUOhZhZ7ig09gB+CSNADoMJSNoCK8HBlICPA4KwJxCAXkfNFhaHDygshCx9eWzsErcJiChSCCiGwgyCmqy10irJr2QnCMRowYEX6CzpRGRNkhkAi4tt8OAUFxOyMYDCoAXtBWCD8BRAgkZTO47y/UJYSY+9KO5CEqjoAuPvQPCLguXGy1jbe7UMFhRIbSx9LqQN+i3UhHW9I3GciheupEvrfeesvR9uBH0PZEiiIPAZ1Igx4T4FDhDBiyNP0fXvCh/5G+IV6lYlIVSUCq/vNngzNH+j4nP1b59D/9cb/qsL/58RMnh7TxNftNnjTSw3sJu9eIThC7l0ro1RHCb63zvOL9q7Kde+65XqO2F2KPlyBXXRs0aFBl33ZpBl6jeuW6GBzKJB+kdafXAFO5rtkh7Ouu0dZLQL20Dq8BIXzUYUPe22+/3Sv0OPxWiHAlrxrOS3up/C/yQz7+XqO7F/6AV6cJWTS7hbJlFCtSREukEQZD4XpoZvXaIdlrUPUSHg/fNPuHZxbCTqWcZJl77bWXF2pO5XrczjIaemEzeOMZ7SuvOQ9/IWsvDRheGAzhXhLuSttutdVWfsiQISGtND2vGdw/99xz4X/8layDXdMk4ClbA0ToP5yvp04K5Al1UpiuFek1+YRzsoWEc4pD8MKMrFy3H9IivZCQ/GWXXWanCh2T/LVMhWb+JeefK4xwIPlM+Hp2N2LoOm70sX1d3zOecT88P10Ftjwho76IWiNUke2yUX8NvZWRkJh7PVBQ95gtUPsNhedngtLaSfhmGI5Q81CRTN2yspmVAQmJUVAWF7gjQToxAcJgRFryYY0GD5DRH39rPobSg1qIJoJqFudlOVGUAP4kThswEZY8xG8DYDIzEGG8GK6YlZnJWMuifeHiSvx6e4k+RBkQUW/MmCwpIIvHVwcPbcq59dZbL2gIaAks71hKQCALM/MTy0+/AzSTPpFG9LkBAwaE+1B3lghx2qJ1srJZ4hoZqEleSDd9BhgxNFQNTJa1Q8dCwr/Bigu47y3T0922f58g9IMv/btb65QRQvKZJCSfSakVIE9MMH348OFB0FCDDWLJ0vBAGFkA+mDtjcAj0DQmYAbEM2MHYG3EkiAmOgACiWpnhGrGGqoIsZ7nw/LDPnQeQBRpaNS62ADDoFCEaLCf/vSnAVCUZQ9LHJY0yQg+BsDuSKj2DPoM5AgPoc8sAxgUkjxIPj/87yiB8sSbAt4u0H/4UC7LPAgbAIMTbQ4wJwMTfdQorgNvH3gW2p5ITpaXHYnwA2PCiD4PxQNifG+uMQkiC+AjNIoKCf9u6yzhJmrZtv9NLwShB8IrjxbrNacjT0ysv3ggGgNBYpQ1YkagQ7CmQQtg5mc0R6hhOgYjqS7hNRHXbXS3/BxJx3oMMAYGB9ZjlFGEWBfSCWhQ6iZ1P8z0ZrBCi4D5NBLrTNZqRYjntQ8d5/rrr68C/qRciPUkA0x3IwQdgJTfCV2JAR8N62SBUICgnEcYd0FKYiZEM2sv8VoRjY22YwAARJa+xP0ZcJnxscnQJwloQ0MxDSJZB+pBHjQOLRM6bKA97rjjguGYQRHbAxqnCT/3ZiKzCQfjIAMnA1OnI/nMM/us7pANly6M5POrLVd05IkJoxkGNZjPw6HCw3Q+oO1yHaMHbwKA8eJBUaXM8IelkzwMAiDsQOQ10jouaAakI3YbQwplZZHl5YjxhIEDhyHeFAD9zRIFDYSBBgMRHRH1HbULo6Hlzyqf8+TFKkt9mSVkvwjPbyorywCtQYOWc8YZZ+QV1SWvgTxzvkAy6dwIFqjMGHX55BFLPHiEOozAxrzmt/EvrQxLy5H2Z0JBwBAsoOToQxjNKAPD3pVXXhmWZAwULCnROKFkHRBWDI8MJhgY6RtG9dTJ8tBfMWyyFEEjZMKxumOUZO8Be0vCbI/xGX4gE3yoe0cpFcknGelnN8ly77XrzPgIfp/e1eCddp0jMxwPSWdIEqMrKtiCKeAKjHiMvFmgDAgvqrXh/zGb8ooH9cqw0ZL3S/vPaAtgB2vBJKE2xiitvElgJssihHtHbciA1sN767TnIi9aAfaJvE6ddY/OPo+lmcG7HuL5sHXQ0ZN2GMpJKxONiXy1lgdF65GH5IPw0a5JTTGtDgghadP6R5G60P/pw7wuRvPoDCSfNP5S12J68bSnQqhv3PcHwYGHd//2ChDjHmt8VP3kjJ9kCMazLIKhWQKSNljE5TAq4gOA6k5abAq88qlH8CkPXPksSqL4MFgxq2SRlUWnynou8uZpKFlld6XzPF9s4CpSdyaIRgk+98uaNLiW1TZpdejIOp97xUR/ZyBJo+RAlJamo+fqEn5uhnDjudds7716H4z3uxgM2V2H9SVqXL0drt57MpDhkFJSyYGiHMCmgANTHnpx0bI6mq5u4e/oDZuZn1eI2A1KKjnQqhxgaWebyszoOqYKfz2bUM7oByjv37kcGCfbS6P7RzPK7FyutPbdsvhbbZJv7Wcoa1dyoORAAzmQOvPnlT9hsg/Q3WzBbTvx1gvdnVd+ea3kQMmBzuFAXcKftWkHm3jyuf+l/xbatKNzHq28S8mBkgN5HJhNTi3HA9ppHzydFkx53YXgH3Hba27cxOkeVyD5zDf3bO6LiVPdU8fr2gMvfeK+u/g33GK95si77wy/xt7sbL65rvy+O5NwLSUC0baF6sx7N+JevKfOel2LA9Zf5QGJI0z8Pv8NedcRvs37dJywku/I88qkzjOqrRrBr1YoI4u/s+LQE3/SKouqf8ZDbxdG8iEteVqZzJuqs+uIE9ED2k++EcReb38WRFYrEO6n6/TrF0KzGQSMcLZin8Tfy79/P7nZrq/BtlbMxbnyiDScBsqZEW2VrIM9T2ccO6td2xj80qC7b3r6A/f+Z+nRTmnMIC15WpnOVEz+ULl5dmXCS4zZdEbTcDlW7S7XXXONtfoQAHOkYjiOVETfXwS48Zy2Ysfb7Dy5OecR3oAWeUe6GdFWyTrk1bfR1zqrXdsIf9qDsC9fvYRBMCYi9FaRFx7INkbHyoefrbAhZoX/VcAFO6AuqvBKOhJquRGOEeyMuoBcb9ntNUZruV1AH2G5Iv95dlsl+AYi5JIy2fl3CQXRABhCPSCQUk6bFqBDukMOOSTszkuAEVGE+KUDPwUVqdsmcjKi3lvLV9+ixsiL4xEj+cJaSq0rf/BntDV5UQL0YUfFElB3dg6mjtSVmXNVRTGizhEgxT1nJH0pN9z7pc3sM21fe6sL27DjEn2wtkiH8EnfS1GOeRubEgcAEAvaEf0F/sVtRZzFpkK4OUoDCnxZQ0FgIwTAsT8oTuI/fMEv3ggthFiNJRUQxtbtDFRGBGqxK/Miiudg991TTzklBGKl1QEXbfzpSUd63tUzQED11AkHNJ7L+hh1HiIXcOqZ1a7EAJAn/qCZdJQKCb9tyFnPzexNgOWBeYR4xiofftJ8INRhXHN3UUPR+OycSmNA+OwfqECbLTQwsLvplurs+ypyjzTEAgDhRLDNM4oEI+jiIHUg4gDwviOS7gZtf/ynBx5wH0jw2S4a4n50TIgBQqAQ7jdCcrlB6QmyYF95QwHKqxsRXsx6NNC9CiJZWmva7RVTwHMhqDQsxzsU0XaY1vr14NEdr85GZyEv+W4UNsC1QgLC9RN1GvdXwo7P17UZSQgng2WScH1m/U8wjRFel3ku0UTZbayBtJ+WEAhVb6EqxW3FgAcSFDyA34TtEpWJ59wDCuMeMGCAO0w8wS+fPkdbjFee2zRBHKB+QUQfW6xD2BKwPzwpmxchvSDnjBRKUFod6B/wnnS0B/3rUA3GUD11Ih9yQMDXCccfH/o60Y87a7LLalfqBS/4EPRD+vUVINdRqsvabzebo8esbuxXYtrQNe1UQ45CbHG77LJLKGs/+eUj4DQgnec1xVHToAwERIehOr4o/32itUjDIEAHOEmBNnwg1E6YTedhUHhoGi5guBh90bC/POaY0Ik4TQgqo2xMWXWjQdAWiNuHmB2uETglbsaE7BJYdJfWw4QiQ6/rf9EIvssFGwUxAFAWATXPjxoV1sArCQORzoJw1Ru/EArthC9U/KQvPH70BLMQqJUWrwGf5pe/O+t8njGN8NMfpghMvOV+IhyIP0lL4D/tv7f6DFBpTAzvSUiEGBSCaIizWE7tdJcEl8lla8349I8eCqiiPkwofIySdQBIgw+T11gFaTHInB3BuRWt01yK9ISOUwi63e8CBaWtJ9gyoUWFZ062K/0L4vop0lbPU6Rk2mAbEtXxVWjm5z0+VA+Sj+Wpoy4VASEPnRpGEzxDdBcW8qV0DhV+c6lcEIKNUFwoEIZb1aCoxqj9zIoQACHbEd+vEFJURGZhU9VCAn0xK4dQTQEzGiFkNEBMJryci+t2r0KHCfcFg4APSxIICzcqKx08zmsoQSFRjS+AIVdXGCr7uWNMA0hiYhdCAeotLYgBICbUW7bEThP8OF3e7ziysg2Sj7QhCHOzAcaglQG8ysdCfEmDEM2mAQTBY2BgAqA/pBH9Bghylm9Ea7JkjLXYonWysg29h//m509/ySKAYXbVxEjwWqPwHgsJf/9le9WN5EOemEyYYgPVJxpBi9B9Wu9fqVkQRJgPNIs/HSHrkh9mPCv7wCiN8mtLSPbUEgCBNuSTtzRiss6k46GixkTnQSAfkspoxFofbaIIgbBKUNHbUuXs85lmEvAAGLGZ4T5SnY3+rUGhCNHYB+hNzI6K+x6jer8hWwm4A3NO69xWBtpQqxIhvAg/tgsjVHbO16JGPJdpRKMF0UYf4EPbjJBqD7EEQSuj3ZhRWXYS328U12HYiSe6rzQJ0cfe1TOxDEtGeVq+IsfXp6H3kPbNaX3CZnjOxffm/yGym6A1NAK1l/KgQsI/pM/C7stJvjCSzyI953DkiQmMNNT33wmkgzXPA1qDY9RJPmScx35P1uxPOlRBBg+L2ec6nWk1NSLloQXwWomBhvfMvC4CnosOuJrOc33uhPBQBlZ/1lUAOGDsYS2XfBdNujTaTFoIr9uu0G40CPndgitbSZ0btR+YKIKNDlZ5aAKPCaPfbA5pZcXneF77oPkw8AFRHRNlM2jFg0t8fUb/7isDLdGVh0trw9AKOg1LIpB18mgRPddzGsyxu6D5tZfgP1oXgoOh+SUtE+kP7BuA1siMzzKNfkVsPdqIoUQl6zBF6cnDUmOUll6o6h2hk4Tei0EUjeJw2R5YvtpglWxXjIPw7kLZpDodyWfuHrO4fddeuDCSz9CBSznyJIlXNljtWU9jrQUNJesdrp3niLpFo/FB7e8lMEyIa1j5uY7BhDcBJ0jgaRgsy3vuuWdoMO6H2s8gYBBcVj7lAPpxt9T3paX6s/00a8K8GHvLyxG0FYxArONpPNb+4MxjsKIjXS8jHeocg9Ju0lCwaVh+7p1F5D1RHYQGR32+SM8EnHUM+IF2AaQ5A1ArUPK5GIR/O22wX1GGuT30/PiUsHbOo52k7fCcrGtZUsXl8jvmQbIcS0vvow2xyWB3gf99Ze2n72A0owwMe9fJ+YhlFctFkKbM+SpZB9B/sB1h7eeNFG+ejOqpk+Whz/EW6AdaimAc5u2V1T3ZrhdrWYtxGn7QR/mckgMiY/eodUxF8qGTplGWe6+lZcZH8NdY6ht2qs2R0fMTPQjrvnoJqyoMSlsvMkN8KqNfWrm1UICY9T+TIZH30dAdsvajBfBeOlbFatWXGXj+OlCAzjzzzMwigZxCSFh+YGBKey4ycx2esnzpDMLSzMxULzHzApFmM2ucP61MtJ7OQvLBONirE5F8GGx4a4WNqDOQfNL4C/+rrVpxi6T8Rqgv//HKwYGHd//2CrCewB5G3KyOnHLLqlNZbqUkQk3PKjdtsIgLxuCyi3wA2JRhHql+qJs/lZGwHsGnvDS3aLtPcn3IYPXatPfEliY+GroMs2fWc5HebClx3lb8jVtvPcQg31lIPln8TatD8u1FPc+UTEuf7VJIPqjze/ZbJHySD9NV/w8YMCAYDJ+Sx9wXwuVjrRhbY5vxXAxkV+XsV9eMe5ZlzngO8DryD3obBVrvjKa6Zv4ZXdlm3h+D5FZCEC6p5EAzOYDmy94NrUCpwo/Rq6SSA2kcGKdlUaP7RzPKTKv7zHoui7+FXvXNrEwrn7vkQHfmQOrMn/fAX0z62l0zcoxjC27bibce6O68sstrJQdKDnQeB+oS/qxNO155f7zjc/eo92tu2tF5j1beqeRAyYE8DhRW+xH8n18/2r03dmKlPJB8Fuo5e+U/10hD2pmFcNbAy7Ck6RzA9wB36mT0Xtb56TnTf+GSzVZqJTWWA4WEH1X/xLtfLYzkQ1rydAXCa5BNOttLuF0SR9BR6mg9Onr/RuXHmWf99dcPexDaNuuUnXU+7b74r7PxqpF5vtn/zjgm69AZ97R7dFZfKKT2s8aPZ3yrZNaRtORptV190urLDsG4bc5oapV6dIQPzPS40BKAZDvOUl7W+ax74Q7N3oZG9WAgWJ6OHpN16Gh59eTvrL5QaOZnX756CYNgku5S0AvhkPhcE0kHqKPRmDFjgo89nnBLL720O/LIIyshk3nXcAMl0IfOxrt6gD2If4cIicUffph85PHMIhQXH23yEI7ZW0ARuAyjVhKdB9m98LzC2efiiy8O5/lCbcU3nfvwqWevdPLiS76U/LLxONxwww2DUGTVo3LTLvQDgSVohpDq2Bsz63zao7ErMyAsxIDgFQicF7EShulnbQqICYFiRAgS8ES7c0/aNEZ5ymtPQqQJ96U9aJcTTjgh9I20OmS1H89QT53omzwXA9oqQh2izuwOTD2z+gKaFHniT0Oi+yQIVXTRRRdV/efPBmeO9H1OfqzNZ9Vhfwtp066RJyZ1AC+B8RJUL5grLyH0Uue8Zl2vh/byZfcKkvGPPfaYl7roFZjjJbS51yhfDeYF1OAFyOEF3+XlmecF1xVuffnll4d7yKnCP/74416DjZdvuRfjvPzhvbZ/Dv8VlOMVXRXupSg0rw7hFZXnL7vsMi+fea/OHMoTZJbXoOAV+OPV4bz2nieeNtw7JMj5UocOz69AnFCX9dZbzwtgJLUeOcXM8EsKiy5UB/iodXqbtGnn4zIFWOEVs+41GIf2kX+/F5CKFxRYKIs2heeKhAv9SCg+Xm6yXsEwXrBvXhgOoY1oX/pVXnsqIMwLjssLzsvTLpogQrum1SGr/ahUPXWSL3+ov9y3wz3pswrYCZ+0Pkn5CkwKvKC/Ip+KWPWyM3GpEMX8jTM4Cos/Ag+Mr4ffSeHvf/rjHsEfP3FyuF5E+K1QHlCoO14jemCCYudDI9KgWhdasnDu0Ucfzb1GYs3m/vjjjw+DCAPJVVddFcrVSB0axQYYK/iYY47xigS0v14ILP6GG24I/+k81OOFF16olLfVVlt57aUersvX359zzjmVvIo4C+kZeIqSwCK8bAReoaRhYLF8cT3sXCseszpSsq5pQk6atPPJMhFgBTVVikwKf8+ePb1iI8J1eC+vOa/grfBfYbKhTeBxrfZUVKmXBuYFxVa5l/1I1sHOp7Ufwl+0Tib8CtO1Iit9XGHf4VxWX0A+mOiYlOqhJH8tbw/U2JjS0Ht5j8+rPJB8PpvUwz01tG/IstpJT7rF54tzT/9NnpgMjee6665zAFUQcgtpMHAa0YL6g7pvRMQTBAYfqlHaNVBXwAaQ8LvzhcoCAecFoUZBRJJZkAz/8dm/MCMWW0JPEqdZORz5ojzqwr00Q1T5/KNyFg2sYd2LOjlixIgQ2UY0V0nt4wB9BzdZqA2SzzSYLHVwl9ee5L3kkksCBiKx/CwLgYc7RbiRaRGStdqvaJ24LxTvIG1xJIQvo9qnETJDlOcOAnQFoaoR1GbNnyb8G6y4QN1IPuSJifX+cMV23ykMNdY9BrFEGqLqWHsTemiE8BKHnXeNRmJQ0EgY4p2JeabR+dhggTEvFjTWeQaaYPciPQQYJJZljcBV5YHGy72wGZDfCIQa1oJFCOs1AyD5wY4DNSYZIWb1KFJed0/TCF7ktSf8w6bDmx4GeDAZpAGHPmq8jetQpP0sX5EjfduISQWKjaTxvbkGAArh0PXYmciXR22EPy3xbuss4Saqj+9/0wturVNGuDEfT0hLVjm3WK85HXliQkh4IIQLgQRy2ggjIOGzeyuMFuEAtxyrMUKdd438WysYB0MNyDm8cgMVhTxoFBBHZlwE+mEBeJ4r4E/AP4zA6+N1HXWSShoEHEaTHo0EsA4QXyHAHnjfjDUWBJb9BBddlAjhpS7MWCD+avlQlTWuR9WFmfAPvPi7kJiZCeFbeymvPWkLZnyMsPRJQGEw/BF1ByXrUKv96q3jcccdF/o5GgXoUUT5mfAn+wLGQfwmmDw7HclnntlndYdsuHRhJJ9fbbmiI09MCCnCgzDxcFhqYTofILcAVkQAYQJqN1Z6GibvGuUjRKQnUgoLPEi8jOCmFmLFZdnA4ALEM4LPYGEEqgs479SLtxAG8EhDAKhBPXlDADFwgKaCpR6Vn0EG1Fa7l5WZdqSxGZzQHkASBsUoprge8fmu+tvaNln/rPNxOoBU4CnqMAMweYz4ncdvS8sxrz0pQ3aXgNmn9XoY+LG628YjyTrktV89dbLnkB0pvGmgHwFNB1y81T3ZF5jtQfuBHywv+FD3jlIqkk/SDmA3yXLvtevM+Ah+n97V4J12nWMeGg/XUdFptLR1V941XpNQNowxApwDQWcW5xrgCWlIMmglzATxPbkX6W0msDI5MvrSUPE17hWrcnF60vK6EaIReY1I2UlKq0cyzYz+DxQag3cjKa1MtMTOQvJB+GiTpP0mrQ557VeEJ/RDJgy0WzQP+hn3TlIj+0Iaf7lfIScfqxhCfeO+PwgOPLz7H/Ppl+FSPYE9zMJ5BGOyKO8aGkIs+Mky8u6bbHTy5t0rDRkIwyMqXBrFM1VynR+nT6tHfH1m+s2A2VlIPrFBOOZxWh3y2i/OW+Q3E0Ca4JO3M/pCXcJPpVDn8dzrCt57OHDYOoq6N5NQC0sqOVCLA2iLODAZVn+t9M28XrfwN7MyjS4b2OZ4w4xGl1+WV3KgXg6gBbLPXytQqvB/rnVJSSUH0jgwTvaORvePZpSZVveZ9VwWf6tN8jMrd8rnLjkwE3IgdebP48OEyT5Ad7MFt+3EWw90d17Z5bWSAyUHOo8DdQl/1qYd//pwguNz/0v/rblpR+c9WnmnkgMlB/I4UFjtR/CPuO019/5n03cxTSL5cI00pO0o4fADqEGau3FHy643P2G9F2jbrJLyOcC7aZyk8H6MCUcd9ptjZ6QsX4g4ffL3EfLaPEMAHyU1lgOFhB9V/4yH3i6M5ENa8nSE8OniPWsjiD3R/qztkdpLo7Ux4yht3dVROlfeiBaX3tGyWi0/cQ6b6dXqjgo8uW3aFunUEcwGNsS8R+6p115zTdhqnF2Q8yjJp0b1g7x7Jq8l65C83sz/He2vRetWSO2/6ekPqmb8WoWjAZCHnX3aS2x9xSzSCMKbKt4avBFltqcMZsRPtSdgdyOea6MBA9z6cpHGjTomtrZWGLU7QuAseMwNkgstG0+C9pNFST6xwWtnU7IOnXn/zuqvhWZ+9uWrlzAIxkQkH7vlEhjDUYAb4TIOD5tof/tF5Ze/9VZbOSLoINx1SaeY7PBfMclu1113dUvq3f3aCvoZrqg4IzoVbrzfV2AOu/Fup9BHZiLKWFVoKbhUEkhE+ZClZ+fW5dRZ91eAjqH/cF3x/WEX1kUUDkyYZz2vtngednBlx+A15b5pqDIEb7D7L9uS81zARHUXGqsB7SgFPxF+HXs/4gY9RLsn76J2g5jB11Lb0TZZlMYnkJZOO/XUkIVddzcV6hK7PNPWayjcesRjj4U2pA/R3sRqGOX1G6LpGIxoZ3bfPVXhvPSNtDqwpMGfnnSk5109AwRUT51MDlgGESdCnYfsuKOjnln9FWc1+kz8QTPpKBUSftuQs56b2ZsAy4PvPC6wMOpsVRxfd6Lbdpdw8XD3apZfWrHM2wsNF/9pS08cM4zn/HgJ8W3akvoACRKRdncqiAc6WdsVMxgQ1w+kEnlgKC6SQErhJgrs0/mKjoJOP+20ENBxmtaR10gVfUr7pB+o7a4hogN/vv/+bgsFAd2naL+lFIhzu+5ZhBACyiEvu7BuqcFmX0UUsgssQUoba5Bj62540Lt37yJFdok0a665ZhCYZGUZCFjmLC4hhej4f5BgGmRaMj3/0/iE/YdwbYiBHLRk2pY+Q9guAVt4zj3w4INugDSQw9TWCHGtfoMtARfbJ596KoT0YpMY+fjjqXUgYIxlC6G/dygsnf556CGH1F0n69fAcJ2g/sqEQCg7W8xn9VfqRZ/hQ9AP6dGyOkqF1P7kTeboMasb+5WYNnTN5KWa/5n5LaQWYUVNZE97iJH1Gm1eiQDGHYTY/9GjR4dgCCGZhNn6LjUAjNtaI/ctEvihirwbvO22oZyrVQagGTT+SsIKhKlE01kc/5VXXhmEEg0C+sUvfuH2Uxjv8N/9LoROEnABFh20hvZPr7VGDQn1RQTgawpJpuMxEKA1nKdIwBdVf3DY5lcAB7MfdZrZiLbYc489XA/FYKAlZBEembX4RNzFMPUjvOV+ImCLP0mb4j8DwN4abBnQGXDfk5Dk9RtwFagPwTUM1HyMknUASIMPszNbpjPInB0tR4rWaa5pYCPHCd/B7neBwGWwiwg+LLW/2lKK66dIAzpPwDVoDR2lQsLPe3xe5dWD5EOeNAJZx+jee+4JMduG2mPnicKLyYA/0BCMAIUEjAGEHTAADA2F62y5vI2MfGlEelSsU8VEVC+IsiDOE5wDuGhMyf/xtfg3UWjMXDcLgBLtw4I2GO1nZmIwRJsaJcMpszMhtB0h+GrBUkRiMrhbhOXc0vIgzM15/YY0CBHLBwQP4FiWor/WhBRHd5IOQsVn+fGEsByIDEUDialonSxP3F/Nz5+loIHQWDo70p923WUXJ3xDt/vuu9vpDh0LCX//ZXu5eeeZ3Z28tdY7Pedwgy/9ewD0mFuLhk/Gp9+fPLWI2R2VEFU+SQiSkc3YowWzldZxgD7iFZLtfop6CSOJt7dOQgeEaFi0gKMlpGlMxAZgdga7P2tD4q5r0X1a71+p0F5Qi/qts05A7FlaeAIxWT3ic939N+o1b1tQ0+F9EWoEn2r1G6C07tJbCGZ+wDIO0nJyGS3HQAuG4jpguPxKfXKUNFCegXZGc20vva4+1V+DDvTmtMnOZnjOxffm/yEHH+zQGhqC2kuBokJr/iF9FnZfTvKFkXwYIMhTizaT0YROccXll7uPtK67W0KzkoQMtT8mZnjUQRjA5g8vSY3GB8BUc4FsBqY8LlWf6yDx7CUoZ6NFF13UPaQZh3tALDswIGFVZT15jAYCjHTM0JsIFEQIwgFmizhogBRAlSlCk4U6Q6Oh2vN2AUjxmBZRPZ6TAfMVwVF3BKEmLrPVfyMgINAIITloQ+DqGbZeVt0bxae8fkNbM+Oz1KS9WOphozC8h2Qdpig9eZhM0GBQ1TtCJ8nmJbDRoFGAPkX0qQ1Wyf6Khgra1IXyNel0JJ+5e8zi9l174cJIPkMHLuXIExMMhuzIb9BzMKDQMXhw1v6MuhjFYgLcA2MHszsWeiC+ekl1xPgBsd7jHfP222/vVhf6DureFVrX26wvWGcnaGbHYAOdKoOfYLeDpXd53fceLT9ABCI9KDsnqmFOkRGRgQijotkoQuacL9IxKPFZQY1JHSF75p2E3sI9WK8BUdUdiWe150U1PkftC6FlraN2tQ/LryxK8snKIz2/rV3T8ltaeltev6EMlmjXyQ9hcYGT9Fd/AGmKPgQl6wCaExMF1v6tZGBksjCqp06Wh23eeJ//A9mUMHDzVsjqnuyvvBrF4Em/QZPkQ//sKM0CbHdcCFhmK+u1QhplufdaWmZ8BH+Npb5hpwofmZXn17rLEG54HbSa1LInZNllcwOjPIQdjEqo/GlLA64xcsfrOYw3dNA0EBDSYgtgLWiEIcnAFu2cHWk4i+mnTP7Hr70sHZpBIxFqrNzOOmJpZmZqJKWV2Wg+5fUbjIO9OhHJh8GGt0HYuqiX2YZinqb11/h6Pb/T+Ev+QtDddiOE+vIfrxwceHj3b68AGxHYg1OPkan1CH0s+FzPQ9jB8JMm+OTjWpLy0H+YGWLBJ++7IApPe7ebLCuejfJQgxgUGolQk6xHd/nfaD7l9RsMxGmUVofuhOSTiuG3W4OsiWkMLXIONehVGexwCDFNoEi+Mk3zOZA1i3Tkzs0osyP1aWZeNErgwtfWsiFromr0/bP423Y6bPSd21Eeo+sCWoOVVHKgu3EADdHeSs3oZ0sV/vlqgGzO6EqX959xHBgni3ij+0czypxxHGq9O2fxt9CrvtZ7nLJGJQdKDnSUA6kzf16hX0z62l0zcoxjC+53PvkyJK0Hujuv7PJayYGSA53HgbqEP2vTDjbx5HP3qPdrbtrReY9W3qnkQMmBPA4UVvsR/J9fP9q9N3a6220SyYdrpCFtGuGfTBAN212B0IOvNIE+tQhvOfI8roirWsSWS0n33Fp5sq4/88wzwZc663p5vpoDbK7KtlP4WsQEH9kR9+abb67ajDVOk/e7aD/JK6O81pYDhYQfVf/Eu18tjORDWvIkidBE7WUeot169+5d8WhKpkv+532rfZLXkv+Jp8cTqxHE3nqU11EiBBVvxqS/dkfLbaX8hLwSSzF48ODK9ujUD9dV9iUEIwEnKPw24Ece4b/OrrhGtH1nU7IOnXl/PER5HdhsKqT2s8aPZ/xalSIteZK7+hBsgxCwGy/E7qNFiFd/xAB0VWIL6EcffbTi999VnyOr3mAc4mq9vyL3zleknBEhqGxuygBKhyaegdBmfNV5z51F9BOLtCRN0X6SVV57zifr0J4y2puHXaAbNYHl1aHQzM++fPUSBsGYiG2/6qqr3IMKsCEKD8Qe/PgN0w4QDnbmHaoQS/ZOw/WRLbohXB3JQyAERAgv4b24z7ILLyg+8az617/+1RGxhacdQT9xRyLijpmIa0QVopIavayAGzop4aHE8RP4U5QIKGInYmL6cX9l+27814kpsOhBtJ3k1txFy2/ldCznGNzwSY+Jd9r4rMNTCIcteIBLaxaxnfpNColmwKDNaZO0fgI4C7wm2pL2/okCuWhTyjf0JO7BUgQ/elxoCfRhoDLK6kdpdaAPEgtAf6PfsQy1vRmt7xapE0sinosBDS2IOrNUpZ64m1N/3MNZ6himBQMmeeJPQ6L7JDRVhK9/kjY4c6Tvc/JjbT6rDvtbSJp2jTwxyVffa1tiL6H1QnP1EyZM8IMGDfIHH3xwSKblADEGXkLjZQ/wsg14BWZ4Ca6XEIVrirYLaRVA4wWj5OVn7yVcXpqBVwcI1+TG6xUh5QXA4QXn5AX+4aV6hmuKzvNyrfVCEfIaSLwCiby29fayKXj523ttD+4HDBjgBQTipaZ6NUyoQ8hc40ux4F5BQV4DRqiTBhCvdW6oP0eeTdFgXiN6jZJa+7IwDzIrqNkyPCfHmBQL7++8804v4fESQi/bTXzZx2VKW/CKWffq+KGf0C5p/YQ21QTiheLjNah4DTxeth6/1157hXvIk85LmPz3vve90OcUKeo1mXjFdnihO4X7Z/WjtDpoQAp9hf5G/bUtfGhvCrK+W6ROGvgCjzTBhX7yl7/8xStgJ3yoM7KhyEKvYDcP3yAFtIXzXEM+5ZbutXQK14p8xfyN0zNjVlER4e9/+uMewR8/cXLIW0T4SYhg77DDDpX7JRuVh6bBIIUuBkEVWk8b4dfM7TXyesGAVcqyHwg/jWGEgA8cODD8pfNJIwgCiBDK7TE0hIxUYTBAQGl4IwYJBqB6iHprFPeClwrPS17NYuE+UnvrKaol02Z1JCqbJfwK6Q18h7977LFHGLTjh0uWiQALNaeSJNlP5BbrjZeyNXhpGKG/kIFBnfvIXhMGA34rhLjS5tIEwyRE2rx+lKwD6SEmIspWKHAYSDhHfytaJxN+LX3IGohBjHoKxCb8VxxCmHymXa4cpF2GyYxBrB5K8tfyFlL7eY8PgeQz4evZ3Yih67jRx/Z1fc94xv3w/HTV2PKEjAW/QPmxABxUb9b6ScsxRWE5RoUkBlszdwDnjENEY8AIkFHsmmafEEuuGd7xMYQe1D9CbFHB4rzJoKK8x8CgRVgy/toYvkB+QR0uyQUbD3BaxGyA44htoCNEFKYFUhGlSZ+pIPlMg8lSB6/gBmiWDssDlggs+1hKQLX6UVxHVHxpheE+xN6z1LR+RbqidbIyWZYaGapPXpg3fQkYMU2eTgOTZe3QsZDwb7DiAu57y/R0t+3fJwg9SD5rnTLCzT3rJCH5TEqtAHmaRazdsIZiSAMPQNpKAIyodT/WnnzIZx86CWs1GpS1VmxoYVD4f/bOBNyOotr3LUQFfIi5KqARDMhwCSg3MoRBr2EQxRiGBxJkEmPAMMggELx65SLBAJdo4CYMCiYkmCAaBmUQCRJBSHgYBkMYFQQh+OCpyOBNwHDr/X8rZ+3U7nT33vucfc7Ze59e39e7d3dXV1evqlW1avVa/6qHqBiwCEAXBruPT5P4b6ej9wjqGEgE9uHkCOeOKEnsH9Qd89siol56SoB78qUAWDji4dnI1xGia7WjuAx8fSAUmzYB9t/3BRjL4NRdihcv0fTVsqENOsXP5hwANQCNAC7TLKpL+A/feUjy+oqkbiSf96339oR7eoMQIEZ8jC9ULPgDGGC85y96JiivNDwqDiHnmzQjPf4DmhsapBhMpjI0FzOcv6L8/BoV5RsNBAhrGr6To9eCJEwHM1AIgxwGXKz7GF0ZcfmPYZdw6jx6n+LdQU9iJOwJ4hF1Sv1Sp3QArBzE1yaQn2u1o3QZKAf3oHGAOt1Twy2fPTEoo1EAFY4m6sLPs0Hu8YEI4yAwYyAi9TmSzzpvXSM58RMb143kc8aozRPuSVP6W338/Zb/rsql74uPSaP5VnKFkHpQsalgrKUHC/rYKc6Xc37MQhHTBL+EYxFTDEZqLNRY/+lVQQuiwaG+o15pflq51/PO2nMv1lcaBKMBn7doZP4+TAP46kAZQS3qVHI++/vRSVNPqMioxdsIZYmOmilSER122GHGO9RhBDbOl//O16w8PC17kHxY+AUBQ7B4Ph0SqDy12lG6DAgrfh90JqA90WacGimT3yPjt32xYiqCpshA5GXnsylrD9CGIEZ7pkzwAz6yIQM9pcx4/mOPPTYz3zz3Xk/MiI/gbz+0Nnin39OTPUzjE47bCRrJi14VNTQLLwD1kHy9keGNSOXkEaivzOH4HMQIx6fKLEIrYMTzfLPStPo5cA0ZmRqlF154wTprOso0ZeWJJgW/0lOn9L31HvN5kbrO0hDz2lFWGRBC2kZWu6mnLGh+AIsw6tM5Ui7yS1MzkXyy+Mvz6nLy8YIh1D86+qMJDjx8+1/6t/4N7MkTMi9v0R78/zxKI/gwj/dvuln3oIpBdEJFZWIkGqiEYbYRYhRsluDz3CIkn7w6yypDT+b56fenA8kSfNJ1Z0BL51/ruCHhJzPUeTz30t57tR7UztdxtnCHi3Z+j7Ls/c8BNA8cmByrvz9L1LDw92dhy2eXHGh3DjDlY52/VqBM4W9kYcpWeImyDH3Hgdc0xWl2++iNPPuOI63/pDz+Dop9nXkNPp2VVHKg5EDnc6Ah6O7OZ0f5hiUHBg4HVvsYz2etkkoOlBzofA5kzvnTr73VtCV26tHjt1m514q9//vqJyvJrh3zoWSr966deLo1EzlYKOf/XhESv6eSuMX+sIgkDj8s8Z1FTIvw7iLEsqRiDiiAJHlAnnm7yQkm63s6mAx/13fuT2tZs7zv5Kyec6icfM4888zVlm0rfvrqV1kTkU+0H5EjGKG4JVVzYLWRv/pyYgK931aDq04j+PcetZUJNoLvHQGCzvbgscOSO76YveRXVUZdB2gb+NzjVFEPNZq+KE/3qspLs0SLMj60eHHe5fJ8FwdwP2UdPhye6ATSNG/evGQf4R1wHceWXNL3feqkVr1wf1E7wDcDz0+exyKtJa3OgZrCf9sXtkzO2aPaTx8BX/fta1puH9D6fFm0w2WP1D3q4xW3UP719Qp/o+mzyufnzlfgSd6o72nKfTEHLlOsxBECa4ldrOM7CHw6RdiN9fhK4ETDd/AipB/Pu6gdsJDlunL/ZnXnkrI5UFP4h6ybH4BBljte9mhy/I6rluNG9f/4Dx5L/u1jG672xJ8K1YavCe9RBbMqKsEzNyrM1tdD31rIJlO1DDFEA2Al1HfLBXc7uUE6OktR+j332CPZUJ5ko+VH75FbqxUidQJ1nuW6nfA757kbaCoA+lCzP2v5czppv1xuuL+49dbkqK517dPvRuQl37dPO+209KXVjnFrHSYfdgJ7COfmPyv9sprtJptskkxQHrjI5rUDMlwsTY0gmP8SpFhRANFqDx9gJ2oKfx4/Xn39TZsSHL7tu5PjIuFHK1ioKcE5d/3fZNKv/1S5nRBaoJYIlrlPFUtwxFcUzbSrYq2/2QXWeI2i3g6RmobKdrwCbj6jKDxWMx0lYT5a8E7MBz+uYId0eqKsGHmA9vq5Ajk2FuTRgYJuwg+7FuHjjy8/JLSX5FjFmvPcWxRVtZGCOOiwSirmAB0oy0dnEYuuTlHAE+vZry3vtlqE9kfM/xvqUIii4z+wXthezj///OSHWlIbXIasdkDe2GdoO7S1naPgm1rPHYjXuyX8j8rgx4g/9TMbJ1//eHaQB53Alb9dJXyC7bLAFzoBjEFnSy1brPk0EUobCXADAlyDFVOJvHpScdNEUgHGwQgMPaKGxLV0eqLxGBWIqWftciKeEGqEuRFi3kqwxRlnnGEYfpOkEcSgC43kVaYVNI0E+SsnnJCMUTQjOHTdJWLpd5KmeOCBBya7S7v7hTr4rHZA/gB0EH13piIJSyrmQLeEHwMfhr49N31nJXfXBPwEHURMxLRPE+jGtddck3xIIbOo/cS3ZxHRXOD7M/JuplDMvbvcIRkJsujnN99sobiAfrIxTYCI4W6EsAw7uo/flz728+W+NgeunDUrweJOJ06dOvINNoBG4vTfH83bP6D/DCRZhKHx7IkTk4kK2Qbhh2fSAb0h4JBa4CFZ+XX6uZqf+lDdfQRnPo/QQ27hdwYx0vNVwD/3cd7TehpQXNhAuiVG+UhNAYBYcnKwhFs0379ixgyDXKLHBzmFET1Nnh5DEp3LdT1U0TeV9pBe8ANgD2KuS2qcA7d1oS1tIaCKmDj+noyEWOKbQd4OWA+ACMsvpWCu+JyLxf9qLRpS0ioO1Bz5UesRbN/4nu//4z1Z8lWArwNnjHy/pSGtExWzjWLe+eSDoH5EUFyELWKQ8fhwFn7AmLNC8zZ6bD73EGv9jW98w7OxfTr9p6QZ8A15hhYE+bPU/ZuE07alBLZRtX9PQW8JIdiQfoiBpoPC8FRS9zgAqAlTNd9c+O5RW2Bxj55Suh0QMOPP8j1tDZ+BtBt7T5/dCffXFP5GX5KvA5/f5p9Wuw0rv6CSk89r/ocF/1tnnWVGIEd4oeLQBBA40jneHmr/evpkA/m3XxBZ4vQgnmBRBiUHFB7m/nxB2EnfnWuR50k6jJBnSW3kMxGdxw3qjChLSfVxIOYld/DZDuQb31jPAEIgs0A97GL04/n5nkv89+N0OyBPf5bvGVzAZ8CWVFI1BzKRfA6Xat5bxFzvbzL6ZVUGc7QY6QYtgIoG+imL0ulJw8g/uAuhh7khFuI8ovGAiJom1Ei+IadBPdLpBuKx4M5tUZJmvntP88xqB80sX7vnlcffmnP+Zr84bp1Zgs9z0kg3QGkXUTo9ad8TIfTQ0TwpCO08ykNw4Zt0Kfh5XGu981ntoPVK2Xol6nPh70sW0HnMlMW5pJIDJQdW50DT5/yrP6I8U3Kg5EArciBz5F+3hrrdii9SlqlvOPCa7C/Nbh+9kWffcKM9npLH33Lkb4/6K0tZcqDpHCiFv+ksLTMsOdAeHCiFvz3qqSxlyYGmcyBzzt/0p5QZDggOEI7LGnO4Q7P2HKRlu5NH5eUXE59RexLoE+fV3f8LFy60ZdV+PIBdfusS/s0m35ssX/E/yeC1ByUPnbgydPMD566MmHuLuC9sNGcAAEAASURBVP/s11Z50m19waLk5eUrkrUGrZH8/tQdu1s3bXEf6/OBSsPafwOdiNcAzAOXavjhLtlaS94i7eIVkgi+6m/hx/HlVmEQDGSqCd3tgg+TXlq2IkHon4uEHeAtP+cdAmnpLPw8x51IjGp4Ag50Ihpyxx13TFgI1VeadZ6wRh+LoU6aNMlPlfsW4cAaLMoZb+lyIcRQLPCehnNF59PXli5dmhwgkA3UPuL0QXbxUEuu7b///naNddVZSRU3W+gnP/mJLet80kknWRw3auWdd95pgA048gwdOrSC9AP6ywcF5sHoQ4w/a6Hh8z9z5kzz+yYOnCWbPaTUy0Q61muPA0COPPJICy3eQzHkPIdgFA/0OUrgIoBMgDjE81h+eqASHSAYCIRop70yEX4PwGFaUItwxyauIybaBcE53M/S7IBx4vL9iU98orKGIm2ElXOPERgL6/KByERwGBoIUxDq/TOf+YxFlMZ5n6UYE9YRJN6A/043KjiM1ZXxHiSsGxARJ9oFACbEjuCO7m3Yr7fNXgyqoosuuqjqeMg5CzOPOb/TJQ/Y5mnY+/+qm3QgBgX50gcF4QRFzgXNtYKCesLEiRPtmkAzgkaOcPfddweBcwR1EEHrqFs206dPR8EIp5xyShA8Vxg1alSQm3DQiBIUghvGjh0bJLxBnUWQGm5pFUgUtBJqUMCPHQ8fPjxIJQ2zZ88Oct8Nmpvac7XEdxACkF2TihoUBx7UiO25CuqxY3UcQZBjQY0rjB492q49++yzQY0yKJw4aBnpIP9yO9/pP4qZL3xF+KmOt5JGKn7Q8uRBQT5BgmR1/OSTT1au8yfOU6hMVl/SJiyNOueg+I6wYMGCoM42SFDD9ddfb8cKBw8KxrJ03kYUMh40MAQBegThCAQJfVDHYOdoXxJoS08d06a0FHcQEGhQ52XHtBF1ZvYcdRzW3jQQWRkEEGP3ersQ5FxQtKqda+WfmL9xOekdqyhL+F2ofc8NsZD7f79+/9JXA9uDz79WyRuhhdmaG1ad+/Wvf20M5pogmyrX/uu//ito5LZjKvad73xn0Ghtxwr9NQFW7LYdL1q0yPKmwl34b775ZrtGh6BorzBr1iw75keRf2HatGnWcfDchx9+OFCxbDRUrZ1uaalkxZxX7hOOoHUGdGQQnY4CgyrXB8KfvIbk754Wfo36JvD33XdfoJ40Wlu9Ui9O6TyFplTpQBTlGbSopSe1vUBBTLiF2GT1wUnaiEZ869A9sTTIMHnyZD+0+r3mmmsC9yP8DAKCjLPr0ipsMPre975XSU8ZhTwVpNVZ+5o/f75do13QybQLpfnr5a7L4CcBMfU+ntNzzo8HrYHZbxWNnrUS558zrvprdDSVEHXfCcMPNGfOHFPVYqTVrQTc+AcBaThqC6G/BNxAoLSABeDY8B4eqpey6/x40A5RgaRV51G5xtLPpJXQ27kYUASYMS8XFwkNdaLsoNEwZeiLJZT9ue28Z3pGvXodzRBIC2HXDwnCDbU6i1CrL7/8clPZmVqB+whhW2C6Je3Q8ktDgDOd9HqhnqRhVMGw0SbiKE6mB94uCDhD9SdCkA0kKWmJCahDtD1InYHt+Wl0yfHKjS30p67v/C7A0w/YMrPot47d1s4/c/oqqz8nHj9llbWfJYkJ0cXK6sR8mwpiTkZFAtzh9JQw/BA8bzR+vpl7bAt0DsB9AeLJRqdQL/IvZYk7nGaWrRPyQnC+L8Qe5v1OHoHnNhc/H+8POeQQg2XDGg82P+hPEFh+CCZtA3Qn8gYzIIsYILAF0WE4YQ/CZhMLsV+L98z3Qf8FKJR70p8q47Tt/L+m8Lvg85J7bT64MpJz3rct3rOW8WBNKQB+jv073roqe3p5DHDjxo2zytN83CzEfAqSqmgGQAxxjPZ8LsL4ovl1r/KW59LB8Fw6ALQTgEFka6jruRiyaEyPPfZYxYBY140DJBEa1i8F5YVBGVBNQFVPPvlkG2HhfR4h0Jp+GSgLxlbXCOkwEFw0QBCbvytU4CLCQCubUqKppdUvGkQ90GEYFunUGRgo86mnnlr0mLa9tko6e/kVsIreItRVmMlIj6q96667mvWWXpprf/zjH+1T0ScFp4UlF1QfiEpwlT+rmFz3dPF/T8s5Px+nYxTiuYwOfKIC3AOrMF8assjz8L2MRVYupih0HCWtrCvnD/xgvQV8AFCTWRaNzpIRvag+uQ/obWC7mQI4AQRKJ0KHDeoS1n0nnpnOk688WPhlILaBh2ke5SFdVnrPi0GH+xgI6OBpE6SP38vTtvM+E8mHnro3CRUfwUPo08Q1VH2fu6Wv99Yxz2Xe53aEep/DCIEqyig3EAhsQ/9018j76uuIJc9aM6/RPFmPgU+z1Fc9xEiO+u7z+3ruIU0tJKl68+nvdHn8rdvg18wXwNCSR0XX8u5pxvnuPpfRYKAIfk/4nCX03c0vb56fl1/a4JuXLn0+7bOQvt7ux32m9rc7o8rylxzoNA6Uwt9pNVq+T8mBOjmQqfaXi1PWyb0BmOw1LYrR7PbRG3kOwKrJfeU8/pYjfy7LygslBzqbA5kjf9ErL1sRkqsXvZgs+MPLydK/vW5Jh7zr7ckum6yXjNl+/WTtQdXefkV5lddKDpQc6D8ONCT8Dzz7WvKfv3w2eeGVN6pK/Hstysn2i8f+mkzYY6Nk+EbFePtVN5cHJQdKDvQLB+pW+xH8U697skrwB7/jrcl73/nWSsHpFEhD2nYm3Hvr8QRr53fsjbIrgMTWSeSbekw45sy84opEQWPdcoZioc3/FHBKSc3lQF3Cj6rPiL8qbGZlIZ5/NUluPn6V/z5nSUNa7ukvmiK3zzg2u9Fy4IU4rwkoL/ilE5s+EPz/b7rppmRnxbfTadIJON1+++3J5oqhwFvz+uuuS3aVVx6BXEWUrr/+8KxLl6GovM2+tt+++ya/+tWvmp3tavnVJfzM8dOq/mo5RSdIyz39Rb/XEl2tAK4ByMXCBQs6XvgvU4DNEYcfbjBecZ3jNXmcvEVPOPHE5IEHH0zmaZls/v+HgD/wusujdP2dP3lyMiHH5Tovj56eT5ehp/k1cj9xL3GQWyP3NpK2LuG/+6mXG8nT0mIQTBMjwqGHHppsLCSWrYSO8u9CWQEFBTVxmPzjQd9h7yo3KDl7KrBjQ/mFj1agRxxtx7WdRoywFX+3++hHK0g+xx9/fKKYbRu5yQuoLagoL9LQ266vdf4Yme5btChd9Nxj4hEO+tznkiEKB/2QQlVPVOMmnPRGRYSxUjC09bBhiYAfcvNo9wvL5d78C2lKR3W9r78PAVp0gI7KBF/wz2eJ7jz37az6AzXn3HPOsWwF9JJ8cs89k9MnTDCeD1dY+N1aVv2Y8eOtncDruXPnehFMC6HNfUBhxSMENUZH5UQQ2b777JNsoJiDf1bU6TmCGkNLyyoDnZXwAywd6Vklmg4CaqRM3tYvueSSZPvtt7cyjznoICsnskD5cSsmmIg2DwlsxuSC9uwbmklPqS7hf/7llVb9Rh7mXwL8Hpi3v6Ks8MsGMXWSKlMAGwkvQaQWQRww8Ts6JhKLqC1GE1785wq+2VhQWQcKAoz7BcCQHC9cuM8oYGO+1KNRYtLRivP+i0KCgXnaXR0GEEvkN1RhnUV50SBhPvufSWBPVhy3gES82DX3Z6pBUKHcy30/EnzUD6+8Mvm4gkK+qRBU6BrBWx0idbhTCeGkIaeJThXINaC06MDpIOkoi8J5s+qPaRjh1hCCIfQc6zxoF4RlE7hDTAaaxciRI5OTBfeGENPmaDN/1z3XXX99cpwGBiI2WXodwpZAfMC9mp6xxLuAPExTyyqDAGSsXklHXdNmT1JHDzVSJm/rgL9+68wzbaAizJ2l6+kQgULDXRzIugu72iHloi2zERVJetpXT6kha78/7G1C5n35DTFtwnZ+quaeqDfioh/W3v28iaSjYpwY+YWSYodgthEC/KUvfcmO6XWvVGfBaEJlP6mYbiqYjuBwdRIXTJmSPKL8QYUdrKAP5olbSruAYFpeXgA4gClwo+asHjr6lI6JCKuHpgucAqIDIC+CXhYLqGKsyr1RF3AJGHDpiLN68m73NM8oTBptDV/82+fPN2CWr0gA6WzptLOIOkjXXzodcRgT1Vbg6RfHjrUoQY7pAMZpELhSnS8DwZ8kJEuWLElQo0EP3lTtCY0MzXC0RnwwAQYp2pTpCQMIm1O6DICAsDE6vyxthk7mO5qOONVbprUUtAYxMPjzpk6blnxMEa4EP9Fm6QSIXAT0BKLtQlxn0LzgwgszO1tL1MBPXcLPd3w+5b1VAfuv/GNQ8psJK41825x9b/L+nBgd7omJmHdAF13wueZILvScECGfTj+/+WaLk49Rdbj2tBoUUXT0zj8WyguAEUR4QfSqWVSUF8+mXC743I+w1ksAR571rW9ZxVAORqidd9653ts7Op3XJ8AYviw7IycdPKPXhhtu2K33h8/ema6G6tQVXYm52UE40B6dmIYA1AohREwfEDxQgJhu/ocGnaxoU1R8NJx7hPdP1Km3Wc+33jJ5esLAnQC6gdCUYqQrv86edn6oQE4AM3Vwk/h6d/7XhO4mUxx43rHOW5Nvj94y2eCdb0v2+979ydK/LEvW1qThpb9nP5Z7YiKGX5h7huriEEjYAHgpbyRxegFj2kiKupamn+rcFRpxQVzZSYJGD44dIabYwl6UF6MC5fqzVMv3aHSA/qAOph6i7Bi0vnLCCQb7RCfCHPLtqfBeOiVvrPXk2ylpUMmht2iEdvIw3Lh+/Fq8r3U9Tpv330fOJYrjzwrnFWisaXyM/HytQCv5oKaJbquJyzBR4DJvaNB5SJoEozLtD+20u/SU7A27qNOB0JAgH+H5Hz+b4xPVxtAamC40i2pCd/MgPPeW/yMkx1z9cLLDpLtN8IsKQAfBPTEBlAHENXN1DC0Cc0xGCrCDeX8WfUoGFT53zJg+3QTzJgn6lpo/ovavEKILzEG1xyrKnDKmDTSi/FbW5ScEp838sigvRgFGIKzQaBV3CfXluxqd6iHK4BvaCLYMMOucPO6d+WJ6pPA0nbzfW4AY2FyYv9K5Aurx9a9/3ZCbnDdZ75+uv6w09ZyjbtHoEBye/ZimhXx6BWacDpkRn+kk7UigoaYBOmxcugxvKr134uAPoqr3hM6WXQsZQKMQKrWByXhnRXv8pewX8AzCOMhKSNNkNGagQntxbMuelGFVl9yVC9+m04TL7tEj1k+e+3//nb602vFbdAYvv7SbL0g+12rujbD+iyCc9hJaD6M2L+7fcX1PpqCooCIy94YpzP3pkTHkoTZSiWybyW6wXhc4p99/8JgxNtJihGK6UZQXlT1HRjpUro+osRwuvDgw5Dyv1V4wOsG9Z6kSqZSh6tguUoMAnchHeTo8rMJHCj7KUYmi2zvub5pnALbM0vz7ocWLrQ4/LH5ghPuRpmtFlK6/OF/+O3+z8vC0tEOej70Hmw51y8IitBWMZuTB1HG28PjfLzvNLmqLoPcceOCBlm26DHyxwPDIV4HPyubElyanRsrk97B+BV+YPjp8uBmxQRjysrPIieDJbdAi/cVyjmI6SXtGw2Wb9O1ve1bd3mci+SAAWZTn3utpGfHrce9FzcpD8vG84j094GDNyVxl9GuMpjAMdTtNjMhZCDt5eXE/DI7nbvSuLCKRRwg3RiAaNEYgn9em01MOOr+iRpu+p1WPuzNXpy7Q9qgnn/LF75eVZ179xfc18p82R/vJQmrCOLie7Ajpz49ZZWgURShdRtosnQ0GT+xZlIs2lybaFJpGlv0hnbbWcRZ/uacug59njs/+9MP+2Rx4+PbvnwAbDexpFDXH5+JeDt8XIa3QKWQh7OTlRZ4YfWJiyvBk17fc+Lz/d3hwGk2e4JOWjm4gE3XhKm29fMirv3rvT6cranN5dZdVhkZRhNLliI/pjLIEnzTpjii+r1n/GxJ+Hoo6f+ROG9jWrEK0aj50LjNzbBKtWuayXK3NATQP/D4wgPc3NSz8/V3g8vklB9qZA0z9QKduBcoU/nU14pVUciCLA69p3t7s9tEbeWaVfaCey+Pvatb+gcqg8r1LDgw0DmSO/EVM+O9//E9y5cKlyZ2/+0vy3EvLLekHBq+V/Ovm704O33lIsk60Sk9RPuW1kgMlB/qXAw0J/6KnX07Ouul3yZ9SgT5PvPD3hO2mh15Izhi1ebL90Grvvv59xfLpJQdKDmRxoG61H8E/ds6SKsFPI/nQKZCGtH1BOEoQ4dXbpOWlzae6t5/TCfmz+OpPf/pTC3TifVgnj+P0hjdlvYRPPUFfJTWXA3UJP6o+I34amycPyYe03NPbhMsjEFG1iA4CLz+cNrpDPAM8gJ5ST8vR0+f39v24MROsxQKZdAIQi2nixRlvBKfcrMCtPMJ/nRV5nfje3teULkNfPh/PVRY47W2qS+1njp9W9YsKRlru+fK/VgfbFN3Tm9deeuklG4EQ/v5oSP5urVIOL08z9xdffLG5zR5zzDHJhYqWc8K9NibiNfjUhdtzHuFqjf+6UyP4Cn5PT/fpMvQ0v0buX6jIQVyJe5vqGvnveOIvDZcDg2BMuBgS2BOre6eddpqNCKQ7UquxcszSzPjM48eMquiEuyMLiOIeypb2lSfCj1EHbzpCcn8on20IH2kPgRyqIBNf1pn0rPKKIw9Rf6j2TkCA0fvikDFcvtdE/tVLBJCwyisruxKgMV4IMwCF5JWj3nxbPR0Rjqj4+KUXEUE11Eeex99Rise/Wr7/aFq0F+qCmA7HZCSEmvgJgoXgMWAhBFOxqi91SR3jJ++EBsL0EE86An3opJyeEiYE4b64HRNq/i2FZjNAZJWB9kcsAOlIzyrSrO4MNVImcB94Lzq0YULtocz7KBKUcoIVQPlxAWaqQ7uEwKjgnnhrSnSfXraKhLBadczBv56/MGz/7btW27ae+H8sbdY17olJQATo3EE9auW0BD6oIdixgnXsuiogKNop6OWDOoGgZZXtumCNgiowCIghqLKDYuYtvVTNoFEiqEMIiu4LAo8ICsIIGuGDek+7dumll1paRWPZOS0THeT6G4QYZM9S0JDdr6CjID/8IO+rILCGcPfdd4errroqqIKCOpVKuYv+KCY8aPnooA4jSOCDOpDA8yljuhxF+bTqNYVhFxaN+k3Xs9+gpbmD3FaDhM5P2T7Ok3aiaUFQww8CgLH62HfffcMJJ5xgaadPn275axphdS1glyA32aBOJzz44INh7Nix1k7kFx8kTGHbbbcNEvCgaNDwgx/8IMhXPggtx/KizUkDCYo7sLqS6661rawyqEOyNkKdLliwIGiJeatnMmqkTPLlt/LLNdyeeccddwQNdLZRZt6Zdq+AtqCIPyunApPsPNeQT8WJBE0h7Vo9PzF/4/T0dFVUj/Dvct6CgOD//fUVdm+zhB+hcYIR6tWDAmvslGKdg0ZtvxwUrWdMRPiduEeqddBoYdfmz59vlzSK2LF89e1YPXhQLLd1BHQQ0krsujQN6wxovDQAJzqJeoXf71HoZVBvHhTTHjT62+l0OTxtO+3zGpK/Q5HwjxgxIowbN86TVvbpPBFgBUxVrqeFX7H5weuS+pfXXIDfEAMH9Sc7jXUG/GcAoZ7ZpFmGMWPGWFppfkEjeBDMmx3HP+ky+DVpcZa3QoGtI+E8wl9vmVz4FabrWVonRjmlFds5xSHYoFNJ0PVHWmUQIpF1YulrRcdp/nrauub8fMfnU14jSD7c0yihBjkxN0d9JyQXtVm9cxKjn6DuefADUXNfFfbe7NmzDRxk8ODBlo06A8+uan+DoJzUIFbzr0YNJMoKVQzABqe4XH4uby9NwfAFAPZE1SQKTKNEXvIBcx6wDGlcVSp5d1+e+vUIydWQfDRlhNTArY75H/Mfu4ujQ0kTs+kDsfwE7AAHN0kgnlmRdKj4TAekDdq0lHYSU71l8nsAEnHydk1bR7XPIqZVRJB+ThiI6piykjR8rq45Pw48237wncl1x2yfLPn3HQ3JB1CPtdf4h5B8/pH5UO6JyQVVvW/lNBURE8IXE8fg/FEZCGN8HeFiHgYxfwcqCqFmTuXwTXFe/PfOgPk8G8/3jcbCPJLnMeeKyxk/N51nfEwFgTsAWizYgmAXYNxKRxd6OeJ7O/0/c33sOsxp6yHqo6cEkhCDCHYmwrXZyNdRoLEBYFWnDYAdwaIitCOnuAx8fWCQoS2AHPV9oQD3JMIPjAEnBjaItucUP5tzX/7yl63TSdu6PH139nUJP557r0vO6kXyed96bzdvv7hAGL8YCTG4SKVObhHyKkad+CU5hqlSU5JvC6wAIfYgCIAW+NaLJRT0EwxpTnQC5ENFI7TAHscEsCYEMiqCDQAolc6zSI9hkc5FczlDmSE9zKZSNCdLzumCjY7zzPpPGXyjobA4haYelaTpclQudPgfLP6g36QRl/JeG5QftARGQsKqu0ua71u9Upd0AIDI8skXBF86YEZ8jHi0mx122MEMeR7vny4D5eAeNA7QoN1w3N2yAWGOIRmNAqhwovxc+Hk2n7F9AMI4iOZEx9RMJB8aaxVlzflJ8Js//C3skGH0S8/3SUPaLBKqqs2NxDCbz++xxx5VBj+pNEG9MV1+UGcRBFlcyYY5nazoZuxQZYUJEyYE5kYa9W2+J4upGfm4pimA/ddqMZX7metxTUy3cxjfZLm1Z8l6G6TuVdJiTJEqZteYYwn5xQyElQQFf/SZyww2vAOGHOwY+kpRuSNdjsqFNvmTN3/04qsxG99iwy5GNwmgJ1ltn85TnX7AxgMPFy9eHOQ3UDH4zZgxw655JhpEKnNvzmEU4z7m/BDz/e22287sAtQ//JcGYNcw3tHOOI9NR18MgjRHu5YuA8ZEaS2Wt3AfzLCIgRBqpEw+58dgqa8Vlh/8odxO2ANok5r22innBe/lm76MefKa+zR//YZMJB8+qWVRnnuvp2XEr+XeS++J+uVAGH4vIzvIOMB2oYahJahS/HJlT8/Hee+hKxf0h1Gda3yKySJG4zSiDr0rIB5plCDup5yUw+eXIPugkeQRnxoPEiw1mgjfqdPv6PdllcOvtfr+T3/6k8GTN7OcWXmqgWYiMXX3uczR85B8mJ5Rzz419WdklaEZSD4AizDqo3lQLp6dJtoQspJlf0inrXWcxV/uqcvg55njs/+joz9qDjx8+1/6t8YDexCkPKHw57jBzo/jfZ5gkwZDXRHhA5Am8NzzKAvZx7/tZt3jedGIit4xqxxZ+Q3kc3TiaVtJT/hRhOSTV1dZZejJPD9d/v5G8nkLan5cKOaluGf2NeFkg/A6hnlfP798Xn0cyBtF6rs7O1Vv5Jn9pP4/y2gufwdzMMuCE++NEubxd5DmQJXn4THF57L+IM3L+uOx5TNLDvQpB9B8i1yb+7IwgxB4J1dHX9XcuaSSA1kceE02l2a3j97IM6vsA/VcHn+rhH+gMqd875IDA5EDDRn8YNCyFcGgu1mC21fibRS6eyAyunznkgOtxoGGhD9v0Q4W8WT7xWN/rWvRjlZjQlmekgMDkQN1efjBGAT/1OueTF545Y0Kn9JIPlwjDWkbJZZtlkNHo7fVTN/MfHHbzVrOrGYhBkgCPDNZUxEX65jkIJNM/8EPKmvRx9fq+X+qwED+s4kLVNbzzIGQpi7hR9X/z18+WzeSD2m5pxHi8wfOFs2mZubL4onuctmTcrJGG6AWnUS4n+6sdRRZ5ppOwGmCMBp232235GotYkrQzHZybMFluoimCP3H4/dJx/f2vqZ0Gfry+X3VPuoS/qsXvVg14tdiBBoA95SUzQG8u3qjo8t+Wu+fvUwxEkcoIu7ggw+uehgALkTOXa5RH191tCaAKWqtgkzsBiAeTudPnpxM0EKZfUnpMvTls/uqfdQl/KzL1yhhEEwTIwKqM6uMbqVw3X/X0tqglzgRLkmAxYZC6vmcVkuNoZwI+tlzjz3s2mj5JnhkFvfWytfzZ/ntbeWCyygFFeWJeyWruW66ySa2EfFVLxFxeJBCL4fIYepDWmH4RC3/TVgy77q1wpZxQyb4iPfoBFout+lfSHM7Sog7MfGeEG7bEN+4hymU1c/bydQPQS4CbEnmKb9hW21lqyeDanNuV3AVQUKfFMLN6RMmGH+Ha7HLu++6KzlGgV60G/g7d+7cSq7eNj6gpbpHaJVeOionArf2FYrOBuuvb6vvniPNBJferDLQHljOm1V6Sc+3ejoIqJEyMSXivVh2G7QqyszUlHLmtQ/Qhrgn3tBMekp1Cb8vyNnIw/xLgN8D8/aX5yC+0axjP0mVOUvr4MUvMVcQTURLKaAnWSSPv/Pl5w8RRcXIAhN+rmjAjRXzfKCgmcirnnzJA6gn/O5PlRpKVF9RnqQ/UxVNeQihBBLsOkUEpueypMsi7iXtzxRiTETWjxTj/0MtVY3bL5GFuK0SPnyhrnUCIZw05DQRUkuM/GHq8InmBCYL4Tte6fOIKLvd1cmzFDtCNVQhwEy1iLOA6DgAQoWXtAWeQX0S6zFP07KRI0cmJ4u3CDFtg3byd91zneDcjlPHQkTfDQIahbAl4GJ7rzQSQnppdwsV2ZlVBsBJqUPSUa946p2kTh1qpEzc99xzzyXAcH3rzDMrdpDPS2vKax+UC16wMSChUX1c0Yk9pYas/f6wtw1aI3n5DTFtQv1eeYRTEqL7sPbgoEGEMFIxTggmaiF067x5FQMgL63IJouV5xo98JXqOATNZHnVypf59VQJ2vQZMyoQ3EV50pgI8z1dDWUfzc+hi+mp6/RC5DkQHQDu0oRoLlZIK3PXLaXxUMmEEOfh2NnNHfKDcIJxd6n4B8YB8Q/wI4+GaIQe3BXUBa+yCD/9iQrvRpP4ooAtsOtwTAcwToAbih5NWHb7TxKSJUuWWBANz0WLu1GCi2YxWiM+cfmDtHQ6wTWjpIWxOaXLAJAGG6Mzy7HTyXxH0xGnesu0VhfYyDeFD+DPmzptWvIx4RIS6p7VPmj7ENcZNC8QQGpWZ+tlqXdfl/DzHZ9PeY0g+XBPTMRmE5Tjgs81ouBiouKdNpJwuFr1c8E8c78jsHgaYrSJ8ivKlzjsC6ZMsVtoiE5FeaKiA8QZxxkQb50V+ef5xXsa+1ka5agsIrYYtYQ5GCcZEP+vV6cNBgPTrJ30/ozGX9PcnSnRE4pj727gThxpuRqSj7QqCHMzgwKExujEVBIQDwghYvqA4BHEhbHyPzQaZ0XS0RbRcO4RngQAs+mpS71l8nI4eg/H3s4UBp1svPHGnqRqD1DMoYccYoOXA9JWJejGQV3Cv8sm6yXvWOetybdHa77zzrcZks/SvywTkk8iJJ/sp3JPTAgPgvrCCy8Y+i7XmOfwUrVGQFBMGUFR3dLE3L9WvmgUNISDx4wx9Z/12Ivy5Bk87+kuhBWOEeR6gCV4n+MUEv2VE04waDE6JuaVb+9qlOQFIQidTverbjaRzQPBh9B8DpaAMd9Nw7KledEM/ni7WiLItqwgGqC0blTHxMhPB/UVTQs+qGkGaMFQXIaJZ52VvCHbxkPSJNDarpB2d6Y6iu7SU2pbu6jTgZ7RIAb5CM//+Nkcn6j2hNbQFNReMhTVNecfs/36yfJ/hLqRfOgguCcmjD7gkx0vaGcqXkCLyUjBHzPvr0WfknEF1X3G9OnJnzX/41vylsLwQ+2vlS+jNRhuoPasI0E8THNQ5oJFeVKevQTzBbYA80sgl3x+V6usVJpvxO1j38DeEBOoRnw25F06mVCNn5DVHmMpajijJ0K0vgxmPtplvf8G4s9v5RvAvfV0uFl5cI4RHm0SwUGTe0wDAPBtQIox92bEZwpJp0RsPR01ozqULsObSs89TDVAJUJV7wmdPXGiyQA8YUETpsDeWaXbB50lX0umTZ3aVCSfuoR/7UFvSY4esX7y3P+rdt7Ienm+yE7YY6OEe2ICRONaqYF84voXwSvtJWw7RgRe3Cn9PdePgV7C0IIwwiBw8uidMQrVmy9zMvDcl6jivi6jUlGelOfcc8+1BrG3Oh4sylur8yLkmMovIhrPWapYKmqoOruL1EjAmY/vA9seHH86oE4iry9/J6EYmcGUT3uManzjx0gL5mLMD0/vezQ0rjOvZboX58v/ons9La2PQDVsO3TeH1FHsKOs/eu9851mNCMPDHuzZcx9v2wQu6gtAihzoL4yQekyCA7eDI9Y+z8rm9BOI0ZYOn4aKZPfxFoCfM//qNaFgCe0TS97un1crM6TqSP84EsZ26QCUBl/Rq19JpLP4VpUIYvy3Hs9LSM+gj98o//lpzL3qFlUTNbcKvOG6CSj5eAc5J3u5luUZxo5CDQfwYlHJar+iyaCYQjtAsMQU4ws4jojSXd4kJVfX53D0szI1Cix5BkjK1uasvJEe0Jz6q5dIP0M2gZaYBYCFFrJen2I5ENnM1+aLDYsytXbSD5Z/IU/dc35nZEI9fTD/tkcePj2758AGw3sKUJV8Wfl7d9TgLzT3XyL8kw3VtTQJ7u+72aV0VFhsOjnCT73cX0gEap+I8Qo2CzB57lFbSOvnrLK0ElIPg23QNT5I3fawLZGKrNT0qL6z6zDTtEp71u+R3M5gOZxjXw9MID3NzUs/P1d4PL5JQfamQPYGhyOvr/fI1P4160BhNnfhS6f338ceE1z9ma3j97Is/841HpPzuNvsem69d6jLFHJgZIDTeJAKfxNYmSZTcmBduNAKfztVmNleUsONIkDLSP8Wm4rAfEFwocan/CS2osDWpLcAqLi6Ec+jeKdidOUlrK24J5WeCvWfCTKcyBTXcK/2eR7kw+ce0/y4QsXVXjFMdtG2mLa+oJFdp57GiFi6x0lxz2dGrk/Ky2uuXjypf2ks9KW53rGAUJeCdRiwRc6AQhHpsMOOyzZe++9k9vkzowvPItnEpDV34TjC9GAA5lqCj9CvHzF/xiPXlq2wgQ7ZhjhKXQCEPuXl69cNpt7/LxdbOCHGHiWRO4psebfrwXgUQp/TzlZfD+x+qwbT+x+THToxDbgl47w46qLkwy+9SX1PwdqCr8L/nNf22m10nKu6Hz6GiMCPs2ETxK6qJVGq5B8/AH47TuGG4LL0s4EPmwg1BOtpFoB1SB0Fr95rdhra+PhLvkDQUZB+M576ONQRWrVs6Qy68cDsgGmAD76xPUDPUUMAd5mhOXGoxY+6rvssov5/BMlyJJjEGovQUxMXfBpx32TuISZM2daRBgLpbBstAet8I74meP4wTqFjJ5EEbYLEclIJ4tPeky+5DnaF4SDC+9GvH1eh4zrNME3Me2///6mNaBJwCfCwvG8/IQCw3ztRNoCdXHMMceYN99VAlDxtgNf4Tm++wT4xEQ7o10RxeltjuvULZoMbuhaLdcAXfw+2glTU48tidGoPE1b7MWgKkov0T3knIVV1/2Y/U6XPGBbfM7/V92kAzEoyO89qCGEu+66K2hECGroYeLEiZZU7q5Bapj933fffStLMgv9JQiIIUitDAJ+tKWzFXdt6TSHRPEI48ePDxJSW5pblRUUs20by3BzXVFYQVMKu6foR+ppUAMNgoEK8+fPD3JJDfLoC3PmzAnCVQtqRGHcuHGWhdaPt2W7Kb8iFIOCjYIaUVDgUpC/tj1XkGR2n4KS7Hj48OFBkYhBS6LZktEaES0vdW7GC4FMBAlMYOlylmcWrkBRcfvlmsKwc5/Lstzw25fnnjJlShBwh9W93yTBtjSCOvNTIc5TCEt2naW+IQ0YtoQ2fLn66quNxyytzbGiNW0JdNJ5W1CHHxRFaUt0sxy7hD6oY7Bzu+22W5BAkzwIUcmeo2mJtR1pI3ZM/dB+qEvqRSHjQUE9VgZvQ7QTxWSEqVOnBpZzb3WK+RuXld6xirKEH4GON26Ihdz/e5r7l74a2B58/rVK3jCRhqGet+qcRgw7zhN+xU4HzRVNeGG+Rk/LR6OAVbhG6ErjUhCOCSRCBEnttLQaYe241g+Vql69kkxqbBg9enTlmEag0caONQIFxYNXyqU5pD1LCEAV4b/55pstrQJ4AuVU+HIlL0UnhmnTptmxQEYCguKkhRUtLzq0VqO8hkQ508L/1FNPWaemEdeEjY6SzpV2IISdyqul81R4bZDWZNcFoxYU/ltJyx86RQUKBYXjmhByDuGX/36lLXAOvk6ePJm/RrQf2gb3I/zytgtCF7JrtCcGI0FmdaUOgXrT1DEITNTKzIAA0U7oZNqF0vz1ctdU+1VRRmkVnpPM6dkGrVEdvjt61pKEbdTMh1berF9gvPCLj5FKUNOJtc8jEHXAO5PwJ1sofp/tC1/4giV3oxIBIx4kg1rJnDK2NuflnXfel9nmOuHCMQgEqr8YZ7feIDiohwUSgUrJhmoIqcHbnh8P8sGASRmz8uIdCTn1+7mPqDmmCvCsnYkpzy9/+UtT0ZmaYWEnth8XV6ZxeYRaja0A0mhfqXNU/JEjR9r0gfvBBIR/TkwnvS04XwHscKI+iLikXiGCfbxOiPhD9SeSkI0pDFMw6oLpBUQUphNThXanuoTfBX/6AVtmvu+tY7e188+cXm0XePyUHSvpAW8A+ggrqxMCTMPPI8Jd6SyYxxPPzIbwscWdSN79fj6uND/X0z3zUjaMir5RLmwGjZC/IwAnTuQH3BSdSjsTHbcDmiC4oOVQ/3QKRRF7hwiuCuMg1nhsLm67wQhMfnSw4O8B0JIXZQdfsfW4TQA+MihoulYlxFn8Zb5/2WWXJXTw3ONwYFlp2/lcTeF3wecl99p8cMXAx3nftnjPWsaDNaUA+Dn273jrquwxnlDpmjNb5YFNDriCG+jymCi123p4UHuICQf8g7zqEWh6cgjE3DTmWt7z6j2PMZBRjQYoddK+bwPvhJGrUcLHQSqxjYx0Ahg8yUs2gkazaqn0CDpG0ssvv9yECGH6tkAoQNAtIgSapeMBbZH9w9B4SI+BlHpHcwB9uZYRF+MifMUYiaEWrRGcvlqEYZGOHI2NugVmvRNplXT28tuhat0iqGWYyYiGuo+lHuutk3/f9z3nqWDSEgmFqsX3ZFcdSUdDyCM6CRoRi0lgbW+UyDsvfxmPEs3ZzaLP1IP1CFAVsTh7+X3Pc/mfdwxKEY0coEnUWToAeFU0Ojb6Ln2RPn4/ngfyzIUCyQQHH+s8nwLp/NlqEV910ByYAjjJgGcDAB0jKEHw2olnp+uKOsfCT0fNwMM0DcQc0mWl97wYcLiPrxQgDfOlgPTp9/P07brPRPI5VgCUvUndQdzhcwqjN/OwRglVkd78nK6FH7Lup6PorscXHRrzzXrRfbOezznKyGczbCOtSjJGFkJvZ5Ub/oNVh83G59txukbzBPYKm0i9/IavqO8+v4+fXfSf9obApwFdiu5pxWt5/B3UH4UtQlXJKw+NpjuCT358q6XziOd/6efEhr70tVrHPbk3zhtjVSsLflzWRv7D/9jw1si9WWnz5vlZaTmXNrbmpUuf78S6iN+xX4Q/LkBf/acisRyXVHKg5MBKDuRPmEsOlRwoOdDRHMgc+V+NltDq6LcvX65hDrymhVea3T56I8+GX6yDb8jjbznyd3Cll69WcqCIA6XwF3GnvFZyoIM5UAp/B1du+WolB4o4UAp/EXfKa3VxgBgE1pNjHfksd22863CIUqBTlS9+XZn3UiKAXtxtuJce0fLZZhr80qUefukjBujxrrXWTBaO28oubzVtie0J6Xnk+G0qt4y47NHkldffTNYatEbywPhhlfM9+TNFXn4YmUoQiJ5wsXfu/aHWujtBse14axKPwLrzVysoBw9ICNfqI+VWi6synot4zN11992Zzj69U8LsXF/UatG3yz17IFPNkd8FHyb9bfmbiQu9M40YNz/HHsGHAAHx83aiBz94hymssgc5lLf2FgdYdffrX/96coOCYe6UDz0AFywsCRF8c5r84k9TRN8dWqn4t4sXJ3ibXTBlSm8Vp8y3AQ7UFH5H8nk0Gt09f84VnU9fU1yx+cCzyuhWCoH9dyH0OAoKkE+sfPpuucmymis+2BB+4YrBTuYpwmvYVlslihm386TfU/7wG8rff7T894UXYOf5YSnmfRUss77W9WP1VfzLWQ3ViXIQ4EE5tpVbLz7jHig0Xgg7pyp4aHeNXIPlQspyzDw39g5ktPt4QSiyP6fT9yxiOkZxE4corgHCFXYHBWsJqMOOWYadSMwTtEQ2hIfmWAXrEN2XR4rft9Vr4+vU1aRJk8z9mSW1WSl3A8VTfFqrHDMwQKzGS3sgqvJ9CsMF2YfgHMJ+WRV6iIK8DlA4r5fN8z9XLt+byu9/8802S/jvlNceuZ5uI96G/d522dcUfl7Ehdj3/nJ7znoiYauH8K/eX1FW+GUTqz1JjBa4RYJKL0CF5HgFxXxGARisXjpKwnz0UUfZmu4E/uyuSmVEoYKHKkyTiK4jFCRCIMzPFQCzsSCzDhQ8GHmzii5QYQRv3KhGxqhzvgI8vNIpB0sjv6Jn/lgNhCizWYLXopFA+OnPmDHDGvU84c6xxjuQXteqA3K6as6cZES0RLOfH2h7fN6BvvLoSfznr5k7NwHSDKLDJAiHwBgn3HzjjtTP+557b7/99ortAE3hJmkVBD4R1PVDQYARCPUzRQjSYZ904ol2K374RIouowyqq91GjrS6vUxRl+BB0BkQNzEmQuxFM8FGMVfpj1QgER0MIcRF7ZGHpdtIVryCv08r7+ua8+ep77cdsYW9W/r64heW2Xl6lm02WNv+YxQiLvph7cFgg4hg+7sqjcbxpGK06alhPNFfqIaPKD14eozAjCpbdgFm0AkQpUXIJ8RocKU6EsJ+0RzAvxPkV+Kr7xId9i01AIhyECt+/U9/Wmm0zwlX4CIZpLwDYI12MPaciNhDEzldoagvaK4oGLLk7Casj+75d8KeTpW5/SDFYMAnCMFN++EDqEFgF1pDVsAMS5yD8EtnS8dNXRMF6p0tYByMtCx/PlIC/p3Jkyvsw4X7IoGJOqDHXAn8hNNPT/YTBiDEYHO37A0+UtOmvqPBh4Afnvm9Sy9NlkjTE/xaYXskr3Qb4Vy7UV3Cz0sx6qeF3I/TSD5jfrIKoMO1BQSOynbBJ08i6SCivhjhfyzfe3pnX6/cVXFLFP38XFZj8gMJKCasyoz8jNQu+Fz/oABBnLiPRuKjFecBGgHYkXuh9HLSB0vtpGOg8yI2HNSddo+1txdt0g+d9rECzmSKhLbk0XNDpZHRAcTElIslsbME39MdKrjvmVdcYcJPJwC4B4SKD3DmPUIEoo7TGA1MK1zwQfIB9GMrTdmceO4+0vqc0kg+oPa8rvvqaY/pNuJ5ttO+IbX/olEfzHy36w5eiTiz5LhVVn8S3jd+FYQSvTe9PSOnEw2BCrpF8/crpGozHXhRaveiLhRcT8eeBuaEaoga+KxGdN9e0WhCPP2HNXIgxAvUwzsBHe2EtkGj+cuf/+ynkqdlhaYzoEFlEdeIH8dyjUrpc9ystAPxHDYSFuZgmoWa70QIL8LvUy7O84mN80UEDDi2HcBSQET+fJfwY1x8QwPFQ0uWJM8rXyDeCaXOIpB8QFCOPz0yLWFhmLxBxfOppz162nbe1xR+H7l5yd03Wbdq/s81ts3+6W3GA5B8/Bz7dQbpRBehzlEZzO355IMxaKSw0VDFVgihBeFGDRP6rUF1+33sN1CP/FtV2hOy+IPm8ikZemhsM7QCzJ/VWTAn3FINCrV/C43iqHmMFidqPniQGhLAGE7M4WmgJ+gamgLzRFaT2VvgDUXEaHSe0i0UUg/gICWt5ADzaSCvAM5AawMwgw3aUXYR1OlTvvpV6/TphJmexVOqlblU/zJV+LQW+jhOuBKo9q6lvak5PoKLPQctY6qmakUEkMt5551nAwGaHc8dq7l9LarVHmvd3y7Xawp/s14Eo8i1mr8h3Fhf9xIyz06yxAPLJTRUw8MDE28zjczraQ4G0RlAB48ZYxUOMgxqOwgrGH1ocELBtbk/0FcYBbkHaK1vy3hDQ9lF35/P17zQ82JEYB75nOwCH1FHwFcBkIJoJEVEQ4KwQXQCeGPRu9Z7DQ3qu6oHCIeZncV/31C7UcG/r44BmwvW9C8oDUAxzNtrESv92Nch7Z2EnmzGNqz9n5VxmK9DTtRvGslnotZN+JSMwszP0QiZts3QdKIWkk+t9ujPbPd9JpLP4aqk3qQ8JB8aE5WYNR9EM2Auloa2YuQfHKHokIbFQMDFY3pAB3CUYKNQI38tQ11MlANV3+eJ8bX0f6YrdBZgDn5WME8DlcDlY27cKDHyMk/Omlo1mmeJ5NMY9/P4W7fBr7HHFafOQ/IpQk6hU0gLPk+JDXscgxqzrgx6n1Nvj7GHueFy2QCu0Oe8NOWVI51Oi38kF+r7MwZKPkOW1DgHmPI1i9JfEGrlS+fuRshaaePrRe0xTteu//tF+HubWaj8GImYeyLgTBd6Yp3FEYgpxh7SJHz60NvvUOZfcqC3OdCRwg/TMDCyNYN2jlBim5FfmUfJgVbgQKbwozaXVHIgiwOvyVej2e2jN/LMKvtAPZfH3z6z9g9UxpfvXXKgVTlQCn+r1kxZrpIDvcyBUvh7mcFl9iUHWpUDpfC3as20Ybm07La53ILa46G28WsQ/EM4b1FUX5y+N/+zYnB3V2jqzXL1Zd51Cf9mk++1pbg/fOGiStl8ee6NtER3TFtfsMjSck9/Ex6D+IfXS42mrzffgZDuCnnOfVQ4DITdEhKNT8RtCvJxwskH70g8JX35bb/WH3scX1gFeCBTTeFHiB3Q46VlK0ywY4YRbkNHALF/efkK+889ft5O9MMPvTux1/VSo+nrzXcgpGP5bPz8EXjiNoD1ApgDYqQnAhMILwKrSmoNDtQUfhd8ltxOky/HnXc+fQ/rnjMi4IVHWCyIOE5EywH0gBcfDQVABwgf8a8qMMRXS91fQTv02hAuv98QGhANCn97VnYlcot47aFDh1r0HiGgDi5hN2X8ZKUn7h+vNEcO4jZGt+22285yYPVY3IgZyXBZxZHop8IIcMorm1/vpD3RmvjiswQ2hCMUcRaM9hDYfuAvEhVZy2vu/PPPtzgPu7HrhzqnY2HaQOg3YeG4gH9CgWE+hQCsg1V7j1FoMY5dV111VaV9EFEKZgQr73qZPH/ASGg7BA/x36morVL3tCvekZgVxwfwe9tmr0ZaRVr+uup4yDkLM485v9MlD9jmadj7/6qbdKAGEMTkIGENgtwKCtIIaiRBI3MQ1FMQE4OW4w6K+AtaDz0oYCcogi9Mnz49KGwzKGIvLF68OIjhQdF6lr1i7IMWyQxSNYPAO4LceYMgn4L8+YOEN0gogzzzguaf6eJUHeelV5x/UIOopBUoZRCsmB0r+AOlJ1AGjXRBjcGeJ69Cu55XtkpmbfpHwTY1S67OIGy22WZBQVurpVWUXzj77LOrzsd5CqXJ+CqhtjRLly61drJgwYKgtRatDV1//fWBYwVkBYVaWzraCfWhAKNw5513hhdffDEIni1I6IM6BjtH/WnwsfTqiCy9Oq0g9J6gzsmOaWdFbZWbqXsFiIWpU6cGhShbfq38E/M3Lie9YxVlCb8Lte+5IRZy/+/X71/6amB78PnXqvLmAEF76aWXggA5jdnz588Pivqy/1IdgwJoqu6ZMmVKELiHCbji9KuuKTQ3aESwDoROZObMmZaPRghLpxEgaASouqfoIJ1eS3oHaSN2i+LSg6LBTNA5QQPwhscx76U49aCRi8NQq2yWqA1/8hqSv4pGwSBtyDpioTL56cq+lvCTULaDSgehqUOgE45J2qAJtxCcTAi5hvBTfzzfiQ5o8uTJfmjtRBpm4H6En/r0MtJmBAYSBD9eSZ/VVrlI3dPJtAvl1VlNtd9VmLQKz3k3+qWRfEbPWpKwjZr5kN9uEXmAbYC2QlQYKhskBidDhgyxaDlW0UUFQ+13oxAx2MTPo1aiuhGth6rHdIBQUdRBwCHYXO3UaFF5bk/+ACdm0GOKEWBaMmzYsIraT74cO6HqMpUh5LgvyubPbaW9hCEZO3asYSwSu9+dYBreB7Xa65824fVKvRPfv84669hUT9pV1ToAAHt4hCZ1AJBHvDQ4EGKEEzvmHtMDL+Oaa65pqj9RoWx5bdX5TTttd6pL+F3wpx+wZeb73jp2Wzv/zOnVdoHHT9mxkp45FKAPNwh4kXk5QhUTjYb5tdR+m7sh8ITRMp9mQQhQYLEDINhHCdyTuPyNBc9FiC3X2Gh8bJx34rgRitPTKX1SuAM0xLgRen6gEMXEMfaHessW39sJ/5kH83WFeorh2hp9N4BY6ESxxgOo6YtrYFREMOEz4JvgNuRF+FEH2H3cJkAZaHf333+/DThFZarVVovubadrNYXfBZ+X2mvzwYkfs/dti/esZe8Mko+fY/+Ot67KHmMNgsUIiQVe8/oKn7CyA8gJ4g4Cx8hPD04FUuGAd0h1MVQYrntM+GjF1dP7g+CjOZ4Bg2BQRJuAMBIyAtVr8c9KzyiEIQjsPrSPmIB3pgFSNlCA6dDoLKBaZYvz6YT/YPdrymgw6cCogbTD1h1CoDGkAtAKXBt1DoHiRN0CxgGCs2xEhdnvJ7ToiRMnWt2B2oQGAQx4LSpqq7XubavrEsgqSs/5qy724AAjkFR2M95g6JMF3/5rlDDDHgYzfQWwc1LPgizr9jRVWtBnIzvPHE3WdjPmcVGjQNAoEWRBtrk+czyMPU7SGIKswkHquJ8q3Gelx86gCg0Yi2Ji3iesuSBYMLuuqUzVfLFW2eK82ul/1vxRoCjGA/iU3uBDTOrYgzrK+FTIylMaouUV22yEvxc0mtt5jMDSFoM6CstLvgVBA0hVvsz/JfBmC6BcGIQ18lsaoTnZHD++AfuOcAFDUVslPXWvLz3xrS39P4u/FDgTyQeopd6iIrQeenYZAxPmZmnicxK9PvO0NPGphXyxJ6SJXpz7Zs+eXQXmGKdDG2GEgDw9WgfEZ0VUee5nJHHisxEhw8T5U2YQh8knTUVlS6dth2MAOdGQmkmN5lki+TTG/Tz+Dmosm56nLvrOi9ElS/B5aha0l5cGA06W4HPdDUAYB+P5n9/LHjXSydNzrE85Cd+dmYbsG0E+e1rf5z2b60Vl8/vLfWMcyJvn5+VCnbphLy9N1vmitpqVvt3O9bnw9xeDWJKrUQKbn6W+cPtNj+poCp3eOBrlV5m+vTgwYIS/O9UCqm8euadf3vXyfMmBVudApvCzHHZJJQeyOPCabC/Nbh+9kWdW2QfquTz+rprsDlTOlO9dcmCAcqAU/gFa8eVrlxwohb9sAyUHBigHWlb4FflX6I1V6/oArc9+eW0WPcX9meWy5WS1WhkIj8ZFW0Ezub4Wq93UyydYMNTdhnv5US2bfabBL13a4Zc+YoAe71przWThuJVLHvvy3Li1PHL8Knz8EZc9mrzy+pvJWoPWSB4YvyrwJZ1nrWNccucVIK3Uul4r//J6czhA8Azr5r1DcO8bK85+khZMIfbi3K61D8FsOEE+/4B7ENf/TblrX61YCXlMNqcA3czlRcWN3N4AylM3H9PSt9Uc+V3weYu/LX8zcaH3t8LX0s+xR/AhQED8vJ0ofzqSA5cptoEIN+IzWIgVpyhGeNZBhFhWG7//GxTYdafiIwDAuFgxACX1PwdqCr8j+bDkdpp8Oe688+l7CIRhZdV3K/RyO+G9/ehHP6rcSkTffvKiW/+97012FSLLfYKCiqnoOqvu7qkAkJNOOil5n8KFQXWR67IF/bC45qYKGjpm/HiL6iJPwj3/7WtfsxWBhwjBhWAPIgghogpZuXcDLSrJarDnaCQjr5KyOaBY++TrQlPyMFmW5cZN+3lFX+KSPUbRmYcceqjdjKPUDjvumPzxj3/Mzkxngf6iHcRE/aBR4HqtGH6buso8AABAAElEQVSrF+rn01qq3YFCi9oAq0JTzwconDf97HPPOcfaB6sI89+pqK2OV5j5qVpdendpL4Pl1o0LdztSTeHnpVyIfe8vuuesJxK2ekigCcnxiuf/jFTE+b/6lS14ebTUQ+aLCOOYgw6y/c8U8nuyYLsUYFHJttZ1/PrvvffeZJlCNom7323kyOS8c89NFBxk6ueVV16Z/EadCc+HmJ/OmTMnuUqdz63z5iWogL7UNJWKm/G9CiVlGXBGsYULFlTKUv6p5sAXFYq9l5bBdrpy1qxk6NChyYckTLhkExEJRBZESO01c+cWwqoBuUZIMNMJCL/0m6Q1EN0HOOgPVZfUC+2EmI2TTjzR0mW1ASIt0UzAfGBAWL58ubUzu0E/hAXznLlqM0cKAo4OhhDiorbKvUw5ASmlY5snzELv+DzfdtnXNefPU99vO2ILe8/09cUvLLPz9CzbbLC2/QeI40nFYTOKwlyAMi6YMiV5RGGwuMlSCTcK1tnDN5/SMUEzEAtuFl0nDXlcdPHFFV9+BJ/OZYRGGggcQHrsyy6/3CqdhkMlCo0n+aUamxMNYpBiBVBbWZG3XJXXOVN7P0uCf7n4e72wDOMYCe5k1D5SIbXw9nRpXXlEsJTQfpJrJZCnTZiQMKKDwTdCGgUEGAcj7cuyHwDsgZHRKd0G5krgJ5x+erKfMAAhynf33XdXRmo0ke8oLBi/f575Pa3GvERhyDvssENuWwWBGDpQq0ADNNPOVNfIzwumR33OIfRsaSSfMT95MmH7nDYnQBgQwI0+8AFTt/eWygYhhKj0jBIu+JwHFcep1nXSEVzjDQ5NgRh7wXAl+OezIfgQ5wEOOUCVd9S4caYOonW4+niBfPnXVKDPx2SgYrrwDc1Xya+kYg78TAJ/sqZd3xdgiwuI30GHf6yANYnvF/5ezSCbQ4WbANgnRCcAuAdEHSmc1qaG4Dagpscqd7oNAPrBMu1O71a06D6aUvhInUbyAWHqddV1UVv1vHqy6rPn0d/7uoTfBf+iUR/MLO91B29u55ccV20XuG/81pX0t2i+f4VUJVBxXtSIu+i++yrXAPJgfvhnnXf6g8AXnGpd93S+JxxXGHrJNBmW/vjss7a9opGcDYQZwECYW3KNRSToEEChgYB9QgN5VlGAk9S4AOtAiygpnwOg9wC8caGmagcccMBqCZlK/UpTPfhKvdQi4STYgEC+96mdsNw6hPHwDQ0iD2lxkOc1HWBqCHRXFtEGQF/26QNpmHYIE8AGnKx7/FxRW/U0nbCvqfa74POyu2+ybkUDiM87I0DyyTrP9RUyAjECoGr9WfN8EHicBIhhuH4naP7GvOs5CaXPwUlT67rnE+8ZIRgZ0CDoPKZIvWMuuUBWaaHHmvoHBNg2ejZzUkYQtJB/lVq3h+adwHKzCAUaiSMHxfmX/1dy4B7xc3/hHBx99NGmYTFFg9DiwDhgvg18Gyo3c26/HmPrrcxp1S8hu59W/R0nXAlUe7cZvKn6oY4IwUaLmKqVgYoINKDz9MkRo+8QdTqgQj2sjiMeeLLuL2qrWenb9VxdI38zXg5hJDSWbTOBY6yneRZEZ4BwzRHOOuo9FXX4EUeYqsc1qNZ10sUx+dxzjgx+O++8s1nuP7TppsnNN99ssE+kA5qLRjRMKiFWYIxKTBG4Bi78bH2bfr8AK3bR/YB2ML8rKZsDbpdBQ9pZn/F8A38PI5x34jjU+DX2taZSQKahkTEFcBLcu9lp+AqDbwFfjpyy2sBEdfKfkjGS+vuwbAnArM2QFkc9Z6X3vIraqqfphH0mkg/C11tEg4DxeeAcAHEyYqSF2ctT67qn8z0jOs/MAtwoQgfiK8R6KofbETy/gb4H2Yi5cTOp0TxLJJ/GuJ/H35pqf2OPqZ26FgBG3hzOc6513dP5vghJJ68D4l6MQyW1JgdKJJ/m1Eufqf3NKW6ZS8mBkgPN4kAp/M3iZJlPyYE240Cm2r+uHGZKKjmQxYHX9PWj2e2jN/LMKvtAPZfH33LkH6gtonzvAc+BUvgHfBMoGTBQOVAK/0Ct+fK9BzwHMuf8fcUVXDfxtiN4o6T25cASec3hPYlvBmG2Wjat8jI4bqUXZeVzbdr/v3JDH/0Bf0DLv1dWA+6jx7bUY+oS/s0m32vgHIPXHpQ8dOL29gIszw3hg/esFuV02vqCRcnLy1cYks/vT121Sq9fj/csrkncdEntywHiHnDtZTFVli2boEg8Qm8JzYVwob5U0XLvFU6DEysg9bfw4/iCF+JApppqvws+THpp2YrEhd6ZBsyFn2OP4EOAgPh5O1H+dCQH8JfHf/82xbUvEmYCcF0ETTkBksJa90Tk+TZXMf0l9T8Hagq/I/mw5HaafDnuvPPpex5//HHz7V9nnXUsCAQAjpgYMWg8XN9FaD7xdAB/fEKCAXXAS5BFM1lr3QmQSEAluJeRZbLivEGZKan3OIB7ND74LH0N4bYNTNczzzxTeSjC7wt7EtNfi4ABI/4jpv0Vj08Hw/3EXhCZiXfmJz7xicr6i4B10GaOUegwobpa3dcCyb4hlCHwAMCTIE4jLhvPAGwEGDKCh/jvdKMARAgb1srRFhwGFqETbZEoUN4VD9I4rNjTtMVekXZVlF6ie8g5C6uu+zH7nS55wLb4nP+vukkHLNWsSggjR44MAlQILL0sIbZluUmrjiAoDDNoJAmyBQTBNQUxNmhuZlkp2MKuz5w5M9xxxx1BFR1Gjx5t1xSqGRS+GdRoLL3ChoMqu5K3JSp/msIBBdvk5qPOILBM+imnnFJJw5Lciq6zpbRZgp2lzhVmW7nOnzjP3/72tyiTQYuqWpqlS5fa8uwLFiwIQmAKEtQgTIDAsZZTCwJjsXTTp0+3+xRAZMu0a0oZtD6jtQN1DHaOZ0ugLb3wAiy9Oq8g9J5wxhln2PE999wTBDRqz1HHEYQSHRRQZGUQ+Ivd621RC7kGoQDbuVb+ifkbl5PesYqyhB+BjjduiIXc/3ua+5e+GtgefP61St5SCY25zz77bOWcFrusCKhAHoOi8CrX+KN5YdAc0s7BcGG5Va4L/886A/W64a677rK8qXAnQT1V8vZz5b7nHMhrSNQDQi7wjCCkpsqDNOqbwNOh0wY0WgeFWAdFVVbSpPNUKHWQIdiuawoRpMFV0vJHEYGBumaAYMCAEH6N+IFyONERSQP0w4DwCubN7kf4ZaCslFVaRVDwVxBsWyU9ZZQdI0hjtfY1f/58u0ZbpJNpF0rz18s9qF71BBU+PYf34zSSz+hZSyrZuur/2GOPmboegzkMG7YK2hu1PUZdIQOOOe8U37vxxhtbWChgkepQTN2PjUpDhw7128p9L3NAjcnQkTRqG05CvBw2OP7E9jsmAth3myrEmnh81OosQq0GDgyVHbxFn1awxDqw4EBxkZ8jBHsefEXwKExChgHyiHEDWP4dGDCnNJIPqj8oPo7kM3v2bMMg8IhQwsCdmCq0O9Wc8/OCLsDTD8ieQ986dlvjwzOnV9sFHj9llbX/Q4rhJ7QW3DwnYJacmJfFx5znmPO1CPw1UFp+LWhoJxB6SuobDjD/BXWHz33Mx50A7yDO35GROc8cGqLTziNguxgssMYDqOmLa2BcRDBpF2AtkndehB9IPgwAdBhOtBHsRLEQ+7V4z3wfAJIbBBLKPelPlXHadv5fc+R3wecl99p8cKUjiM87A0DyyTrPdQSUnhXQQ9BXgVAGQMNplMAZviu0HU07rHf+qTDhaExfKwB79HtB6wH6CcMQwA2aJ1qj8evlvvc4ACY/dYbBbdmyZTai8zTQl9Zaay3rFPAD4JMgBsGTTz7Z2gHtIY8QaFB4gAbDwOvYjnQYCC7+BGgZtJciwiisqaUZgOmUQGdavHhxTWHGsIg2Q3kZrNBAOpHqGvmb8eKoaVjv6dFR+xBW1DkYDGG5ZUknkGHoJIBdplFR+Vnk97FnAyaKToXGwTdn8N08Tdb95bmecwBNzjtw6hM13jdH6mFtBizsqMmAXjLyMqLngbV4qb4oKO3nhKPIFMBJBrwE3xCmf6AuY913oq7TedKWsPAzsMjOYBBilId0Wek9LxmS7T7aEV8q+FJA+o5rTz75933a4Ofnm7kXEktQL56bJdcbIamXQY4m4ZZbbrHbyFuqY8BwVFJzOZBnPKr1FGl6gS2LGs1TGJABA129hBEwNkLWe59sCkEdXL3JWzZdHn9rqv3eGzZzXwuNp9b1dFmYR2K8QVXEwIPajwqKsaik1uBAbAvoaYny5vl5+WIEjI2QeenS52uhTqXTt9txvwh/bzAJpx4MQ1iRqegdtVhHJ1hke4NXZZ4lB+BAxwg/L+PzTf6XVHKg5EAxBzKF/1UZckoqOZDFgdfk0tvs9tEbeWaVfaCey+Nvn1n7Byrjy/cuOdCqHCiFv1VrpixXyYFe5kAp/L3M4DL7kgOtyoE+FX5Ww8XDqqTO4gDxFzhoKSimamFMf0scc2bKww+nrThWw6/3x17ReBW34f54fis8sy7hH36pgm6mLUl2vvzRSpl9ee5hOh/TiMsetbTckyY8u1iks6TO4QBx7ixnfrNiKX545ZW2Hp+i3yoviIv25oL1AuDjenl47iqvvDlz5lSu99efF4UzcLviEQYy1RR+hNgBPf62/E0T7JhhxDrSEUDsX3l9ZcAG9/h5u1j+dCQHWDYb//4bFAxzpwKrALi4WCM8RNQdK+2y+vIDWhp7ntB++P8fZ5xhwBwdyZA2eqmawu+Cn7X0NueKzmddIxxzhx12SDaUr/fnFIQj4ARjl3wjE8VnJ/+igI+N5Lt98MEHm293G/FywBUVJJ8xqqdDDj3U3h3f9x3kXEXQFiRgDKtfVtcl5gJ/f/zz75HK7aG3ljD6QUPYb999ozNJIhwHW7qdgBvaCKv0bqA4AcBCgQaDiBvZU3EgJ510UvI+LSRKoBFtiqXgaVOsxnyAwnm9bP4AlnHfVH7/aCf8dwJbklWA360w4e20VDsxAU7jFZx26imnJLvvtlsyWIu5yn3YL7XVvqbw8zYuxL73N9xz1hMJWyM0V5VCNBbzQ9ZJP1/BFxDRVzOmTzcopbnXXJP8Xb4G+6oRtCtjG+FJu6YFSgvoKwKxIMJfrxE+n4N3gty7xRZbWFQcnT0CeJACgIrCebmXqQKx+BDLp98krYIAL2DemFoQwPUzhdvSoZwkTQIiyAhYuGWUQe1nt5EjLTjsMoX9AgFGZ0CIMXYnJ8KCeQ7t7UgFEk2aNMmiQRUHkBwv3MHPKCBo/q9+lYyS2/jRwhFg5WaISD9wCej40GaA8mpHynTySb9Invp+2xFbWNL09cUvLLPz9CzbbLB2VXanKqzSkVtvnTevYgC8VhVwusJ39+nq9S8X6iu9Me66CtCpyqM8aD0OMCofqSjNQRIE6hF65umnE8FgWcz97bIDEG/xleOPNwFEqLJom222sfBv2sNpQgJmRAfTYYRGYQgwDgaEl6UxChIu+Y7cup3wxb/o4osrWgUDzQRpHfsp1Bsi8hPN0wcUNJXvaCDCHZwQ4+8JZXiJ2hua6ZPCDEBzoCM4/PDDkwsE8/3Io49W2i6h44SntzPVJfy8IKN+Wsj9OI3kM+YnK3ttvy9mkMdmcw71HrUNdRCABkYJJ/zyCaUkBLgUfudKa+4RkmMFnElHzUjoQTSE8EIAY/iS54zagsFK8taMJ/2hAgXl6wDCTycAuAdEWwE45B5h7hMizmgfE4g7Pp3wNhWjQ1EGH1y4L43ks6GmC6+rLQIYAlDojxUYhrbwLqn2EJqGk7+bH7fjviG1/6JRH8x8x+sO3tzOLzlum6rr943fuuo47wDUFaK+GCmcwICn1wUBqKTW5gDz319pJL9RFv8Yas0X73iL4ued1lxzTftLh5FHYAMwZQAdiIVdPt8l/BgX35BgPrRkSfK8pgNgNuRFgNKmBOpamT7wLKYlD8rwGAtxVhlu0Xz/Cqn1AoJNXpSKz/S0E6nmyB/P83ffZN3c+T/MAcknTt8IwwBdOO+885IPCxCCUR/DEHPJIsSXRvIv0/YOB5hPM7KjUjNKPvzww/YgQqv3Vp0OFZQWRrjvasT/u4SPLwPUqcN5Z5WKkN1PSzvgSwGqvdsU3tTIi+ACxoGWMXXatKzbK+cI8aZNfUSoQkOkZQID9rA6jlrCvEKIQXROTAv4NI3RsBOppvA3+6XTaCh+PEmWViz/WHqxIoO9f9311xsUVLPLUObXHA6gdiPUkOPsec5//stfDK9vlgx0XxQaD+hNEPX6ozpwFlgP4AYZ+M4WopMTXw0+LyMb1n5UfITbsRppR2kkn4laCg4Nkvk5Zd1C983QdKIWkg/TEtYO8PUDjpedAvK26uVp9/1b1MNV6V8Xy2ByuOLi+4swHDGCdDqQQn/xt6fPLZqr5+VNE/vDH/5gC21kYSw0mqeQnmwe7lOIvOf6edoUKr/bIvx8rT0dBgLPV412pjz+9vnIX4uJGGxKwa/Fpfa6jgD5yN+MkpdIPs3gYpKsssQ0J78yl5IDJQfahAOl8LdJRZXFLDnQbA5kqv3rylmipJIDWRx4TfPfZreP3sgzq+wD9Vwef8uRf6C2iPK9BzwHSuEf8E2gZMBA5UAp/AO15sv3HvAcGPDCT9jpQVGkV7pFLJQfedH1Cy+8sOaacek8++t4n332MffWZj+fKL1f/OIXFhVH6Gu8ei6Lp7LuYnp7OnLlbnZ56smvVr3Wk0e7p8k0+KVfarPJ9xqgx+C1ByUPnbi9XfbluVlp71kt3+209QWLkpeXr0jWGrRG8vtTV63S69dbbU/IKAhDeYSDRNF1FozEiaQ3CNdUBElr1Tcle2LUCYxpJvHudI533HGHrZ03depU6wTw9cfvnvBtXHFjIohrmlxzj5X7bn9RrXrtr3L15XNrjvwu+BTqpWUrEhd6LyTugX6OPYIPAQLi5+1E+dMwBwhuafXloYmhZ1QnVJYlrRctWmTLYvMfIiSXaDzfLr/88gTPPIA4SupfDtQUfkfyyVp6m3NF5+NruFcSZcUoxoqphEmyiurMmTMtEozwXeKjHegBoMe99torWWeddcwfnOW4tpRvNtRoXvWwmBEK11PCOvHl9nKk771SvuqsDITLJ9FnsYoLYAQrxx6j8FbCRa+66ioLVx4/frzlSxgokWjDhg1LblPoK8QoyHuSH5GNBJHgDnuUwCNYa5DRGr49/vjj6aKsdsyKtixDjc87Ia/bb7+9CeZqCXWCkZqoOwAyekL4yQOCwTLpECHblJeVebPoDEF4EQeQ5/F3/vnnV3zq/X6WXieACC2DUFv4BL9Y2fl3v/udJcviPXxkeW3wAGhfBI+lywUYCfVO8BD/nW4UgAj1zDqQvBtYhU7wGQ0KyDKAPBwfwK+3zV4MqqL0Kr1DzllYdd2P2e90yQO2xef8f9VNOpCQoCQEASUEjRZBcd12PHz48KB5d5g9e3ZQQwqaOwYJd1ADCgqsCJqbBYVWBlVeUEVYto3klS5H+vjaa6+1cuy6665B89Mwd+5ce9bXvvY1S8p1ng1pdAtyPw5qUEEjXPjqV79q9wrswa5Pnz7djtW4w5133hmEWhuOO+648N73vjdodAx33XVX0LLPlkZCZ/coiCRoFAzyfQ/XX399kOuq3fvss88GNfogZJugjjAoxtzSF/2QFzxWB2LlUwMN6gSCIu3sNsquKUwQUk5Q5xQob6OUt+Kr58N7U4/UW5p4NmVQh1d1Kc5T0yh7Bwm1pdGiq0HuwWHBggVBnWGQoBqfOP7Yxz4WtFS3pcvivSJDre7UMRhPd9tttyCBtvRe7wogCr/5zW+COiV7Lm1RAWb2HOpZYCRBAUVWBiH42L3wWSHDQVOcIBRgO9fKPzF/43IyylRRlvAj0PHGDbGQ+39Pc//SVwPbg8+vWt7YBfbmm2+25yk00xqmQkErz9doEDQXNCGhESM8TnQWaeGvJy+/P2/vjUBqaSWJNJKg0cKOY+GfMGFCUG9fSccfGlMs/AiVRoJKGoWuBgVLVY5Zppp3c+GXphA0ggUafZrGjh0bhFyTPp17TKN0YSARPBZAStBoavcgeDRk9nSo3aG8hkRe8FDaTVAIb2bWQuMJ48aNW+1aOk+WVpeGaOmE6Rek8VXdI6AOaxvC8zMh5CLCn+a9NJsgjbFyL8IriK/A/dQrnZQv3S2tIihSMAherpIe/ikqMEjrsjoTKrFdg8908O1Caf56uWuq/WqoRrEK7+eY07OlkXxGz1qSsI2aWW3o4b73CE0FIthDjbAq0mqttdYylVejnqn7GjEtLT9DFReepnrySt+TdYxqF4OGgP4CtlvakIfqjcoeU/oYIxfvBYEm84IgojfeeOPKLaiXMebbpYKOYg4MWhHq56mnnmr3VW5o8E9cHniMygoaEsT7YERkH6MmNfiIzOQsi/7JT34y0ehqGHvpRITe3n///aaGp6+lj1GrAdKAmPp8QfBgECo+8f1MBakvpkjw2CnNe+oQXAEn2gswYM5/pmYe6UcdUDeg+LBJY7OwYaaBTC8gsAScqKt2p7qE3wV/+gEr59zpl7517LZ26pnTV1n9OfH4Kd2z9gP2wLyez0ROHrftx83cU9k0Xiep4CawLsR+ngbHHD0mB5qMz/l/0GQQRj6DOTHXj+eIHxbQBIg1xJ0DccXCFoBjOKmX9r917dPl4zju2JgD77fffgaO2qw1FMgHwafemBtjB0gTc32EOqsTT6cFtosOi68sUskrWAGAcVBXvBPgm98XOGdehB+851luE+AZtCk6oFiI08/mmPk+dYDRknta3eia9Q71nFs5RBWkdMEnyV6bD64Y+OLzfjtIPlnn/Xq9e0YrjGkYegBiQDBpBL1JGBv5Zs9I/W0BSDBCpAkL9RQBOSKglE12CiuXG7vS6TmmwQI9LdXLRhKE3zsVGiFGOUAjEEqAIzFkMbJBoN3QMSAIGK3qiV/HQIhQYPQDYZaGi2BCPJdRDFAMjFXwNi6PJWrwByEEcZfnYAx1QcHA5hoPFn8+90nVrit3BJryf+lLXzLUXsd9xAgLz+hc+MSKkbaI6ORAhQZABCMhxlBWjPIy5t2LZkSni+YEUi9104m0ehfdS28JIyHf+/+sY84BC8VISGXLSGZWck+b3hflxbVaxJcHBBgBQ21FMHg2xLN8JEOIUJvBjqdB0phHjx5dyT5O6yfHjBljUNRYwFEzZacwCzLXyZe8rhC6jCPI4ojDmgUQaDakYRpS7zJXCDTf0Ckfe8BZ6GCcKCPl4PMcAnSK8Pd6QsBkkw/Ec7CQs8X+BKjnsl/YV4B6n/VFQWk/99xzpi34PUC7sfQXOIGybdiXFb+WxXu+JmHhHyUIbr4wATGGExI8zUrveVGn3Ee7owOmIyM9WydRJpJPfzpfwFxUuxNOOMFGX0ZFOgDgkxkBAXSsl4CKZhTPIxpp7L2HikePz+hbRJQHyLE88Mj4XgQQIFIfPegwDjjgALMpxJ+7UJ3phFwr8DwoD/xg5ERg8wjtgpEN6GsaPdMI8mt2g8Upqgh/L698RecbzbNE8ini5urX8vhbU+1fPaveP4MBjtEJ1Q+DDWo/gozxpxFCTYznfOl7Y4Mi11zdTqdLHzNy1CP43MeozRQBVZxOBZUTP4BY8Ennxkv+x4TwYgilAyl6F3APYwLjrlMpb56f9750qG7Yy0uTdb7TEaVacuT3imB+xohHxe2oZaDa1cKKKykxBGgWGMViC7S/azP2aEU0WHeGakae6TzyRpF0ukaOeyPPRp7f6Wnz+NuSI79Xhs8f/bhd93wuwvjU27Tddtv19iPK/DuIA5nC/2pqJZQOet/yVXrIgdc0vWh2++iNPHv4mh11ex5/+8za31HcLF+m5EAHcKAU/g6oxPIVSg50hwOl8HeHa+U9JQc6gANtK/yKpqq4ffZWPSioJFGgR29l3/L5spY9X1xqEQ5Il1xyifEqy92ZxTGna8l1HIL48tEK1BftpxXes6gMmQa/9A3DL33EwDnetdaaycJxW9llX54bn6dHtHy304jLHk1eef1NQ/J5YHx1EIynacb+Rbnh3i7X196kxfJce8cAhjHHt/7LwiIoInz5T1Bsu0KizfHpm3JnvlpBOXhKQhPkeASAxw76VIsj0/+Vk9Ac4Rx4sExR3r15rS/aT2+Wvxl51xz5XfB52N+Wv5m40PvDCTvxc+wRfAgQED9vJ8qfjuQAy2az8u4NCoa5U4FYuEZfrNgHiFGeqMXLNeoT3ER8xsc//vHK4p4dyZA2eqmawu9IPllLb3Ou6Hx8DQeXYfJ2A8mHPe6oEIEoe+6xR7KhQiRHy6NP4Al23tOjTuIzznXUUAJk0oR6zr0x4Q5MUEcREXDySQWlnHfuuckHFXa75RZb2NLgcSQdnnUHKMhnA6HwjNDodfddd1WypCy8x8YKGtlWrsL4nuP6C3nejIRD5de/y847J7OEWuTEvYceemjyAfngk+9l8gCsh2rlS3nivASukXx0+HDL2u89fcKEZIjCV4cr4IX3OQakIfF3a0UgCsykqhi/EUwXZef990/5KuBVOEZxCIfoPSC8ERnhhVlgxyx0CeFyDOEZOUwem37eTqZ+qEtWao6JdwItiIAbYiFYpZfyEGgFPBjEu9GOWA78ffKrANmHeiSu4F/kWMX7Uo9eNs//XK0Ovan8/jcXqhH/nWiXO40YkbxbIdrbKdyamACn8QoCO1UxEbtLuxksF+o4StPTtMO+pvDzEi7EvvcX23PWEwlbPYRQEKhBJX1H0VgIJgEhR0hIgbH6+S23JBtLSA6U3zu+256eQJpvnXlmZb7IEs1pIqoMWKonuqCuCP5geec9FPxRRDRC5n5ChUl+rMZylsr0PY1UF6oBOv1M/vQEhuBXj4ch8FoQDZFG+oo6B+4lhgDhprFBnjffxK/VO48cOTIR8o+56XIv7/l3XWMZ8uMEGybkICuz3VzwU5Qvt6HO0mE54RYNPgLk9+LuCr+B8eLdcGuep2hDyniyhCfu/Ih0PFWqO++/TKsnx4S7MtBXxMFDdNjXqPOgPiDypxM+TJ0DAUbwho7p+AIQUe4V0pDFPpAH3mk3SavYQ4IN5NgPFTlI0NXPFG5LGznpxBNJZu8GnuAyyiDbwm56F+qE552p9kNnwOrPDCBORCRio5ir9EcqkIgOBu0E/h2veP7PiDfzBUQ6SgPL0ar3v2jaAhHpR8QkHR98c3wAz7dd9oPqKWie+n7bEVvY7enri19YZufX0O82G6xd9QhGfiGh2DkqhWgrQjchevUrFc2HK6zPCRk5YT40VUEyH9PcMt17M7LgDUjQzNeE8fZTCRThpDsLT68eEgpM8m4BPQhpxoKHBKeVnHTyyXYrjW5sV/lOUEP73/LTJ2gGgSLQ6HoJhTf+5xSDcJHK6B0APvlgDyJsRA0SI36HGtMmWqt+yZIlCY2V+AJGnhvVmGm0oxXVV4vy8t0nNWJm5UPMBOvWMwp/UZF2zOs5pgMYpwZOWC6N/D1dQCqAi3h4c5Hxkw7tSIFuDBKm3enqyJzoABC8S6XBIVS8b1FgEHWJC/S14sVp0lAYLIi2pG4gysJI+7ICq+isviP+OuHafJE6GQ+OmqvnTlD48n6qM4hIUYBGfaRGU2Eg8ohKOv4lcicntPpJYQbQCVJmOrALFMr9iOIymLZARE8SBt7OhHzWRelRn5sQerY0ks+YnzyZsH1OW5oAsXT6ucJbESDirdlQr6Cnn37a9vwQGOPkPuug2qbpMFXQNV3x4uwBhKgnoo3GiOA78Yw4gOb9UsudNlIoKUTjodw0Nhd8znMvAJGMthB5e0NEuAgG+m9d83hyNB5hGNp2i0bi+LmWQc5PXr45yatOE+mH4EMAXlA+D2haW50VFMOHbKlOy4mw5CxCSI5VsBJxGHScHkRzvQSXzp4Re7GuPS3eEBZ9kLAaGIXz6FCFMnvsP50AdQmh4jNwrC++0tmjprsgc51gJuc3CD+AfsTth3qmg/SRmo7QywpWAm7Yr+s+oijR0qjvzQTgsncX0rBP6XhW3I45bkeqS/hd8C8alV351x28ub37kuNWzu2cEfeNXwWh5OfiPSoeI+uzmg749opw6oFQcnpKqDpOz3R1CmgLaQL84ympcIBf3KOFNj7f1WDS6dLHWKBjBN6n9byhQ4emk612DDoOarSrgiTgXjoDkHOLyCP6lii+/I/SINh477s1/egprSlhRi11iqcAfq6RfdwRA3SSRcx/fyWN5kZBdRFr73S/7DdoOTvJZgDRGR+s+Tvh0KAl5RF1SQdPXRKs5HWJcfENwpulNT2v6QBIyHnRlXRsdFbxp0emJXx2jIU4qwy3aL5/hdR6oMReFC8XNRBGnpVfq56rKfwu+LzA7pusWzX/5xrbZv/0Nns/kHz8HPt1BulEAX1KPSqNZobU7j+LycztMLqh9judrXk4WPD0+gBPIHQuPJ6GPWGen9aogFEK+Oy8USq+h/+MWl/RnJsRG7sBKD2f1Ihci4DfoqEzFUBAUOHPleFwb4FA1CLuBWzjRGEW8NzHpE6CWwDUVU8J7QNjFXBVNPypEpCeEFDaC6QqI6wnds2v4/yYujGdAUOA0RzADDYItRw7DDylk6QOEWBGTdfi4rz8v9flcVrUgzxcu3pTc3wEF80FLYNpYBEREo7NiPLDZ9T0sZrb16IVCgWnXdBZMTg4FkOt+9rtek3hb9YLuQrue/IFKQXjDQ0HgWbuf/TRR9vnIn8uwBcY1rBYYwjE6koebK6+elpXD1Eb6yWEkG/5H9ZcEyMcaqlXdlxW8vNj9owszEef06j9EQnzvpqrC0raGpunTZfPywReAfcinNxLuPJ6Cls+ucvO4Omy9lnvHadjjv5WlW2k4Lp2VSdI+LCXo9a9lfeLMjxEIzXWfL5mxKMoSdB8vtuFeAQW/876zOcbajdoO1jvSYO2xrSOOgQjz8sUParqLyhG9kUkqkvgx9BqsPZ/VsY4rPFOWe+GLeNT6siZn1O/TLdmCDWJZ2el97yYWtAZs6H2UzeQ88fTtfs+M57/cFVkXxMj/2DNiR2njob1fkEoYW3FHoBqzny1iLC2g5n3qObjVDCjVh5hWOJTFfPGh+WhxvN4di2VPSs/ysZ9Pt/MSpN3jnt5rs+7MbjlqcQ0Pj4n1kMIGfNZn9/Wc09eGkBRmD6gYvPtnrlxo8QXGL4OZKEkNZon70Zb8LZSqywYI1H5fX5fK71fp03A86wye5p22Ofxty5rf1+8oFuXs55FJdcSfL6Z3zZvXvJNqc5UFhX3ZNc34Kw8Qc7B4OPUE9SWOB/Pr959+t7n9cUgr9y1Rsv4mY2i3cT3pv/D/7y5dTpt3nEzDWSNvhudcqOCz3v0pE3k8aGVzreM8KeZwkiI1Z7PPPUQoIvM3d24RMXN1KedIkKt5DNbK1H8mayVylWWpfM40LLCzyjnkNP1sN0Rb+tJ62kwJLkxyc+V+5IDA4UDmcK/rkbNkkoOZHHgNU2pmt0+eiPPrLIP1HN5/O0za/9AZXz53iUHWpUDpfC3as2U5So50MscKIW/lxlcZl9yoFU50LbCr/Xfq1bbaVUG49eO4dJXk2U5LlxMO4kIUsLVltWJPMTW3w8fAbw48X4kgKqn7saeb0/37dJ+evqeRffXJfybTb7XluL+8IWLKnn58twbaYnumLa+YJGl5Z7eJBwXiEhrdcJJJPYMw/U29r1v9fLXKh/rDLK8OJ0cYa4E3LD4J4RzDZ56eMxxDldgIvZwh+5vapf205t8qin8CLEDery0bIUJdlygoAM6Aoj9y8tX2H/u8fN2YoD+4H9AJ4U7cCcSHpUINcJNDAZwXrj0QnR0BMeA4sN1IiFx0GlGDEMn8rKv36mm8LvgZy29zbmi8/E13CsJtqHi2bN+HYSfN4E4OOUQ5ecLcXp61EnWuOc6KjPr9qUJN14HkPBrRIbVcoUlL2IH8B4k2AbACacjtZY8qDDEb+O6C+gFQA/AVBFPv7Mi1XwEY4T7N+EIsAw03oVgEXh4LiAY+O53IuEezcj+BcXxQ2g48IcgGgiQFEZ6YjggHLdYuQgXZgJnsoi6xKc+JtoKHUwRn8EMoB2xDiJek1cJJ5BnEKeBoxgr7bLyrpfN8weMBJAW/D3470S7RIshDgMsBrAKnWgbrELMu+I+HYcVe5q22ItBVaQIrKrjIecszDzm/E6XPGCbp2Hv/6tu0oF82KntIEaGG264IShkMyjyLEiQglB9gkaNoMCeoIoIiqSqpJcbblCMeFDEXRCcl23krXjvoAq1xwgRyPJW4IYdS6ULckkNgrCy46wfVVhQwwyKqQ+KIgw/+MEPgkZny5f0UlWDGmsQrFWYP39+kHtqUAcU5syZExTBF9Sgwrhx4yxrLSBq5aacavBBAT5BQS12bfbs2UHgFfafH7maBmkCleN2+yOvyNwiqzMIAu8Iir60NFOmTLF3h9dOEmyrKwGy+KkQ5+l1qc7TrquDDupUjK9FfJY9wfJVgJHVu2IJgjp/ayPqGOycQEWDBNrypf3QHtV5BXXqQYOSHdMWFHJs9amOIwhWLiigyMqg6ZrdS9ugrUydOjUICaryHq36J+ZvXEZ6xyrKEn4Xat9zQyzk/t+v37/01cD24POvVfJ24UfwnTRaBkWdBZjKhtBSIRotK8IvDD9PbhXBdY24VcJPAoFiBCHoWFreQVGCQeGflXvTf2R0s2cp/LTyfIWAhjFjxlhSKlg9fOU2obkEqfCVYxqERvjKMX9k1As0OiESWePg3EARfgQc/gk8I8iox6sHgWkEAWwEjbhWX3TydKjUoYyEloafdOOUDSEIBMSuawoRFP5bScufLD4j/BrxQ9zR0BEJSalyL21MaEl2P8IvL9JKWaVVWFmFVlRJT/sRalN4/PHHrcwMAhBtg06mXSjNXy93TbVfFWUUq/B+zo1+aSSf0bOWJGyjZj7kSSv7eKVddQQW+41axoZ6BYHA4hSvaOuoLMwd0/RFxWn7Et7sUUVjQ1s6vcecE4a7hTAE2FD1VNGVpCDmOKHexcEhqP5iol1GxR85cqSpteANAOPl1n2/v5P38GGsIMHAZGR+73wijBdADqZCEwTJhYWd2H5ct+FTHqFWYyuAvC75X4vPBB95ZCX8JwQ5bj8EcwED5pGOTA+8rAQvofqD4sMGoAzIQEQwOqRcDAISt2PK1o5Ul/C74E8/YMvMd7x17LZ2/pnTd6q6/vgpxXNdj5kGE883GhJzbac4htxDXbMaDrH8fGbCuAZOG/HlRQS2HJ0D8/a//vWvtvFsRw8uujd9DaMXDYZOC1DI7ws0stHIs3Se7XTM/BchB3gTu4cTgK3wBUFGcG8S0g9WdjoFOs88oi7p4KlL7Cxel43wGQPr/2/v3IO9qqo4fhBMIckXZdlIt3yQUjOklo1/JDqW5nsyFbMahwkGhJmsdKZIHZ0ELc3JIRlmCDWnwRcaaGEjM1LjFbIiZ5IUEcrUEkkRkYhL4On72feuw76HfR4/7+8n997fXjPnd85vn3322XvtvfZjnbW+u6OjI9O98C70SICc+EIcygODAAAlDE48Y7BrobgDOaxS+E3wKeQXjjwwU/ARbsdRo7orEiQfC+P83r3Lk0eJRqNBWDQlcwixoOOgKDJCaQdKDo1nurz2mCGEhB9hA7mFDgUlHRVfRiiieBfoLnQA7DqDYgoU3UaJb9k0KEY0Rr9bBArZLgRmP6M5KL9gF4KwwwEh6ChG2bQDIUKYQNSt4rHVJeAuwLwBuAI1ymeUi6BEP679BKhjZoMGGe8SLPhBschAwOBAuwQgZTBSuXQ2scQ2BbczSbOrC4YhgDzi741PPtMttLZGWoM7aG+m5UAqoT0nDQ6EzSfTOjNtrCK0uAaaSWcCuAcaYdBiQsS78u+zeHRQgFXQmYBe4+efOH6ZQ/8tnYF2BjPhhh6se76uoB23g2k3+y3QKdBpM/UHBVdKUndUlZVlHDMHvy7L+BxqDyBEoeFnkGG2wVIPJCjqMRTf8sTnWZ5jMABpmHZB/Hw9WvyBeg4i+Vwm7LR3m+hhWbOx9oJoWKzJGPUxIgHxpgrQQxr75EphzAOrTQUzyhQRjfTCHgz3PJpO0TNV4Y0izFSl1x/vg6NfBr0dyjNTf5ZkdOC23vbjNZpmo3xmJGfmYet7/91l14MFyaeIv8PKCv9u3vOVa/n30iFUCT7f6xnJmUUYkg9LhSLy30cn0wxqp3V+I/xiluUr3hp5NhS3UT5HJJ8QF5Ok3wh/PnsYhGAhVoby6j+DIQhY61iYQRgFmfbfjxevIwciB7o50G+Fn2k7e7HVJSzNIkUORA7U50BQ+NlfLlLkQIgDW2TS2+z20Yo0Q3lv17Ai/vZWl7crd2K5IwfakANR+Nuw0mORIwfgQBT+2A4iB9qUA3tU+DGlrWNxVVY3mIyeI6OMdrKlL+NH2T32y0OJ6u+FWBa/7j05jrhtuNlz0az7/Gexo8DEd74s/bDn6A8kb7zMbLg/5GdP5CGo8Mtn5FNzn3GAHgfsOzRZ8Y3uLbPZmhuSRW/yzPRdu/OeMO/ZZHPXzmTfYXslT005xsUp+qEhLO0jGs9gtLwq4lefw3us1JppqYY9/1dlmYlN//tkCcd+g/jQXylHHoht2I7Xfvf76lv/SG0fhqnsY8uWuW3J+1yePiSwQTsOPybT8namypHfBB8mbdq2MzGhN6bh12ZhnBF8CBAQC3cBLfrBDHOxIKQGK1JOM9mGcQy2Eyd4G1z2Nf2ZMqr6kgysnpQl5lJtl3atPBpB8sGqDqIj+IC8I9mOHCcdAFmmy4Qb2/lIe5YDlcJvSD5suZ0n2467KDz/DHuus+MujYEdZFcK9sknGuapcuT4oJBVzpaTju9ht3jRouTTGkFGqQGfKGcRttOG2NabHWmN2O6aHXN5B/GwLWeHX4idcT8vtKCr5YXXITQh7rO5pxENEndcds5lG6+pU6Y4s1C7X5Y/ixM68xw7yh4s82V2qsW+3GiKHIuukoBcoJ1k3y+X08/JKYkyQZikHnP00YkwDZydPHy5SCbJTLP9+1g1Eo8lFEInPAG3k+0h8pdgmm+gmtwjHp5tUBFPuVe3rNNkt4+AGx2u3ZbZqlt+9S6IZRnbmJur7be1zTpLA0ywQ0THQRvxiXLNmjWrtGzULW0Hj9APyQ0XZB+rz3Fy4vqw3HXPlzuvQET8pN1GrdT1kfLyZNNWo6o6u0LlOEW+KQcKBcrKas8OlHOl8FMQE2I7W+FOvWtNwlGHWJPTcDk/JO+ub8kaD4guI7zhvi7HDyHrJI/ITHe0hJMts7Hjxt0XRw8cd1aq4eI8w758eNL9RwJi0F54lWHmi4HQr9TomHreJOcOq3BstVnr8Z36QTWW8ePHO6tAQ5T9oRBmAaS8UXu6AzX1R3VOjFJQWf6sDKEzaZPGGXIuYcfhM9WpTZ40ye1XT3yWPvDhuOOOSx7VyMmoTFnpxCgfzi3sMX/dtdcmAqJwnnIXT5jgXmX3afg/lichHmwAaf5CeWfrc/hMnMslfBDCQHrbZWtfxtNGyop/PI4vjPqs+fHbR8CBPsPZCRdnYNiMwGRg2cFAECLg2FhKmCs3dul0hnj3lZWNusUP5L9qD/DpZNUtvh3z5DEKBBidAZ0SbdCIvPGehYp/qXhOB8PspE6dAVZ6kephqbAJQ/4K9o5+fVaD6EWg4GwW5JYdhs7jn7nHfz+OhRHeuXaDO5brbHF+J0gtMSLV9tlZmPyzHeINcdRgHMSXfPZTjrXr1rn4d99zT7q6B0lFwpyuEzqMpcn5Z4LfAvqLa+CxeAcIMhZn5qxZ2TtumzPHwYZtFDoL99e/+moqu/NU+Gzuv8AcUtCFLA9zhepCem8I1qksf/ausvObmzenL770UqrOy6X56yVL3DsF653KeyzLL/FAoNHe8um/XnnFxQUOy9LufOIJF6ZpdHb/3vvuy+5bvNc3bnR8+K7Ko8bp7hNGeeBTGU/LyrpG8Fr2DjuTF3lFpnKccUg+i4TExD0/rxaXM/Brc4TQZGH5NIFXA4KL++qIHWSaxeUcKht1C8ya1S3xQHO6fubM7D3UK3XN8yAsqRNKXxZMGHGpY/mPpJopZvHL6kyzkSyen7f+eJ3nr+Wx1sivBpON/lwbsabnyCP5XHT/uoTjAh1G9PQ43JhvNuGG3MP1I0uWOACHcePGJRxMj6EX5IcNwspP5TP+oHpoppVM1wXD5O77P6pIN+L4231/ZPRoP0qCQ49NQfEfwJNwq2YMzEiYTuOiKkgwdzAlhwgvy1+vF+T+4NGGz8Fhcvc9Qq7DX+wxWWZENvL5wKiI95s/MhqCEfHN18G/729/zRRfMFNu2YPnIlPZ0LS0jKeNlnW0eLxcKD1/V119Rcq/C+Xey4yNcIjR24ilDCMry64iukSm2la/1DngHlBV2UDesbqlPgFX8Xl3sJZV52hJYSN1HskH1J4uPVenznyeF5Wjv4fXEn6b7t92ZrjCfjnhSFfOVdN66wVWThmblR9/atBe0f4a0ViMmO4xtXtJ01I71EM5/37igObylDa7eHrVquQEoaZeqiUA00qfPimffKb+y4XkYwSsVB1CYYg/Pp2MRmh38H4ONNlV+St6x2+03r9TU0Q+dW1Q2f+0cuVuUengfNII1Wvr8L/pv9E/euLCzxD9QAi0TOvhk2YObklBBxeiIp7WLSsISN8XmIfVA0KFvz6CJ/BU54lJZ8tSy8iujxozxoJ2O4MNQOcG0Atozhf3CH8jZaM+QYm25QMvoeNhwxS/493t5QqoU2eh5wZaWKXwm+BTsFM+OjKbARBuxxEHdWPSg+RjYZxHDFNADwGNTc+K8ofG3il0lVu0LjU6TSPib7UmZt1IB8E6b4xGQL5J02A+MXasW1cyYqGQo4e3HtzSoEGdJ+8+Ropv6j2MQLj51iVGTEZK1o6sxWcIjhtFHY2lLH9l6e8Qyo/WVW6dCxiJrxyz54CrotyMkOgowBE8WXoNo+u1lgcTn5FPyLgOyUhTWrvd67xTeSW/6D1QrM0WWEqIynhat6yMtEBe8XkPvQp2BABo8G4QfCCQkkA2QsnISIyy9Vwh7JSNnHyVOF11MU24EuhlqHOobtlcZP2A7IS+hMEAyG7yMlFr+yqqU2dVaQyE+5XC36xCoABaICx1enSE92sayRFS++YMagpKKhoPDRsIp8mTJztsdLT8CCaKLjTm12l0o1HT+CBLgzOQYFrnOwE4Ue69N918c6/7NMwiukEKPxotXwtYXizRUoSGyzNl+StKj3DybViFTPv317duyPLMNR2WUGNdZ8dZa3wHYMI9CCUmGnC+WjCd5msBz1sadiYuSER0XB9XR3iWlIx0XiEq42ndsvJeFGkva6bErIvZyAMLFyYPaElGRw+h/DtJdYsmHq37CC39fqLyVRFemiy3WAIYlZWNvOTrVnqT5DQpkL+sLynkDyy+O6TQJV4ovr2nTp1Z3IF8DiL5IJitJKaLgHPkK8veych/oITcUH0sHAy3TdL8s3YLEWs1kHz4lszUlRFwkqahdDiPd3aGHgmGsUZGe2ydSz6Snz+mpXzOKiKmsKw7i1Bh+PyENpyGigYevpgw88yhgpHiKwF6kDpoRpaPumg3VTz1y0ra4PKZYNu7OJPXLmnTi+qGslE/oWeL0vTT96/rls2eaXcknyL+1rLwMyY261y0BrX0fYWdhXGmMyhqXNwHMWakQDz4Zo7AsebdJh3And63fOJVEcuJIsHnWT9/7nORpuNFhJ4DAlykisreWQfNyE+/LtpNFU/9svrp568pX1kZy8qWT6vqf92yWTosERuF8OLZsvJY2gP5vEeEv5UMY8qPggiwRrS5gEiWrS/7mhdASDneKV0l8E++goSIrxFMoUEsjhQ50GwODDrhh0Eg8XIMBOKzYhGxLGJ770iRA63gQFD4mTpHihwIcWCLZinNbh+tSDOU93YNK+Jvseq7XTkVyx050CYcCI78ftm370yT029/Olnz+lY/uPT6D5cdmxz6vu5v/6UR483IgciBPcaBSuF/c9sOJ/hrcvvuOSNxfnooTbvNVYdqnTpC23Qtf3FzcuLo7m/aFieeIwciB/oPByqn/W/3+F0Pl0Aj1HawD99+79l1jNxnWMLB/fuf/ncy4e5nklue+GdWUqzb2O3U34cvu9mkC77vY74Zac9wAJuHuXPnOlNmvi3nie/t2ESUbabCM62sx1amnS9vf/9fKfyNFgDB/86SdcnbmhW8sHFb9jiGK3ZkgU2+wAcb67ZI7z4HMDtmj8K7ZcXJnnoYLpkdP7nBvJYNVDG5te23i3LZynpsZdpF5emv4ZXC3zPw18q/L/jnHTMqufXsw7PnMMzAdt9svrMb8WLAcwBgDkyS8bcHZIUdj/FUBIQEYqTHQpE9/kI7LA94BgzQAlQKv1+uLdvfdmt5P8yu84L/vfHd7px2nykfXlY4qEAALrB/G/u00zAAcKhDOJLgqoo1Hw1M/tnBxxhp2G0VoAlMSqcIlQdvM+hS7eLLnvKflXcg1nyY8xIGCgyjE34I7OwKsANxyCOdFg5JkXbnAPYI+BvgwwBhNdjR0eHMkfm/adOm5JprrnFuunWt5nDool1gAAUakb9UoJNhWzaMoJhtAGZihBOVMBmcYRRWhWzTXYQaZM+07bkXkof+AObh0yubuxxwx04t/s+9669px49+nz66ZqMfJb3vLxvSw25c4eJNf2hN+pY+ETz32tZ0/VtdWTwJntMRdnZ2prLtdwATcppxwBkCdXTAC7Izz+KHLtSIHHCHPONSQXylcvRwgAya6rvoMuN0QBX8AWxBiD+pPPTSRYsWpWooqdajLp4cNxzAx+zZs1NNTbMw4ixcuDBdtmxZKqtABw6xYMECl4as7FK5q7q47fwjZ5vC4svrMH344YcdIArAGNLv7BYXoA7BjvUKz6dJPco6M9VeiyntBbAT4RiktCHqU+66KUAw0jGkgixzbWnFihUuTdqGhD7V4OLeLzdxBxLDs5DfRlxAG/zk+WtFxt20F5UJ/yX3PusEnA5g6do33HO+4E9b/Hy6Q51El35A9Hn5zW1Z2r7wC0rKdQRU4KtC02mU5LCTylEkleurSwdhhUIVK9v6VDBfDh1Ho7+Lh/DLl91d2w9hGv3tb6q95FPNHLL/dDRSWGb/2/WiqCHBj3nz5qWazbk6EeSa69jzfKor/AJVyR4VvoFLU8rcdMaMGalmYdk9LjRbSwUf5sJAQQL5yEhu0u5ZzeJcUKiNWNzBei6qs9rTfunrkvnnj0lO+pgAC/Xtf9KDzyVXL30hU+51r/GPSPDph9uQVHzdF7lf0Hzmz5/vdtEVBJeb3lUpgUgCr7BpwsNjOsdUnq8HEN57eULxhGswDh0sE/CFB8PNiPfmyd+2m+WA7wzC1F+NI/9I/O9xACCPVQIRwesOrMCpU6d6dxu79HH/WEKwFFu9erXTJ/joPKTKf/QMGmAceIePjEQ7wVOS+5F6c6BS+P3mvo8k+3avA7hj5Xqn1T9vLMq9bsEn+ToyMnHiROdqq17drdsmyFdfs4Deucv9Y72v0SXR1NKhsuCfHSKEHDyASwQpBWQUnxmxkUeAIzWfA5p5JTcLN8EIr01QgkDiCUGIWbyyM8AfRnw2BKEJZSFOTv494vCfcNB7gA6jTRnhSozOITpHGUd2nSuFf1fU7iu/AyDECf5ZuwSfsLRn7Ge2ECKtzxzwAyg7zAJQ7Gg6Vom9j9KQ0ZdPhnzSYwOIEBHHDmYLWrcnNNBIreEASlVQe9HuI2ggEXGNUi6PtlQ3ByDvPi60JwQbZS0Qa6BBoYglXMtTh3yEXQHKYsIhvuODYkwboxMAEIZnyxyo6uZpsMWrLfz+aG4dwFWnjE5uzQk+OQcg7AAAAg9JREFUDPLjhhgGPDWaeDSxaO2BtmJEr/L55hk26QBphs9GNLq87QD/mSIC3wQKD58Y+QzFM0XgIaE8EreR+KE02iXsWIGt3imEHPY8oA7xqERLz9IrT/n6yt+3/8wcgAVntEfTj0aftsJSj44FxCfgvegk6AjAf4RAg+IaCHiepQNgkPFnfeQhkpblGiH9mX0yZ86c5DJhpxmtf2t7cvxtf06ev+IzbgXvR7YnLYz/e4mva1/bmpzx81XJyunHJofsV2zjD4oM07JRPcg8fFpbvHixvXq3M5s38HmwCBUn/wAzBUYiSz9/P/5vnAPgDNLxFhFLN3QldMB1qShN2gfLtiLwFxChiu5R9yz/6n5arJvXgRiviL+Vtv37D8dsd2hy1E1PJkM0TxiSCv+M+YIEfcheqYRd//XXHUO6u4Gt/0uTg/TcAcP3LuUV34N9waSi/e+5+YcbQcXhWZYSfvr59OL/5nMgpEh9p2+hfRQJN2mW3aPuo+CXc75S+Idrw81Vlx+fdO2w8b13gkUzqH2Gatrc4OwK3D2OSJEDkQOt50Cl8JOFoZLwEXs3KMmtz3t8Q+RA5EAfOBAUfvayixQ5EOLAFgGSNrt9tCLNUN7bNayIv7W1/e3KuFjuyIHByoEo/IO1ZmO5IgcqOBCFv4JB8XbkwGDlQBT+wVqzsVyRAxUciMJfwaB4O3JgsHLg/yRuauet+l60AAAAAElFTkSuQmCC;" vertex="1" parent="WIyWlLk6GJQsqaUBKTNV-1">
          <mxGeometry x="500" y="720" width="141.24" height="298" as="geometry" />
        </mxCell>
        <mxCell id="IDAym-GHxGksm_tRHVag-9" value="대시보드 서버" style="rounded=0;whiteSpace=wrap;html=1;" vertex="1" parent="WIyWlLk6GJQsqaUBKTNV-1">
          <mxGeometry x="360" y="1040" width="120" height="60" as="geometry" />
        </mxCell>
        <mxCell id="IDAym-GHxGksm_tRHVag-10" value="" style="endArrow=classic;html=1;rounded=0;" edge="1" parent="WIyWlLk6GJQsqaUBKTNV-1">
          <mxGeometry width="50" height="50" relative="1" as="geometry">
            <mxPoint x="240" y="1060" as="sourcePoint" />
            <mxPoint x="350" y="1060" as="targetPoint" />
          </mxGeometry>
        </mxCell>
        <mxCell id="IDAym-GHxGksm_tRHVag-11" value="" style="shape=image;verticalLabelPosition=bottom;labelBackgroundColor=default;verticalAlign=top;aspect=fixed;imageAspect=0;image=data:image/png,iVBORw0KGgoAAAANSUhEUgAAAP8AAAIaCAYAAADvHpvSAAABRWlDQ1BJQ0MgUHJvZmlsZQAAKJFjYGASSSwoyGFhYGDIzSspCnJ3UoiIjFJgf87AySDMwMOgyaCcmFxc4BgQ4ANUwgCjUcG3awyMIPqyLsgsmW/xzOeNTxtmxp1VrE7tmYipHgVwpaQWJwPpP0CcmlxQVMLAwJgCZCuXlxSA2B1AtkgR0FFA9hwQOx3C3gBiJ0HYR8BqQoKcgewbQLZAckYi0AzGF0C2ThKSeDoSG2ovCHD7uCt4uAQpBHq4EHAtGaAktaIERDvnF1QWZaZnlCg4AkMpVcEzL1lPR8HIwMiYgQEU5hDVn8XAYckodgohVqLFwGDbycDAzI0QS5jBwLDtOgOD6EyEmJII0CsLGBh2dRYkFiXCHcD4jaU4zdgIwuYpYmBg/fH//2dZBgb2XQwMf4v+//899///v0uA5t9kYDhQCACypl3kVLQzTQAAADhlWElmTU0AKgAAAAgAAYdpAAQAAAABAAAAGgAAAAAAAqACAAQAAAABAAAA/6ADAAQAAAABAAACGgAAAAAfDkVRAABAAElEQVR4AeydB7wdRfXHBwhdEpHeQxOkqEgIIbRAQKQm/CmhSBEBQbpA4I+gQOgdKX8w0jsiSAdpKoQgRYQEpAjSAtKEQEIISZj/7zvJuZm7b3fv3vfufbnvZc/nc+/euzszO3tmzsyZs+f8ZhYvcjVom222cV9//XWbVP369XPHHntsOH/RRRe5Rx99tE2axRdf3J1zzjmV888995wbPny4+9e//uXmmGMO16dPHzdw4EC37rrrVtKUP1qXA2+99ZZbeumlG1rB9pT56aefum9+85tt6jF58mQ3yyyzuNlmmy1c+/zzz90888xT+d8mw7QTX331VeiP/L3pppvcsGHD3OjRoyvJBw0a5Lbbbju3yy67uIkTJ7p55523cs1+jB071vXs2TPc3861wjGLv7MUEf5WeICyDq3BgayO1JHaNaPM9tbnyCOPdFdffbW78cYb3UYbbVQpZtddd3VMgkOGDKmc6yo/svhbCn9XacEWqWdWR+pI9ZpRZnvrg4Y766yztjd7S+bL4m/3esqWZH33qlSPHj0a/kDNKLO9lexugg8fsvhbzvzt7SVlvpIDXZwD5czfxRuwrH7JgfZyoBT+9nKuzFdyoItzoBT+Lt6AZfVLDrSXA6Xwt5dzZb6SA12cA6mmW14NlFRyoORA9+ZAae3v3u3b8Kd777333GKLLdbQcptRZkMr2MULy+JvqfZ38YYtq19yoL0cSFX748Le+ORLt8Fv/+G+rhkBEOdybvbZZnGP7vt9t2SvOasvlP9KDpQcaAkO1Jz52yP4PNmkKd71+79nW+Ihy0qUHCg50JYDNYU/OeMv3nMOd+pmy7pztlzerbTQPJUSX/7FWu6fh63lnj+kj3vu4DXdXXusVrnGj48++shtuOGG7vHHH686b3+eeeYZt+2229rf8tgNOUDE3d133+1effXVpjxd2cfqY2uPiy++uCrHWmut5fik0ayzKNxx51XcsvPPFS5vtuL8rv8l/3Bjv5zsVjrnqbQslXOEWdqncjL68cEHH7h77703OlP+7E4cePPNN91OO+3knnjiCXfSSSe5X/7ylw1/POtfHNOo7GPVXOnx85//vOrMU09lC/Ey35yrIvhk6jVXD/f9xb7h/vLvT928c8zmGByg8V9NaWMjWGCBBdyf//zncL38mrk4wEzft2/fECK7/PLLN+3hyz5WH2vbqP15wv/OZxPdfz7/qnKHLyZ97V78YHz4/8Be3w1qP6r/v47oW0ljP1D5lllmGff000+HUy+//LLbbLPNAtDCGmus4Z588klLWh67GQcA3vjVr37lbr31VveNb3wj9+n+85//hH7yxhtvVNIRY3/44YeH/ywNY231kUcecSuttFK4VvaxCssK/ahp7Y9LwYi3680vucPXW9LNPfus7sKR77oPx08KSfpfkm/cAzAI5yFQUEBN2Xrrrd0SSyzhHnzwwXB+n332iW9V/u5GHMhbSiYfEwGmn0yaNLVfcZ21vCFJMTgwmBhNmDAhpOd/2ceMK8WOdQk/Rb784Rdu39teKVZ6RqpRo0YFo8/DDz/sllxySde/f/8A68VasKSSA43gQNnHanOxLuFfcYG53aYy8nHsoQX+a/+d4M4bMaZyl3eO7hd+L3naE5VzaT9eeumloP4h+EarrLKK/SyPJQc6zIGyj9VmYSHhn7PHrO6CrVdwW6z0rTYlmvAj+Cb08e82GXQCo8+4cePchx9+6BZaaKGQ5PXXX09LWp6byThgqDP0jRVXXDE8/SeffOJ69eoVfnMdq71RvASwcxzLPhZzI/13G4NfWrL/WXXBVMFPS1vk3Pe+9z0Hqu/PfvYz9+9//9v95S9/caeeemqRrGWabs6BRRddNKDyYtR7++233X333RdeARvI9He+8x135513BsMxCNBnn312KkfKPpbKlqqThYR/xJtjg2Hv/XFfhSOv8j6fOMV9/MV0owyzPjN+rVmfu88999zutttuc6hmyy23nNthhx3cHnvs0XKQx1WcKv80hAP2Lj6vsAsuuCAIOBDhhxxyiFt//fUrfeOYY44JENsYEb///e+71VdfPRVws+xjeRyeeq1NVB8jbvzu31T52kVNTZEUfv7n0X//+98w0ndH4MS85+6q17IixDryPGllYt2nbyy44IKpRX/88ccBI3/22WdPvR6fnNn7WBp/4U/Nmf/FQ/vEfMz9XUvQ0zJ/61vfSh2509KW52YeDjAZZAk+XMChp4jgk7bsY3ChLdU0+PWUF1+eUK+j4J23x04MJSe1hKXKiL62HC/PlBxoEQ7UFP5a9Ry5/xq1kpTXSw6UHGhBDqQK/+d6DVdSyYE0DowbP941un80o8y0us+s57L4W3PNP7MyrHzukgPdnQOpM3/80G+N/cptfu3LitJLD5OM08a/Z9cmqfft+m1H/H9JJQdKDrQeB2rO/O0RfB5z0hTnBl7dsRiA1mNXWaOSA92HAzWFPznjLzZfD/frDRdzp2yypFvxW9Px+Z7Zb1X31L7fcY//dGU3Qp+bd6gdt/3ss8+6nXfeuUPc/Nvf/uZ23333zDKG7Lije/755zOvN/sCWzvnhUnb/T9W5NqPfvSjAHZh5+JjI3gVl9eZv1988UX3f//3f+7SSy91r732WtNu3Z152Aym1VT745vOOot3Vwxezi3Ta6oqP3DZ+dymV73sPvvqa7fmJS/ESQv9xn/7gT/9qVDarEQfvP++e/ihh7Iuuz+p/J/tt1/m9WZfeEghywwANakG0lEjeFWzDk1IcO2117qDDzrIrbvuuiEU97hjj3U33XxzAPZo+O26KQ8bzqdpBdYl/Ev1nLMi+OTvOedsbvVF53Ej3hrn5ukxi5x1ptoFvpDOn9QYmvUA3aVcnFa6I4zZsBNPdLjkHiFADvzzB22zjbv4oouaIvzdlYfN6uM11f74xu/Kt//9cdP9+SdM9orvnxCS3C7j3lP7rhI+z+5XDd5pZbzyyitu8KBBbmFF8q2rGP5npqH6cB0Qh1//+tduZaGyLLLwwkEFJnDD6PY//jFgCy4oIem/zjohGMiucTxNgUHLLbusW3GFFcLv+NpTQgkiD+VuO3hwwA6w6++++25Yeiy91FLue9/9rjvuuOMqwBF5dSI2YZOBA92hhx7qFlMwyu9///vwDIcddlioB3W5SJ28KHGvVRS08ve//z1kyeNV0TJndLrxei04RLh9u0zTfPDrX0twXnk7Qr0vTQ4+gPlndKzw/o753/8Nf1kmDv/tb+2S++tf/+p+ICQoqDvysPKgTfhR18yPEW+fO95wB669sJtbYb6/ffoj99EEnRSh/ucR6D2sv9nt5Q5FZb3zzjvuoAMPrGS544473LXXXON+85vfuAU1OCCEhyqo4y6hvRLS+ZOf/MSdOGxYQACi8cn7j+eeC/k/++yzsJa85Q9/CLPnKaec4gZuskkFiPT88893F0oQF9e9jz/hhFCPJ2QroDMyGBFWfLOE9yMtQw444IDgbnyC0uXViZBkoMcIHf2D7vvtb3/bHa/B6xaVg9Djmgp01RdffFF5xrwfzIrw5KtpSEd5vMorp5WuzTvvvO5EzfxG8OIPt9zittxySzvV5ogAw4cYyQc/fkPyYZk3duzYSj6QfIj+g7ojDysP2oQfdQk/93/1vxPdIfdOZXY99XnhhReCgCLMwHdBr8v4c8YZZ4Tf//M//+P40OhjBdM0YMAAd/ZZZ4VrNDCdgkFgnnnmcSedfHL4hIv6QojPPuecEOhBKOell1ziRgstyFCIjzjiiFA26TE6rb7aaiGikM5CZOEfb789hBhz/Z0xY9xFF17oEP68OpEWPLqLFAhlMei3q5yjjj7abaMBBbpYRq4+a64ZftfzVYtX9ZTVKmlpvz0VudlDgTjwqNnUHXnYaJ6lQndn3WT5b87pNlruG255QXeD5PPvTye6v7w5zr3wwVTVPysf51FjmQlM8Dm38sorcwiEin+QDENPjBwZQn6ZWY2I/WfmPlcCfqYGi9UkvKwhEU5ovvnmC4LP79lmm80REz5RmobRStF9ABGda665Qn2mTJkSBJjyjQCDROVkwBmjgSCrTqSff/75K4KPZkM+A5PkOmAU1KdeqsWresub0ekZZH++//4OaK0HZADt2bNn06vU3XjYDIYVgu4GyeeMTZdwP1x+KppKXJGD1l7EPf3ueHfwPW+5T76cugSIr9vvZbUGZg2Iao1aD/07QmjFMITKO2r06IDrd+UVV7jjjz8+pOOL13l8ELDzzjsvzCLrrbde5XrejxgJljXll19+6agPnZJBhldEC0wLHX1D4CIMBsSD16pTfM855pgj5CO/EeooA0y9VItX9ZY3o9MfIeRdYNvvFTBHDN2WVi/TogDtXEH2G+gTaYK9pg0YswnJhzcfRvESwM5x7G48jJ+tUb/bGPzS3klv/e1eqYJvleiz+Lxu9++nx11bGkAXmJEP1joeYXzs0UfdOREKyxTFb7OuI5STGeICqd5GvMtfbdVV3QMPPBAE7Lsqi05SNKTzzDPPdI+PGBFQgwCHQLhXVXnUic5odWINf9ppp7nNt9gi3DqvTla3+PhDQZGzjKG+vM/GZtEeqsWr9pQ5o/IwgA8fPjzwhUEXdZxPFi2yyCIBsut3ysPanzbndTADNYRmxVsRDKPw+ALZiNKoO/Ew7fkaca6N8KcV+sQ749xHX0x2Hwimm+MXsvKPmyiwhQlTz435fJJ76PXP07JWzjGTXn/DDUHdRnh30yy+yy67VBBajjrqqDCiY+3fSgahfmuvXcnL2n3zzTd3O8tyvIDi/0+QlsDggNrNer8WEMgushBjccaaT4ehHnPOOWdAhMFq/45maOrEayi0idNPPz3cO69Oafdl4PjBD37gNpezzhpCmVlVyxPsArXqV3nQaT9q8SqZvlX/o1XZAI/Wtk6/fpUPy6QsOlO2HgQcq/9RQ4cGdGf4DWG/mV1a1gBt/cYbIwbxNP52Fx5m8agR51ORfBBMo+9cONp+tuv4zwPbvvbLQ1bBsvvNb34zda2MCv2pjH6motdTIfKiIgLskEaff/55UPVN7YzT5NUpTme/Wd7QWTFOGl2jNxngFaYRaXm7kUZ5vEpL3+xz4OajwTWS0spEC/xESD5ZbV0i+RRvgTT+krumtf/Jfb7j+g7/Z/E7RSmf3W+V6N/0n1kCSAocNbII41lWZ8jKY+fJm3dfjIZZlFentDwYNpP0royHr0V+C/H1tJnLrufV2dJ0xyM8yWvretpkZuVhrX5RU/jnkxdf2uxdq+DyejUHOuP1VvUdy38lB/I5UGjNn19EebXkQMmBrsiB1Jl/vhqbKXbFBy3r3BgOjNOSptH9oxllNuZpu0cpWfwtZ/7u0b7lU5QcqJsDpfDXzbIyQ8mB7sGBUvi7RzuWT1FyoG4OFBJ+8PhjTP4X3h8f/tt5/kP2f5nT/uZWOvvJqjxpNXvmmWfctttum3ap8LmRigXYUdGCWbSNHHf+8Y9/ZF1u+vntttsuePw1/UYtfAPa+RIFW90sEA/eOecRbr0byoHn8ccfz0uWe42YjBtvvNH9VtGfM7LtcyvZChflNllFCket+r/EqSP9oXf9y3M04vfYCZPC39H/GVd1jZOTpnztP1Owf5zH8sbHe+65x8vTLj5V9+9bb73VawfXzHxy2vFC88m83uwLeufvFRrc7Nt0WvnCP6jrXr/4xS+84h78Bhts4BX27OWV6Z944omqMuIyJfxewu8l/FVp0v5Qjvbx83IIqlyWZ6CXV6XXlu9e3pqe9h86dGjl+sz4I+Zv/Pw1Z3425Th3y2o8PnbwYScfKGtXnu+c91TuTj+tMPCVdWguBwhsOvfccwMuAjsxg+VHJCd4flmE8w5BQOsIfKUWEeL9qGJE1KErScFyAAtxtALEuHbZZZe5s+QujEdgSdUcqCn8WcJtxaxy3tPuF+staX+Dqr/Gb55xxw9cpnLOfrz88stuMwW/4Pa6htBXCKQxIt77f4XWspQQdfCQQ/V79dVX7XIAzMCPm3Bcdmd9+OGHK9f4AWgEQSEE7cQAElzTDBHyUC4dIy4XFZGlB15gRJHhz2/AEXl1Armnv3zL91eoKt6BNyhegPRscko9+BB9WJQAuiDcGAAQjrYcuuuuu8J9iBHYRAAlqNBGMT/XFG4AoCUWCXf55Ze7LaYFKFl6zYYVviEwvxRCDmAk1BWwFAMewe9eM3YAXpFWFepSS123e8RHvPRQv2lzCC/L3r17O1ypswge8vxPC+XJeELMBAE9CwuJicAsYgb+KGQnA26lzHMU7g1R9ncVw2GxAOA78Ky4XJeU4ECsBvA7qfbb9aQKj9rPuV898G9LUnVMXps4caJXfLsXSIcfMWKEl7AE9czU/ptuusmrE3o1alD5UNk23njjUKb8270i+Lwa2Ms/3iu4w2trby9/fY/ar0fyP/7xj70iEr2EJ/w31RK1T8LpKf+xxx4L6qc6klcH9wIO8RpQ/EYbbRTqpCAfr0HAH3300eG+eXWScIX7qAN6QUn5Dz74INRLcQleyD7hnGavkKaI2q9OG9JqZvTaf94rHt0rcs1rsPPDhg3zEgb/05/+NPAI1TjJTwlZeE6eF4JXGiTDb/tiCULZkMBKvBCMwpJEs7LXvvdeEFnhGs8GH+ChkI99v379vIQuXMtSIcPFjC9hNYT7anD38Cep0sdl0i60J21lPBF+Q/hPn6Etr776av/pp5962RFCWkWBeoX5hrvfcsstXoOEV6yEl9bhaevddtsto2Yzx+mYv/ETMypWURHht3X+vS9/XJU3+SceMOi8NKpUwUoyOrUJv52k8REk4fmFtSLnFdoZ8h577LFe8fiWNBwRfs0wXkE74b9mjrCuFGJP+I8wnHrqqZU8DB7UQ4YgLzjs8JvyjQQj5hULbn/DMa1OCAgdkQHEiHwInZFQgkL59Qi/CSdlICwMTnRsPpp9Q3lCDAqDQZKfUnnDGpe8tYRfocxe4baVsq+66qpQNvxDaBBS6i1QE4qrUFZHqiRI+aGQ3vAc1HePPfYIA3icLC4zTfhpYyMZUP2QIUPCX9b3lMkkYKQlg5f247V8CO2o6L6qNrF0M9Mx5m/83DXVfjG3DW12xSh3/09Wdz/69vQIuc++nFxl3bc3AJYZuCxU1xjMATXUCFVcWkFYEqCKAqOljhAug/7D2k0zcVBRUfuxHBuhdhs6DKolqr9mRrvs4vugIhLuSX1Yg5I3RhfSDBii70DyyasThbNU0OAS7kNdNbA48huB62fX7VytIyq4kQaCEPsOIhAfQz56/fXXQ/2T/AThqAhRV2LlJfwBe5B6SihDVpZBP/vZz9xOCp+WNhVi63ljEi+VitwjTrP33nuHNTjrbu7LUqkeivsMy0JbniTLQOWnriA8AfgBn2RUdkcK9YnlU0nVHKgp/L9+8I2KUPMqz4SaAcBe7XHEALjD6gtVztkAYbdDoFmr0ShGNI6RZvUgsJwDkJPXNHHk1l577RWwABAw1tp0TlB5ilB8H9auCDb1QaDoMLxeMiItnY0BoladLA9HkHzIF98LlFrWsO0l1sp8MGzZRyN3QAxO42eMdsygIw2qcmsGQ54boq5LL710GFAJGeZDuXw4z7NjlOM8thUGhH322adSVtEfjzzySDC2WXoGS9bpD2mfhRig066392g2GqC76Dvcw9b8TChmQ2hv+d02X6wG8DtL7U+my/r/1qdf+qv+/p82lzVae83IXoYsLwHxqGesK03tR53r27dvUPFRyVn7orpBrBE1Y3vUPNRCVHpsANgC0l71oSqjvkOo/ULSDWtwAXn4QYMGeQmpF6pMWDers3vNFKFO8hnw0gK8ZqaQN69OqP3qVCGdfe27775e6MShvpopvYyLQS2tR+2XEdSK8xK8UH+el6UQ9hDqh83E+Dl48GDPc7Fuh188L8TrTXVaf8UVV4S8hx9+ePhvywqhFHuenWdmKcUrOaHfBBVahsDwCk2DV1h3b7311uFZKDdLheRakmSc9BJCf/HFF3sNXp5lEPYD7D4xxWXSvtQ7XvPHPBFUuqc+0HPPPRfSYpvBPsASDB5wHTsDPBMwS0gDf2ZWivkb86Dwmj/O1N7fgrcKhiUaF2OTMO6DQYvyEHgEnGsMCprpK8LPmk5AmmGgoDMhzFdeeWWoBkY63h3HlBR+OjZ5KJv3vxgGjaT6+z59+oROyvthoQuFQYHreXVCqJK2AVmUQ8djYKKevF/GLiCV026XeZRWFOoX143EGLWk6oZrGOxY1xvF/GSNLnW9Ivys3TGCMhjw3FLrvd6yVAx+GAx5Vp6Z66yTMVxCglnz2mEnPAP2FL1J8PAJyupI4WLKF7YEDLncg7oMHDjQv/fee1Up4zJj4U/jCX1Gqn0l/1ZbbRXqiYEPYkDQm6RgB+KeAh7xDNQzM8X8jflQheTjR/7ZPfmbs1yftfqIb82jL6V+zqlXdqaaxXea8MWE8Dpvlmm7/8TX/Nde4JsT3NwRQk58Pe83eSdO/NLNJZU2jb6a+JVgpXukQkLl1SmtrElfaWOTWVwVxqAGEiHTfJKWXOdmcRttPCDj2tTTX4z/IqjjaXwJ/JxzrmBzuP7qm92xJ0yHxp48aXJ4dTnHnFO3WEve5OspXwfbylxzz5W85HgOdRYX5x33+Tj3jfm+0SZtrRPjx40P0GnwOEntLdPKmTJ5ipt1tlmr+tMk2TVYWsyTAqxi+WaWY5K/s64zwM3CBzXfmLDmo/e4PneNtL/lseRAyYHuyIETDnKz/eJ4VwXdPeVLGYhK4e+OzV0+U8mBNhyoae1vk6M8UXKg5EC34EDbBVi3eKzyIUoOlBzI4gB+HpP12r2m8E/ZZDU3Ze11s8opz89kHMBXA+eiRlIzymxk/bpyWbP9bYSb7cF0+P3awi/Bn3zgMV35+cu6N5ADn8pJaq4G4/Y3o8wGPnIXL+qUTOEv1/xdvGnL6pccaC8HSuFvL+e6UD42IiWUmdDmNFKAk1NEX9qlhp6TV6e7Wz727J40o4n9FC0keEbXZUbdv6baT8XWuORF9+Xkr90355rNjdx7auCKbeMlXxb3YrQl19ra3eeziVPcXNrZN2vHnhn1sK18XzZIJZbgPu1km+b81KG6zzJLKDOrXOIt2AyzmcSGm9tN21L9LYF8yCOxmberWfYHigt5WDEGMzPVnPl/88yHQfBh0qfagtuE3piGh5Cd44jgQwwWdj6cKL9yOaD4dDdSuHV41DWaCJBi48u1o81PG32PvPLYnfdwgYMARlJS63CgpvB/IbdYKG3LLs7lnU9eowOy+y477a6p3WxBeYEI0WRHViLJ5GfvFlVY6xCBcsonOVxnJ91N1XFOF6LLMoo6W0khqGxsWURQyLvJwIEhEm4xGapA4CEfIcPszLvcssu6/ffbrypMlHqxo+wiQo75yZ57uiO1Myy7xUICkqjMYOGEvqgzMFUQdd5VOwIvqTDktfv2dcMVnWjEK5b/Pfpot4IiCpdQ2DGqNpGJdyl0V0FBIdmqCnO+4IILwm/4Rd3hx9ZbbeVQzyHj10knnRT4VktlJ7IQ/rKtNUT02+BBg9zCCy0Udrp9Rqg5zaSztRU7qD6E1tYi0I+oW0w8H/BcPIdwHhw7OdM2LGUskjGvnb8vNB/4jeZBpGVMp516augDKwrFid9GWX2V6/sp5PmIww93G2+0kZtfGkwjIxTt/p1xrCn8VMKE2I5WsU2ufsXxKULskHvgAQe4LbT99iNa+22pzryvwkRZjxKSSZw3W2OfcPzxAbKL0Fu25IZ4FcQaTdF97mYJ74nDhrlLhQZ7fgGYLPICFzZBA4wQdtxGAwaEQUSBQe403Y/dc59S56duEOtiBoPNBYF13/33B2wARdVVQpEJGU1CWrHFNwJJ59xeaL3jdc/bBDN1wIEHOqECuTvvuCOUDR7B9ddf727Q4PInqcGonmxhvf4GG7jjpPJDf7j1VseW4gpQcbvvtpv74Q9/6O7VUmBpQVtRNjHxxi86/NmCrxIoSsib9cVgB3+/UlgvAxADK8c7NOgcphlZEZBZWTt8/qV//tOdqzqypXqRmAy0A8KI2UodUhBQsBMoIChgAV6r9mIwoe7w4VDBekFp7XzyySeHwRfcAgZ9NBCe3Yi25D63qF/sKRgzBhiWX3l9lbwskxTY5Yaofz7w4INVMRxWdlc4FlrzZ6nvD+7+7fCMyevPvz81bpyRZbVFpgbSgAX3mmLl6YgwV9BK7jyBO76ozgGeH4QAMChAdJb11l23aqRWdFbYuRX1FTAOcNwOPeywkD7vi/fSF118cQVYA8Fn4GFmhsCrYzQf/rvfubvvvtv9QFoJWHoQdbNZPZzI+fqnngXgSAYbRS2GGYVZnUFna4FM0NnosHQeQZS5h9TJjZaSRgMB2MEsyfMvK61E0F3hPDPeNdI6GJzAN4SY+TfffPPwu+jXCy+8EDr8XXpOAzF5XQJwxhlnFC2icDra+qCDDw5CIpTdQjDaAJKAu3ereHaktC0GOHAXbMkCUAcz7VgtkxQa7M4WOKdRsp1vkcAPFSbj4Gnw8GhtCoeuzNTYQBg8AYLhnkwoo0eNcmuttVZmX+U5oO233z6Anti9u+KxkPDzYMz6SSG3/z0SEXhDfj911LZ8HAGTAKDzZs1+jMBm8EEYjGIUHAAbIVRUCGGKt2zm+m81IxchhfxWBJ8ZD9Vc0F4VFFnW2xDnQawxxBwrGyQgZvVahPBDzNZGlK04+fAXQBLK30fINvCAWe5kzTYGuml5ON4rBBoGOFCLYlK4bUX4AbSsl+AnQKYm+ORPPm+9ZWalZ7B6RaCtaFe0P7yHeHYs/qAupdGuQhC6SgM0ws8goNDjkAwVX6Hd7gnt1QDgCLN9TMl2Blgl7lP0n22iJUUSAUrhv26i6likr7aH93FdW+F3XWr/RVsuk1rn23ZaMZwffcBqVdef2W/Vyv/7tH69UqoS8FsfaOZ7OkKhtUSvC6XH6E11cojZDwJtB9QdozeUVvH/9rfw0RB3LrzoIofVmc9nKpcPEFHYAOJ6UHCMzqOY9MoSgGt0FEPIEagop9xoza5x2SOmbUBBh2VNyzU0DAYbOnNMNhgyMKDqvi113T7UUSAccfK6f8NPkGw/UhsY/Xsar+1/o44PypoOAtG3NXMvJMHDfgHxP4ZhS95vhx12CIM+iD+gFe88TfiHCaGZpcsoaVfvajnAcgV0oDSinUHwseUDaViaEVptPE7Lx7kifTUrb1c6X1P4j15r+uyy8bLzVa3/0Qb4rPCtOcIzz6b3fnaO4zw9dGIaTdZIjxqIqoUgAxudpJO0dgWymRFeyDMBassEKqiQWkO/+eabQQ1XKLLbNJphk2Xl/UdVxriDeo4Kfow0EgyRdIpNNt3UjXjsMcc6n/UmcNikMwLvjjX/tddeGwToRBkOqRvEDM+MeohUXerJehcYLltCACnOf8pdTWnBGpxbuAaQEIDCUag/YUbbTMYs3otfoaUOgsr7cQydWe/qQ+YCX9SRGe5grZXRIh4Ttj12h2YQmP0s6+xz0zTcxSdkvxECUeYteTvxI7XRAYJBR7WHT9AUtQ9txLJIiL1haZRZiC4I6CPYkR6Xqk97gE24l9b2tahIX61VRle4XlP4G/UQCJxh0mHt7qV1FhS/e2ZrKyy9P9A6G8MWVne7jlDNq7X76qutFgxfm0pI0waQZH3JT2eJ6VS9NWBTiEFahy+v2RqQR6HdhnSsxTEonip1HGG7UXj88Ssq1ttCj3UHaSBiYKKezOiQIMnCGpXZhjcJgiULzyn0mXB9zz33DJ0XyzvWZwYBlh8Qa12s13sKSBPtQDvcBMMWa3Huw9qfNwKCwarwxHgTCij4RV2v1zOh/lPH3YR3h1rdnrJq3RIhBtfQPgw6UBj0pvEsqwzAQ8ObEx2N2FOBwRpr/1YyHDNgG6W18zDZRDbTBMH6nH7DsuwKLSfoD2nprawifdXSduVjFZLPlHOOd+7XU18z2UN99cufNdS3n3UajGfdacS5xTXz8RaANS7qvdkESMOakZn6BaHtkpa1ogkc1wD1TCPuwyvBLMJwRHmsFZPEDPOJACxZJx4oQf9CqvLlWrYYoepjB2DdmEY8A/Vkg5IkoXZTflpelhGCAasasJj555d6m7VGRjVmGZFFqNHx2tfSAdAJn5ODo11PO6L1mBCnXW/PuXrLZMCl3ln8SNaBdkLlN4Tn5PWs/2l9NSttq57vceEpbo6Tq21jJtOFDX6NerhaEWE0aCz4yfsm878rZNnXtExIo1qdGiFLE3zKIm9sYEyWb4NP8rz9TxNsuxYPfHbOjmgPSVpQxs48Cq+sMnhAvqzdarLWy3n3aoVraBT1EHaaegWf8pN9rZ57doW0NWf+zgjpZc3M7I1qn9b5mUU//eRTt9TSS80Qnn704VRfhIUXmW7/mCEVaYGbMhs2WiiaUWYLsKolqpAW0lt45icWOCseuJFPt3JOYYzz9Y31OYW149JUc1M7MnbDLOm29Y49aDPK7FiNZo7cna72zxxsLZ+y5EDrcoDXoHPLeF5tBm/d+pY1KzlQcqDBHOih3VQqRa751NOuuYj9lVuVP0oOlByYwRyoMvixacc7t1zvFl+iXOXO4HZp2duPa+emHXkP1Iwy8+43s11L8tc27cA7rYo6uldfVWEt+octruW4U9mWqzOqWeuebGHOvnutTnK8qauKL7/8cthjkH0G7WPbgllB9ZZp+TpyZP9H+T90pIgukzeLv4UMfiuc9WQA55h/7h5u1CFTFwbszAvhwPv20f3Cb75WPe9pN/bLyQHJ519H9K2cb6UfOP/w6UyqdU921CWGvLsRW6trv8EQmGXPhiOXRcfZuc4+4likzUw7+7Ytdb+aBj8TfGr9yYTJle267SnwareBgCOCD4HkY+fDiRb60i6uoeGxenYWzYh7dtaz5d0HsBKCkYjXsM8tt9ySl6W81kkcqCn8CDH0TjS7W904l3c+eU271brvfve7wZGHMFKCYyBcL4nAIkqL8FmcSLQTa9gXnusAMWjX2ABaYf7i+HlL7+JyuN6/f3+nrbWDy+wN8l3HpZMQYiL18KjDJ59wWkgqePC75zdhpsTzE1gD5oC2EK+AdVA+8QPLKxZBO826nygohLpCVmeCdqg7+fIovifppA6HWAfcf8EMiIOH8srpatcQfgtaKhIWfeaZZwa+xM8JbwHkyGtT+kiyD1j7gQdA224hgBYCfGIi2Iq2Jd6A30ZZfZXreypGg2hM4izwEu2qSD411/xLnDqyam1j/zn2+79nwyc+Z7+rMumP4trDVs3s/S44Ki/hDVsrK1Aj7K0unoZttFkXspc622bzgdhiWWqzVzCPZ62mQcPLvTbsvW7XyS801rDNNPuys2c7W0NTHnnWW289r6CdUN51113n1SHDb8pmS3BFy/nnn38+7B9/yCGHhGuC+gpbiSvSLtRJ/vFekFLhmrwOGXm8BrGw7bUCZcL5rK/4nvLf9+qQYZ96gUt4DVZhq2x5N2Zlb5nzWevHrApKxfdso61BO2yxvtFGG3kFPlUlj8tki234qoE6pBkzZkxoe9owr01px2QfYNtuCb3XwBD6BffW5BPKvfXWW0N6tjFnW3QN4uE//SCvr5JZgT9eWqMX3Jpnm/RWp5i/cV0LCT8CHX8oIBZy+21p/j7mc8/nH++Oi+8VfiugxSvG22MIorEeeeSRivALw6+SngGC6wo7rQg/A4XRMccc44W4Ev7S8PKl9xqB7XLlqJndMxgICSc0GBdiQVTYqVcsgUfAFaxTyccPRaN5zTie+/Jhr3nqpBmoUuc777yzKk/Wn/ieGPco5+23364kFxRXEI7KiRb9kdWRsqrLIIvQKfjI89zSwLwwBTz9wChZppCUvFCKwmVFOHoBt1jScExr07Q+IJAUf9ZZZ1Xy0oZCVfLkR/gVv+GFKhWu06aK8/AK5a6kT+urXET4mWi6CiX5a/UuZPBTRw3qfXINb/+TSD5bXz19eyBT/YlWQ72WEAQkFwuoIbrNaNVVp4N/WBQaaDYQyCkLKsLOiOsXCurKiCAVAjiMAmKOoLqAbSIIh/iANCLGGxWcEFIQZgg7BiMOVR7cOwl/iOknL8AUkGajCogEKmO9xDOxtCHU1YjlTnckWfZDzIYFQoF9R4gy8fgsAdMItfp3glRjyQXu4R4Kc4ZqtWncB1jOEVod9yn6DzBgRgRfWcAPAWWo/vTTIn21Pe1u922VY801PxU1Ab58u5VS6/2nvb4Xzr951HSrPydePny6tZ811PDhw51myrBeNsiruMAYdcXCdFlvQxq1qwQYdB0D+ojLsN9g4NOIpCPq7bdC0U2LBqNTghpMeCvAkQj2Pho0MAYuLVw9rNVc46MRM3w43xHimQhm4ZmMYrQgO9fVjwym8J11v5EFbuVt3AG+AAMk1ngANW1zjaJtyr1ov969e1fsPJzDTgOCcTzhcD5JRfpqMk9X/F9T+E3webgfrjh/ZSDgvH2+veBUNBqQfOwcx3lnn148xhqEh1dedPojBIedJGLvMXwxwhNDj6HGhJ8GQyi1DAhCCkoMoAtZROciD6G5IOEC1pFGdCiAM6QaBRBHIgttlsJCD8Q36Dm8igNdiNmqVudJu098DrBIZhm0DgY5AEIN1CNO19V/zyWUIqC4fi5EHvhHuwNswrPDgyxikAaFBwAToMxoE6hom1q5oAWBbPyo0IroN2gQtWDOyVukr9o9uvJxunQ2+SkQJKytCJpZ1pPvvkHIAfwSqCygvrCQkwbCao+qDAbdlkJxQfARTIg0ydh9BhI6HKo16DxYgmOychlQEGbUfCzCDAI2UHCUodCBGoSaB8QW8GHcy/LbMS4767elZXABlZbZDe0FsA06pl3Pyt8Vz4PGhIUd/rF0Y+ZlRk+2V/LZeLPCsoslgFFem8K7ZJmgINHn6C/0G5CLqY+1XzK93adIX7W0XflY5d7Lg+Drz0jdLEpDR+Ec6y9mfWCzWZ/HgB6sExF0Rm/Ssj6z2blWPYuivuSh6+Qh/tj9qWO8bLHzHOmYWdj67UHTicvu7N9Aj9mru3ruLeNmSM4gnqR6yyzapnYfZnJUflvf2/lax7S+WitPK17P4u90C1kn1boWEES9SD61qp22zk/Lk4euk4f4Y2UxS7FcSaOsGYa0XRVNJ+05886lCX1e+rxrRdvUyiiRfIwT1cdOF/7q20/9h6MLrq2G1Z9Mw1LA1v7Ja63yH5W0pJIDXYkDLSH8zIwg12YRBh8z+mSlKc+XHCg5UB8HUoX/c62rSyo5kMaBcUIebnT/aEaZaXWfWc9l8bfTrP0zK+PL5y450KocKIW/VVumrFfJgSZzoBT+JjO4LL7kQKtyoBT+Vm2ZblQvnK2u0jZZOEi9qF2XWoEUjVdxG25UffAHYS9AcAuM8DG47777qs5xje3Shsv1WZGBYU9HSw9/2D6+o16kVl7esZDwr3HJi2F77nV+N3ULagpke24+q+gT09rD/xnOk6ekkgPES6y4wgph/8E/yqtxXXlaXn/99TOcMR8o3uBhuR43kkAsYvdg23L9rbfeCnsF7igPzttuvbVyK3Yo7rvWWmEbOrYgB6sCz0OIAC8GBjZobTbVFH6E2AA9Pv1yShDsuFLEpjIIQBw/mzgl/CaPnQ8nyq+ZjgN4arLTLjsCP6utsR948MHw+9cCQGFG7G50kaJMd5KLOsTsz0C3iDYnxbXYiOdmF2fiOv6qmAP2pzxM0a4Az+BRCA3ZaaegEVieZh1nxZ03/ihGvupeJvhsuZ0k244763ycB/dKdqclgk4gHW5R+XoP2XHH4EtPfnzdN9We9Mcp0Ka3/Oz7axfdq6+6qlI0ARmoSUaEirKbb0mtywECogSM4UBdQo0lzBZnKLbojsOv4ydgh2J2ao6Jtj9FuyYjOMJlCLv0LqI4AXxDTMWm/2yiIKBDDz3ULSaBA9mHQDLcwr+vICJ2Rd5O4bzMxjGxAexyEk60E34b4XTGLsALKFR8Tbmc28zM9f0kuEcoyGvjjTZy82vDUNT90aNHh77MFu+QcALcUUcfHbSc2HuUdLiS/2y//UI6vvbX748Vy0KAF0QwE1GeWe7iIVEDvmbFjz/+pJVpQmxHS7PJ1a84PkWIxscF9vTTT3cnHH+8E6hCgMvaWaMcxKjHOox3yLeqIQcMGBDi/2EihJpmv/nPLrnmL87/klqPA6ivBGkRl89gjwCiAueF87IdOksF6/j4pd+tcHAEgsCqa7UrM3gLdyg0nD51qLQKiP5DbMgETTL0rY3Uf04++eQwYYDJwGBAiDETjlHY4FQx/7co/Z5aqzPAEEJMPztQuINbKCCImXlLRRiyDkdAIaITieVghkabwf2bgCXwAgyjYc011wyRqXYvOxLcBBE6bvTOtN8W1k00K7EulNlMauPkw8OvrBk6piz1/cHdvx2SJa8///6EcJ41xWqLTN273spjZoeZ0AVSk9bTesdGY0JAhbwSZgUw/oj//4uYv01iJrCyymNrc+BNBWIJkSngKDz8yCNhwD5IodoIIEKVRquttloI92UtfOTQoUEjRBjW1iwMAcbBTDtWGgUTxNnqL0bEjVwkTda0ilsk8EOldQyehq949dVXB3AX8kMEXJ2tyE0CfggxvlRr9tECGUH7fU0zL5oDA8Fuu+3mzlMI+Yv//GcFdXj77bcPqrvd+0MZNYt4oRLOTL332Xtvd6y0ILxbTz/ttFCMAc5Qr8WULsZ7sPs08thG+LMKZ9ZPCrn9TyL5DPn9a5ViktqCIfSQwHz5mSGghbQVtTUc/v4EvXyhGb6krskBm+UYxG27c2ZtwrGBzl5U6nka7SpUJd4OIPwMAoB7QKj4AGc+MXJkiOq0NbKVATqU9R+WGMykcX+jDvFEkkTyoT4TlQ8QGNbgNwtFCG3BIkxjC7w9m90bL7p5BBRbhG6Qce9ELUcuEGAt0alHHHmkO0vApWYopIx5dH5cBvpUkXsUScPkXJNMgC/acpnUtLfttGI4P/qAarvAM/tNh+WyjK8LvMKImQGKDSLhRMrXbD16VI2E8RIgJXl5qgU4YJ15Fs1uRkRtQsyqWQS+ARMCQCDC/nM7TxP+YULX/UqCOYr1tZYDoD1nRUWC5ANGgy0fuBd2p3/I8BgLcVod7tN6/0qp9VjlP5CK/7TqUIuINPx0GsxbXloGlmelzv9SGvDftEz5s9b568i+Rbi6TYbkp3/XG72Yd9+0azVnfhN8Mm+87HzO/tsxLhQkn7TzcZqThKyCSs9oCjIO0XoAWgidNU7W5jeMwQjDOgvQDUbNklqbA5sLSKN3797BCHeOZvzxEj4BrwYVOw8TgE7/I2kHvClARUZVhqZojY/goiqDAciyMY9AA8LG9N3VV3dLCNQF1KYXNHDUEubJQoEy1ClAZQw0Ju9eqPwIMPYMG+DS0qOZoL2sIrxKMCgBjwHdCMAZwzRkgMCetfg0BKO0chpxbvqQ3IjSCpSx3XbbBWsulnpAGbCissbhkxf3DuzX7BrNBwh/n1coADPmpS9QlTJJkzkAXt/VMtCNev75MMCvrvU8FvsbpU7XIgBVEQyWAEa8NWAdvLImgq1kjMMab5TWf4addFJ4z876nHuDG3mFlhP0m7T0VhbLEoBc+aygyamXbAIQebJog/XXD0sErPlJIp/lZWC4XFrF84KWW0ZYkPRlzl1y6aWVNNhJIN7/N5NSkXx22333ht+T9dni2hgDQw/bNSXReorekAEDAw0W1pI6nwN5a/Ws2jCLglXIK6801Nt6y2xVJJ+tpWms1bevYyOXWmQ8YWAxe4jlOUb2BoBhft+gnY2y+FtT7bcKNfLISGdGlHrLbfY6qN76lOlrc4BZLw9puXYJ1Snq7QOo2vVCeHHHWqhT1bVy7gTZJHaQlqFNX8LSNHk9/p/FEwY2DIJ33313nLwpvztN7cd6/we5OPLapqSSA92RA+BPsi8FbxraS2FZJOHvjH0cOm3mZ50FCm5JJQe6Mwf6yXLfEWJZlLY06kiZWXlThX8+OUuUVHIgjQPjtG5vdP9oRplpdZ9Zz2Xxt9PU/pmV8eVzlxxoVQ6kzvx5lf1i0tfumpFj3F9f/di988mXIemS88/lNlhxAbfbOku4eaJdevLKKa+VHCg5MGM5UJfwP/3GWHfi3a+698ZOrKr1K++Pd3zuHvW++9WWK7o+vXtVXS//lBwoOdB6HCgs/Aj+z68f7WKnzPnnnd31kLfmh59NDZRgUCDNxbusNtMOALijanvpEJDSes3d+TVinzx2JUoSgTS95f1XhPCIwwiGh15JjeNAoTU/qj4zfiz4VOFd7Xp9z4F9q2pDGtKSpysSYcXsJ5jne573XEBW4YbcCMLDDP/2rkzsd4gbd/zZVlF299xzT+Zj4ZIbC7p5x2VmaMKFZB2acIvMIjur3QvN/Kzxk6p+Zs11gbTk+dkGS+Ula8lrnyg4g9nKfLtnZCVHKnqt2WGdzX4+QDZi+rM8PHnlm7dJC0E9gIAYEcDT2ZSsQ2fev7PavdDM/5dXPq772TEIxkREFVFWuD5yZPSH2AudHXTxpgLIAbXZ6OWXXw7+1TgIAY5w/vnnV8IeLxfGGTuwxoRjBEAQEMILiASBQ6iM7PpKHSCcMH4h6CTbLZi64AL5xz/+sQLqiEpqu/UWreMailcAUKIosXstO8ISqEQ46X5CdKFuxJtzf1yiUXnhS3ch2n93uY9nefyxa/JN8v1He6Kf0Af23Xdfd6K85yBAOfB5B7EHvgEWAqoT7Usfgm8x6g6gGcST4FG6ugJ8QK0yIuSXreBwO2YvQQJ46DdpdcD5hjBf0pF+Q8WY2N6M9dTJ5IABjf5KnbfZZpsA7pHV7usrbgBexB80kw6THraKhLBa9Z8/G5w50vc5+bE2n1WH/S2kTbtGnpjky8+KwCuiz995551eI6sXUokXgIfXDrb+6aef9tqP3UtQvSKpvCKbvLwBvaK6/IgRI7wa1Cv+2stVMxQrwfSKEYhv4dUooWxOqiG98AG80F+84JG84rq94KBCeg0cXqGgXjBT/vnnn/f9+vXzcsn0mm28QBhDPRU15jXr1lXHG264wasxvQJaquqV9Yf6KJrLa8DwGni8Brlwf0WueaG4esV6e20z7RXHnlVEp59XsE2776mtuUP7SeiqyojLVDSb12DsNeAFHtAPBg0a5A8++OCQh7ajH2kZ4RUA47X9tpe7uD/ggAO8wnX9Xnvt5SXoHh5KmLxsC14CHtr6sssu8wr19bfeemsoSwE8XhqIV9xB4L/chr0GEp9WBw1IoW/STopA9dq6PbQdBdVTJ5MDof6Ee9I3BWsXPlntrrDkwAv6BPKpuBav5Wl4hiJfMX/j9Ix0VVRE+Puf/rhH8MdPnBzy1iP8CL6RRlKv6LwgZAiaZt/QsLfffnsYDGhkGsJIMEuFhV9wSl7wTZWyr7rqqlC2RnB/7rnnhg7CwCA4MCs+HDXjhHQKzQz/660jA1lR4bcbC9PNa4byin/3mv3tdBjsGFBaibI6UpE6Co3H77333m2SJstEgIXYU0mXFH756XtrH9pQ3qMeHkJMIvQb2V7CYMDvF154odIPFObrhwwZEtJK4/Sawf1zzz0X/sdfyTrYNWlmoWxhCYaBhPMIf9E6mfALy9KKDIMY9VRIcDjHJJfW7tIUw4TGIFYPJflreQut+XmPz6u82RWw/9mkHu6poVONfKud9KRbfD5VO4XIk0ax66IGAqeGaePvjzpG1B8qkWGiURYQT0UI1Rm8QAl/WCqQh7U8hBoIcirqJGGjILVgYAFhJi3uoN461uOTrQYOSxNgzFBLCerQjBLq2d2+CFQBky5Wydv7jCD2WDg3oB0E7rA0hEDGgdTBQ9/id8xT+gFRpRBQ2ywf8MknWAi4LnD8KDNJqPgsB6SFhnvQP2MqWifLQ0i6kaENvfTSS0G1t/PxkX4KhBlAJxqY4kvt/l1ozY8Dz/eW6elu27+PG31sXzf40r+7tU4RE2ad5D4ZP/U1X7IG5KlFCB0fGsQ+NBoNwlqdNW9s8DKkVsqlwbGsGwGAAKgnROMtrVhpjZDhNROvmiiXD+fpIKAIcx4bAQMCDRsToBFQvXVk4CpCNKaWOW7XXXcNqC2ARmAIA8cwJurcHYi1/p577hnW5EWepxHPDZIQbwoA2aCtrR9YvDw2AN6m0PcY/NlUBMgxo7gOvH2gj9G+AH/+VkjS9UYXWrkcY4QhLTvCpXgb+vjeXGTCot+CbtwoqgndzY3w3JsomPX9b3ohCP2Yj/Nx9RbrNWfIU6uSWq8F5sNIhFzqfpjpQfXhPTAILhh7YDhGHdBYjUADkjrjrrzyypAX454JLGkwpGHAAT6aQYJXTSClkIaG5HUe+bkPKCw2YxhqjNaFYfApUkcahgYEevnUCP7Z6pp2pHHtQ6diI4tHBHIZEwbJ+++/v2oAjK93ld9Y/EHeoY2KEM+NlsBMmIf0W6ss2hbNkfZhAGA3HNr9aEFq0w+Y8THiMUAA2okhzzSIZB2oB3nQOLRMqBiDa9Uh6zoQ5hiH0SgOFKgpWqcJf7LdMQ6iOTEwAfvNmxCb6LLKL3ReHbCKMD6l0VP//tSvlWL0S673SUPaJGkWD2sxoQNXXcLAJgtquIbBjnW9EUYNDHV6kLBGVyNW1vys3aW2h/9c32OPPYLBzGwKGIoE/BgMcFxnPY0xB1JH8LIYezV6WC/qTUIwqNh9WRdyTQ0UThWtIwZGQTIFI6aVlXfU24tg1KN+GH0w/glGvZKFdSE8wUjaKpS1fsyrH0Y32i6LkmUKcccL1zG0OwbZwYMHVwx+gswO16wsbYVVWXtzDqMY/GTND7Hep32xC9CmtK00gHAN453esoTz2Gn0xsDLGh+uJeuAMVFvEkLZGIuxCWAghOqpk635MVjqbUUoD/5Qb6NkuxsveC77HHnkkZa85jHJX8uQiuQDjn8aZbn3Wlpm/Pa69zLzA8YI0EeSUNd4rYOKxkxs0MukYwTkNQxIrGlEWpYPrMmSxCjKaJ6Wl9kYtCBbW5K3Vh1Zt1t66hVrKsl7o4XsKAhr6s5IDuZ7GnGdOqatQ9PSN/scOPrMTI2ktDLVQYOanVwGtfe+rNHpWzazx+Ww5KLtWErGlFaHelGE4vL4TV+kvzHro3lQL+6dpEa2exp/uV/10yZrkPiPz/6N+/7A4cDDu/8xnzYusAfY7izKQmglvanrWXkR4DTBJz1qXhaBP5ekeuqImmjvgZPl8N/KosNlCT7pkh2SczMDoYo3SvDhV9oAb3zM4n9aHTqyzrf72TEP0aoz2r0u4afSRO3huTcjvPdw9OkMeCNrnI4ceVOBs0pJJQdiDqB54MAUw3TH1zvzd93C35mVS96LURePrJJKDnRVDrAszHNt7sznShV+9ssrqeRAGgfYmabR/aMZZabVfWY9l8XfQu/5Z1amlc9dcqA7cyB15s974AmTvbvp6Q/c4/8eK4PfVFCPJb45p+u/bC83pM/Cbu4es+RlL6+VHCg50CIcqEv4n317nDvjobfd+59VQxP/68MJjs/9L/3XDR24lFtjqRIAtEXat6xGyYFMDhRW+xH8I257rUrwQfJZqOfslcIZFEhD2q5AuEpeqm2S2kOEhl5wwQXtyTrT5WFzzMvlav0H7bhL6HS9dIS8M89oRAhrvTfu5ukLCT+qPjM+7kUxZSH5kJY8rU7sl5a2t1qRerOPO3vQdZTOFdKNxap3tKxWzD9U209vvNFG7ibteEvQzJpybMENOo+SPOF9e2dTsg6def/Bgwa5Pwv0pNlUSO1njZ9U9fMqRlry7Nlvkbxk5TVxgGClT7Udc3ckZnki56686qoQkYan4i477+zYsVehtJmPnOTJmWedIEOYugAAQABJREFUlZm2WReSdWjWfdLKxfsPr8NmU6GZf8Tr9XdODIJJIpCGKLalhYbyHQXmHKtAD3PVxfGBXVcXkIsvs4OFfoJ8ssp3vhM6DDv7ys/ZMZvgJmlE3k2FdrOQXGT7a8eUO++4wy5N3elV91xSwTtraxPF4QoiSiNcOQkEYjvn5XSP/YWqY8g/pCf8lvotsvDCIfSzntddWc9GQAeq8AN/+lN4RqCjuhNZG1koNu+42Zrazqc9axpPQDM6bVrAFEFCtPVRQ4e6JRT4tYbCc0c89lhor0WF2LSq0HFuiTa4tD6X1v4EYw0Sig5tys6/p0ozoR+k1QF3W8Xwh3Sk5129RZnWUyfrz0SVKp7DUechcvOmnsgC9Yc/7ErNxp8Qvi3IQPxBM+koFRL+dxNQ3UVuam8CLC3M23bw4BCzfjMqoBrz6quvdjzEWM18Bx5wgNtCfvvs4rulHnpfhdh+rNGP2YLYfLzlWGefeeaZ7tprr3XE2UNEf+2muPz+gna6X0K0mRqFAeYVxetzz+0F4TRezLxNEF0HSNiI6IoHB6vf6aedFiIET9Pa8hptK/3U00+HOnGdyMCf779/qN99irJbSpFit6u8IpT3bESUbTxwoBOSUED7VeBIkSK7TBpCaomR/7Hag7ZjcGXwPVDCnEVpPCGmgvgOCMEAZBX313vvuy/AuhHvgefcAw8+6AYMGOAOU0g4Qlyr/bEl4GL75FNPhZBe7D8jFVGaVgeBhrhr1S8I/b1DfY9+eag25Ky3TtafgeE64fjjK3aQnXfaKTwT0aS4NRPWfv407ELqxQDDR4FjwW6yvqITO0qF1P7kTeboMasb+5WYNnTN5KXM/4RTsj/6CzqCgwYRwohgErTzmsJ2aTCEhQ5z3rnnuheVHlw8iDBc2wcNrL371fCCwXI0CkEydCyIYAkhxrg55JvP/VjTo0bhS8+Mfpcajtl2a434MREazICDdgCB8befQkGH/+53waWYcm3rZeqUDL+Ny4p/5z0b2GzzK6iDNe1K0oS6IzEAgHF3iWY62pZ2yAsMIry6Fk/w0x8meHQ0iZ8I2ELwYOE/A8DeakMGbyaO97TsyGt/4vJ7KPaD4BomHD5GyToApMGH2XmsArEYZM6OliNF6zTXNLCR49Sf7X4XXHihW0+Tl1CrQj9gYCMU2XAO0XYhrjNpnicsS7SGjlIh4ec9Pq/y6kHyIU9MxGYTSGOCzzWEFiKCjtH2Zs3ugFxYlBOjpNHi6hRGqHAGgAAiD7H9MZn7JBoGFLsEE0EHiENMIP+gdhGLjzoGkQ7iPAE6yXsk/4fEKV9Fni0lW7c49UfNVOxhQDwGAzeD+9FHHeV2FBrNK+JpewN34ujJNkg+08BQMDcz+ENZ7Y8QsXxA8AgeYzL5tWbjtAhKVHyWH08IUZlgsuTSpWidQoX0Zeg9/Dc/f5Z9gM2kEXKx6y67BOBbAFAbQYWEHweeeeeZ3Z289UpukZ5zBCQfAD3m1qLhk/Hp1SBPTIAVEEL7/vvvV3YhRbB4KKzmV15xRUDypZMwImMXKELMLKiBMdHowIXZyDlaUGF5+7PT2Iy0R2sASmMsGgOvq2Ji8AE5thbdJ3tErWdDKLoj/f3ZZ92yyy1X0djQcHaSgDHAwr9YAJLP3wie1Gp/oLTu0sDEzM8AdZCWhcto6QWADBTXYZjQg7/SJDVKmiR9hTY9XgNFe+l1PT9LVehNAY1ANsPzO743/w85+GCH1tAQ1F4KFBVa8+O59+UkXxjJhwGCPDFh9AF6mLU9DS+gRTdAFl/W/ZMV/srD0jmwchZFfKH8LTbf3D0p4eedO9bly6Smo7qjIjHDo0bCOGCyX9KgACyXqe9x/YTkGoxKLBFYYx6jgQADH9rHJoLXekxGJRCHiI3GPwBbQxGq9WyLCLL7OQ0s2Cg6glpTpC6dnQbVmOcCHgs1nNkTIVpYBjOb7dLq1Cie5LU/7cqMjxGPfseyDs3UQsSTdZii9ORhqQEqEap6R+ikYcOCDMATUKZYAttgBYz7Q7JffKR+CDFYguh0ofp4I5F8Cgk/Lrv7rr2we+fDL2o+7yxKgZdf0s2XuPpbpQYi3N8XvNIPJVDM8jw4gmdYeSuICb169gz3oVH4QHa03/Z/HWH+0xCsKb8t7YLR+AwZBYFwIiYfIwl4aVjx+2pQoGyMJlZO+KGvU2XwW0f1wfq7vGYrdpQBt5/GFsKOO1GNdYpgxFbSbI/BkDoXobxnI/9OQ4aEe7CGY2nUnQi+MVDyao9Zjbc4gGGwDwJ8zaIkT6ytSc/vvLyWll6T1/6UwVLzOhmPFxc4CW+J2Adi++23D9VK1uEoLVeYFHgrsJUMjEwMRvXUyfKwlwDv83mDBU94u2V1Fwx52EMC4zV0sQZPDJ70ETRiPvTFjlIqks9uGWuKLPdeqwQzfhH3XtQsGia5tmIdBQPyQDbsXmlHmJgFtsA9s5Bc4rLykH8Y+bEFxOAibDKShzEA2irqbd6zofVgG2jvGjiuf7N/o10xM9VL4CjSrmltm1Zmo3mS1/5oJb06EcmHwYa3WqAIUy+zccU85U0F/S0pI3Gaor/T+EveQmt+uwk++5f/eOXgwMO7f3sFWG9gTxaqCgAYHaEswafMrHsm75eH/MNsEQs+ebFPvCbVLYtQ06C8Z2PA6wqCn/WMRc6j6tdDjeZJXvsvkAGhllaHvD5Wz/ORtssh+aDO47lXeu9NbeqN5LrKp6SSA0U4wOvIP+hdftoeEUXyNzJNj3jvMgoGwrikkgMlB5rDAbRH9mdoBeqRROoVtLabr4Pqdys8WFmH5nBgnNbtje4fzSizOU/fNUvN4m8bkyvCX1LJgZID3Z8DdRn8YMcXk74O0N1swf3OJ42D7u7+rC6fsORAa3GgLuHP2rSDTTz53D3q/XZv2tFabClrU3Kg+3Ogjdqf9cgI/s+vH+3eiyL8kkg+XCMNaTuD8LXGd7yziXf72kO+s2/bJe+H1yLAFKfJiUpbWYfgnnofZEa1c7317GrpCwk/qv6Jd79aGMmHtORpNvEedkYQDivE6HeUiElg48ikH3dHy22V/DiqsA06Xo4Pyl0V70s8L9+Y5sueVU/814niNJoR7Zysg9WlM454u7I1XbOpkNrP9lzxjF+rUqQlT7N39WH30q5MbA396KOPVuIauvKzpNWdAZLISsKfGeQAsiCMmdgKYjqyiOg2i6okzYxo52QdsurajPMjFTmIK3GzqdDMz7589RIGwSTh000YL669hMQCymFEjD1RVni64fb48MMPh0uE2xJbTww4sfGo27grQkRfGf4d6fYT+g6up3iT0WFWESoKMw60p/aGp5yBAs/A2047v1YF51C3/ooT4NomQopBtTcibJjRGAcNYvkJ/ilKBBSxXTh1p27UkbqCSWARhL179+7wls9F69OZ6WyrdQQfgn/wnXj7LG1nH8XjA9zCwEEgGLyP2xlsAO2wHMAu4CmRlWzfrh12Q9vBS0OB4p5jxoxx+NHjQkugT+zXwtbvhPvickyoOZgQ1CutDmgxxAKQjvTAkNlejPXUiQGQ57L+SX/bRvEk1BPXcuqPKzhLHfohxIBJnvjTiOi+QsJvG3KGmhT8sjcBlhwgh7333js8KOounYDOT6APMyCx1FwnuAUnCBoA3+brrrvOXSUMOISFyDoEn/UjhPqNPz+EYIOCQuQdwTwMJoT22j7mpCW6TFt5h6AdRlbUUOhZhZ7ig09gB+CSNADoMJSNoCK8HBlICPA4KwJxCAXkfNFhaHDygshCx9eWzsErcJiChSCCiGwgyCmqy10irJr2QnCMRowYEX6CzpRGRNkhkAi4tt8OAUFxOyMYDCoAXtBWCD8BRAgkZTO47y/UJYSY+9KO5CEqjoAuPvQPCLguXGy1jbe7UMFhRIbSx9LqQN+i3UhHW9I3GciheupEvrfeesvR9uBH0PZEiiIPAZ1Igx4T4FDhDBiyNP0fXvCh/5G+IV6lYlIVSUCq/vNngzNH+j4nP1b59D/9cb/qsL/58RMnh7TxNftNnjTSw3sJu9eIThC7l0ro1RHCb63zvOL9q7Kde+65XqO2F2KPlyBXXRs0aFBl33ZpBl6jeuW6GBzKJB+kdafXAFO5rtkh7Ouu0dZLQL20Dq8BIXzUYUPe22+/3Sv0OPxWiHAlrxrOS3up/C/yQz7+XqO7F/6AV6cJWTS7hbJlFCtSREukEQZD4XpoZvXaIdlrUPUSHg/fNPuHZxbCTqWcZJl77bWXF2pO5XrczjIaemEzeOMZ7SuvOQ9/IWsvDRheGAzhXhLuSttutdVWfsiQISGtND2vGdw/99xz4X/8layDXdMk4ClbA0ToP5yvp04K5Al1UpiuFek1+YRzsoWEc4pD8MKMrFy3H9IivZCQ/GWXXWanCh2T/LVMhWb+JeefK4xwIPlM+Hp2N2LoOm70sX1d3zOecT88P10Ftjwho76IWiNUke2yUX8NvZWRkJh7PVBQ95gtUPsNhedngtLaSfhmGI5Q81CRTN2yspmVAQmJUVAWF7gjQToxAcJgRFryYY0GD5DRH39rPobSg1qIJoJqFudlOVGUAP4kThswEZY8xG8DYDIzEGG8GK6YlZnJWMuifeHiSvx6e4k+RBkQUW/MmCwpIIvHVwcPbcq59dZbL2gIaAks71hKQCALM/MTy0+/AzSTPpFG9LkBAwaE+1B3lghx2qJ1srJZ4hoZqEleSDd9BhgxNFQNTJa1Q8dCwr/Bigu47y3T0922f58g9IMv/btb65QRQvKZJCSfSakVIE9MMH348OFB0FCDDWLJ0vBAGFkA+mDtjcAj0DQmYAbEM2MHYG3EkiAmOgACiWpnhGrGGqoIsZ7nw/LDPnQeQBRpaNS62ADDoFCEaLCf/vSnAVCUZQ9LHJY0yQg+BsDuSKj2DPoM5AgPoc8sAxgUkjxIPj/87yiB8sSbAt4u0H/4UC7LPAgbAIMTbQ4wJwMTfdQorgNvH3gW2p5ITpaXHYnwA2PCiD4PxQNifG+uMQkiC+AjNIoKCf9u6yzhJmrZtv9NLwShB8IrjxbrNacjT0ysv3ggGgNBYpQ1YkagQ7CmQQtg5mc0R6hhOgYjqS7hNRHXbXS3/BxJx3oMMAYGB9ZjlFGEWBfSCWhQ6iZ1P8z0ZrBCi4D5NBLrTNZqRYjntQ8d5/rrr68C/qRciPUkA0x3IwQdgJTfCV2JAR8N62SBUICgnEcYd0FKYiZEM2sv8VoRjY22YwAARJa+xP0ZcJnxscnQJwloQ0MxDSJZB+pBHjQOLRM6bKA97rjjguGYQRHbAxqnCT/3ZiKzCQfjIAMnA1OnI/nMM/us7pANly6M5POrLVd05IkJoxkGNZjPw6HCw3Q+oO1yHaMHbwKA8eJBUaXM8IelkzwMAiDsQOQ10jouaAakI3YbQwplZZHl5YjxhIEDhyHeFAD9zRIFDYSBBgMRHRH1HbULo6Hlzyqf8+TFKkt9mSVkvwjPbyorywCtQYOWc8YZZ+QV1SWvgTxzvkAy6dwIFqjMGHX55BFLPHiEOozAxrzmt/EvrQxLy5H2Z0JBwBAsoOToQxjNKAPD3pVXXhmWZAwULCnROKFkHRBWDI8MJhgY6RtG9dTJ8tBfMWyyFEEjZMKxumOUZO8Be0vCbI/xGX4gE3yoe0cpFcknGelnN8ly77XrzPgIfp/e1eCddp0jMxwPSWdIEqMrKtiCKeAKjHiMvFmgDAgvqrXh/zGb8ooH9cqw0ZL3S/vPaAtgB2vBJKE2xiitvElgJssihHtHbciA1sN767TnIi9aAfaJvE6ddY/OPo+lmcG7HuL5sHXQ0ZN2GMpJKxONiXy1lgdF65GH5IPw0a5JTTGtDgghadP6R5G60P/pw7wuRvPoDCSfNP5S12J68bSnQqhv3PcHwYGHd//2ChDjHmt8VP3kjJ9kCMazLIKhWQKSNljE5TAq4gOA6k5abAq88qlH8CkPXPksSqL4MFgxq2SRlUWnynou8uZpKFlld6XzPF9s4CpSdyaIRgk+98uaNLiW1TZpdejIOp97xUR/ZyBJo+RAlJamo+fqEn5uhnDjudds7716H4z3uxgM2V2H9SVqXL0drt57MpDhkFJSyYGiHMCmgANTHnpx0bI6mq5u4e/oDZuZn1eI2A1KKjnQqhxgaWebyszoOqYKfz2bUM7oByjv37kcGCfbS6P7RzPK7FyutPbdsvhbbZJv7Wcoa1dyoORAAzmQOvPnlT9hsg/Q3WzBbTvx1gvdnVd+ea3kQMmBzuFAXcKftWkHm3jyuf+l/xbatKNzHq28S8mBkgN5HJhNTi3HA9ppHzydFkx53YXgH3Hba27cxOkeVyD5zDf3bO6LiVPdU8fr2gMvfeK+u/g33GK95si77wy/xt7sbL65rvy+O5NwLSUC0baF6sx7N+JevKfOel2LA9Zf5QGJI0z8Pv8NedcRvs37dJywku/I88qkzjOqrRrBr1YoI4u/s+LQE3/SKouqf8ZDbxdG8iEteVqZzJuqs+uIE9ED2k++EcReb38WRFYrEO6n6/TrF0KzGQSMcLZin8Tfy79/P7nZrq/BtlbMxbnyiDScBsqZEW2VrIM9T2ccO6td2xj80qC7b3r6A/f+Z+nRTmnMIC15WpnOVEz+ULl5dmXCS4zZdEbTcDlW7S7XXXONtfoQAHOkYjiOVETfXwS48Zy2Ysfb7Dy5OecR3oAWeUe6GdFWyTrk1bfR1zqrXdsIf9qDsC9fvYRBMCYi9FaRFx7INkbHyoefrbAhZoX/VcAFO6AuqvBKOhJquRGOEeyMuoBcb9ntNUZruV1AH2G5Iv95dlsl+AYi5JIy2fl3CQXRABhCPSCQUk6bFqBDukMOOSTszkuAEVGE+KUDPwUVqdsmcjKi3lvLV9+ixsiL4xEj+cJaSq0rf/BntDV5UQL0YUfFElB3dg6mjtSVmXNVRTGizhEgxT1nJH0pN9z7pc3sM21fe6sL27DjEn2wtkiH8EnfS1GOeRubEgcAEAvaEf0F/sVtRZzFpkK4OUoDCnxZQ0FgIwTAsT8oTuI/fMEv3ggthFiNJRUQxtbtDFRGBGqxK/Miiudg991TTzklBGKl1QEXbfzpSUd63tUzQED11AkHNJ7L+hh1HiIXcOqZ1a7EAJAn/qCZdJQKCb9tyFnPzexNgOWBeYR4xiofftJ8INRhXHN3UUPR+OycSmNA+OwfqECbLTQwsLvplurs+ypyjzTEAgDhRLDNM4oEI+jiIHUg4gDwviOS7gZtf/ynBx5wH0jw2S4a4n50TIgBQqAQ7jdCcrlB6QmyYF95QwHKqxsRXsx6NNC9CiJZWmva7RVTwHMhqDQsxzsU0XaY1vr14NEdr85GZyEv+W4UNsC1QgLC9RN1GvdXwo7P17UZSQgng2WScH1m/U8wjRFel3ku0UTZbayBtJ+WEAhVb6EqxW3FgAcSFDyA34TtEpWJ59wDCuMeMGCAO0w8wS+fPkdbjFee2zRBHKB+QUQfW6xD2BKwPzwpmxchvSDnjBRKUFod6B/wnnS0B/3rUA3GUD11Ih9yQMDXCccfH/o60Y87a7LLalfqBS/4EPRD+vUVINdRqsvabzebo8esbuxXYtrQNe1UQ45CbHG77LJLKGs/+eUj4DQgnec1xVHToAwERIehOr4o/32itUjDIEAHOEmBNnwg1E6YTedhUHhoGi5guBh90bC/POaY0Ik4TQgqo2xMWXWjQdAWiNuHmB2uETglbsaE7BJYdJfWw4QiQ6/rf9EIvssFGwUxAFAWATXPjxoV1sArCQORzoJw1Ru/EArthC9U/KQvPH70BLMQqJUWrwGf5pe/O+t8njGN8NMfpghMvOV+IhyIP0lL4D/tv7f6DFBpTAzvSUiEGBSCaIizWE7tdJcEl8lla8349I8eCqiiPkwofIySdQBIgw+T11gFaTHInB3BuRWt01yK9ISOUwi63e8CBaWtJ9gyoUWFZ062K/0L4vop0lbPU6Rk2mAbEtXxVWjm5z0+VA+Sj+Wpoy4VASEPnRpGEzxDdBcW8qV0DhV+c6lcEIKNUFwoEIZb1aCoxqj9zIoQACHbEd+vEFJURGZhU9VCAn0xK4dQTQEzGiFkNEBMJryci+t2r0KHCfcFg4APSxIICzcqKx08zmsoQSFRjS+AIVdXGCr7uWNMA0hiYhdCAeotLYgBICbUW7bEThP8OF3e7ziysg2Sj7QhCHOzAcaglQG8ysdCfEmDEM2mAQTBY2BgAqA/pBH9Bghylm9Ea7JkjLXYonWysg29h//m509/ySKAYXbVxEjwWqPwHgsJf/9le9WN5EOemEyYYgPVJxpBi9B9Wu9fqVkQRJgPNIs/HSHrkh9mPCv7wCiN8mtLSPbUEgCBNuSTtzRiss6k46GixkTnQSAfkspoxFofbaIIgbBKUNHbUuXs85lmEvAAGLGZ4T5SnY3+rUGhCNHYB+hNzI6K+x6jer8hWwm4A3NO69xWBtpQqxIhvAg/tgsjVHbO16JGPJdpRKMF0UYf4EPbjJBqD7EEQSuj3ZhRWXYS328U12HYiSe6rzQJ0cfe1TOxDEtGeVq+IsfXp6H3kPbNaX3CZnjOxffm/yGym6A1NAK1l/KgQsI/pM/C7stJvjCSzyI953DkiQmMNNT33wmkgzXPA1qDY9RJPmScx35P1uxPOlRBBg+L2ec6nWk1NSLloQXwWomBhvfMvC4CnosOuJrOc33uhPBQBlZ/1lUAOGDsYS2XfBdNujTaTFoIr9uu0G40CPndgitbSZ0btR+YKIKNDlZ5aAKPCaPfbA5pZcXneF77oPkw8AFRHRNlM2jFg0t8fUb/7isDLdGVh0trw9AKOg1LIpB18mgRPddzGsyxu6D5tZfgP1oXgoOh+SUtE+kP7BuA1siMzzKNfkVsPdqIoUQl6zBF6cnDUmOUll6o6h2hk4Tei0EUjeJw2R5YvtpglWxXjIPw7kLZpDodyWfuHrO4fddeuDCSz9CBSznyJIlXNljtWU9jrQUNJesdrp3niLpFo/FB7e8lMEyIa1j5uY7BhDcBJ0jgaRgsy3vuuWdoMO6H2s8gYBBcVj7lAPpxt9T3paX6s/00a8K8GHvLyxG0FYxArONpPNb+4MxjsKIjXS8jHeocg9Ju0lCwaVh+7p1F5D1RHYQGR32+SM8EnHUM+IF2AaQ5A1ArUPK5GIR/O22wX1GGuT30/PiUsHbOo52k7fCcrGtZUsXl8jvmQbIcS0vvow2xyWB3gf99Ze2n72A0owwMe9fJ+YhlFctFkKbM+SpZB9B/sB1h7eeNFG+ejOqpk+Whz/EW6AdaimAc5u2V1T3ZrhdrWYtxGn7QR/mckgMiY/eodUxF8qGTplGWe6+lZcZH8NdY6ht2qs2R0fMTPQjrvnoJqyoMSlsvMkN8KqNfWrm1UICY9T+TIZH30dAdsvajBfBeOlbFatWXGXj+OlCAzjzzzMwigZxCSFh+YGBKey4ycx2esnzpDMLSzMxULzHzApFmM2ucP61MtJ7OQvLBONirE5F8GGx4a4WNqDOQfNL4C/+rrVpxi6T8Rqgv//HKwYGHd//2CrCewB5G3KyOnHLLqlNZbqUkQk3PKjdtsIgLxuCyi3wA2JRhHql+qJs/lZGwHsGnvDS3aLtPcn3IYPXatPfEliY+GroMs2fWc5HebClx3lb8jVtvPcQg31lIPln8TatD8u1FPc+UTEuf7VJIPqjze/ZbJHySD9NV/w8YMCAYDJ+Sx9wXwuVjrRhbY5vxXAxkV+XsV9eMe5ZlzngO8DryD3obBVrvjKa6Zv4ZXdlm3h+D5FZCEC6p5EAzOYDmy94NrUCpwo/Rq6SSA2kcGKdlUaP7RzPKTKv7zHoui7+FXvXNrEwrn7vkQHfmQOrMn/fAX0z62l0zcoxjC27bibce6O68sstrJQdKDnQeB+oS/qxNO155f7zjc/eo92tu2tF5j1beqeRAyYE8DhRW+xH8n18/2r03dmKlPJB8Fuo5e+U/10hD2pmFcNbAy7Ck6RzA9wB36mT0Xtb56TnTf+GSzVZqJTWWA4WEH1X/xLtfLYzkQ1rydAXCa5BNOttLuF0SR9BR6mg9Onr/RuXHmWf99dcPexDaNuuUnXU+7b74r7PxqpF5vtn/zjgm69AZ97R7dFZfKKT2s8aPZ3yrZNaRtORptV190urLDsG4bc5oapV6dIQPzPS40BKAZDvOUl7W+ax74Q7N3oZG9WAgWJ6OHpN16Gh59eTvrL5QaOZnX756CYNgku5S0AvhkPhcE0kHqKPRmDFjgo89nnBLL720O/LIIyshk3nXcAMl0IfOxrt6gD2If4cIicUffph85PHMIhQXH23yEI7ZW0ARuAyjVhKdB9m98LzC2efiiy8O5/lCbcU3nfvwqWevdPLiS76U/LLxONxwww2DUGTVo3LTLvQDgSVohpDq2Bsz63zao7ErMyAsxIDgFQicF7EShulnbQqICYFiRAgS8ES7c0/aNEZ5ymtPQqQJ96U9aJcTTjgh9I20OmS1H89QT53omzwXA9oqQh2izuwOTD2z+gKaFHniT0Oi+yQIVXTRRRdV/efPBmeO9H1OfqzNZ9Vhfwtp066RJyZ1AC+B8RJUL5grLyH0Uue8Zl2vh/byZfcKkvGPPfaYl7roFZjjJbS51yhfDeYF1OAFyOEF3+XlmecF1xVuffnll4d7yKnCP/74416DjZdvuRfjvPzhvbZ/Dv8VlOMVXRXupSg0rw7hFZXnL7vsMi+fea/OHMoTZJbXoOAV+OPV4bz2nieeNtw7JMj5UocOz69AnFCX9dZbzwtgJLUeOcXM8EsKiy5UB/iodXqbtGnn4zIFWOEVs+41GIf2kX+/F5CKFxRYKIs2heeKhAv9SCg+Xm6yXsEwXrBvXhgOoY1oX/pVXnsqIMwLjssLzsvTLpogQrum1SGr/ahUPXWSL3+ov9y3wz3pswrYCZ+0Pkn5CkwKvKC/Ip+KWPWyM3GpEMX8jTM4Cos/Ag+Mr4ffSeHvf/rjHsEfP3FyuF5E+K1QHlCoO14jemCCYudDI9KgWhdasnDu0Ucfzb1GYs3m/vjjjw+DCAPJVVddFcrVSB0axQYYK/iYY47xigS0v14ILP6GG24I/+k81OOFF16olLfVVlt57aUersvX359zzjmVvIo4C+kZeIqSwCK8bAReoaRhYLF8cT3sXCseszpSsq5pQk6atPPJMhFgBTVVikwKf8+ePb1iI8J1eC+vOa/grfBfYbKhTeBxrfZUVKmXBuYFxVa5l/1I1sHOp7Ufwl+0Tib8CtO1Iit9XGHf4VxWX0A+mOiYlOqhJH8tbw/U2JjS0Ht5j8+rPJB8PpvUwz01tG/IstpJT7rF54tzT/9NnpgMjee6665zAFUQcgtpMHAa0YL6g7pvRMQTBAYfqlHaNVBXwAaQ8LvzhcoCAecFoUZBRJJZkAz/8dm/MCMWW0JPEqdZORz5ojzqwr00Q1T5/KNyFg2sYd2LOjlixIgQ2UY0V0nt4wB9BzdZqA2SzzSYLHVwl9ee5L3kkksCBiKx/CwLgYc7RbiRaRGStdqvaJ24LxTvIG1xJIQvo9qnETJDlOcOAnQFoaoR1GbNnyb8G6y4QN1IPuSJifX+cMV23ykMNdY9BrFEGqLqWHsTemiE8BKHnXeNRmJQ0EgY4p2JeabR+dhggTEvFjTWeQaaYPciPQQYJJZljcBV5YHGy72wGZDfCIQa1oJFCOs1AyD5wY4DNSYZIWb1KFJed0/TCF7ktSf8w6bDmx4GeDAZpAGHPmq8jetQpP0sX5EjfduISQWKjaTxvbkGAArh0PXYmciXR22EPy3xbuss4Saqj+9/0wturVNGuDEfT0hLVjm3WK85HXliQkh4IIQLgQRy2ggjIOGzeyuMFuEAtxyrMUKdd438WysYB0MNyDm8cgMVhTxoFBBHZlwE+mEBeJ4r4E/AP4zA6+N1HXWSShoEHEaTHo0EsA4QXyHAHnjfjDUWBJb9BBddlAjhpS7MWCD+avlQlTWuR9WFmfAPvPi7kJiZCeFbeymvPWkLZnyMsPRJQGEw/BF1ByXrUKv96q3jcccdF/o5GgXoUUT5mfAn+wLGQfwmmDw7HclnntlndYdsuHRhJJ9fbbmiI09MCCnCgzDxcFhqYTofILcAVkQAYQJqN1Z6GibvGuUjRKQnUgoLPEi8jOCmFmLFZdnA4ALEM4LPYGEEqgs479SLtxAG8EhDAKhBPXlDADFwgKaCpR6Vn0EG1Fa7l5WZdqSxGZzQHkASBsUoprge8fmu+tvaNln/rPNxOoBU4CnqMAMweYz4ncdvS8sxrz0pQ3aXgNmn9XoY+LG628YjyTrktV89dbLnkB0pvGmgHwFNB1y81T3ZF5jtQfuBHywv+FD3jlIqkk/SDmA3yXLvtevM+Ah+n97V4J12nWMeGg/XUdFptLR1V941XpNQNowxApwDQWcW5xrgCWlIMmglzATxPbkX6W0msDI5MvrSUPE17hWrcnF60vK6EaIReY1I2UlKq0cyzYz+DxQag3cjKa1MtMTOQvJB+GiTpP0mrQ557VeEJ/RDJgy0WzQP+hn3TlIj+0Iaf7lfIScfqxhCfeO+PwgOPLz7H/Ppl+FSPYE9zMJ5BGOyKO8aGkIs+Mky8u6bbHTy5t0rDRkIwyMqXBrFM1VynR+nT6tHfH1m+s2A2VlIPrFBOOZxWh3y2i/OW+Q3E0Ca4JO3M/pCXcJPpVDn8dzrCt57OHDYOoq6N5NQC0sqOVCLA2iLODAZVn+t9M28XrfwN7MyjS4b2OZ4w4xGl1+WV3KgXg6gBbLPXytQqvB/rnVJSSUH0jgwTvaORvePZpSZVveZ9VwWf6tN8jMrd8rnLjkwE3IgdebP48OEyT5Ad7MFt+3EWw90d17Z5bWSAyUHOo8DdQl/1qYd//pwguNz/0v/rblpR+c9WnmnkgMlB/I4UFjtR/CPuO019/5n03cxTSL5cI00pO0o4fADqEGau3FHy643P2G9F2jbrJLyOcC7aZyk8H6MCUcd9ptjZ6QsX4g4ffL3EfLaPEMAHyU1lgOFhB9V/4yH3i6M5ENa8nSE8OniPWsjiD3R/qztkdpLo7Ux4yht3dVROlfeiBaX3tGyWi0/cQ6b6dXqjgo8uW3aFunUEcwGNsS8R+6p115zTdhqnF2Q8yjJp0b1g7x7Jq8l65C83sz/He2vRetWSO2/6ekPqmb8WoWjAZCHnX3aS2x9xSzSCMKbKt4avBFltqcMZsRPtSdgdyOea6MBA9z6cpHGjTomtrZWGLU7QuAseMwNkgstG0+C9pNFST6xwWtnU7IOnXn/zuqvhWZ+9uWrlzAIxkQkH7vlEhjDUYAb4TIOD5tof/tF5Ze/9VZbOSLoINx1SaeY7PBfMclu1113dUvq3f3aCvoZrqg4IzoVbrzfV2AOu/Fup9BHZiLKWFVoKbhUEkhE+ZClZ+fW5dRZ91eAjqH/cF3x/WEX1kUUDkyYZz2vtngednBlx+A15b5pqDIEb7D7L9uS81zARHUXGqsB7SgFPxF+HXs/4gY9RLsn76J2g5jB11Lb0TZZlMYnkJZOO/XUkIVddzcV6hK7PNPWayjcesRjj4U2pA/R3sRqGOX1G6LpGIxoZ3bfPVXhvPSNtDqwpMGfnnSk5109AwRUT51MDlgGESdCnYfsuKOjnln9FWc1+kz8QTPpKBUSftuQs56b2ZsAy4PvPC6wMOpsVRxfd6Lbdpdw8XD3apZfWrHM2wsNF/9pS08cM4zn/HgJ8W3akvoACRKRdncqiAc6WdsVMxgQ1w+kEnlgKC6SQErhJgrs0/mKjoJOP+20ENBxmtaR10gVfUr7pB+o7a4hogN/vv/+bgsFAd2naL+lFIhzu+5ZhBACyiEvu7BuqcFmX0UUsgssQUoba5Bj62540Lt37yJFdok0a665ZhCYZGUZCFjmLC4hhej4f5BgGmRaMj3/0/iE/YdwbYiBHLRk2pY+Q9guAVt4zj3w4INugDSQw9TWCHGtfoMtARfbJ596KoT0YpMY+fjjqXUgYIxlC6G/dygsnf556CGH1F0n69fAcJ2g/sqEQCg7W8xn9VfqRZ/hQ9AP6dGyOkqF1P7kTeboMasb+5WYNnTN5KWa/5n5LaQWYUVNZE97iJH1Gm1eiQDGHYTY/9GjR4dgCCGZhNn6LjUAjNtaI/ctEvihirwbvO22oZyrVQagGTT+SsIKhKlE01kc/5VXXhmEEg0C+sUvfuH2Uxjv8N/9LoROEnABFh20hvZPr7VGDQn1RQTgawpJpuMxEKA1nKdIwBdVf3DY5lcAB7MfdZrZiLbYc489XA/FYKAlZBEembX4RNzFMPUjvOV+ImCLP0mb4j8DwN4abBnQGXDfk5Dk9RtwFagPwTUM1HyMknUASIMPszNbpjPInB0tR4rWaa5pYCPHCd/B7neBwGWwiwg+LLW/2lKK66dIAzpPwDVoDR2lQsLPe3xe5dWD5EOeNAJZx+jee+4JMduG2mPnicKLyYA/0BCMAIUEjAGEHTAADA2F62y5vI2MfGlEelSsU8VEVC+IsiDOE5wDuGhMyf/xtfg3UWjMXDcLgBLtw4I2GO1nZmIwRJsaJcMpszMhtB0h+GrBUkRiMrhbhOXc0vIgzM15/YY0CBHLBwQP4FiWor/WhBRHd5IOQsVn+fGEsByIDEUDialonSxP3F/Nz5+loIHQWDo70p923WUXJ3xDt/vuu9vpDh0LCX//ZXu5eeeZ3Z28tdY7Pedwgy/9ewD0mFuLhk/Gp9+fPLWI2R2VEFU+SQiSkc3YowWzldZxgD7iFZLtfop6CSOJt7dOQgeEaFi0gKMlpGlMxAZgdga7P2tD4q5r0X1a71+p0F5Qi/qts05A7FlaeAIxWT3ic939N+o1b1tQ0+F9EWoEn2r1G6C07tJbCGZ+wDIO0nJyGS3HQAuG4jpguPxKfXKUNFCegXZGc20vva4+1V+DDvTmtMnOZnjOxffm/yEHH+zQGhqC2kuBokJr/iF9FnZfTvKFkXwYIMhTizaT0YROccXll7uPtK67W0KzkoQMtT8mZnjUQRjA5g8vSY3GB8BUc4FsBqY8LlWf6yDx7CUoZ6NFF13UPaQZh3tALDswIGFVZT15jAYCjHTM0JsIFEQIwgFmizhogBRAlSlCk4U6Q6Oh2vN2AUjxmBZRPZ6TAfMVwVF3BKEmLrPVfyMgINAIITloQ+DqGbZeVt0bxae8fkNbM+Oz1KS9WOphozC8h2Qdpig9eZhM0GBQ1TtCJ8nmJbDRoFGAPkX0qQ1Wyf6Khgra1IXyNel0JJ+5e8zi9l174cJIPkMHLuXIExMMhuzIb9BzMKDQMXhw1v6MuhjFYgLcA2MHszsWeiC+ekl1xPgBsd7jHfP222/vVhf6DureFVrX26wvWGcnaGbHYAOdKoOfYLeDpXd53fceLT9ABCI9KDsnqmFOkRGRgQijotkoQuacL9IxKPFZQY1JHSF75p2E3sI9WK8BUdUdiWe150U1PkftC6FlraN2tQ/LryxK8snKIz2/rV3T8ltaeltev6EMlmjXyQ9hcYGT9Fd/AGmKPgQl6wCaExMF1v6tZGBksjCqp06Wh23eeJ//A9mUMHDzVsjqnuyvvBrF4Em/QZPkQ//sKM0CbHdcCFhmK+u1QhplufdaWmZ8BH+Npb5hpwofmZXn17rLEG54HbSa1LInZNllcwOjPIQdjEqo/GlLA64xcsfrOYw3dNA0EBDSYgtgLWiEIcnAFu2cHWk4i+mnTP7Hr70sHZpBIxFqrNzOOmJpZmZqJKWV2Wg+5fUbjIO9OhHJh8GGt0HYuqiX2YZinqb11/h6Pb/T+Ev+QtDddiOE+vIfrxwceHj3b68AGxHYg1OPkan1CH0s+FzPQ9jB8JMm+OTjWpLy0H+YGWLBJ++7IApPe7ebLCuejfJQgxgUGolQk6xHd/nfaD7l9RsMxGmUVofuhOSTiuG3W4OsiWkMLXIONehVGexwCDFNoEi+Mk3zOZA1i3Tkzs0osyP1aWZeNErgwtfWsiFromr0/bP423Y6bPSd21Eeo+sCWoOVVHKgu3EADdHeSs3oZ0sV/vlqgGzO6EqX959xHBgni3ij+0czypxxHGq9O2fxt9CrvtZ7nLJGJQdKDnSUA6kzf16hX0z62l0zcoxjC+53PvkyJK0Hujuv7PJayYGSA53HgbqEP2vTDjbx5HP3qPdrbtrReY9W3qnkQMmBPA4UVvsR/J9fP9q9N3a6220SyYdrpCFtGuGfTBAN212B0IOvNIE+tQhvOfI8roirWsSWS0n33Fp5sq4/88wzwZc663p5vpoDbK7KtlP4WsQEH9kR9+abb67ajDVOk/e7aD/JK6O81pYDhYQfVf/Eu18tjORDWvIkidBE7WUeot169+5d8WhKpkv+532rfZLXkv+Jp8cTqxHE3nqU11EiBBVvxqS/dkfLbaX8hLwSSzF48ODK9ujUD9dV9iUEIwEnKPw24Ece4b/OrrhGtH1nU7IOnXl/PER5HdhsKqT2s8aPZ/xalSIteZK7+hBsgxCwGy/E7qNFiFd/xAB0VWIL6EcffbTi999VnyOr3mAc4mq9vyL3zleknBEhqGxuygBKhyaegdBmfNV5z51F9BOLtCRN0X6SVV57zifr0J4y2puHXaAbNYHl1aHQzM++fPUSBsGYiG2/6qqr3IMKsCEKD8Qe/PgN0w4QDnbmHaoQS/ZOw/WRLbohXB3JQyAERAgv4b24z7ILLyg+8az617/+1RGxhacdQT9xRyLijpmIa0QVopIavayAGzop4aHE8RP4U5QIKGInYmL6cX9l+27814kpsOhBtJ3k1txFy2/ldCznGNzwSY+Jd9r4rMNTCIcteIBLaxaxnfpNColmwKDNaZO0fgI4C7wm2pL2/okCuWhTyjf0JO7BUgQ/elxoCfRhoDLK6kdpdaAPEgtAf6PfsQy1vRmt7xapE0sinosBDS2IOrNUpZ64m1N/3MNZ6himBQMmeeJPQ6L7JDRVhK9/kjY4c6Tvc/JjbT6rDvtbSJp2jTwxyVffa1tiL6H1QnP1EyZM8IMGDfIHH3xwSKblADEGXkLjZQ/wsg14BWZ4Ca6XEIVrirYLaRVA4wWj5OVn7yVcXpqBVwcI1+TG6xUh5QXA4QXn5AX+4aV6hmuKzvNyrfVCEfIaSLwCiby29fayKXj523ttD+4HDBjgBQTipaZ6NUyoQ8hc40ux4F5BQV4DRqiTBhCvdW6oP0eeTdFgXiN6jZJa+7IwDzIrqNkyPCfHmBQL7++8804v4fESQi/bTXzZx2VKW/CKWffq+KGf0C5p/YQ21QTiheLjNah4DTxeth6/1157hXvIk85LmPz3vve90OcUKeo1mXjFdnihO4X7Z/WjtDpoQAp9hf5G/bUtfGhvCrK+W6ROGvgCjzTBhX7yl7/8xStgJ3yoM7KhyEKvYDcP3yAFtIXzXEM+5ZbutXQK14p8xfyN0zNjVlER4e9/+uMewR8/cXLIW0T4SYhg77DDDpX7JRuVh6bBIIUuBkEVWk8b4dfM7TXyesGAVcqyHwg/jWGEgA8cODD8pfNJIwgCiBDK7TE0hIxUYTBAQGl4IwYJBqB6iHprFPeClwrPS17NYuE+UnvrKaol02Z1JCqbJfwK6Q18h7977LFHGLTjh0uWiQALNaeSJNlP5BbrjZeyNXhpGKG/kIFBnfvIXhMGA34rhLjS5tIEwyRE2rx+lKwD6SEmIspWKHAYSDhHfytaJxN+LX3IGohBjHoKxCb8VxxCmHymXa4cpF2GyYxBrB5K8tfyFlL7eY8PgeQz4evZ3Yih67jRx/Z1fc94xv3w/HTV2PKEjAW/QPmxABxUb9b6ScsxRWE5RoUkBlszdwDnjENEY8AIkFHsmmafEEuuGd7xMYQe1D9CbFHB4rzJoKK8x8CgRVgy/toYvkB+QR0uyQUbD3BaxGyA44htoCNEFKYFUhGlSZ+pIPlMg8lSB6/gBmiWDssDlggs+1hKQLX6UVxHVHxpheE+xN6z1LR+RbqidbIyWZYaGapPXpg3fQkYMU2eTgOTZe3QsZDwb7DiAu57y/R0t+3fJwg9SD5rnTLCzT3rJCH5TEqtAHmaRazdsIZiSAMPQNpKAIyodT/WnnzIZx86CWs1GpS1VmxoYVD4f/bOBNyOotr3LUQFfIi5KqARDMhwCSg3MoRBr2EQxRiGBxJkEmPAMMggELx65SLBAJdo4CYMCiYkmCAaBmUQCRJBSHgYBkMYFQQh+OCpyOBNwHDr/X8rZ+3U7nT33vucfc7Ze59e39e7d3dXV1evqlW1avVa/6qHqBiwCEAXBruPT5P4b6ej9wjqGEgE9uHkCOeOKEnsH9Qd89siol56SoB78qUAWDji4dnI1xGia7WjuAx8fSAUmzYB9t/3BRjL4NRdihcv0fTVsqENOsXP5hwANQCNAC7TLKpL+A/feUjy+oqkbiSf96339oR7eoMQIEZ8jC9ULPgDGGC85y96JiivNDwqDiHnmzQjPf4DmhsapBhMpjI0FzOcv6L8/BoV5RsNBAhrGr6To9eCJEwHM1AIgxwGXKz7GF0ZcfmPYZdw6jx6n+LdQU9iJOwJ4hF1Sv1Sp3QArBzE1yaQn2u1o3QZKAf3oHGAOt1Twy2fPTEoo1EAFY4m6sLPs0Hu8YEI4yAwYyAi9TmSzzpvXSM58RMb143kc8aozRPuSVP6W338/Zb/rsql74uPSaP5VnKFkHpQsalgrKUHC/rYKc6Xc37MQhHTBL+EYxFTDEZqLNRY/+lVQQuiwaG+o15pflq51/PO2nMv1lcaBKMBn7doZP4+TAP46kAZQS3qVHI++/vRSVNPqMioxdsIZYmOmilSER122GHGO9RhBDbOl//O16w8PC17kHxY+AUBQ7B4Ph0SqDy12lG6DAgrfh90JqA90WacGimT3yPjt32xYiqCpshA5GXnsylrD9CGIEZ7pkzwAz6yIQM9pcx4/mOPPTYz3zz3Xk/MiI/gbz+0Nnin39OTPUzjE47bCRrJi14VNTQLLwD1kHy9keGNSOXkEaivzOH4HMQIx6fKLEIrYMTzfLPStPo5cA0ZmRqlF154wTprOso0ZeWJJgW/0lOn9L31HvN5kbrO0hDz2lFWGRBC2kZWu6mnLGh+AIsw6tM5Ui7yS1MzkXyy+Mvz6nLy8YIh1D86+qMJDjx8+1/6t/4N7MkTMi9v0R78/zxKI/gwj/dvuln3oIpBdEJFZWIkGqiEYbYRYhRsluDz3CIkn7w6yypDT+b56fenA8kSfNJ1Z0BL51/ruCHhJzPUeTz30t57tR7UztdxtnCHi3Z+j7Ls/c8BNA8cmByrvz9L1LDw92dhy2eXHGh3DjDlY52/VqBM4W9kYcpWeImyDH3Hgdc0xWl2++iNPPuOI63/pDz+Dop9nXkNPp2VVHKg5EDnc6Ah6O7OZ0f5hiUHBg4HVvsYz2etkkoOlBzofA5kzvnTr73VtCV26tHjt1m514q9//vqJyvJrh3zoWSr966deLo1EzlYKOf/XhESv6eSuMX+sIgkDj8s8Z1FTIvw7iLEsqRiDiiAJHlAnnm7yQkm63s6mAx/13fuT2tZs7zv5Kyec6icfM4888zVlm0rfvrqV1kTkU+0H5EjGKG4JVVzYLWRv/pyYgK931aDq04j+PcetZUJNoLvHQGCzvbgscOSO76YveRXVUZdB2gb+NzjVFEPNZq+KE/3qspLs0SLMj60eHHe5fJ8FwdwP2UdPhye6ATSNG/evGQf4R1wHceWXNL3feqkVr1wf1E7wDcDz0+exyKtJa3OgZrCf9sXtkzO2aPaTx8BX/fta1puH9D6fFm0w2WP1D3q4xW3UP719Qp/o+mzyufnzlfgSd6o72nKfTEHLlOsxBECa4ldrOM7CHw6RdiN9fhK4ETDd/AipB/Pu6gdsJDlunL/ZnXnkrI5UFP4h6ybH4BBljte9mhy/I6rluNG9f/4Dx5L/u1jG672xJ8K1YavCe9RBbMqKsEzNyrM1tdD31rIJlO1DDFEA2Al1HfLBXc7uUE6OktR+j332CPZUJ5ko+VH75FbqxUidQJ1nuW6nfA757kbaCoA+lCzP2v5czppv1xuuL+49dbkqK517dPvRuQl37dPO+209KXVjnFrHSYfdgJ7COfmPyv9sprtJptskkxQHrjI5rUDMlwsTY0gmP8SpFhRANFqDx9gJ2oKfx4/Xn39TZsSHL7tu5PjIuFHK1ioKcE5d/3fZNKv/1S5nRBaoJYIlrlPFUtwxFcUzbSrYq2/2QXWeI2i3g6RmobKdrwCbj6jKDxWMx0lYT5a8E7MBz+uYId0eqKsGHmA9vq5Ajk2FuTRgYJuwg+7FuHjjy8/JLSX5FjFmvPcWxRVtZGCOOiwSirmAB0oy0dnEYuuTlHAE+vZry3vtlqE9kfM/xvqUIii4z+wXthezj///OSHWlIbXIasdkDe2GdoO7S1naPgm1rPHYjXuyX8j8rgx4g/9TMbJ1//eHaQB53Alb9dJXyC7bLAFzoBjEFnSy1brPk0EUobCXADAlyDFVOJvHpScdNEUgHGwQgMPaKGxLV0eqLxGBWIqWftciKeEGqEuRFi3kqwxRlnnGEYfpOkEcSgC43kVaYVNI0E+SsnnJCMUTQjOHTdJWLpd5KmeOCBBya7S7v7hTr4rHZA/gB0EH13piIJSyrmQLeEHwMfhr49N31nJXfXBPwEHURMxLRPE+jGtddck3xIIbOo/cS3ZxHRXOD7M/JuplDMvbvcIRkJsujnN99sobiAfrIxTYCI4W6EsAw7uo/flz728+W+NgeunDUrweJOJ06dOvINNoBG4vTfH83bP6D/DCRZhKHx7IkTk4kK2Qbhh2fSAb0h4JBa4CFZ+XX6uZqf+lDdfQRnPo/QQ27hdwYx0vNVwD/3cd7TehpQXNhAuiVG+UhNAYBYcnKwhFs0379ixgyDXKLHBzmFET1Nnh5DEp3LdT1U0TeV9pBe8ANgD2KuS2qcA7d1oS1tIaCKmDj+noyEWOKbQd4OWA+ACMsvpWCu+JyLxf9qLRpS0ioO1Bz5UesRbN/4nu//4z1Z8lWArwNnjHy/pSGtExWzjWLe+eSDoH5EUFyELWKQ8fhwFn7AmLNC8zZ6bD73EGv9jW98w7OxfTr9p6QZ8A15hhYE+bPU/ZuE07alBLZRtX9PQW8JIdiQfoiBpoPC8FRS9zgAqAlTNd9c+O5RW2Bxj55Suh0QMOPP8j1tDZ+BtBt7T5/dCffXFP5GX5KvA5/f5p9Wuw0rv6CSk89r/ocF/1tnnWVGIEd4oeLQBBA40jneHmr/evpkA/m3XxBZ4vQgnmBRBiUHFB7m/nxB2EnfnWuR50k6jJBnSW3kMxGdxw3qjChLSfVxIOYld/DZDuQb31jPAEIgs0A97GL04/n5nkv89+N0OyBPf5bvGVzAZ8CWVFI1BzKRfA6Xat5bxFzvbzL6ZVUGc7QY6QYtgIoG+imL0ulJw8g/uAuhh7khFuI8ovGAiJom1Ei+IadBPdLpBuKx4M5tUZJmvntP88xqB80sX7vnlcffmnP+Zr84bp1Zgs9z0kg3QGkXUTo9ad8TIfTQ0TwpCO08ykNw4Zt0Kfh5XGu981ntoPVK2Xol6nPh70sW0HnMlMW5pJIDJQdW50DT5/yrP6I8U3Kg5EArciBz5F+3hrrdii9SlqlvOPCa7C/Nbh+9kWffcKM9npLH33Lkb4/6K0tZcqDpHCiFv+ksLTMsOdAeHCiFvz3qqSxlyYGmcyBzzt/0p5QZDggOEI7LGnO4Q7P2HKRlu5NH5eUXE59RexLoE+fV3f8LFy60ZdV+PIBdfusS/s0m35ssX/E/yeC1ByUPnbgydPMD566MmHuLuC9sNGcAAEAASURBVP/s11Z50m19waLk5eUrkrUGrZH8/tQdu1s3bXEf6/OBSsPafwOdiNcAzAOXavjhLtlaS94i7eIVkgi+6m/hx/HlVmEQDGSqCd3tgg+TXlq2IkHon4uEHeAtP+cdAmnpLPw8x51IjGp4Ag50Ihpyxx13TFgI1VeadZ6wRh+LoU6aNMlPlfsW4cAaLMoZb+lyIcRQLPCehnNF59PXli5dmhwgkA3UPuL0QXbxUEuu7b///naNddVZSRU3W+gnP/mJLet80kknWRw3auWdd95pgA048gwdOrSC9AP6ywcF5sHoQ4w/a6Hh8z9z5kzz+yYOnCWbPaTUy0Q61muPA0COPPJICy3eQzHkPIdgFA/0OUrgIoBMgDjE81h+eqASHSAYCIRop70yEX4PwGFaUItwxyauIybaBcE53M/S7IBx4vL9iU98orKGIm2ElXOPERgL6/KByERwGBoIUxDq/TOf+YxFlMZ5n6UYE9YRJN6A/043KjiM1ZXxHiSsGxARJ9oFACbEjuCO7m3Yr7fNXgyqoosuuqjqeMg5CzOPOb/TJQ/Y5mnY+/+qm3QgBgX50gcF4QRFzgXNtYKCesLEiRPtmkAzgkaOcPfddweBcwR1EEHrqFs206dPR8EIp5xyShA8Vxg1alSQm3DQiBIUghvGjh0bJLxBnUWQGm5pFUgUtBJqUMCPHQ8fPjxIJQ2zZ88Oct8Nmpvac7XEdxACkF2TihoUBx7UiO25CuqxY3UcQZBjQY0rjB492q49++yzQY0yKJw4aBnpIP9yO9/pP4qZL3xF+KmOt5JGKn7Q8uRBQT5BgmR1/OSTT1au8yfOU6hMVl/SJiyNOueg+I6wYMGCoM42SFDD9ddfb8cKBw8KxrJ03kYUMh40MAQBegThCAQJfVDHYOdoXxJoS08d06a0FHcQEGhQ52XHtBF1ZvYcdRzW3jQQWRkEEGP3ersQ5FxQtKqda+WfmL9xOekdqyhL+F2ofc8NsZD7f79+/9JXA9uDz79WyRuhhdmaG1ad+/Wvf20M5pogmyrX/uu//ito5LZjKvad73xn0Ghtxwr9NQFW7LYdL1q0yPKmwl34b775ZrtGh6BorzBr1iw75keRf2HatGnWcfDchx9+OFCxbDRUrZ1uaalkxZxX7hOOoHUGdGQQnY4CgyrXB8KfvIbk754Wfo36JvD33XdfoJ40Wlu9Ui9O6TyFplTpQBTlGbSopSe1vUBBTLiF2GT1wUnaiEZ869A9sTTIMHnyZD+0+r3mmmsC9yP8DAKCjLPr0ipsMPre975XSU8ZhTwVpNVZ+5o/f75do13QybQLpfnr5a7L4CcBMfU+ntNzzo8HrYHZbxWNnrUS558zrvprdDSVEHXfCcMPNGfOHFPVYqTVrQTc+AcBaThqC6G/BNxAoLSABeDY8B4eqpey6/x40A5RgaRV51G5xtLPpJXQ27kYUASYMS8XFwkNdaLsoNEwZeiLJZT9ue28Z3pGvXodzRBIC2HXDwnCDbU6i1CrL7/8clPZmVqB+whhW2C6Je3Q8ktDgDOd9HqhnqRhVMGw0SbiKE6mB94uCDhD9SdCkA0kKWmJCahDtD1InYHt+Wl0yfHKjS30p67v/C7A0w/YMrPot47d1s4/c/oqqz8nHj9llbWfJYkJ0cXK6sR8mwpiTkZFAtzh9JQw/BA8bzR+vpl7bAt0DsB9AeLJRqdQL/IvZYk7nGaWrRPyQnC+L8Qe5v1OHoHnNhc/H+8POeQQg2XDGg82P+hPEFh+CCZtA3Qn8gYzIIsYILAF0WE4YQ/CZhMLsV+L98z3Qf8FKJR70p8q47Tt/L+m8Lvg85J7bT64MpJz3rct3rOW8WBNKQB+jv073roqe3p5DHDjxo2zytN83CzEfAqSqmgGQAxxjPZ8LsL4ovl1r/KW59LB8Fw6ALQTgEFka6jruRiyaEyPPfZYxYBY140DJBEa1i8F5YVBGVBNQFVPPvlkG2HhfR4h0Jp+GSgLxlbXCOkwEFw0QBCbvytU4CLCQCubUqKppdUvGkQ90GEYFunUGRgo86mnnlr0mLa9tko6e/kVsIreItRVmMlIj6q96667mvWWXpprf/zjH+1T0ScFp4UlF1QfiEpwlT+rmFz3dPF/T8s5Px+nYxTiuYwOfKIC3AOrMF8assjz8L2MRVYupih0HCWtrCvnD/xgvQV8AFCTWRaNzpIRvag+uQ/obWC7mQI4AQRKJ0KHDeoS1n0nnpnOk688WPhlILaBh2ke5SFdVnrPi0GH+xgI6OBpE6SP38vTtvM+E8mHnro3CRUfwUPo08Q1VH2fu6Wv99Yxz2Xe53aEep/DCIEqyig3EAhsQ/9018j76uuIJc9aM6/RPFmPgU+z1Fc9xEiO+u7z+3ruIU0tJKl68+nvdHn8rdvg18wXwNCSR0XX8u5pxvnuPpfRYKAIfk/4nCX03c0vb56fl1/a4JuXLn0+7bOQvt7ux32m9rc7o8rylxzoNA6Uwt9pNVq+T8mBOjmQqfaXi1PWyb0BmOw1LYrR7PbRG3kOwKrJfeU8/pYjfy7LygslBzqbA5kjf9ErL1sRkqsXvZgs+MPLydK/vW5Jh7zr7ckum6yXjNl+/WTtQdXefkV5lddKDpQc6D8ONCT8Dzz7WvKfv3w2eeGVN6pK/Hstysn2i8f+mkzYY6Nk+EbFePtVN5cHJQdKDvQLB+pW+xH8U697skrwB7/jrcl73/nWSsHpFEhD2nYm3Hvr8QRr53fsjbIrgMTWSeSbekw45sy84opEQWPdcoZioc3/FHBKSc3lQF3Cj6rPiL8qbGZlIZ5/NUluPn6V/z5nSUNa7ukvmiK3zzg2u9Fy4IU4rwkoL/ilE5s+EPz/b7rppmRnxbfTadIJON1+++3J5oqhwFvz+uuuS3aVVx6BXEWUrr/+8KxLl6GovM2+tt+++ya/+tWvmp3tavnVJfzM8dOq/mo5RSdIyz39Rb/XEl2tAK4ByMXCBQs6XvgvU4DNEYcfbjBecZ3jNXmcvEVPOPHE5IEHH0zmaZls/v+HgD/wusujdP2dP3lyMiHH5Tovj56eT5ehp/k1cj9xL3GQWyP3NpK2LuG/+6mXG8nT0mIQTBMjwqGHHppsLCSWrYSO8u9CWQEFBTVxmPzjQd9h7yo3KDl7KrBjQ/mFj1agRxxtx7WdRoywFX+3++hHK0g+xx9/fKKYbRu5yQuoLagoL9LQ266vdf4Yme5btChd9Nxj4hEO+tznkiEKB/2QQlVPVOMmnPRGRYSxUjC09bBhiYAfcvNo9wvL5d78C2lKR3W9r78PAVp0gI7KBF/wz2eJ7jz37az6AzXn3HPOsWwF9JJ8cs89k9MnTDCeD1dY+N1aVv2Y8eOtncDruXPnehFMC6HNfUBhxSMENUZH5UQQ2b777JNsoJiDf1bU6TmCGkNLyyoDnZXwAywd6Vklmg4CaqRM3tYvueSSZPvtt7cyjznoICsnskD5cSsmmIg2DwlsxuSC9uwbmklPqS7hf/7llVb9Rh7mXwL8Hpi3v6Ks8MsGMXWSKlMAGwkvQaQWQRww8Ts6JhKLqC1GE1785wq+2VhQWQcKAoz7BcCQHC9cuM8oYGO+1KNRYtLRivP+i0KCgXnaXR0GEEvkN1RhnUV50SBhPvufSWBPVhy3gES82DX3Z6pBUKHcy30/EnzUD6+8Mvm4gkK+qRBU6BrBWx0idbhTCeGkIaeJThXINaC06MDpIOkoi8J5s+qPaRjh1hCCIfQc6zxoF4RlE7hDTAaaxciRI5OTBfeGENPmaDN/1z3XXX99cpwGBiI2WXodwpZAfMC9mp6xxLuAPExTyyqDAGSsXklHXdNmT1JHDzVSJm/rgL9+68wzbaAizJ2l6+kQgULDXRzIugu72iHloi2zERVJetpXT6kha78/7G1C5n35DTFtwnZ+quaeqDfioh/W3v28iaSjYpwY+YWSYodgthEC/KUvfcmO6XWvVGfBaEJlP6mYbiqYjuBwdRIXTJmSPKL8QYUdrKAP5olbSruAYFpeXgA4gClwo+asHjr6lI6JCKuHpgucAqIDIC+CXhYLqGKsyr1RF3AJGHDpiLN68m73NM8oTBptDV/82+fPN2CWr0gA6WzptLOIOkjXXzodcRgT1Vbg6RfHjrUoQY7pAMZpELhSnS8DwZ8kJEuWLElQo0EP3lTtCY0MzXC0RnwwAQYp2pTpCQMIm1O6DICAsDE6vyxthk7mO5qOONVbprUUtAYxMPjzpk6blnxMEa4EP9Fm6QSIXAT0BKLtQlxn0LzgwgszO1tL1MBPXcLPd3w+5b1VAfuv/GNQ8psJK41825x9b/L+nBgd7omJmHdAF13wueZILvScECGfTj+/+WaLk49Rdbj2tBoUUXT0zj8WyguAEUR4QfSqWVSUF8+mXC743I+w1ksAR571rW9ZxVAORqidd9653ts7Op3XJ8AYviw7IycdPKPXhhtu2K33h8/ema6G6tQVXYm52UE40B6dmIYA1AohREwfEDxQgJhu/ocGnaxoU1R8NJx7hPdP1Km3Wc+33jJ5esLAnQC6gdCUYqQrv86edn6oQE4AM3Vwk/h6d/7XhO4mUxx43rHOW5Nvj94y2eCdb0v2+979ydK/LEvW1qThpb9nP5Z7YiKGX5h7huriEEjYAHgpbyRxegFj2kiKupamn+rcFRpxQVzZSYJGD44dIabYwl6UF6MC5fqzVMv3aHSA/qAOph6i7Bi0vnLCCQb7RCfCHPLtqfBeOiVvrPXk2ylpUMmht2iEdvIw3Lh+/Fq8r3U9Tpv330fOJYrjzwrnFWisaXyM/HytQCv5oKaJbquJyzBR4DJvaNB5SJoEozLtD+20u/SU7A27qNOB0JAgH+H5Hz+b4xPVxtAamC40i2pCd/MgPPeW/yMkx1z9cLLDpLtN8IsKQAfBPTEBlAHENXN1DC0Cc0xGCrCDeX8WfUoGFT53zJg+3QTzJgn6lpo/ovavEKILzEG1xyrKnDKmDTSi/FbW5ScEp838sigvRgFGIKzQaBV3CfXluxqd6iHK4BvaCLYMMOucPO6d+WJ6pPA0nbzfW4AY2FyYv9K5Aurx9a9/3ZCbnDdZ75+uv6w09ZyjbtHoEBye/ZimhXx6BWacDpkRn+kk7UigoaYBOmxcugxvKr134uAPoqr3hM6WXQsZQKMQKrWByXhnRXv8pewX8AzCOMhKSNNkNGagQntxbMuelGFVl9yVC9+m04TL7tEj1k+e+3//nb602vFbdAYvv7SbL0g+12rujbD+iyCc9hJaD6M2L+7fcX1PpqCooCIy94YpzP3pkTHkoTZSiWybyW6wXhc4p99/8JgxNtJihGK6UZQXlT1HRjpUro+osRwuvDgw5Dyv1V4wOsG9Z6kSqZSh6tguUoMAnchHeTo8rMJHCj7KUYmi2zvub5pnALbM0vz7ocWLrQ4/LH5ghPuRpmtFlK6/OF/+O3+z8vC0tEOej70Hmw51y8IitBWMZuTB1HG28PjfLzvNLmqLoPcceOCBlm26DHyxwPDIV4HPyubElyanRsrk97B+BV+YPjp8uBmxQRjysrPIieDJbdAi/cVyjmI6SXtGw2Wb9O1ve1bd3mci+SAAWZTn3utpGfHrce9FzcpD8vG84j094GDNyVxl9GuMpjAMdTtNjMhZCDt5eXE/DI7nbvSuLCKRRwg3RiAaNEYgn9em01MOOr+iRpu+p1WPuzNXpy7Q9qgnn/LF75eVZ179xfc18p82R/vJQmrCOLie7Ajpz49ZZWgURShdRtosnQ0GT+xZlIs2lybaFJpGlv0hnbbWcRZ/uacug59njs/+9MP+2Rx4+PbvnwAbDexpFDXH5+JeDt8XIa3QKWQh7OTlRZ4YfWJiyvBk17fc+Lz/d3hwGk2e4JOWjm4gE3XhKm29fMirv3rvT6cranN5dZdVhkZRhNLliI/pjLIEnzTpjii+r1n/GxJ+Hoo6f+ROG9jWrEK0aj50LjNzbBKtWuayXK3NATQP/D4wgPc3NSz8/V3g8vklB9qZA0z9QKduBcoU/nU14pVUciCLA69p3t7s9tEbeWaVfaCey+Pvatb+gcqg8r1LDgw0DmSO/EVM+O9//E9y5cKlyZ2/+0vy3EvLLekHBq+V/Ovm704O33lIsk60Sk9RPuW1kgMlB/qXAw0J/6KnX07Ouul3yZ9SgT5PvPD3hO2mh15Izhi1ebL90Grvvv59xfLpJQdKDmRxoG61H8E/ds6SKsFPI/nQKZCGtH1BOEoQ4dXbpOWlzae6t5/TCfmz+OpPf/pTC3TifVgnj+P0hjdlvYRPPUFfJTWXA3UJP6o+I34amycPyYe03NPbhMsjEFG1iA4CLz+cNrpDPAM8gJ5ST8vR0+f39v24MROsxQKZdAIQi2nixRlvBKfcrMCtPMJ/nRV5nfje3teULkNfPh/PVRY47W2qS+1njp9W9YsKRlru+fK/VgfbFN3Tm9deeuklG4EQ/v5oSP5urVIOL08z9xdffLG5zR5zzDHJhYqWc8K9NibiNfjUhdtzHuFqjf+6UyP4Cn5PT/fpMvQ0v0buX6jIQVyJe5vqGvnveOIvDZcDg2BMuBgS2BOre6eddpqNCKQ7UquxcszSzPjM48eMquiEuyMLiOIeypb2lSfCj1EHbzpCcn8on20IH2kPgRyqIBNf1pn0rPKKIw9Rf6j2TkCA0fvikDFcvtdE/tVLBJCwyisruxKgMV4IMwCF5JWj3nxbPR0Rjqj4+KUXEUE11Eeex99Rise/Wr7/aFq0F+qCmA7HZCSEmvgJgoXgMWAhBFOxqi91SR3jJ++EBsL0EE86An3opJyeEiYE4b64HRNq/i2FZjNAZJWB9kcsAOlIzyrSrO4MNVImcB94Lzq0YULtocz7KBKUcoIVQPlxAWaqQ7uEwKjgnnhrSnSfXraKhLBadczBv56/MGz/7btW27ae+H8sbdY17olJQATo3EE9auW0BD6oIdixgnXsuiogKNop6OWDOoGgZZXtumCNgiowCIghqLKDYuYtvVTNoFEiqEMIiu4LAo8ICsIIGuGDek+7dumll1paRWPZOS0THeT6G4QYZM9S0JDdr6CjID/8IO+rILCGcPfdd4errroqqIKCOpVKuYv+KCY8aPnooA4jSOCDOpDA8yljuhxF+bTqNYVhFxaN+k3Xs9+gpbmD3FaDhM5P2T7Ok3aiaUFQww8CgLH62HfffcMJJ5xgaadPn275axphdS1glyA32aBOJzz44INh7Nix1k7kFx8kTGHbbbcNEvCgaNDwgx/8IMhXPggtx/KizUkDCYo7sLqS6661rawyqEOyNkKdLliwIGiJeatnMmqkTPLlt/LLNdyeeccddwQNdLZRZt6Zdq+AtqCIPyunApPsPNeQT8WJBE0h7Vo9PzF/4/T0dFVUj/Dvct6CgOD//fUVdm+zhB+hcYIR6tWDAmvslGKdg0ZtvxwUrWdMRPiduEeqddBoYdfmz59vlzSK2LF89e1YPXhQLLd1BHQQ0krsujQN6wxovDQAJzqJeoXf71HoZVBvHhTTHjT62+l0OTxtO+3zGpK/Q5HwjxgxIowbN86TVvbpPBFgBUxVrqeFX7H5weuS+pfXXIDfEAMH9Sc7jXUG/GcAoZ7ZpFmGMWPGWFppfkEjeBDMmx3HP+ky+DVpcZa3QoGtI+E8wl9vmVz4FabrWVonRjmlFds5xSHYoFNJ0PVHWmUQIpF1YulrRcdp/nrauub8fMfnU14jSD7c0yihBjkxN0d9JyQXtVm9cxKjn6DuefADUXNfFfbe7NmzDRxk8ODBlo06A8+uan+DoJzUIFbzr0YNJMoKVQzABqe4XH4uby9NwfAFAPZE1SQKTKNEXvIBcx6wDGlcVSp5d1+e+vUIydWQfDRlhNTArY75H/Mfu4ujQ0kTs+kDsfwE7AAHN0kgnlmRdKj4TAekDdq0lHYSU71l8nsAEnHydk1bR7XPIqZVRJB+ThiI6piykjR8rq45Pw48237wncl1x2yfLPn3HQ3JB1CPtdf4h5B8/pH5UO6JyQVVvW/lNBURE8IXE8fg/FEZCGN8HeFiHgYxfwcqCqFmTuXwTXFe/PfOgPk8G8/3jcbCPJLnMeeKyxk/N51nfEwFgTsAWizYgmAXYNxKRxd6OeJ7O/0/c33sOsxp6yHqo6cEkhCDCHYmwrXZyNdRoLEBYFWnDYAdwaIitCOnuAx8fWCQoS2AHPV9oQD3JMIPjAEnBjaItucUP5tzX/7yl63TSdu6PH139nUJP557r0vO6kXyed96bzdvv7hAGL8YCTG4SKVObhHyKkad+CU5hqlSU5JvC6wAIfYgCIAW+NaLJRT0EwxpTnQC5ENFI7TAHscEsCYEMiqCDQAolc6zSI9hkc5FczlDmSE9zKZSNCdLzumCjY7zzPpPGXyjobA4haYelaTpclQudPgfLP6g36QRl/JeG5QftARGQsKqu0ua71u9Upd0AIDI8skXBF86YEZ8jHi0mx122MEMeR7vny4D5eAeNA7QoN1w3N2yAWGOIRmNAqhwovxc+Hk2n7F9AMI4iOZEx9RMJB8aaxVlzflJ8Js//C3skGH0S8/3SUPaLBKqqs2NxDCbz++xxx5VBj+pNEG9MV1+UGcRBFlcyYY5nazoZuxQZYUJEyYE5kYa9W2+J4upGfm4pimA/ddqMZX7metxTUy3cxjfZLm1Z8l6G6TuVdJiTJEqZteYYwn5xQyElQQFf/SZyww2vAOGHOwY+kpRuSNdjsqFNvmTN3/04qsxG99iwy5GNwmgJ1ltn85TnX7AxgMPFy9eHOQ3UDH4zZgxw655JhpEKnNvzmEU4z7m/BDz/e22287sAtQ//JcGYNcw3tHOOI9NR18MgjRHu5YuA8ZEaS2Wt3AfzLCIgRBqpEw+58dgqa8Vlh/8odxO2ANok5r22innBe/lm76MefKa+zR//YZMJB8+qWVRnnuvp2XEr+XeS++J+uVAGH4vIzvIOMB2oYahJahS/HJlT8/Hee+hKxf0h1Gda3yKySJG4zSiDr0rIB5plCDup5yUw+eXIPugkeQRnxoPEiw1mgjfqdPv6PdllcOvtfr+T3/6k8GTN7OcWXmqgWYiMXX3uczR85B8mJ5Rzz419WdklaEZSD4AizDqo3lQLp6dJtoQspJlf0inrXWcxV/uqcvg55njs/+joz9qDjx8+1/6t8YDexCkPKHw57jBzo/jfZ5gkwZDXRHhA5Am8NzzKAvZx7/tZt3jedGIit4xqxxZ+Q3kc3TiaVtJT/hRhOSTV1dZZejJPD9d/v5G8nkLan5cKOaluGf2NeFkg/A6hnlfP798Xn0cyBtF6rs7O1Vv5Jn9pP4/y2gufwdzMMuCE++NEubxd5DmQJXn4THF57L+IM3L+uOx5TNLDvQpB9B8i1yb+7IwgxB4J1dHX9XcuaSSA1kceE02l2a3j97IM6vsA/VcHn+rhH+gMqd875IDA5EDDRn8YNCyFcGgu1mC21fibRS6eyAyunznkgOtxoGGhD9v0Q4W8WT7xWN/rWvRjlZjQlmekgMDkQN1efjBGAT/1OueTF545Y0Kn9JIPlwjDWkbJZZtlkNHo7fVTN/MfHHbzVrOrGYhBkgCPDNZUxEX65jkIJNM/8EPKmvRx9fq+X+qwED+s4kLVNbzzIGQpi7hR9X/z18+WzeSD2m5pxHi8wfOFs2mZubL4onuctmTcrJGG6AWnUS4n+6sdRRZ5ppOwGmCMBp232235GotYkrQzHZybMFluoimCP3H4/dJx/f2vqZ0Gfry+X3VPuoS/qsXvVg14tdiBBoA95SUzQG8u3qjo8t+Wu+fvUwxEkcoIu7ggw+uehgALkTOXa5RH191tCaAKWqtgkzsBiAeTudPnpxM0EKZfUnpMvTls/uqfdQl/KzL1yhhEEwTIwKqM6uMbqVw3X/X0tqglzgRLkmAxYZC6vmcVkuNoZwI+tlzjz3s2mj5JnhkFvfWytfzZ/ntbeWCyygFFeWJeyWruW66ySa2EfFVLxFxeJBCL4fIYepDWmH4RC3/TVgy77q1wpZxQyb4iPfoBFout+lfSHM7Sog7MfGeEG7bEN+4hymU1c/bydQPQS4CbEnmKb9hW21lqyeDanNuV3AVQUKfFMLN6RMmGH+Ha7HLu++6KzlGgV60G/g7d+7cSq7eNj6gpbpHaJVeOionArf2FYrOBuuvb6vvniPNBJferDLQHljOm1V6Sc+3ejoIqJEyMSXivVh2G7QqyszUlHLmtQ/Qhrgn3tBMekp1Cb8vyNnIw/xLgN8D8/aX5yC+0axjP0mVOUvr4MUvMVcQTURLKaAnWSSPv/Pl5w8RRcXIAhN+rmjAjRXzfKCgmcirnnzJA6gn/O5PlRpKVF9RnqQ/UxVNeQihBBLsOkUEpueypMsi7iXtzxRiTETWjxTj/0MtVY3bL5GFuK0SPnyhrnUCIZw05DQRUkuM/GHq8InmBCYL4Tte6fOIKLvd1cmzFDtCNVQhwEy1iLOA6DgAQoWXtAWeQX0S6zFP07KRI0cmJ4u3CDFtg3byd91zneDcjlPHQkTfDQIahbAl4GJ7rzQSQnppdwsV2ZlVBsBJqUPSUa946p2kTh1qpEzc99xzzyXAcH3rzDMrdpDPS2vKax+UC16wMSChUX1c0Yk9pYas/f6wtw1aI3n5DTFtQv1eeYRTEqL7sPbgoEGEMFIxTggmaiF067x5FQMgL63IJouV5xo98JXqOATNZHnVypf59VQJ2vQZMyoQ3EV50pgI8z1dDWUfzc+hi+mp6/RC5DkQHQDu0oRoLlZIK3PXLaXxUMmEEOfh2NnNHfKDcIJxd6n4B8YB8Q/wI4+GaIQe3BXUBa+yCD/9iQrvRpP4ooAtsOtwTAcwToAbih5NWHb7TxKSJUuWWBANz0WLu1GCi2YxWiM+cfmDtHQ6wTWjpIWxOaXLAJAGG6Mzy7HTyXxH0xGnesu0VhfYyDeFD+DPmzptWvIx4RIS6p7VPmj7ENcZNC8QQGpWZ+tlqXdfl/DzHZ9PeY0g+XBPTMRmE5Tjgs81ouBiouKdNpJwuFr1c8E8c78jsHgaYrSJ8ivKlzjsC6ZMsVtoiE5FeaKiA8QZxxkQb50V+ef5xXsa+1ka5agsIrYYtYQ5GCcZEP+vV6cNBgPTrJ30/ozGX9PcnSnRE4pj727gThxpuRqSj7QqCHMzgwKExujEVBIQDwghYvqA4BHEhbHyPzQaZ0XS0RbRcO4RngQAs+mpS71l8nI4eg/H3s4UBp1svPHGnqRqD1DMoYccYoOXA9JWJejGQV3Cv8sm6yXvWOetybdHa77zzrcZks/SvywTkk8iJJ/sp3JPTAgPgvrCCy8Y+i7XmOfwUrVGQFBMGUFR3dLE3L9WvmgUNISDx4wx9Z/12Ivy5Bk87+kuhBWOEeR6gCV4n+MUEv2VE04waDE6JuaVb+9qlOQFIQidTverbjaRzQPBh9B8DpaAMd9Nw7KledEM/ni7WiLItqwgGqC0blTHxMhPB/UVTQs+qGkGaMFQXIaJZ52VvCHbxkPSJNDarpB2d6Y6iu7SU2pbu6jTgZ7RIAb5CM//+Nkcn6j2hNbQFNReMhTVNecfs/36yfJ/hLqRfOgguCcmjD7gkx0vaGcqXkCLyUjBHzPvr0WfknEF1X3G9OnJnzX/41vylsLwQ+2vlS+jNRhuoPasI0E8THNQ5oJFeVKevQTzBbYA80sgl3x+V6usVJpvxO1j38DeEBOoRnw25F06mVCNn5DVHmMpajijJ0K0vgxmPtplvf8G4s9v5RvAvfV0uFl5cI4RHm0SwUGTe0wDAPBtQIox92bEZwpJp0RsPR01ozqULsObSs89TDVAJUJV7wmdPXGiyQA8YUETpsDeWaXbB50lX0umTZ3aVCSfuoR/7UFvSY4esX7y3P+rdt7Ienm+yE7YY6OEe2ICRONaqYF84voXwSvtJWw7RgRe3Cn9PdePgV7C0IIwwiBw8uidMQrVmy9zMvDcl6jivi6jUlGelOfcc8+1BrG3Oh4sylur8yLkmMovIhrPWapYKmqoOruL1EjAmY/vA9seHH86oE4iry9/J6EYmcGUT3uManzjx0gL5mLMD0/vezQ0rjOvZboX58v/ons9La2PQDVsO3TeH1FHsKOs/eu9851mNCMPDHuzZcx9v2wQu6gtAihzoL4yQekyCA7eDI9Y+z8rm9BOI0ZYOn4aKZPfxFoCfM//qNaFgCe0TS97un1crM6TqSP84EsZ26QCUBl/Rq19JpLP4VpUIYvy3Hs9LSM+gj98o//lpzL3qFlUTNbcKvOG6CSj5eAc5J3u5luUZxo5CDQfwYlHJar+iyaCYQjtAsMQU4ws4jojSXd4kJVfX53D0szI1Cix5BkjK1uasvJEe0Jz6q5dIP0M2gZaYBYCFFrJen2I5ENnM1+aLDYsytXbSD5Z/IU/dc35nZEI9fTD/tkcePj2758AGw3sKUJV8Wfl7d9TgLzT3XyL8kw3VtTQJ7u+72aV0VFhsOjnCT73cX0gEap+I8Qo2CzB57lFbSOvnrLK0ElIPg23QNT5I3fawLZGKrNT0qL6z6zDTtEp71u+R3M5gOZxjXw9MID3NzUs/P1d4PL5JQfamQPYGhyOvr/fI1P4160BhNnfhS6f338ceE1z9ma3j97Is/841HpPzuNvsem69d6jLFHJgZIDTeJAKfxNYmSZTcmBduNAKfztVmNleUsONIkDLSP8Wm4rAfEFwocan/CS2osDWpLcAqLi6Ec+jeKdidOUlrK24J5WeCvWfCTKcyBTXcK/2eR7kw+ce0/y4QsXVXjFMdtG2mLa+oJFdp57GiFi6x0lxz2dGrk/Ky2uuXjypf2ks9KW53rGAUJeCdRiwRc6AQhHpsMOOyzZe++9k9vkzowvPItnEpDV34TjC9GAA5lqCj9CvHzF/xiPXlq2wgQ7ZhjhKXQCEPuXl69cNpt7/LxdbOCHGHiWRO4psebfrwXgUQp/TzlZfD+x+qwbT+x+THToxDbgl47w46qLkwy+9SX1PwdqCr8L/nNf22m10nKu6Hz6GiMCPs2ETxK6qJVGq5B8/AH47TuGG4LL0s4EPmwg1BOtpFoB1SB0Fr95rdhra+PhLvkDQUZB+M576ONQRWrVs6Qy68cDsgGmAD76xPUDPUUMAd5mhOXGoxY+6rvssov5/BMlyJJjEGovQUxMXfBpx32TuISZM2daRBgLpbBstAet8I74meP4wTqFjJ5EEbYLEclIJ4tPeky+5DnaF4SDC+9GvH1eh4zrNME3Me2///6mNaBJwCfCwvG8/IQCw3ztRNoCdXHMMceYN99VAlDxtgNf4Tm++wT4xEQ7o10RxeltjuvULZoMbuhaLdcAXfw+2glTU48tidGoPE1b7MWgKkov0T3knIVV1/2Y/U6XPGBbfM7/V92kAzEoyO89qCGEu+66K2hECGroYeLEiZZU7q5Bapj933fffStLMgv9JQiIIUitDAJ+tKWzFXdt6TSHRPEI48ePDxJSW5pblRUUs20by3BzXVFYQVMKu6foR+ppUAMNgoEK8+fPD3JJDfLoC3PmzAnCVQtqRGHcuHGWhdaPt2W7Kb8iFIOCjYIaUVDgUpC/tj1XkGR2n4KS7Hj48OFBkYhBS6LZktEaES0vdW7GC4FMBAlMYOlylmcWrkBRcfvlmsKwc5/Lstzw25fnnjJlShBwh9W93yTBtjSCOvNTIc5TCEt2naW+IQ0YtoQ2fLn66quNxyytzbGiNW0JdNJ5W1CHHxRFaUt0sxy7hD6oY7Bzu+22W5BAkzwIUcmeo2mJtR1pI3ZM/dB+qEvqRSHjQUE9VgZvQ7QTxWSEqVOnBpZzb3WK+RuXld6xirKEH4GON26Ihdz/e5r7l74a2B58/rVK3jCRhqGet+qcRgw7zhN+xU4HzRVNeGG+Rk/LR6OAVbhG6ErjUhCOCSRCBEnttLQaYe241g+Vql69kkxqbBg9enTlmEag0caONQIFxYNXyqU5pD1LCEAV4b/55pstrQJ4AuVU+HIlL0UnhmnTptmxQEYCguKkhRUtLzq0VqO8hkQ508L/1FNPWaemEdeEjY6SzpV2IISdyqul81R4bZDWZNcFoxYU/ltJyx86RQUKBYXjmhByDuGX/36lLXAOvk6ePJm/RrQf2gb3I/zytgtCF7JrtCcGI0FmdaUOgXrT1DEITNTKzIAA0U7oZNqF0vz1ctdU+1VRRmkVnpPM6dkGrVEdvjt61pKEbdTMh1berF9gvPCLj5FKUNOJtc8jEHXAO5PwJ1sofp/tC1/4giV3oxIBIx4kg1rJnDK2NuflnXfel9nmOuHCMQgEqr8YZ7feIDiohwUSgUrJhmoIqcHbnh8P8sGASRmz8uIdCTn1+7mPqDmmCvCsnYkpzy9/+UtT0ZmaYWEnth8XV6ZxeYRaja0A0mhfqXNU/JEjR9r0gfvBBIR/TkwnvS04XwHscKI+iLikXiGCfbxOiPhD9SeSkI0pDFMw6oLpBUQUphNThXanuoTfBX/6AVtmvu+tY7e188+cXm0XePyUHSvpAW8A+ggrqxMCTMPPI8Jd6SyYxxPPzIbwscWdSN79fj6uND/X0z3zUjaMir5RLmwGjZC/IwAnTuQH3BSdSjsTHbcDmiC4oOVQ/3QKRRF7hwiuCuMg1nhsLm67wQhMfnSw4O8B0JIXZQdfsfW4TQA+MihoulYlxFn8Zb5/2WWXJXTw3ONwYFlp2/lcTeF3wecl99p8cMXAx3nftnjPWsaDNaUA+Dn273jrquwxnlDpmjNb5YFNDriCG+jymCi123p4UHuICQf8g7zqEWh6cgjE3DTmWt7z6j2PMZBRjQYoddK+bwPvhJGrUcLHQSqxjYx0Ahg8yUs2gkazaqn0CDpG0ssvv9yECGH6tkAoQNAtIgSapeMBbZH9w9B4SI+BlHpHcwB9uZYRF+MifMUYiaEWrRGcvlqEYZGOHI2NugVmvRNplXT28tuhat0iqGWYyYiGuo+lHuutk3/f9z3nqWDSEgmFqsX3ZFcdSUdDyCM6CRoRi0lgbW+UyDsvfxmPEs3ZzaLP1IP1CFAVsTh7+X3Pc/mfdwxKEY0coEnUWToAeFU0Ojb6Ln2RPn4/ngfyzIUCyQQHH+s8nwLp/NlqEV910ByYAjjJgGcDAB0jKEHw2olnp+uKOsfCT0fNwMM0DcQc0mWl97wYcLiPrxQgDfOlgPTp9/P07brPRPI5VgCUvUndQdzhcwqjN/OwRglVkd78nK6FH7Lup6PorscXHRrzzXrRfbOezznKyGczbCOtSjJGFkJvZ5Ub/oNVh83G59txukbzBPYKm0i9/IavqO8+v4+fXfSf9obApwFdiu5pxWt5/B3UH4UtQlXJKw+NpjuCT358q6XziOd/6efEhr70tVrHPbk3zhtjVSsLflzWRv7D/9jw1si9WWnz5vlZaTmXNrbmpUuf78S6iN+xX4Q/LkBf/acisRyXVHKg5MBKDuRPmEsOlRwoOdDRHMgc+V+NltDq6LcvX65hDrymhVea3T56I8+GX6yDb8jjbznyd3Cll69WcqCIA6XwF3GnvFZyoIM5UAp/B1du+WolB4o4UAp/EXfKa3VxgBgE1pNjHfksd22863CIUqBTlS9+XZn3UiKAXtxtuJce0fLZZhr80qUefukjBujxrrXWTBaO28oubzVtie0J6Xnk+G0qt4y47NHkldffTNYatEbywPhhlfM9+TNFXn4YmUoQiJ5wsXfu/aHWujtBse14axKPwLrzVysoBw9ICNfqI+VWi6synot4zN11992Zzj69U8LsXF/UatG3yz17IFPNkd8FHyb9bfmbiQu9M40YNz/HHsGHAAHx83aiBz94hymssgc5lLf2FgdYdffrX/96coOCYe6UDz0AFywsCRF8c5r84k9TRN8dWqn4t4sXJ3ibXTBlSm8Vp8y3AQ7UFH5H8nk0Gt09f84VnU9fU1yx+cCzyuhWCoH9dyH0OAoKkE+sfPpuucmymis+2BB+4YrBTuYpwmvYVlslihm386TfU/7wG8rff7T894UXYOf5YSnmfRUss77W9WP1VfzLWQ3ViXIQ4EE5tpVbLz7jHig0Xgg7pyp4aHeNXIPlQspyzDw39g5ktPt4QSiyP6fT9yxiOkZxE4corgHCFXYHBWsJqMOOWYadSMwTtEQ2hIfmWAXrEN2XR4rft9Vr4+vU1aRJk8z9mSW1WSl3A8VTfFqrHDMwQKzGS3sgqvJ9CsMF2YfgHMJ+WRV6iIK8DlA4r5fN8z9XLt+byu9/8802S/jvlNceuZ5uI96G/d522dcUfl7Ehdj3/nJ7znoiYauH8K/eX1FW+GUTqz1JjBa4RYJKL0CF5HgFxXxGARisXjpKwnz0UUfZmu4E/uyuSmVEoYKHKkyTiK4jFCRCIMzPFQCzsSCzDhQ8GHmzii5QYQRv3KhGxqhzvgI8vNIpB0sjv6Jn/lgNhCizWYLXopFA+OnPmDHDGvU84c6xxjuQXteqA3K6as6cZES0RLOfH2h7fN6BvvLoSfznr5k7NwHSDKLDJAiHwBgn3HzjjtTP+557b7/99ortAE3hJmkVBD4R1PVDQYARCPUzRQjSYZ904ol2K374RIouowyqq91GjrS6vUxRl+BB0BkQNzEmQuxFM8FGMVfpj1QgER0MIcRF7ZGHpdtIVryCv08r7+ua8+ep77cdsYW9W/r64heW2Xl6lm02WNv+YxQiLvph7cFgg4hg+7sqjcbxpGK06alhPNFfqIaPKD14eozAjCpbdgFm0AkQpUXIJ8RocKU6EsJ+0RzAvxPkV+Kr7xId9i01AIhyECt+/U9/Wmm0zwlX4CIZpLwDYI12MPaciNhDEzldoagvaK4oGLLk7Casj+75d8KeTpW5/SDFYMAnCMFN++EDqEFgF1pDVsAMS5yD8EtnS8dNXRMF6p0tYByMtCx/PlIC/p3Jkyvsw4X7IoGJOqDHXAn8hNNPT/YTBiDEYHO37A0+UtOmvqPBh4Afnvm9Sy9NlkjTE/xaYXskr3Qb4Vy7UV3Cz0sx6qeF3I/TSD5jfrIKoMO1BQSOynbBJ08i6SCivhjhfyzfe3pnX6/cVXFLFP38XFZj8gMJKCasyoz8jNQu+Fz/oABBnLiPRuKjFecBGgHYkXuh9HLSB0vtpGOg8yI2HNSddo+1txdt0g+d9rECzmSKhLbk0XNDpZHRAcTElIslsbME39MdKrjvmVdcYcJPJwC4B4SKD3DmPUIEoo7TGA1MK1zwQfIB9GMrTdmceO4+0vqc0kg+oPa8rvvqaY/pNuJ5ttO+IbX/olEfzHy36w5eiTiz5LhVVn8S3jd+FYQSvTe9PSOnEw2BCrpF8/crpGozHXhRaveiLhRcT8eeBuaEaoga+KxGdN9e0WhCPP2HNXIgxAvUwzsBHe2EtkGj+cuf/+ynkqdlhaYzoEFlEdeIH8dyjUrpc9ystAPxHDYSFuZgmoWa70QIL8LvUy7O84mN80UEDDi2HcBSQET+fJfwY1x8QwPFQ0uWJM8rXyDeCaXOIpB8QFCOPz0yLWFhmLxBxfOppz162nbe1xR+H7l5yd03Wbdq/s81ts3+6W3GA5B8/Bz7dQbpRBehzlEZzO355IMxaKSw0VDFVgihBeFGDRP6rUF1+33sN1CP/FtV2hOy+IPm8ikZemhsM7QCzJ/VWTAn3FINCrV/C43iqHmMFidqPniQGhLAGE7M4WmgJ+gamgLzRFaT2VvgDUXEaHSe0i0UUg/gICWt5ADzaSCvAM5AawMwgw3aUXYR1OlTvvpV6/TphJmexVOqlblU/zJV+LQW+jhOuBKo9q6lvak5PoKLPQctY6qmakUEkMt5551nAwGaHc8dq7l9LarVHmvd3y7Xawp/s14Eo8i1mr8h3Fhf9xIyz06yxAPLJTRUw8MDE28zjczraQ4G0RlAB48ZYxUOMgxqOwgrGH1ocELBtbk/0FcYBbkHaK1vy3hDQ9lF35/P17zQ82JEYB75nOwCH1FHwFcBkIJoJEVEQ4KwQXQCeGPRu9Z7DQ3qu6oHCIeZncV/31C7UcG/r44BmwvW9C8oDUAxzNtrESv92Nch7Z2EnmzGNqz9n5VxmK9DTtRvGslnotZN+JSMwszP0QiZts3QdKIWkk+t9ujPbPd9JpLP4aqk3qQ8JB8aE5WYNR9EM2Auloa2YuQfHKHokIbFQMDFY3pAB3CUYKNQI38tQ11MlANV3+eJ8bX0f6YrdBZgDn5WME8DlcDlY27cKDHyMk/Omlo1mmeJ5NMY9/P4W7fBr7HHFafOQ/IpQk6hU0gLPk+JDXscgxqzrgx6n1Nvj7GHueFy2QCu0Oe8NOWVI51Oi38kF+r7MwZKPkOW1DgHmPI1i9JfEGrlS+fuRshaaePrRe0xTteu//tF+HubWaj8GImYeyLgTBd6Yp3FEYgpxh7SJHz60NvvUOZfcqC3OdCRwg/TMDCyNYN2jlBim5FfmUfJgVbgQKbwozaXVHIgiwOvyVej2e2jN/LMKvtAPZfH3z6z9g9UxpfvXXKgVTlQCn+r1kxZrpIDvcyBUvh7mcFl9iUHWpUDpfC3as20Ybm07La53ILa46G28WsQ/EM4b1FUX5y+N/+zYnB3V2jqzXL1Zd51Cf9mk++1pbg/fOGiStl8ee6NtER3TFtfsMjSck9/Ex6D+IfXS42mrzffgZDuCnnOfVQ4DITdEhKNT8RtCvJxwskH70g8JX35bb/WH3scX1gFeCBTTeFHiB3Q46VlK0ywY4YRbkNHALF/efkK+889ft5O9MMPvTux1/VSo+nrzXcgpGP5bPz8EXjiNoD1ApgDYqQnAhMILwKrSmoNDtQUfhd8ltxOky/HnXc+fQ/rnjMi4IVHWCyIOE5EywH0gBcfDQVABwgf8a8qMMRXS91fQTv02hAuv98QGhANCn97VnYlcot47aFDh1r0HiGgDi5hN2X8ZKUn7h+vNEcO4jZGt+22285yYPVY3IgZyXBZxZHop8IIcMorm1/vpD3RmvjiswQ2hCMUcRaM9hDYfuAvEhVZy2vu/PPPtzgPu7HrhzqnY2HaQOg3YeG4gH9CgWE+hQCsg1V7j1FoMY5dV111VaV9EFEKZgQr73qZPH/ASGg7BA/x36morVL3tCvekZgVxwfwe9tmr0ZaRVr+uup4yDkLM485v9MlD9jmadj7/6qbdKAGEMTkIGENgtwKCtIIaiRBI3MQ1FMQE4OW4w6K+AtaDz0oYCcogi9Mnz49KGwzKGIvLF68OIjhQdF6lr1i7IMWyQxSNYPAO4LceYMgn4L8+YOEN0gogzzzguaf6eJUHeelV5x/UIOopBUoZRCsmB0r+AOlJ1AGjXRBjcGeJ69Cu55XtkpmbfpHwTY1S67OIGy22WZBQVurpVWUXzj77LOrzsd5CqXJ+CqhtjRLly61drJgwYKgtRatDV1//fWBYwVkBYVaWzraCfWhAKNw5513hhdffDEIni1I6IM6BjtH/WnwsfTqiCy9Oq0g9J6gzsmOaWdFbZWbqXsFiIWpU6cGhShbfq38E/M3Lie9YxVlCb8Lte+5IRZy/+/X71/6amB78PnXqvLmAEF76aWXggA5jdnz588Pivqy/1IdgwJoqu6ZMmVKELiHCbji9KuuKTQ3aESwDoROZObMmZaPRghLpxEgaASouqfoIJ1eS3oHaSN2i+LSg6LBTNA5QQPwhscx76U49aCRi8NQq2yWqA1/8hqSv4pGwSBtyDpioTL56cq+lvCTULaDSgehqUOgE45J2qAJtxCcTAi5hvBTfzzfiQ5o8uTJfmjtRBpm4H6En/r0MtJmBAYSBD9eSZ/VVrlI3dPJtAvl1VlNtd9VmLQKz3k3+qWRfEbPWpKwjZr5kN9uEXmAbYC2QlQYKhskBidDhgyxaDlW0UUFQ+13oxAx2MTPo1aiuhGth6rHdIBQUdRBwCHYXO3UaFF5bk/+ACdm0GOKEWBaMmzYsIraT74cO6HqMpUh5LgvyubPbaW9hCEZO3asYSwSu9+dYBreB7Xa65824fVKvRPfv84669hUT9pV1ToAAHt4hCZ1AJBHvDQ4EGKEEzvmHtMDL+Oaa65pqj9RoWx5bdX5TTttd6pL+F3wpx+wZeb73jp2Wzv/zOnVdoHHT9mxkp45FKAPNwh4kXk5QhUTjYb5tdR+m7sh8ITRMp9mQQhQYLEDINhHCdyTuPyNBc9FiC3X2Gh8bJx34rgRitPTKX1SuAM0xLgRen6gEMXEMfaHessW39sJ/5kH83WFeorh2hp9N4BY6ESxxgOo6YtrYFREMOEz4JvgNuRF+FEH2H3cJkAZaHf333+/DThFZarVVovubadrNYXfBZ+X2mvzwYkfs/dti/esZe8Mko+fY/+Ot67KHmMNgsUIiQVe8/oKn7CyA8gJ4g4Cx8hPD04FUuGAd0h1MVQYrntM+GjF1dP7g+CjOZ4Bg2BQRJuAMBIyAtVr8c9KzyiEIQjsPrSPmIB3pgFSNlCA6dDoLKBaZYvz6YT/YPdrymgw6cCogbTD1h1CoDGkAtAKXBt1DoHiRN0CxgGCs2xEhdnvJ7ToiRMnWt2B2oQGAQx4LSpqq7XubavrEsgqSs/5qy724AAjkFR2M95g6JMF3/5rlDDDHgYzfQWwc1LPgizr9jRVWtBnIzvPHE3WdjPmcVGjQNAoEWRBtrk+czyMPU7SGIKswkHquJ8q3Gelx86gCg0Yi2Ji3iesuSBYMLuuqUzVfLFW2eK82ul/1vxRoCjGA/iU3uBDTOrYgzrK+FTIylMaouUV22yEvxc0mtt5jMDSFoM6CstLvgVBA0hVvsz/JfBmC6BcGIQ18lsaoTnZHD++AfuOcAFDUVslPXWvLz3xrS39P4u/FDgTyQeopd6iIrQeenYZAxPmZmnicxK9PvO0NPGphXyxJ6SJXpz7Zs+eXQXmGKdDG2GEgDw9WgfEZ0VUee5nJHHisxEhw8T5U2YQh8knTUVlS6dth2MAOdGQmkmN5lki+TTG/Tz+Dmosm56nLvrOi9ElS/B5aha0l5cGA06W4HPdDUAYB+P5n9/LHjXSydNzrE85Cd+dmYbsG0E+e1rf5z2b60Vl8/vLfWMcyJvn5+VCnbphLy9N1vmitpqVvt3O9bnw9xeDWJKrUQKbn6W+cPtNj+poCp3eOBrlV5m+vTgwYIS/O9UCqm8euadf3vXyfMmBVudApvCzHHZJJQeyOPCabC/Nbh+9kWdW2QfquTz+rprsDlTOlO9dcmCAcqAU/gFa8eVrlxwohb9sAyUHBigHWlb4FflX6I1V6/oArc9+eW0WPcX9meWy5WS1WhkIj8ZFW0Ezub4Wq93UyydYMNTdhnv5US2bfabBL13a4Zc+YoAe71przWThuJVLHvvy3Li1PHL8Knz8EZc9mrzy+pvJWoPWSB4YvyrwJZ1nrWNccucVIK3Uul4r//J6czhA8Azr5r1DcO8bK85+khZMIfbi3K61D8FsOEE+/4B7ENf/TblrX61YCXlMNqcA3czlRcWN3N4AylM3H9PSt9Uc+V3weYu/LX8zcaH3t8LX0s+xR/AhQED8vJ0ofzqSA5cptoEIN+IzWIgVpyhGeNZBhFhWG7//GxTYdafiIwDAuFgxACX1PwdqCr8j+bDkdpp8Oe688+l7CIRhZdV3K/RyO+G9/ehHP6rcSkTffvKiW/+97012FSLLfYKCiqnoOqvu7qkAkJNOOil5n8KFQXWR67IF/bC45qYKGjpm/HiL6iJPwj3/7WtfsxWBhwjBhWAPIgghogpZuXcDLSrJarDnaCQjr5KyOaBY++TrQlPyMFmW5cZN+3lFX+KSPUbRmYcceqjdjKPUDjvumPzxj3/Mzkxngf6iHcRE/aBR4HqtGH6buso8AABAAElEQVSrF+rn01qq3YFCi9oAq0JTzwconDf97HPPOcfaB6sI89+pqK2OV5j5qVpdendpL4Pl1o0LdztSTeHnpVyIfe8vuuesJxK2ekigCcnxiuf/jFTE+b/6lS14ebTUQ+aLCOOYgw6y/c8U8nuyYLsUYFHJttZ1/PrvvffeZJlCNom7323kyOS8c89NFBxk6ueVV16Z/EadCc+HmJ/OmTMnuUqdz63z5iWogL7UNJWKm/G9CiVlGXBGsYULFlTKUv6p5sAXFYq9l5bBdrpy1qxk6NChyYckTLhkExEJRBZESO01c+cWwqoBuUZIMNMJCL/0m6Q1EN0HOOgPVZfUC+2EmI2TTjzR0mW1ASIt0UzAfGBAWL58ubUzu0E/hAXznLlqM0cKAo4OhhDiorbKvUw5ASmlY5snzELv+DzfdtnXNefPU99vO2ILe8/09cUvLLPz9CzbbLC2/QeI40nFYTOKwlyAMi6YMiV5RGGwuMlSCTcK1tnDN5/SMUEzEAtuFl0nDXlcdPHFFV9+BJ/OZYRGGggcQHrsyy6/3CqdhkMlCo0n+aUamxMNYpBiBVBbWZG3XJXXOVN7P0uCf7n4e72wDOMYCe5k1D5SIbXw9nRpXXlEsJTQfpJrJZCnTZiQMKKDwTdCGgUEGAcj7cuyHwDsgZHRKd0G5krgJ5x+erKfMAAhynf33XdXRmo0ke8oLBi/f575Pa3GvERhyDvssENuWwWBGDpQq0ADNNPOVNfIzwumR33OIfRsaSSfMT95MmH7nDYnQBgQwI0+8AFTt/eWygYhhKj0jBIu+JwHFcep1nXSEVzjDQ5NgRh7wXAl+OezIfgQ5wEOOUCVd9S4caYOonW4+niBfPnXVKDPx2SgYrrwDc1Xya+kYg78TAJ/sqZd3xdgiwuI30GHf6yANYnvF/5ezSCbQ4WbANgnRCcAuAdEHSmc1qaG4Dagpscqd7oNAPrBMu1O71a06D6aUvhInUbyAWHqddV1UVv1vHqy6rPn0d/7uoTfBf+iUR/MLO91B29u55ccV20XuG/81pX0t2i+f4VUJVBxXtSIu+i++yrXAPJgfvhnnXf6g8AXnGpd93S+JxxXGHrJNBmW/vjss7a9opGcDYQZwECYW3KNRSToEEChgYB9QgN5VlGAk9S4AOtAiygpnwOg9wC8caGmagcccMBqCZlK/UpTPfhKvdQi4STYgEC+96mdsNw6hPHwDQ0iD2lxkOc1HWBqCHRXFtEGQF/26QNpmHYIE8AGnKx7/FxRW/U0nbCvqfa74POyu2+ybkUDiM87I0DyyTrP9RUyAjECoGr9WfN8EHicBIhhuH4naP7GvOs5CaXPwUlT67rnE+8ZIRgZ0CDoPKZIvWMuuUBWaaHHmvoHBNg2ejZzUkYQtJB/lVq3h+adwHKzCAUaiSMHxfmX/1dy4B7xc3/hHBx99NGmYTFFg9DiwDhgvg18Gyo3c26/HmPrrcxp1S8hu59W/R0nXAlUe7cZvKn6oY4IwUaLmKqVgYoINKDz9MkRo+8QdTqgQj2sjiMeeLLuL2qrWenb9VxdI38zXg5hJDSWbTOBY6yneRZEZ4BwzRHOOuo9FXX4EUeYqsc1qNZ10sUx+dxzjgx+O++8s1nuP7TppsnNN99ssE+kA5qLRjRMKiFWYIxKTBG4Bi78bH2bfr8AK3bR/YB2ML8rKZsDbpdBQ9pZn/F8A38PI5x34jjU+DX2taZSQKahkTEFcBLcu9lp+AqDbwFfjpyy2sBEdfKfkjGS+vuwbAnArM2QFkc9Z6X3vIraqqfphH0mkg/C11tEg4DxeeAcAHEyYqSF2ctT67qn8z0jOs/MAtwoQgfiK8R6KofbETy/gb4H2Yi5cTOp0TxLJJ/GuJ/H35pqf2OPqZ26FgBG3hzOc6513dP5vghJJ68D4l6MQyW1JgdKJJ/m1Eufqf3NKW6ZS8mBkgPN4kAp/M3iZJlPyYE240Cm2r+uHGZKKjmQxYHX9PWj2e2jN/LMKvtAPZfH33LkH6gtonzvAc+BUvgHfBMoGTBQOVAK/0Ct+fK9BzwHMuf8fcUVXDfxtiN4o6T25cASec3hPYlvBmG2Wjat8jI4bqUXZeVzbdr/v3JDH/0Bf0DLv1dWA+6jx7bUY+oS/s0m32vgHIPXHpQ8dOL29gIszw3hg/esFuV02vqCRcnLy1cYks/vT121Sq9fj/csrkncdEntywHiHnDtZTFVli2boEg8Qm8JzYVwob5U0XLvFU6DEysg9bfw4/iCF+JApppqvws+THpp2YrEhd6ZBsyFn2OP4EOAgPh5O1H+dCQH8JfHf/82xbUvEmYCcF0ETTkBksJa90Tk+TZXMf0l9T8Hagq/I/mw5HaafDnuvPPpex5//HHz7V9nnXUsCAQAjpgYMWg8XN9FaD7xdAB/fEKCAXXAS5BFM1lr3QmQSEAluJeRZbLivEGZKan3OIB7ND74LH0N4bYNTNczzzxTeSjC7wt7EtNfi4ABI/4jpv0Vj08Hw/3EXhCZiXfmJz7xicr6i4B10GaOUegwobpa3dcCyb4hlCHwAMCTIE4jLhvPAGwEGDKCh/jvdKMARAgb1srRFhwGFqETbZEoUN4VD9I4rNjTtMVekXZVlF6ie8g5C6uu+zH7nS55wLb4nP+vukkHLNWsSggjR44MAlQILL0sIbZluUmrjiAoDDNoJAmyBQTBNQUxNmhuZlkp2MKuz5w5M9xxxx1BFR1Gjx5t1xSqGRS+GdRoLL3ChoMqu5K3JSp/msIBBdvk5qPOILBM+imnnFJJw5Lciq6zpbRZgp2lzhVmW7nOnzjP3/72tyiTQYuqWpqlS5fa8uwLFiwIQmAKEtQgTIDAsZZTCwJjsXTTp0+3+xRAZMu0a0oZtD6jtQN1DHaOZ0ugLb3wAiy9Oq8g9J5wxhln2PE999wTBDRqz1HHEYQSHRRQZGUQ+Ivd621RC7kGoQDbuVb+ifkbl5PesYqyhB+BjjduiIXc/3ua+5e+GtgefP61St5SCY25zz77bOWcFrusCKhAHoOi8CrX+KN5YdAc0s7BcGG5Va4L/886A/W64a677rK8qXAnQT1V8vZz5b7nHMhrSNQDQi7wjCCkpsqDNOqbwNOh0wY0WgeFWAdFVVbSpPNUKHWQIdiuawoRpMFV0vJHEYGBumaAYMCAEH6N+IFyONERSQP0w4DwCubN7kf4ZaCslFVaRVDwVxBsWyU9ZZQdI0hjtfY1f/58u0ZbpJNpF0rz18s9qF71BBU+PYf34zSSz+hZSyrZuur/2GOPmboegzkMG7YK2hu1PUZdIQOOOe8U37vxxhtbWChgkepQTN2PjUpDhw7128p9L3NAjcnQkTRqG05CvBw2OP7E9jsmAth3myrEmnh81OosQq0GDgyVHbxFn1awxDqw4EBxkZ8jBHsefEXwKExChgHyiHEDWP4dGDCnNJIPqj8oPo7kM3v2bMMg8IhQwsCdmCq0O9Wc8/OCLsDTD8ieQ986dlvjwzOnV9sFHj9llbX/Q4rhJ7QW3DwnYJacmJfFx5znmPO1CPw1UFp+LWhoJxB6SuobDjD/BXWHz33Mx50A7yDO35GROc8cGqLTziNguxgssMYDqOmLa2BcRDBpF2AtkndehB9IPgwAdBhOtBHsRLEQ+7V4z3wfAJIbBBLKPelPlXHadv5fc+R3wecl99p8cKUjiM87A0DyyTrPdQSUnhXQQ9BXgVAGQMNplMAZviu0HU07rHf+qTDhaExfKwB79HtB6wH6CcMQwA2aJ1qj8evlvvc4ACY/dYbBbdmyZTai8zTQl9Zaay3rFPAD4JMgBsGTTz7Z2gHtIY8QaFB4gAbDwOvYjnQYCC7+BGgZtJciwiisqaUZgOmUQGdavHhxTWHGsIg2Q3kZrNBAOpHqGvmb8eKoaVjv6dFR+xBW1DkYDGG5ZUknkGHoJIBdplFR+Vnk97FnAyaKToXGwTdn8N08Tdb95bmecwBNzjtw6hM13jdH6mFtBizsqMmAXjLyMqLngbV4qb4oKO3nhKPIFMBJBrwE3xCmf6AuY913oq7TedKWsPAzsMjOYBBilId0Wek9LxmS7T7aEV8q+FJA+o5rTz75933a4Ofnm7kXEktQL56bJdcbIamXQY4m4ZZbbrHbyFuqY8BwVFJzOZBnPKr1FGl6gS2LGs1TGJABA129hBEwNkLWe59sCkEdXL3JWzZdHn9rqv3eGzZzXwuNp9b1dFmYR2K8QVXEwIPajwqKsaik1uBAbAvoaYny5vl5+WIEjI2QeenS52uhTqXTt9txvwh/bzAJpx4MQ1iRqegdtVhHJ1hke4NXZZ4lB+BAxwg/L+PzTf6XVHKg5EAxBzKF/1UZckoqOZDFgdfk0tvs9tEbeWaVfaCey+Nvn1n7Byrjy/cuOdCqHCiFv1VrpixXyYFe5kAp/L3M4DL7kgOtyoE+FX5Ww8XDqqTO4gDxFzhoKSimamFMf0scc2bKww+nrThWw6/3x17ReBW34f54fis8sy7hH36pgm6mLUl2vvzRSpl9ee5hOh/TiMsetbTckyY8u1iks6TO4QBx7ixnfrNiKX545ZW2Hp+i3yoviIv25oL1AuDjenl47iqvvDlz5lSu99efF4UzcLviEQYy1RR+hNgBPf62/E0T7JhhxDrSEUDsX3l9ZcAG9/h5u1j+dCQHWDYb//4bFAxzpwKrALi4WCM8RNQdK+2y+vIDWhp7ntB++P8fZ5xhwBwdyZA2eqmawu+Cn7X0NueKzmddIxxzhx12SDaUr/fnFIQj4ARjl3wjE8VnJ/+igI+N5Lt98MEHm293G/FywBUVJJ8xqqdDDj3U3h3f9x3kXEXQFiRgDKtfVtcl5gJ/f/zz75HK7aG3ljD6QUPYb999ozNJIhwHW7qdgBvaCKv0bqA4AcBCgQaDiBvZU3EgJ510UvI+LSRKoBFtiqXgaVOsxnyAwnm9bP4AlnHfVH7/aCf8dwJbklWA360w4e20VDsxAU7jFZx26imnJLvvtlsyWIu5yn3YL7XVvqbw8zYuxL73N9xz1hMJWyM0V5VCNBbzQ9ZJP1/BFxDRVzOmTzcopbnXXJP8Xb4G+6oRtCtjG+FJu6YFSgvoKwKxIMJfrxE+n4N3gty7xRZbWFQcnT0CeJACgIrCebmXqQKx+BDLp98krYIAL2DemFoQwPUzhdvSoZwkTQIiyAhYuGWUQe1nt5EjLTjsMoX9AgFGZ0CIMXYnJ8KCeQ7t7UgFEk2aNMmiQRUHkBwv3MHPKCBo/q9+lYyS2/jRwhFg5WaISD9wCej40GaA8mpHynTySb9Invp+2xFbWNL09cUvLLPz9CzbbLB2VXanKqzSkVtvnTevYgC8VhVwusJ39+nq9S8X6iu9Me66CtCpyqM8aD0OMCofqSjNQRIE6hF65umnE8FgWcz97bIDEG/xleOPNwFEqLJom222sfBv2sNpQgJmRAfTYYRGYQgwDgaEl6UxChIu+Y7cup3wxb/o4osrWgUDzQRpHfsp1Bsi8hPN0wcUNJXvaCDCHZwQ4+8JZXiJ2hua6ZPCDEBzoCM4/PDDkwsE8/3Io49W2i6h44SntzPVJfy8IKN+Wsj9OI3kM+YnK3ttvy9mkMdmcw71HrUNdRCABkYJJ/zyCaUkBLgUfudKa+4RkmMFnElHzUjoQTSE8EIAY/iS54zagsFK8taMJ/2hAgXl6wDCTycAuAdEWwE45B5h7hMizmgfE4g7Pp3wNhWjQ1EGH1y4L43ks6GmC6+rLQIYAlDojxUYhrbwLqn2EJqGk7+bH7fjviG1/6JRH8x8x+sO3tzOLzlum6rr943fuuo47wDUFaK+GCmcwICn1wUBqKTW5gDz319pJL9RFv8Yas0X73iL4ued1lxzTftLh5FHYAMwZQAdiIVdPt8l/BgX35BgPrRkSfK8pgNgNuRFgNKmBOpamT7wLKYlD8rwGAtxVhlu0Xz/Cqn1AoJNXpSKz/S0E6nmyB/P83ffZN3c+T/MAcknTt8IwwBdOO+885IPCxCCUR/DEHPJIsSXRvIv0/YOB5hPM7KjUjNKPvzww/YgQqv3Vp0OFZQWRrjvasT/u4SPLwPUqcN5Z5WKkN1PSzvgSwGqvdsU3tTIi+ACxoGWMXXatKzbK+cI8aZNfUSoQkOkZQID9rA6jlrCvEKIQXROTAv4NI3RsBOppvA3+6XTaCh+PEmWViz/WHqxIoO9f9311xsUVLPLUObXHA6gdiPUkOPsec5//stfDK9vlgx0XxQaD+hNEPX6ozpwFlgP4AYZ+M4WopMTXw0+LyMb1n5UfITbsRppR2kkn4laCg4Nkvk5Zd1C983QdKIWkg/TEtYO8PUDjpedAvK26uVp9/1b1MNV6V8Xy2ByuOLi+4swHDGCdDqQQn/xt6fPLZqr5+VNE/vDH/5gC21kYSw0mqeQnmwe7lOIvOf6edoUKr/bIvx8rT0dBgLPV412pjz+9vnIX4uJGGxKwa/Fpfa6jgD5yN+MkpdIPs3gYpKsssQ0J78yl5IDJQfahAOl8LdJRZXFLDnQbA5kqv3rylmipJIDWRx4TfPfZreP3sgzq+wD9Vwef8uRf6C2iPK9BzwHSuEf8E2gZMBA5UAp/AO15sv3HvAcGPDCT9jpQVGkV7pFLJQfedH1Cy+8sOaacek8++t4n332MffWZj+fKL1f/OIXFhVH6Gu8ei6Lp7LuYnp7OnLlbnZ56smvVr3Wk0e7p8k0+KVfarPJ9xqgx+C1ByUPnbi9XfbluVlp71kt3+209QWLkpeXr0jWGrRG8vtTV63S69dbbU/IKAhDeYSDRNF1FozEiaQ3CNdUBElr1Tcle2LUCYxpJvHudI533HGHrZ03depU6wTw9cfvnvBtXHFjIohrmlxzj5X7bn9RrXrtr3L15XNrjvwu+BTqpWUrEhd6LyTugX6OPYIPAQLi5+1E+dMwBwhuafXloYmhZ1QnVJYlrRctWmTLYvMfIiSXaDzfLr/88gTPPIA4SupfDtQUfkfyyVp6m3NF5+NruFcSZcUoxoqphEmyiurMmTMtEozwXeKjHegBoMe99torWWeddcwfnOW4tpRvNtRoXvWwmBEK11PCOvHl9nKk771SvuqsDITLJ9FnsYoLYAQrxx6j8FbCRa+66ioLVx4/frzlSxgokWjDhg1LblPoK8QoyHuSH5GNBJHgDnuUwCNYa5DRGr49/vjj6aKsdsyKtixDjc87Ia/bb7+9CeZqCXWCkZqoOwAyekL4yQOCwTLpECHblJeVebPoDEF4EQeQ5/F3/vnnV3zq/X6WXieACC2DUFv4BL9Y2fl3v/udJcviPXxkeW3wAGhfBI+lywUYCfVO8BD/nW4UgAj1zDqQvBtYhU7wGQ0KyDKAPBwfwK+3zV4MqqL0Kr1DzllYdd2P2e90yQO2xef8f9VNOpCQoCQEASUEjRZBcd12PHz48KB5d5g9e3ZQQwqaOwYJd1ADCgqsCJqbBYVWBlVeUEVYto3klS5H+vjaa6+1cuy6665B89Mwd+5ce9bXvvY1S8p1ng1pdAtyPw5qUEEjXPjqV79q9wrswa5Pnz7djtW4w5133hmEWhuOO+648N73vjdodAx33XVX0LLPlkZCZ/coiCRoFAzyfQ/XX399kOuq3fvss88GNfogZJugjjAoxtzSF/2QFzxWB2LlUwMN6gSCIu3sNsquKUwQUk5Q5xQob6OUt+Kr58N7U4/UW5p4NmVQh1d1Kc5T0yh7Bwm1pdGiq0HuwWHBggVBnWGQoBqfOP7Yxz4WtFS3pcvivSJDre7UMRhPd9tttyCBtvRe7wogCr/5zW+COiV7Lm1RAWb2HOpZYCRBAUVWBiH42L3wWSHDQVOcIBRgO9fKPzF/43IyylRRlvAj0PHGDbGQ+39Pc//SVwPbg8+vWt7YBfbmm2+25yk00xqmQkErz9doEDQXNCGhESM8TnQWaeGvJy+/P2/vjUBqaSWJNJKg0cKOY+GfMGFCUG9fSccfGlMs/AiVRoJKGoWuBgVLVY5Zppp3c+GXphA0ggUafZrGjh0bhFyTPp17TKN0YSARPBZAStBoavcgeDRk9nSo3aG8hkRe8FDaTVAIb2bWQuMJ48aNW+1aOk+WVpeGaOmE6Rek8VXdI6AOaxvC8zMh5CLCn+a9NJsgjbFyL8IriK/A/dQrnZQv3S2tIihSMAherpIe/ikqMEjrsjoTKrFdg8908O1Caf56uWuq/WqoRrEK7+eY07OlkXxGz1qSsI2aWW3o4b73CE0FIthDjbAq0mqttdYylVejnqn7GjEtLT9DFReepnrySt+TdYxqF4OGgP4CtlvakIfqjcoeU/oYIxfvBYEm84IgojfeeOPKLaiXMebbpYKOYg4MWhHq56mnnmr3VW5o8E9cHniMygoaEsT7YERkH6MmNfiIzOQsi/7JT34y0ehqGHvpRITe3n///aaGp6+lj1GrAdKAmPp8QfBgECo+8f1MBakvpkjw2CnNe+oQXAEn2gswYM5/pmYe6UcdUDeg+LBJY7OwYaaBTC8gsAScqKt2p7qE3wV/+gEr59zpl7517LZ26pnTV1n9OfH4Kd2z9gP2wLyez0ROHrftx83cU9k0Xiep4CawLsR+ngbHHD0mB5qMz/l/0GQQRj6DOTHXj+eIHxbQBIg1xJ0DccXCFoBjOKmX9r917dPl4zju2JgD77fffgaO2qw1FMgHwafemBtjB0gTc32EOqsTT6cFtosOi68sUskrWAGAcVBXvBPgm98XOGdehB+851luE+AZtCk6oFiI08/mmPk+dYDRknta3eia9Q71nFs5RBWkdMEnyV6bD64Y+OLzfjtIPlnn/Xq9e0YrjGkYegBiQDBpBL1JGBv5Zs9I/W0BSDBCpAkL9RQBOSKglE12CiuXG7vS6TmmwQI9LdXLRhKE3zsVGiFGOUAjEEqAIzFkMbJBoN3QMSAIGK3qiV/HQIhQYPQDYZaGi2BCPJdRDFAMjFXwNi6PJWrwByEEcZfnYAx1QcHA5hoPFn8+90nVrit3BJryf+lLXzLUXsd9xAgLz+hc+MSKkbaI6ORAhQZABCMhxlBWjPIy5t2LZkSni+YEUi9104m0ehfdS28JIyHf+/+sY84BC8VISGXLSGZWck+b3hflxbVaxJcHBBgBQ21FMHg2xLN8JEOIUJvBjqdB0phHjx5dyT5O6yfHjBljUNRYwFEzZacwCzLXyZe8rhC6jCPI4ojDmgUQaDakYRpS7zJXCDTf0Ckfe8BZ6GCcKCPl4PMcAnSK8Pd6QsBkkw/Ec7CQs8X+BKjnsl/YV4B6n/VFQWk/99xzpi34PUC7sfQXOIGybdiXFb+WxXu+JmHhHyUIbr4wATGGExI8zUrveVGn3Ee7owOmIyM9WydRJpJPfzpfwFxUuxNOOMFGX0ZFOgDgkxkBAXSsl4CKZhTPIxpp7L2HikePz+hbRJQHyLE88Mj4XgQQIFIfPegwDjjgALMpxJ+7UJ3phFwr8DwoD/xg5ERg8wjtgpEN6GsaPdMI8mt2g8Upqgh/L698RecbzbNE8ini5urX8vhbU+1fPaveP4MBjtEJ1Q+DDWo/gozxpxFCTYznfOl7Y4Mi11zdTqdLHzNy1CP43MeozRQBVZxOBZUTP4BY8Ennxkv+x4TwYgilAyl6F3APYwLjrlMpb56f9750qG7Yy0uTdb7TEaVacuT3imB+xohHxe2oZaDa1cKKKykxBGgWGMViC7S/azP2aEU0WHeGakae6TzyRpF0ukaOeyPPRp7f6Wnz+NuSI79Xhs8f/bhd93wuwvjU27Tddtv19iPK/DuIA5nC/2pqJZQOet/yVXrIgdc0vWh2++iNPHv4mh11ex5/+8za31HcLF+m5EAHcKAU/g6oxPIVSg50hwOl8HeHa+U9JQc6gANtK/yKpqq4ffZWPSioJFGgR29l3/L5spY9X1xqEQ5Il1xyifEqy92ZxTGna8l1HIL48tEK1BftpxXes6gMmQa/9A3DL33EwDnetdaaycJxW9llX54bn6dHtHy304jLHk1eef1NQ/J5YHx1EIynacb+Rbnh3i7X196kxfJce8cAhjHHt/7LwiIoInz5T1Bsu0KizfHpm3JnvlpBOXhKQhPkeASAxw76VIsj0/+Vk9Ac4Rx4sExR3r15rS/aT2+Wvxl51xz5XfB52N+Wv5m40PvDCTvxc+wRfAgQED9vJ8qfjuQAy2az8u4NCoa5U4FYuEZfrNgHiFGeqMXLNeoT3ER8xsc//vHK4p4dyZA2eqmawu9IPllLb3Ou6Hx8DQeXYfJ2A8mHPe6oEIEoe+6xR7KhQiRHy6NP4Al23tOjTuIzznXUUAJk0oR6zr0x4Q5MUEcREXDySQWlnHfuuckHFXa75RZb2NLgcSQdnnUHKMhnA6HwjNDodfddd1WypCy8x8YKGtlWrsL4nuP6C3nejIRD5de/y847J7OEWuTEvYceemjyAfngk+9l8gCsh2rlS3nivASukXx0+HDL2u89fcKEZIjCV4cr4IX3OQakIfF3a0UgCsykqhi/EUwXZef990/5KuBVOEZxCIfoPSC8ERnhhVlgxyx0CeFyDOEZOUwem37eTqZ+qEtWao6JdwItiIAbYiFYpZfyEGgFPBjEu9GOWA78ffKrANmHeiSu4F/kWMX7Uo9eNs//XK0Ovan8/jcXqhH/nWiXO40YkbxbIdrbKdyamACn8QoCO1UxEbtLuxksF+o4StPTtMO+pvDzEi7EvvcX23PWEwlbPYRQEKhBJX1H0VgIJgEhR0hIgbH6+S23JBtLSA6U3zu+256eQJpvnXlmZb7IEs1pIqoMWKonuqCuCP5geec9FPxRRDRC5n5ChUl+rMZylsr0PY1UF6oBOv1M/vQEhuBXj4ch8FoQDZFG+oo6B+4lhgDhprFBnjffxK/VO48cOTIR8o+56XIv7/l3XWMZ8uMEGybkICuz3VzwU5Qvt6HO0mE54RYNPgLk9+LuCr+B8eLdcGuep2hDyniyhCfu/Ih0PFWqO++/TKsnx4S7MtBXxMFDdNjXqPOgPiDypxM+TJ0DAUbwho7p+AIQUe4V0pDFPpAH3mk3SavYQ4IN5NgPFTlI0NXPFG5LGznpxBNJZu8GnuAyyiDbwm56F+qE552p9kNnwOrPDCBORCRio5ir9EcqkIgOBu0E/h2veP7PiDfzBUQ6SgPL0ar3v2jaAhHpR8QkHR98c3wAz7dd9oPqKWie+n7bEVvY7enri19YZufX0O82G6xd9QhGfiGh2DkqhWgrQjchevUrFc2HK6zPCRk5YT40VUEyH9PcMt17M7LgDUjQzNeE8fZTCRThpDsLT68eEgpM8m4BPQhpxoKHBKeVnHTyyXYrjW5sV/lOUEP73/LTJ2gGgSLQ6HoJhTf+5xSDcJHK6B0APvlgDyJsRA0SI36HGtMmWqt+yZIlCY2V+AJGnhvVmGm0oxXVV4vy8t0nNWJm5UPMBOvWMwp/UZF2zOs5pgMYpwZOWC6N/D1dQCqAi3h4c5Hxkw7tSIFuDBKm3enqyJzoABC8S6XBIVS8b1FgEHWJC/S14sVp0lAYLIi2pG4gysJI+7ICq+isviP+OuHafJE6GQ+OmqvnTlD48n6qM4hIUYBGfaRGU2Eg8ohKOv4lcicntPpJYQbQCVJmOrALFMr9iOIymLZARE8SBt7OhHzWRelRn5sQerY0ks+YnzyZsH1OW5oAsXT6ucJbESDirdlQr6Cnn37a9vwQGOPkPuug2qbpMFXQNV3x4uwBhKgnoo3GiOA78Yw4gOb9UsudNlIoKUTjodw0Nhd8znMvAJGMthB5e0NEuAgG+m9d83hyNB5hGNp2i0bi+LmWQc5PXr45yatOE+mH4EMAXlA+D2haW50VFMOHbKlOy4mw5CxCSI5VsBJxGHScHkRzvQSXzp4Re7GuPS3eEBZ9kLAaGIXz6FCFMnvsP50AdQmh4jNwrC++0tmjprsgc51gJuc3CD+AfsTth3qmg/SRmo7QywpWAm7Yr+s+oijR0qjvzQTgsncX0rBP6XhW3I45bkeqS/hd8C8alV351x28ub37kuNWzu2cEfeNXwWh5OfiPSoeI+uzmg749opw6oFQcnpKqDpOz3R1CmgLaQL84ympcIBf3KOFNj7f1WDS6dLHWKBjBN6n9byhQ4emk612DDoOarSrgiTgXjoDkHOLyCP6lii+/I/SINh477s1/egprSlhRi11iqcAfq6RfdwRA3SSRcx/fyWN5kZBdRFr73S/7DdoOTvJZgDRGR+s+Tvh0KAl5RF1SQdPXRKs5HWJcfENwpulNT2v6QBIyHnRlXRsdFbxp0emJXx2jIU4qwy3aL5/hdR6oMReFC8XNRBGnpVfq56rKfwu+LzA7pusWzX/5xrbZv/0Nns/kHz8HPt1BulEAX1KPSqNZobU7j+LycztMLqh9judrXk4WPD0+gBPIHQuPJ6GPWGen9aogFEK+Oy8USq+h/+MWl/RnJsRG7sBKD2f1Ihci4DfoqEzFUBAUOHPleFwb4FA1CLuBWzjRGEW8NzHpE6CWwDUVU8J7QNjFXBVNPypEpCeEFDaC6QqI6wnds2v4/yYujGdAUOA0RzADDYItRw7DDylk6QOEWBGTdfi4rz8v9flcVrUgzxcu3pTc3wEF80FLYNpYBEREo7NiPLDZ9T0sZrb16IVCgWnXdBZMTg4FkOt+9rtek3hb9YLuQrue/IFKQXjDQ0HgWbuf/TRR9vnIn8uwBcY1rBYYwjE6koebK6+elpXD1Eb6yWEkG/5H9ZcEyMcaqlXdlxW8vNj9owszEef06j9EQnzvpqrC0raGpunTZfPywReAfcinNxLuPJ6Cls+ucvO4Omy9lnvHadjjv5WlW2k4Lp2VSdI+LCXo9a9lfeLMjxEIzXWfL5mxKMoSdB8vtuFeAQW/876zOcbajdoO1jvSYO2xrSOOgQjz8sUParqLyhG9kUkqkvgx9BqsPZ/VsY4rPFOWe+GLeNT6siZn1O/TLdmCDWJZ2el97yYWtAZs6H2UzeQ88fTtfs+M57/cFVkXxMj/2DNiR2njob1fkEoYW3FHoBqzny1iLC2g5n3qObjVDCjVh5hWOJTFfPGh+WhxvN4di2VPSs/ysZ9Pt/MSpN3jnt5rs+7MbjlqcQ0Pj4n1kMIGfNZn9/Wc09eGkBRmD6gYvPtnrlxo8QXGL4OZKEkNZon70Zb8LZSqywYI1H5fX5fK71fp03A86wye5p22Ofxty5rf1+8oFuXs55FJdcSfL6Z3zZvXvJNqc5UFhX3ZNc34Kw8Qc7B4OPUE9SWOB/Pr959+t7n9cUgr9y1Rsv4mY2i3cT3pv/D/7y5dTpt3nEzDWSNvhudcqOCz3v0pE3k8aGVzreM8KeZwkiI1Z7PPPUQoIvM3d24RMXN1KedIkKt5DNbK1H8mayVylWWpfM40LLCzyjnkNP1sN0Rb+tJ62kwJLkxyc+V+5IDA4UDmcK/rkbNkkoOZHHgNU2pmt0+eiPPrLIP1HN5/O0za/9AZXz53iUHWpUDpfC3as2U5So50MscKIW/lxlcZl9yoFU50LbCr/Xfq1bbaVUG49eO4dJXk2U5LlxMO4kIUsLVltWJPMTW3w8fAbw48X4kgKqn7saeb0/37dJ+evqeRffXJfybTb7XluL+8IWLKnn58twbaYnumLa+YJGl5Z7eJBwXiEhrdcJJJPYMw/U29r1v9fLXKh/rDLK8OJ0cYa4E3LD4J4RzDZ56eMxxDldgIvZwh+5vapf205t8qin8CLEDery0bIUJdlygoAM6Aoj9y8tX2H/u8fN2YoD+4H9AJ4U7cCcSHpUINcJNDAZwXrj0QnR0BMeA4sN1IiFx0GlGDEMn8rKv36mm8LvgZy29zbmi8/E13CsJtqHi2bN+HYSfN4E4OOUQ5ecLcXp61EnWuOc6KjPr9qUJN14HkPBrRIbVcoUlL2IH8B4k2AbACacjtZY8qDDEb+O6C+gFQA/AVBFPv7Mi1XwEY4T7N+EIsAw03oVgEXh4LiAY+O53IuEezcj+BcXxQ2g48IcgGgiQFEZ6YjggHLdYuQgXZgJnsoi6xKc+JtoKHUwRn8EMoB2xDiJek1cJJ5BnEKeBoxgr7bLyrpfN8weMBJAW/D3470S7RIshDgMsBrAKnWgbrELMu+I+HYcVe5q22ItBVaQIrKrjIecszDzm/E6XPGCbp2Hv/6tu0oF82KntIEaGG264IShkMyjyLEiQglB9gkaNoMCeoIoIiqSqpJcbblCMeFDEXRCcl23krXjvoAq1xwgRyPJW4IYdS6ULckkNgrCy46wfVVhQwwyKqQ+KIgw/+MEPgkZny5f0UlWDGmsQrFWYP39+kHtqUAcU5syZExTBF9Sgwrhx4yxrLSBq5aacavBBAT5BQS12bfbs2UHgFfafH7maBmkCleN2+yOvyNwiqzMIAu8Iir60NFOmTLF3h9dOEmyrKwGy+KkQ5+l1qc7TrquDDupUjK9FfJY9wfJVgJHVu2IJgjp/ayPqGOycQEWDBNrypf3QHtV5BXXqQYOSHdMWFHJs9amOIwhWLiigyMqg6ZrdS9ugrUydOjUICaryHq36J+ZvXEZ6xyrKEn4Xat9zQyzk/t+v37/01cD24POvVfJ24UfwnTRaBkWdBZjKhtBSIRotK8IvDD9PbhXBdY24VcJPAoFiBCHoWFreQVGCQeGflXvTf2R0s2cp/LTyfIWAhjFjxlhSKlg9fOU2obkEqfCVYxqERvjKMX9k1As0OiESWePg3EARfgQc/gk8I8iox6sHgWkEAWwEjbhWX3TydKjUoYyEloafdOOUDSEIBMSuawoRFP5bScufLD4j/BrxQ9zR0BEJSalyL21MaEl2P8IvL9JKWaVVWFmFVlRJT/sRalN4/PHHrcwMAhBtg06mXSjNXy93TbVfFWUUq/B+zo1+aSSf0bOWJGyjZj7kSSv7eKVddQQW+41axoZ6BYHA4hSvaOuoLMwd0/RFxWn7Et7sUUVjQ1s6vcecE4a7hTAE2FD1VNGVpCDmOKHexcEhqP5iol1GxR85cqSpteANAOPl1n2/v5P38GGsIMHAZGR+73wijBdADqZCEwTJhYWd2H5ct+FTHqFWYyuAvC75X4vPBB95ZCX8JwQ5bj8EcwED5pGOTA+8rAQvofqD4sMGoAzIQEQwOqRcDAISt2PK1o5Ul/C74E8/YMvMd7x17LZ2/pnTd6q6/vgpxXNdj5kGE883GhJzbac4htxDXbMaDrH8fGbCuAZOG/HlRQS2HJ0D8/a//vWvtvFsRw8uujd9DaMXDYZOC1DI7ws0stHIs3Se7XTM/BchB3gTu4cTgK3wBUFGcG8S0g9WdjoFOs88oi7p4KlL7Cxel43wGQPr/2/v3IO9qqo4fhBMIckXZdlIt3yQUjOklo1/JDqW5nsyFbMahwkGhJmsdKZIHZ0ELc3JIRlmCDWnwRcaaGEjM1LjFbIiZ5IUEcrUEkkRkYhL4On72feuw76HfR4/7+8n997fXjPnd85vn3322XvtvfZjnbW+u6OjI9O98C70SICc+EIcygODAAAlDE48Y7BrobgDOaxS+E3wKeQXjjwwU/ARbsdRo7orEiQfC+P83r3Lk0eJRqNBWDQlcwixoOOgKDJCaQdKDo1nurz2mCGEhB9hA7mFDgUlHRVfRiiieBfoLnQA7DqDYgoU3UaJb9k0KEY0Rr9bBArZLgRmP6M5KL9gF4KwwwEh6ChG2bQDIUKYQNSt4rHVJeAuwLwBuAI1ymeUi6BEP679BKhjZoMGGe8SLPhBschAwOBAuwQgZTBSuXQ2scQ2BbczSbOrC4YhgDzi741PPtMttLZGWoM7aG+m5UAqoT0nDQ6EzSfTOjNtrCK0uAaaSWcCuAcaYdBiQsS78u+zeHRQgFXQmYBe4+efOH6ZQ/8tnYF2BjPhhh6se76uoB23g2k3+y3QKdBpM/UHBVdKUndUlZVlHDMHvy7L+BxqDyBEoeFnkGG2wVIPJCjqMRTf8sTnWZ5jMABpmHZB/Hw9WvyBeg4i+Vwm7LR3m+hhWbOx9oJoWKzJGPUxIgHxpgrQQxr75EphzAOrTQUzyhQRjfTCHgz3PJpO0TNV4Y0izFSl1x/vg6NfBr0dyjNTf5ZkdOC23vbjNZpmo3xmJGfmYet7/91l14MFyaeIv8PKCv9u3vOVa/n30iFUCT7f6xnJmUUYkg9LhSLy30cn0wxqp3V+I/xiluUr3hp5NhS3UT5HJJ8QF5Ok3wh/PnsYhGAhVoby6j+DIQhY61iYQRgFmfbfjxevIwciB7o50G+Fn2k7e7HVJSzNIkUORA7U50BQ+NlfLlLkQIgDW2TS2+z20Yo0Q3lv17Ai/vZWl7crd2K5IwfakANR+Nuw0mORIwfgQBT+2A4iB9qUA3tU+DGlrWNxVVY3mIyeI6OMdrKlL+NH2T32y0OJ6u+FWBa/7j05jrhtuNlz0az7/Gexo8DEd74s/bDn6A8kb7zMbLg/5GdP5CGo8Mtn5FNzn3GAHgfsOzRZ8Y3uLbPZmhuSRW/yzPRdu/OeMO/ZZHPXzmTfYXslT005xsUp+qEhLO0jGs9gtLwq4lefw3us1JppqYY9/1dlmYlN//tkCcd+g/jQXylHHoht2I7Xfvf76lv/SG0fhqnsY8uWuW3J+1yePiSwQTsOPybT8namypHfBB8mbdq2MzGhN6bh12ZhnBF8CBAQC3cBLfrBDHOxIKQGK1JOM9mGcQy2Eyd4G1z2Nf2ZMqr6kgysnpQl5lJtl3atPBpB8sGqDqIj+IC8I9mOHCcdAFmmy4Qb2/lIe5YDlcJvSD5suZ0n2467KDz/DHuus+MujYEdZFcK9sknGuapcuT4oJBVzpaTju9ht3jRouTTGkFGqQGfKGcRttOG2NabHWmN2O6aHXN5B/GwLWeHX4idcT8vtKCr5YXXITQh7rO5pxENEndcds5lG6+pU6Y4s1C7X5Y/ixM68xw7yh4s82V2qsW+3GiKHIuukoBcoJ1k3y+X08/JKYkyQZikHnP00YkwDZydPHy5SCbJTLP9+1g1Eo8lFEInPAG3k+0h8pdgmm+gmtwjHp5tUBFPuVe3rNNkt4+AGx2u3ZbZqlt+9S6IZRnbmJur7be1zTpLA0ywQ0THQRvxiXLNmjWrtGzULW0Hj9APyQ0XZB+rz3Fy4vqw3HXPlzuvQET8pN1GrdT1kfLyZNNWo6o6u0LlOEW+KQcKBcrKas8OlHOl8FMQE2I7W+FOvWtNwlGHWJPTcDk/JO+ub8kaD4guI7zhvi7HDyHrJI/ITHe0hJMts7Hjxt0XRw8cd1aq4eI8w758eNL9RwJi0F54lWHmi4HQr9TomHreJOcOq3BstVnr8Z36QTWW8ePHO6tAQ5T9oRBmAaS8UXu6AzX1R3VOjFJQWf6sDKEzaZPGGXIuYcfhM9WpTZ40ye1XT3yWPvDhuOOOSx7VyMmoTFnpxCgfzi3sMX/dtdcmAqJwnnIXT5jgXmX3afg/lichHmwAaf5CeWfrc/hMnMslfBDCQHrbZWtfxtNGyop/PI4vjPqs+fHbR8CBPsPZCRdnYNiMwGRg2cFAECLg2FhKmCs3dul0hnj3lZWNusUP5L9qD/DpZNUtvh3z5DEKBBidAZ0SbdCIvPGehYp/qXhOB8PspE6dAVZ6kephqbAJQ/4K9o5+fVaD6EWg4GwW5JYdhs7jn7nHfz+OhRHeuXaDO5brbHF+J0gtMSLV9tlZmPyzHeINcdRgHMSXfPZTjrXr1rn4d99zT7q6B0lFwpyuEzqMpcn5Z4LfAvqLa+CxeAcIMhZn5qxZ2TtumzPHwYZtFDoL99e/+moqu/NU+Gzuv8AcUtCFLA9zhepCem8I1qksf/ausvObmzenL770UqrOy6X56yVL3DsF653KeyzLL/FAoNHe8um/XnnFxQUOy9LufOIJF6ZpdHb/3vvuy+5bvNc3bnR8+K7Ko8bp7hNGeeBTGU/LyrpG8Fr2DjuTF3lFpnKccUg+i4TExD0/rxaXM/Brc4TQZGH5NIFXA4KL++qIHWSaxeUcKht1C8ya1S3xQHO6fubM7D3UK3XN8yAsqRNKXxZMGHGpY/mPpJopZvHL6kyzkSyen7f+eJ3nr+Wx1sivBpON/lwbsabnyCP5XHT/uoTjAh1G9PQ43JhvNuGG3MP1I0uWOACHcePGJRxMj6EX5IcNwspP5TP+oHpoppVM1wXD5O77P6pIN+L4231/ZPRoP0qCQ49NQfEfwJNwq2YMzEiYTuOiKkgwdzAlhwgvy1+vF+T+4NGGz8Fhcvc9Qq7DX+wxWWZENvL5wKiI95s/MhqCEfHN18G/729/zRRfMFNu2YPnIlPZ0LS0jKeNlnW0eLxcKD1/V119Rcq/C+Xey4yNcIjR24ilDCMry64iukSm2la/1DngHlBV2UDesbqlPgFX8Xl3sJZV52hJYSN1HskH1J4uPVenznyeF5Wjv4fXEn6b7t92ZrjCfjnhSFfOVdN66wVWThmblR9/atBe0f4a0ViMmO4xtXtJ01I71EM5/37igObylDa7eHrVquQEoaZeqiUA00qfPimffKb+y4XkYwSsVB1CYYg/Pp2MRmh38H4ONNlV+St6x2+03r9TU0Q+dW1Q2f+0cuVuUengfNII1Wvr8L/pv9E/euLCzxD9QAi0TOvhk2YObklBBxeiIp7WLSsISN8XmIfVA0KFvz6CJ/BU54lJZ8tSy8iujxozxoJ2O4MNQOcG0Atozhf3CH8jZaM+QYm25QMvoeNhwxS/493t5QqoU2eh5wZaWKXwm+BTsFM+OjKbARBuxxEHdWPSg+RjYZxHDFNADwGNTc+K8ofG3il0lVu0LjU6TSPib7UmZt1IB8E6b4xGQL5J02A+MXasW1cyYqGQo4e3HtzSoEGdJ+8+Ropv6j2MQLj51iVGTEZK1o6sxWcIjhtFHY2lLH9l6e8Qyo/WVW6dCxiJrxyz54CrotyMkOgowBE8WXoNo+u1lgcTn5FPyLgOyUhTWrvd67xTeSW/6D1QrM0WWEqIynhat6yMtEBe8XkPvQp2BABo8G4QfCCQkkA2QsnISIyy9Vwh7JSNnHyVOF11MU24EuhlqHOobtlcZP2A7IS+hMEAyG7yMlFr+yqqU2dVaQyE+5XC36xCoABaICx1enSE92sayRFS++YMagpKKhoPDRsIp8mTJztsdLT8CCaKLjTm12l0o1HT+CBLgzOQYFrnOwE4Ue69N918c6/7NMwiukEKPxotXwtYXizRUoSGyzNl+StKj3DybViFTPv317duyPLMNR2WUGNdZ8dZa3wHYMI9CCUmGnC+WjCd5msBz1sadiYuSER0XB9XR3iWlIx0XiEq42ndsvJeFGkva6bErIvZyAMLFyYPaElGRw+h/DtJdYsmHq37CC39fqLyVRFemiy3WAIYlZWNvOTrVnqT5DQpkL+sLynkDyy+O6TQJV4ovr2nTp1Z3IF8DiL5IJitJKaLgHPkK8veych/oITcUH0sHAy3TdL8s3YLEWs1kHz4lszUlRFwkqahdDiPd3aGHgmGsUZGe2ydSz6Snz+mpXzOKiKmsKw7i1Bh+PyENpyGigYevpgw88yhgpHiKwF6kDpoRpaPumg3VTz1y0ra4PKZYNu7OJPXLmnTi+qGslE/oWeL0vTT96/rls2eaXcknyL+1rLwMyY261y0BrX0fYWdhXGmMyhqXNwHMWakQDz4Zo7AsebdJh3And63fOJVEcuJIsHnWT9/7nORpuNFhJ4DAlykisreWQfNyE+/LtpNFU/9svrp568pX1kZy8qWT6vqf92yWTosERuF8OLZsvJY2gP5vEeEv5UMY8qPggiwRrS5gEiWrS/7mhdASDneKV0l8E++goSIrxFMoUEsjhQ50GwODDrhh0Eg8XIMBOKzYhGxLGJ770iRA63gQFD4mTpHihwIcWCLZinNbh+tSDOU93YNK+Jvseq7XTkVyx050CYcCI78ftm370yT029/Olnz+lY/uPT6D5cdmxz6vu5v/6UR483IgciBPcaBSuF/c9sOJ/hrcvvuOSNxfnooTbvNVYdqnTpC23Qtf3FzcuLo7m/aFieeIwciB/oPByqn/W/3+F0Pl0Aj1HawD99+79l1jNxnWMLB/fuf/ncy4e5nklue+GdWUqzb2O3U34cvu9mkC77vY74Zac9wAJuHuXPnOlNmvi3nie/t2ESUbabCM62sx1amnS9vf/9fKfyNFgDB/86SdcnbmhW8sHFb9jiGK3ZkgU2+wAcb67ZI7z4HMDtmj8K7ZcXJnnoYLpkdP7nBvJYNVDG5te23i3LZynpsZdpF5emv4ZXC3zPw18q/L/jnHTMqufXsw7PnMMzAdt9svrMb8WLAcwBgDkyS8bcHZIUdj/FUBIQEYqTHQpE9/kI7LA94BgzQAlQKv1+uLdvfdmt5P8yu84L/vfHd7px2nykfXlY4qEAALrB/G/u00zAAcKhDOJLgqoo1Hw1M/tnBxxhp2G0VoAlMSqcIlQdvM+hS7eLLnvKflXcg1nyY8xIGCgyjE34I7OwKsANxyCOdFg5JkXbnAPYI+BvgwwBhNdjR0eHMkfm/adOm5JprrnFuunWt5nDool1gAAUakb9UoJNhWzaMoJhtAGZihBOVMBmcYRRWhWzTXYQaZM+07bkXkof+AObh0yubuxxwx04t/s+9669px49+nz66ZqMfJb3vLxvSw25c4eJNf2hN+pY+ETz32tZ0/VtdWTwJntMRdnZ2prLtdwATcppxwBkCdXTAC7Izz+KHLtSIHHCHPONSQXylcvRwgAya6rvoMuN0QBX8AWxBiD+pPPTSRYsWpWooqdajLp4cNxzAx+zZs1NNTbMw4ixcuDBdtmxZKqtABw6xYMECl4as7FK5q7q47fwjZ5vC4svrMH344YcdIArAGNLv7BYXoA7BjvUKz6dJPco6M9VeiyntBbAT4RiktCHqU+66KUAw0jGkgixzbWnFihUuTdqGhD7V4OLeLzdxBxLDs5DfRlxAG/zk+WtFxt20F5UJ/yX3PusEnA5g6do33HO+4E9b/Hy6Q51El35A9Hn5zW1Z2r7wC0rKdQRU4KtC02mU5LCTylEkleurSwdhhUIVK9v6VDBfDh1Ho7+Lh/DLl91d2w9hGv3tb6q95FPNHLL/dDRSWGb/2/WiqCHBj3nz5qWazbk6EeSa69jzfKor/AJVyR4VvoFLU8rcdMaMGalmYdk9LjRbSwUf5sJAQQL5yEhu0u5ZzeJcUKiNWNzBei6qs9rTfunrkvnnj0lO+pgAC/Xtf9KDzyVXL30hU+51r/GPSPDph9uQVHzdF7lf0Hzmz5/vdtEVBJeb3lUpgUgCr7BpwsNjOsdUnq8HEN57eULxhGswDh0sE/CFB8PNiPfmyd+2m+WA7wzC1F+NI/9I/O9xACCPVQIRwesOrMCpU6d6dxu79HH/WEKwFFu9erXTJ/joPKTKf/QMGmAceIePjEQ7wVOS+5F6c6BS+P3mvo8k+3avA7hj5Xqn1T9vLMq9bsEn+ToyMnHiROdqq17drdsmyFdfs4Deucv9Y72v0SXR1NKhsuCfHSKEHDyASwQpBWQUnxmxkUeAIzWfA5p5JTcLN8EIr01QgkDiCUGIWbyyM8AfRnw2BKEJZSFOTv494vCfcNB7gA6jTRnhSozOITpHGUd2nSuFf1fU7iu/AyDECf5ZuwSfsLRn7Ge2ECKtzxzwAyg7zAJQ7Gg6Vom9j9KQ0ZdPhnzSYwOIEBHHDmYLWrcnNNBIreEASlVQe9HuI2ggEXGNUi6PtlQ3ByDvPi60JwQbZS0Qa6BBoYglXMtTh3yEXQHKYsIhvuODYkwboxMAEIZnyxyo6uZpsMWrLfz+aG4dwFWnjE5uzQk+OQcg7AAAAg9JREFUDPLjhhgGPDWaeDSxaO2BtmJEr/L55hk26QBphs9GNLq87QD/mSIC3wQKD58Y+QzFM0XgIaE8EreR+KE02iXsWIGt3imEHPY8oA7xqERLz9IrT/n6yt+3/8wcgAVntEfTj0aftsJSj44FxCfgvegk6AjAf4RAg+IaCHiepQNgkPFnfeQhkpblGiH9mX0yZ86c5DJhpxmtf2t7cvxtf06ev+IzbgXvR7YnLYz/e4mva1/bmpzx81XJyunHJofsV2zjD4oM07JRPcg8fFpbvHixvXq3M5s38HmwCBUn/wAzBUYiSz9/P/5vnAPgDNLxFhFLN3QldMB1qShN2gfLtiLwFxChiu5R9yz/6n5arJvXgRiviL+Vtv37D8dsd2hy1E1PJkM0TxiSCv+M+YIEfcheqYRd//XXHUO6u4Gt/0uTg/TcAcP3LuUV34N9waSi/e+5+YcbQcXhWZYSfvr59OL/5nMgpEh9p2+hfRQJN2mW3aPuo+CXc75S+Idrw81Vlx+fdO2w8b13gkUzqH2Gatrc4OwK3D2OSJEDkQOt50Cl8JOFoZLwEXs3KMmtz3t8Q+RA5EAfOBAUfvayixQ5EOLAFgGSNrt9tCLNUN7bNayIv7W1/e3KuFjuyIHByoEo/IO1ZmO5IgcqOBCFv4JB8XbkwGDlQBT+wVqzsVyRAxUciMJfwaB4O3JgsHLg/yRuauet+l60AAAAAElFTkSuQmCC;" vertex="1" parent="WIyWlLk6GJQsqaUBKTNV-1">
          <mxGeometry x="500" y="1040" width="141.24" height="298" as="geometry" />
        </mxCell>
      </root>
    </mxGraphModel>
  </diagram>
</mxfile>
